<?xml version="1.0" standalone="no"?>
<!DOCTYPE svg PUBLIC "-//W3C//DTD SVG 20010904//EN"
 "http://www.w3.org/TR/2001/REC-SVG-20010904/DTD/svg10.dtd">
<svg version="1.0" xmlns="http://www.w3.org/2000/svg"
 width="930.000000pt" height="1280.000000pt" viewBox="0 0 930.000000 1280.000000"
 preserveAspectRatio="xMidYMid meet">
<metadata>
Created by potrace 1.15, written by Peter Selinger 2001-2017
</metadata>
<g transform="translate(0.000000,1280.000000) scale(0.100000,-0.100000)"
fill="#000000" stroke="none">
<path d="M4645 12786 c-302 -44 -575 -181 -766 -383 l-65 -69 -59 28 c-64 29
-212 79 -285 97 -138 32 -175 36 -390 36 -196 0 -239 -3 -335 -23 -274 -57
-543 -176 -825 -364 -307 -206 -479 -394 -638 -696 l-59 -113 -84 -50 c-365
-218 -668 -577 -875 -1039 -132 -297 -224 -651 -255 -984 -19 -206 -1 -512 46
-781 65 -370 262 -974 443 -1355 30 -63 71 -151 93 -196 105 -223 357 -660
570 -990 394 -611 968 -1376 2089 -2784 191 -239 364 -462 385 -495 21 -33
164 -274 318 -535 274 -467 369 -618 393 -627 15 -5 22 -42 30 -160 8 -114 3
-138 -35 -151 -31 -11 -121 -88 -121 -103 0 -5 21 -19 48 -33 l47 -24 3 -89
c3 -73 0 -93 -13 -107 -9 -9 -20 -16 -25 -16 -5 0 -25 -21 -45 -46 l-35 -47 0
-246 c0 -200 -3 -251 -15 -275 -11 -21 -14 -45 -9 -92 6 -58 17 -80 26 -54 2
7 15 5 35 -5 28 -14 71 -15 390 -6 197 6 375 15 395 21 55 16 65 62 45 190 -9
52 -21 176 -27 275 -7 99 -14 184 -17 190 -4 5 7 -2 23 -17 16 -15 46 -34 67
-43 32 -13 41 -13 70 -2 93 40 221 245 268 430 6 26 15 47 19 47 4 0 9 -53 12
-118 l4 -119 39 -46 40 -46 23 23 c22 21 24 34 30 172 9 212 8 223 -16 286
-15 39 -22 80 -22 128 0 40 -6 86 -15 107 -12 28 -13 48 -5 97 9 60 43 450 76
876 l16 215 36 50 c73 103 318 399 538 650 695 794 956 1118 1420 1765 398
554 821 1191 1013 1525 274 476 484 1050 576 1576 46 264 59 416 60 699 0 282
-8 371 -52 570 -98 448 -316 857 -629 1180 -88 91 -93 99 -118 180 -55 175
-183 405 -335 600 -86 111 -300 325 -426 427 -438 352 -816 495 -1310 496
-196 0 -351 -17 -496 -56 l-87 -23 -78 79 c-189 191 -421 321 -674 378 -112
25 -326 33 -445 15z m-825 -10151 c45 -7 267 -89 285 -106 12 -12 -72 -1 -162
22 -71 18 -150 53 -188 84 l-20 16 20 -5 c11 -2 40 -8 65 -11z m1804 -175
c-33 -412 -81 -900 -89 -908 -2 -2 -6 27 -10 64 -6 51 -2 97 14 188 30 170 49
350 71 660 10 132 16 175 25 164 1 -2 -4 -77 -11 -168z m-199 114 c-74 -26
-148 -40 -260 -48 -102 -9 -62 7 95 38 74 14 144 27 155 30 11 2 34 4 50 4 22
0 11 -6 -40 -24z m171 -111 c-46 -586 -95 -836 -197 -1010 -48 -80 -162 -194
-228 -226 -68 -33 -147 -36 -228 -7 -31 11 -57 21 -59 22 -11 12 -14 123 -4
154 7 21 120 200 252 398 237 356 345 530 423 679 22 42 42 77 44 77 2 0 0
-39 -3 -87z m-791 61 c97 -7 105 -8 65 -15 -143 -26 -499 -25 -570 0 -24 9
-23 10 10 11 19 2 82 6 140 10 105 7 149 6 355 -6z m659 -1111 c39 -63 39
-123 -2 -268 -60 -214 -137 -376 -219 -461 -116 -121 -223 -30 -334 284 -24
69 -29 100 -29 173 0 79 8 106 24 80 12 -18 135 -44 180 -38 98 14 214 99 301
220 22 31 42 56 45 57 3 0 18 -21 34 -47z m-640 -21 c4 -32 1 -63 -8 -88 -10
-31 -12 -89 -8 -274 2 -129 2 -232 -2 -229 -3 3 -14 47 -25 98 -16 77 -24 98
-51 126 -31 31 -31 34 -19 73 10 35 10 45 -5 66 -9 15 -16 46 -16 76 l0 50 38
0 37 0 -3 60 c-5 75 1 90 31 90 22 0 25 -6 31 -48z m-334 -32 l0 -69 33 -5
c17 -3 48 -7 67 -8 l35 -3 -4 -50 c-2 -27 -9 -54 -17 -60 -17 -12 -13 -117 5
-123 23 -8 12 -80 -21 -133 -34 -56 -41 -54 -52 19 -3 24 -16 63 -27 88 -17
35 -19 47 -9 58 6 8 10 30 8 48 -2 26 -10 36 -35 48 -31 14 -33 17 -33 74 0
87 19 186 36 186 11 0 14 -17 14 -70z m-115 -279 c-7 -22 -30 -27 -53 -12 -11
6 -7 13 14 30 31 24 50 15 39 -18z m580 -263 c6 -15 2 -18 -29 -18 -36 0 -36
0 -36 44 0 23 -2 72 -5 107 l-6 64 34 -90 c19 -49 37 -98 42 -107z m-335 -23
l0 -55 -35 0 c-45 0 -46 18 -2 70 17 22 33 40 35 40 1 0 2 -25 2 -55z m-403
-737 c-3 -8 -6 -5 -6 6 -1 11 2 17 5 13 3 -3 4 -12 1 -19z"/>
</g>
</svg>
