<?xml version="1.0" standalone="no"?>
<!DOCTYPE svg PUBLIC "-//W3C//DTD SVG 20010904//EN"
 "http://www.w3.org/TR/2001/REC-SVG-20010904/DTD/svg10.dtd">
<svg version="1.0" xmlns="http://www.w3.org/2000/svg"
 width="640.000000pt" height="1280.000000pt" viewBox="0 0 640.000000 1280.000000"
 preserveAspectRatio="xMidYMid meet">
<metadata>
Created by potrace 1.15, written by Peter Selinger 2001-2017
</metadata>
<g transform="translate(0.000000,1280.000000) scale(0.100000,-0.100000)"
fill="#000000" stroke="none">
<path d="M3158 12769 c-23 -49 -36 -171 -54 -529 -12 -241 -19 -322 -31 -345
-9 -16 -21 -41 -29 -55 -38 -72 -45 -134 -74 -628 -6 -101 -17 -218 -24 -260
-18 -105 -67 -247 -126 -368 l-49 -101 -98 -66 c-54 -36 -114 -70 -134 -76
-20 -6 -85 -15 -145 -19 l-109 -7 -8 -200 c-4 -109 -12 -217 -18 -239 -10 -39
-32 -65 -97 -118 l-33 -27 8 -467 c9 -529 18 -470 -80 -503 l-50 -17 2 -125
c1 -68 6 -270 11 -449 28 -933 42 -4719 18 -4721 -7 0 -60 -6 -118 -12 l-105
-12 -16 -362 c-19 -417 -25 -493 -45 -585 -23 -102 -70 -138 -184 -138 -25 0
-62 -3 -82 -6 l-38 -7 -2 -556 -3 -556 -67 -17 c-59 -14 -191 -28 -527 -54
l-73 -6 6 -161 c3 -89 11 -340 17 -557 5 -217 12 -401 14 -408 4 -9 489 -12
2384 -12 l2379 0 6 72 c8 99 29 1079 23 1085 -3 2 -152 10 -332 18 -179 7
-329 16 -332 19 -4 4 -10 251 -14 549 -4 298 -8 543 -8 545 -1 1 -29 2 -63 2
-69 0 -174 15 -225 31 l-33 11 0 532 0 533 -114 6 c-140 7 -168 18 -179 72 -5
22 -13 924 -17 2005 -8 1889 -15 2378 -41 3038 -14 339 -6 310 -96 332 l-53
12 -1 216 c0 310 -13 548 -29 567 -8 9 -30 25 -50 35 -40 20 -55 49 -63 118
-3 25 -18 61 -34 84 l-28 41 -2 196 -2 196 -85 12 c-109 16 -148 36 -223 117
-86 91 -126 168 -167 321 -63 235 -85 413 -86 690 -1 197 -15 255 -102 410
-22 39 -23 49 -30 460 -3 231 -10 433 -15 449 l-9 30 -16 -35z m-68 -1500
c-37 -556 -37 -559 -57 -559 -13 0 -14 9 -9 53 3 28 22 252 41 497 35 429 40
478 50 468 2 -2 -9 -209 -25 -459z m120 414 c0 -27 18 -253 39 -503 36 -434
37 -481 11 -465 -4 2 -10 51 -13 107 -4 57 -18 263 -32 458 -28 394 -30 450
-15 450 6 0 10 -21 10 -47z m-41 -750 c1 -161 0 -173 -17 -173 -17 0 -18 17
-15 343 4 448 16 557 24 237 4 -129 7 -313 8 -407z m52 -429 c63 -6 66 -8 87
-45 12 -21 22 -40 22 -43 0 -2 -15 0 -32 5 -62 17 -193 22 -262 9 -37 -7 -69
-10 -72 -7 -4 3 4 24 17 46 l23 41 75 0 c42 0 105 -3 142 -6z m214 -175 c9
-17 14 -33 11 -36 -3 -3 -39 0 -81 6 -96 14 -340 14 -440 0 -42 -6 -79 -8 -82
-5 -3 2 3 18 13 35 l18 31 273 0 272 0 16 -31z m287 -161 c15 -28 26 -53 24
-55 -2 -2 -64 2 -137 8 -74 7 -282 12 -464 12 -181 0 -390 -5 -464 -12 -73 -6
-135 -10 -138 -7 -2 2 4 27 14 55 l18 51 560 0 560 0 27 -52z m-98 -149 c99
-11 126 -32 126 -94 0 -46 -17 -105 -30 -105 -5 0 -11 13 -15 29 -8 39 -40 71
-71 71 -15 0 -42 -16 -68 -40 -42 -39 -66 -50 -66 -31 0 5 -15 26 -34 45 -44
48 -78 48 -122 0 l-34 -35 -42 35 c-75 64 -143 58 -183 -17 -11 -20 -23 -37
-26 -37 -3 0 -19 20 -36 44 -57 80 -142 70 -186 -21 -12 -26 -27 -48 -33 -50
-6 -2 -19 14 -29 36 -33 74 -91 104 -160 81 -39 -13 -49 -27 -59 -83 -13 -73
-64 -53 -87 34 -19 72 6 102 111 131 90 24 850 30 1044 7z m-240 -277 l98 -17
29 -79 c16 -43 28 -80 27 -82 -2 -1 -41 8 -87 22 -174 50 -365 51 -588 3 -52
-11 -98 -18 -101 -14 -10 10 27 139 44 151 8 7 61 17 117 24 56 6 109 13 117
15 31 8 249 -7 344 -23z m-1005 -467 c3 -380 2 -405 -14 -405 -17 0 -17 24
-13 393 4 334 8 417 21 417 1 0 4 -182 6 -405z m81 0 c0 -370 -1 -405 -17
-405 -15 0 -16 31 -9 397 7 367 9 413 22 413 2 0 4 -182 4 -405z m82 -143 c3
-237 1 -262 -13 -262 -15 0 -16 33 -12 383 2 210 7 393 11 407 7 26 10 -80 14
-528z m87 143 c4 -398 3 -405 -16 -405 -19 0 -20 6 -16 128 1 70 4 247 6 393
3 226 8 289 20 289 1 0 4 -182 6 -405z m1081 -10 c0 -352 -1 -385 -17 -385
-15 0 -16 29 -9 376 6 345 8 394 22 394 2 0 4 -173 4 -385z m80 0 c0 -346 -2
-385 -16 -385 -14 0 -15 36 -9 378 7 352 9 392 21 392 2 0 4 -173 4 -385z
m170 0 c0 -351 -1 -385 -16 -385 -16 0 -17 31 -12 374 5 336 9 396 24 396 2 0
4 -173 4 -385z m-87 -7 c6 -377 6 -378 -15 -378 -18 0 -20 4 -15 38 4 20 7
188 7 374 1 288 4 359 15 346 1 -2 5 -173 8 -380z m-933 -2583 l0 -2825 -30 0
-30 0 0 388 c0 1454 22 5115 31 5167 12 68 19 95 24 95 3 0 5 -1271 5 -2825z
m164 -2 l7 -2823 -35 0 -36 0 6 1148 c3 631 10 1878 14 2772 7 1253 11 1637
21 1677 7 29 14 51 15 50 0 -1 4 -1272 8 -2824z m387 2 l3 -2820 -33 -3 -34
-4 6 984 c4 541 9 1775 12 2743 5 1565 8 1769 22 1843 9 45 17 81 19 80 1 -2
4 -1272 5 -2823z m-162 -9 l3 -2816 -31 0 -31 0 0 653 c0 358 4 1595 10 2747
9 2025 13 2251 39 2235 4 -2 8 -1270 10 -2819z m-674 2002 l70 -24 7 -429 c17
-1107 27 -2658 21 -3536 l-6 -965 424 4 c233 2 426 6 429 9 11 10 4 2264 -9
2843 -16 688 -18 1728 -5 1940 l9 135 70 24 c98 34 264 36 345 3 30 -12 61
-26 68 -31 33 -21 32 -7 62 -1561 19 -958 24 -2670 10 -3170 -7 -245 -14 -548
-15 -674 -2 -125 -7 -232 -12 -236 -4 -5 -99 -10 -211 -12 -196 -3 -203 -2
-207 17 -3 11 -8 121 -12 245 l-8 225 -516 3 -517 2 -7 -22 c-4 -13 -10 -125
-12 -249 l-5 -226 -194 -7 c-107 -4 -198 -5 -202 -2 -12 7 -23 5270 -13 5471
5 88 12 167 15 175 8 19 56 46 116 65 68 22 217 14 305 -17z m174 -6854 l1
-1012 -22 -6 c-13 -3 -32 -6 -42 -6 -19 0 -19 14 -12 602 21 1815 24 1912 43
1953 18 38 18 38 24 -241 4 -153 7 -734 8 -1290z m220 -201 l1 -812 -36 -7
c-19 -3 -39 -3 -42 2 -4 5 -4 243 -1 529 3 286 9 846 13 1245 7 721 7 725 29
768 l22 43 6 -478 c3 -263 7 -843 8 -1290z m296 -811 c-2 -2 -22 -6 -45 -9
l-42 -6 6 299 c3 164 11 733 18 1263 11 952 11 965 32 1000 l21 36 7 -1290 c3
-710 5 -1292 3 -1293z m219 0 c-1 -2 -21 -6 -44 -9 l-43 -6 7 469 c4 258 11
827 17 1264 10 790 11 795 32 830 l22 35 5 -1290 c3 -710 5 -1292 4 -1293z
m-1544 2059 c0 -78 0 -79 28 -84 15 -3 134 -20 265 -38 l237 -33 0 -953 0
-953 -44 0 c-84 0 -77 -90 -69 856 l6 844 -35 0 -35 0 -6 -407 c-4 -223 -7
-553 -7 -732 0 -179 -3 -377 -7 -438 l-6 -113 -40 0 -40 0 7 850 8 850 -35 0
-34 0 -7 -497 c-3 -274 -9 -657 -12 -850 l-7 -353 -40 0 -40 0 5 850 5 850
-34 6 c-19 4 -36 5 -38 3 -2 -2 -8 -382 -15 -844 -6 -462 -13 -846 -16 -852
-2 -8 -22 -13 -54 -13 l-50 0 0 1065 0 1065 55 0 55 0 0 -79z m2400 -986 l0
-1065 -55 0 -55 0 0 148 c0 214 -22 1556 -26 1561 -2 2 -19 0 -38 -3 l-34 -7
5 -849 6 -850 -40 0 -40 0 -7 372 c-3 205 -9 588 -12 851 l-7 477 -35 0 -35 0
8 -851 7 -850 -43 3 -44 3 -2 340 c-1 187 -5 566 -9 843 l-6 502 -36 0 -35 0
4 -847 4 -848 -57 -3 -58 -3 0 953 0 954 238 33 c130 18 249 35 265 38 27 5
27 6 27 84 l0 79 55 0 55 0 0 -1065z m-2585 -363 l0 -713 -148 0 -147 0 0 710
c0 391 0 713 0 716 0 3 66 4 148 3 l147 -3 0 -713z m2995 1 l0 -718 -147 2
-148 2 -3 703 c-1 387 0 709 3 716 3 9 43 12 150 12 l145 0 0 -717z m400 -419
c140 -9 258 -20 261 -23 4 -3 -1 -66 -10 -139 l-16 -133 -245 0 -245 0 -12
128 c-15 169 -15 183 0 183 6 0 127 -7 267 -16z m-3803 -101 c-4 -54 -7 -119
-7 -146 l0 -47 -262 2 -263 3 -10 128 -10 127 30 1 c17 0 118 6 225 13 107 7
219 14 249 15 l54 1 -6 -97z m4037 -305 c-2 -24 -11 -164 -20 -313 -8 -148
-17 -272 -20 -275 -3 -3 -1015 -7 -2248 -8 l-2243 -4 -6 149 c-4 81 -10 226
-13 321 l-7 172 2280 0 2281 0 -4 -42z"/>
<path d="M3911 8490 c-16 -74 -16 -213 -1 -2730 5 -839 10 -1769 11 -2067 l1
-543 35 0 36 0 -7 477 c-7 501 -18 1451 -37 3183 -6 569 -14 1195 -17 1390 -7
338 -8 352 -21 290z"/>
<path d="M3788 8530 c-30 -70 -31 -518 -2 -4458 l7 -923 31 3 31 3 -3 325 c-2
179 -7 678 -12 1110 -5 432 -14 1226 -21 1765 -6 539 -14 1252 -18 1585 -4
333 -10 598 -13 590z"/>
<path d="M2370 8478 c-9 -40 -14 -444 -20 -1673 -4 -891 -11 -2085 -14 -2653
l-6 -1032 35 0 35 0 -7 2703 c-3 1486 -7 2703 -8 2705 -1 1 -8 -21 -15 -50z"/>
<path d="M2516 8518 c-24 -79 -27 -258 -36 -2138 -6 -1103 -10 -2289 -10
-2636 l0 -631 30 5 30 4 0 2704 c-1 1487 -3 2704 -6 2704 -2 0 -6 -6 -8 -12z"/>
<path d="M2660 415 l0 -295 110 0 110 0 -2 293 -3 292 -107 3 -108 3 0 -296z
m90 150 l0 -95 -30 0 -30 0 0 95 0 95 30 0 30 0 0 -95z m100 0 l0 -95 -30 0
-30 0 0 95 0 95 30 0 30 0 0 -95z m-100 -275 l0 -130 -30 0 -30 0 0 130 0 130
30 0 30 0 0 -130z m100 0 l0 -130 -30 0 -30 0 0 130 0 130 30 0 30 0 0 -130z"/>
<path d="M2927 703 c-4 -3 -7 -136 -7 -295 l0 -288 110 0 110 0 0 295 0 295
-103 0 c-57 0 -107 -3 -110 -7z m83 -138 l0 -95 -30 0 -30 0 0 95 0 95 30 0
30 0 0 -95z m100 0 l0 -95 -30 0 -30 0 0 95 0 95 30 0 30 0 0 -95z m-100 -275
l0 -130 -30 0 -30 0 0 130 0 130 30 0 30 0 0 -130z m100 0 l0 -130 -30 0 -30
0 0 130 0 130 30 0 30 0 0 -130z"/>
<path d="M3190 415 l0 -295 105 0 105 0 0 295 0 295 -105 0 -105 0 0 -295z
m88 153 l-3 -93 -27 -3 -28 -3 0 95 0 96 30 0 31 0 -3 -92z m102 65 c0 -16 -3
-59 -7 -96 -6 -66 -7 -68 -32 -65 -32 4 -35 19 -26 115 7 72 7 73 36 73 25 0
29 -4 29 -27z m-100 -343 l0 -130 -30 0 -30 0 0 130 0 130 30 0 30 0 0 -130z
m100 0 l0 -130 -30 0 -30 0 0 130 0 130 30 0 30 0 0 -130z"/>
<path d="M3450 415 l0 -295 105 0 105 0 0 295 0 295 -105 0 -105 0 0 -295z
m90 150 l0 -95 -30 0 -30 0 0 95 0 95 30 0 30 0 0 -95z m98 3 l-3 -93 -30 0
c-26 0 -30 3 -29 28 0 15 1 56 2 92 l2 65 30 0 31 0 -3 -92z m-98 -278 l0
-130 -30 0 -30 0 0 130 0 130 30 0 30 0 0 -130z m100 0 l0 -130 -30 0 -30 0 0
130 0 130 30 0 30 0 0 -130z"/>
<path d="M990 610 l0 -60 40 0 40 0 0 60 0 60 -40 0 -40 0 0 -60z"/>
<path d="M1120 610 l0 -60 40 0 40 0 0 60 0 60 -40 0 -40 0 0 -60z"/>
<path d="M1250 610 l0 -60 40 0 40 0 0 60 0 60 -40 0 -40 0 0 -60z"/>
<path d="M1370 610 l0 -60 45 0 45 0 0 60 0 60 -45 0 -45 0 0 -60z"/>
<path d="M1500 610 l0 -60 40 0 40 0 0 60 0 60 -40 0 -40 0 0 -60z"/>
<path d="M1630 610 l0 -60 40 0 40 0 0 60 0 60 -40 0 -40 0 0 -60z"/>
<path d="M1760 610 l0 -60 40 0 40 0 0 60 0 60 -40 0 -40 0 0 -60z"/>
<path d="M1890 610 l0 -60 38 0 37 0 -3 60 -4 60 -34 0 -34 0 0 -60z"/>
<path d="M2020 610 l0 -60 40 0 40 0 0 60 0 60 -40 0 -40 0 0 -60z"/>
<path d="M2140 610 l0 -60 40 0 40 0 0 60 0 60 -40 0 -40 0 0 -60z"/>
<path d="M2270 611 l0 -61 38 0 37 0 -1 57 -2 58 -36 3 -36 3 0 -60z"/>
<path d="M2400 610 l0 -60 40 0 40 0 0 60 0 60 -40 0 -40 0 0 -60z"/>
<path d="M2528 610 l-3 -60 40 0 40 0 -3 60 -4 60 -33 0 -33 0 -4 -60z"/>
<path d="M3760 600 l0 -60 40 0 40 0 0 60 0 60 -40 0 -40 0 0 -60z"/>
<path d="M3890 600 l0 -60 40 0 40 0 0 60 0 60 -40 0 -40 0 0 -60z"/>
<path d="M4020 600 l0 -60 40 0 40 0 0 60 0 60 -40 0 -40 0 0 -60z"/>
<path d="M4140 600 l0 -60 45 0 45 0 0 60 0 60 -45 0 -45 0 0 -60z"/>
<path d="M4270 600 l0 -60 40 0 40 0 0 60 0 60 -40 0 -40 0 0 -60z"/>
<path d="M4400 600 l0 -60 40 0 40 0 0 60 0 60 -40 0 -40 0 0 -60z"/>
<path d="M4530 600 l0 -60 40 0 40 0 0 60 0 60 -40 0 -40 0 0 -60z"/>
<path d="M4650 600 l0 -60 40 0 40 0 0 60 0 60 -40 0 -40 0 0 -60z"/>
<path d="M4790 600 l0 -60 40 0 40 0 0 60 0 60 -40 0 -40 0 0 -60z"/>
<path d="M4910 600 l0 -60 40 0 40 0 0 60 0 60 -40 0 -40 0 0 -60z"/>
<path d="M5030 600 l0 -60 40 0 40 0 0 60 0 60 -40 0 -40 0 0 -60z"/>
<path d="M5170 600 l0 -60 40 0 40 0 0 60 0 60 -40 0 -40 0 0 -60z"/>
<path d="M5290 600 l0 -60 40 0 40 0 0 60 0 60 -40 0 -40 0 0 -60z"/>
<path d="M997 473 c-4 -3 -7 -33 -7 -65 l0 -58 40 0 40 0 0 65 0 65 -33 0
c-19 0 -37 -3 -40 -7z"/>
<path d="M1120 415 l0 -65 40 0 40 0 0 65 0 65 -40 0 -40 0 0 -65z"/>
<path d="M1257 473 c-4 -3 -7 -33 -7 -65 l0 -58 40 0 40 0 0 65 0 65 -33 0
c-19 0 -37 -3 -40 -7z"/>
<path d="M1374 466 c-3 -7 -4 -35 -2 -62 l3 -49 43 -3 42 -3 0 65 0 66 -40 0
c-25 0 -43 -5 -46 -14z"/>
<path d="M1500 415 l0 -65 40 0 40 0 0 65 0 65 -40 0 -40 0 0 -65z"/>
<path d="M1637 473 c-4 -3 -7 -33 -7 -65 l0 -58 40 0 40 0 0 65 0 65 -33 0
c-19 0 -37 -3 -40 -7z"/>
<path d="M1760 415 l0 -65 40 0 40 0 0 65 0 65 -40 0 -40 0 0 -65z"/>
<path d="M1890 415 l0 -66 36 3 37 3 0 60 0 60 -37 3 -36 3 0 -66z"/>
<path d="M2020 416 l0 -66 40 0 41 0 -3 63 -3 62 -37 3 -38 3 0 -65z"/>
<path d="M2140 415 l0 -65 40 0 40 0 0 65 0 65 -40 0 -40 0 0 -65z"/>
<path d="M2270 415 l0 -66 36 3 37 3 0 60 0 60 -37 3 -36 3 0 -66z"/>
<path d="M2400 416 l0 -66 40 0 41 0 -3 63 -3 62 -37 3 -38 3 0 -65z"/>
<path d="M2530 415 l0 -65 35 0 35 0 0 65 0 65 -35 0 -35 0 0 -65z"/>
<path d="M3760 410 l0 -60 40 0 40 0 0 60 0 60 -40 0 -40 0 0 -60z"/>
<path d="M3890 410 l0 -60 40 0 40 0 0 60 0 60 -40 0 -40 0 0 -60z"/>
<path d="M4020 410 l0 -60 40 0 40 0 0 60 0 60 -40 0 -40 0 0 -60z"/>
<path d="M4140 410 l0 -60 45 0 45 0 0 60 0 60 -45 0 -45 0 0 -60z"/>
<path d="M4270 410 l0 -60 40 0 40 0 0 60 0 60 -40 0 -40 0 0 -60z"/>
<path d="M4400 410 l0 -60 40 0 40 0 0 60 0 60 -40 0 -40 0 0 -60z"/>
<path d="M4530 410 l0 -60 40 0 40 0 0 60 0 60 -40 0 -40 0 0 -60z"/>
<path d="M4650 410 l0 -60 40 0 40 0 0 60 0 60 -40 0 -40 0 0 -60z"/>
<path d="M4790 410 l0 -60 40 0 40 0 0 60 0 60 -40 0 -40 0 0 -60z"/>
<path d="M4910 410 l0 -60 40 0 40 0 0 60 0 60 -40 0 -40 0 0 -60z"/>
<path d="M5030 410 l0 -60 40 0 40 0 0 60 0 60 -40 0 -40 0 0 -60z"/>
<path d="M5170 410 l0 -60 40 0 40 0 0 60 0 60 -40 0 -40 0 0 -60z"/>
<path d="M5290 410 l0 -60 40 0 40 0 0 60 0 60 -40 0 -40 0 0 -60z"/>
<path d="M990 230 l0 -60 40 0 40 0 0 60 0 60 -40 0 -40 0 0 -60z"/>
<path d="M1120 230 l0 -60 40 0 40 0 0 60 0 60 -40 0 -40 0 0 -60z"/>
<path d="M1250 230 l0 -60 40 0 40 0 0 60 0 60 -40 0 -40 0 0 -60z"/>
<path d="M1370 230 l0 -60 45 0 45 0 0 60 0 60 -45 0 -45 0 0 -60z"/>
<path d="M1500 230 l0 -60 40 0 40 0 0 60 0 60 -40 0 -40 0 0 -60z"/>
<path d="M1630 230 l0 -60 40 0 40 0 0 60 0 60 -40 0 -40 0 0 -60z"/>
<path d="M1760 230 l0 -60 40 0 40 0 0 60 0 60 -40 0 -40 0 0 -60z"/>
<path d="M1890 230 l0 -60 35 0 35 0 0 60 0 60 -35 0 -35 0 0 -60z"/>
<path d="M2020 230 l0 -60 40 0 40 0 0 60 0 60 -40 0 -40 0 0 -60z"/>
<path d="M2140 230 l0 -60 40 0 40 0 0 60 0 60 -40 0 -40 0 0 -60z"/>
<path d="M2270 230 l0 -60 38 0 37 0 0 60 0 60 -37 0 -38 0 0 -60z"/>
<path d="M2400 230 l0 -60 40 0 40 0 0 60 0 60 -40 0 -40 0 0 -60z"/>
<path d="M2530 230 l0 -60 35 0 35 0 0 60 0 60 -35 0 -35 0 0 -60z"/>
<path d="M3760 225 l0 -65 40 0 40 0 0 65 0 65 -40 0 -40 0 0 -65z"/>
<path d="M3890 225 l0 -65 40 0 40 0 0 65 0 65 -40 0 -40 0 0 -65z"/>
<path d="M4020 225 l0 -65 40 0 40 0 0 65 0 65 -40 0 -40 0 0 -65z"/>
<path d="M4140 226 l0 -66 45 0 46 0 -3 63 -3 62 -42 3 -43 3 0 -65z"/>
<path d="M4270 225 l0 -65 40 0 40 0 0 65 0 65 -40 0 -40 0 0 -65z"/>
<path d="M4400 225 l0 -65 40 0 40 0 0 65 0 65 -40 0 -40 0 0 -65z"/>
<path d="M4530 226 l0 -66 40 0 41 0 -3 63 -3 62 -37 3 -38 3 0 -65z"/>
<path d="M4657 283 c-4 -3 -7 -33 -7 -65 l0 -58 40 0 40 0 0 65 0 65 -33 0
c-19 0 -37 -3 -40 -7z"/>
<path d="M4790 225 l0 -66 38 3 37 3 0 60 0 60 -37 3 -38 3 0 -66z"/>
<path d="M4910 225 l0 -65 40 0 40 0 0 65 0 65 -40 0 -40 0 0 -65z"/>
<path d="M5034 276 c-3 -7 -4 -35 -2 -62 3 -49 3 -49 41 -52 l37 -3 0 65 0 66
-35 0 c-21 0 -38 -6 -41 -14z"/>
<path d="M5170 225 l0 -66 38 3 37 3 0 60 0 60 -37 3 -38 3 0 -66z"/>
<path d="M5297 283 c-4 -3 -7 -33 -7 -65 l0 -58 40 0 40 0 0 65 0 65 -33 0
c-19 0 -37 -3 -40 -7z"/>
</g>
</svg>
