<?xml version="1.0" standalone="no"?>
<!DOCTYPE svg PUBLIC "-//W3C//DTD SVG 20010904//EN"
 "http://www.w3.org/TR/2001/REC-SVG-20010904/DTD/svg10.dtd">
<svg version="1.0" xmlns="http://www.w3.org/2000/svg"
 width="1280.000000pt" height="987.000000pt" viewBox="0 0 1280.000000 987.000000"
 preserveAspectRatio="xMidYMid meet">
<metadata>
Created by potrace 1.15, written by Peter Selinger 2001-2017
</metadata>
<g transform="translate(0.000000,987.000000) scale(0.100000,-0.100000)"
fill="#222222" stroke="none">
<path d="M6420 9779 c0 -50 7 -118 15 -151 13 -47 14 -67 5 -94 -15 -44 -99
-151 -261 -329 -162 -180 -277 -291 -934 -905 -777 -727 -910 -854 -1301
-1244 -367 -366 -437 -445 -432 -480 6 -41 69 -61 211 -64 l127 -4 0 -1026 0
-1027 -191 -235 c-105 -129 -197 -241 -204 -249 -33 -34 -732 -55 -879 -26
-95 18 -184 57 -224 98 -55 57 -64 95 -73 294 -8 188 -29 302 -66 361 -15 23
-148 208 -160 221 -5 7 -125 -113 -200 -199 -74 -86 -133 -199 -164 -316 -17
-64 -22 -118 -26 -285 l-5 -206 -241 -269 c-430 -481 -597 -684 -719 -868 -91
-138 -90 -156 13 -217 39 -22 74 -50 78 -62 5 -12 14 -69 20 -127 10 -85 9
-170 -4 -445 -13 -262 -15 -409 -8 -640 9 -324 7 -408 -8 -436 -17 -32 -135
-109 -281 -183 -167 -85 -225 -108 -371 -146 -60 -16 -116 -35 -124 -42 -13
-11 -15 -32 -10 -138 9 -174 43 -286 101 -323 23 -16 483 -17 6326 -17 l6302
0 28 29 c55 55 52 116 -11 211 -79 117 -228 223 -584 415 -110 59 -210 114
-222 121 l-23 14 0 785 0 785 69 0 c61 0 73 3 102 27 41 35 59 79 59 144 0 94
-43 179 -91 179 -44 0 -132 156 -232 410 -135 343 -229 679 -247 885 -13 139
-45 264 -95 369 -27 57 -139 224 -231 345 -7 9 -297 -268 -341 -327 -116 -155
-143 -231 -143 -407 l0 -125 -389 0 -389 0 -5 23 c-8 33 -55 368 -66 477 -35
320 -62 886 -77 1602 l-7 318 193 2 193 3 -63 70 c-267 298 -410 402 -667 481
-105 32 -123 41 -123 58 0 12 7 134 16 271 18 290 23 716 10 929 l-8 148 -107
-4 c-92 -3 -114 -7 -163 -31 -73 -36 -156 -111 -215 -196 -103 -146 -190 -231
-238 -231 -57 0 -250 167 -710 614 -331 321 -600 573 -765 715 -52 46 -170
153 -261 239 l-167 157 -1 183 -1 182 -170 0 -170 0 0 -91z m2720 -2519 l0
-300 -120 0 -120 0 0 218 0 217 117 83 c65 45 119 82 120 82 2 0 3 -135 3
-300z m-4480 -997 c0 -10 -5 -72 -10 -138 -5 -66 -16 -244 -24 -395 -9 -151
-18 -301 -21 -332 l-5 -58 375 0 375 0 0 470 0 470 754 0 755 0 -64 -132
c-113 -237 -143 -395 -119 -627 l7 -61 313 0 314 0 0 410 0 410 668 0 669 0 6
-802 c9 -1015 9 -1742 0 -2700 l-6 -758 -102 0 c-85 0 -104 3 -117 18 -46 52
-66 133 -77 312 -11 161 -21 219 -52 286 -30 62 -51 74 -132 74 l-68 0 6 43
c4 36 60 585 67 672 l3 29 -55 -2 c-62 -3 -395 -39 -439 -48 l-28 -6 72 -289
73 -289 -65 0 c-110 0 -159 36 -214 156 -45 100 -62 207 -56 358 5 121 8 142
51 275 26 79 44 146 42 149 -3 2 -107 -28 -232 -67 -124 -40 -227 -71 -229
-69 -2 3 -10 141 -45 773 -12 209 -23 395 -26 413 l-5 32 -344 0 -345 0 0
-575 0 -575 193 1 c158 2 203 -1 244 -15 57 -19 103 -58 103 -88 0 -31 -26
-73 -64 -102 l-36 -27 0 -163 c0 -148 3 -174 29 -274 l29 -111 -32 -28 c-17
-16 -64 -39 -104 -53 l-72 -25 0 -901 0 -901 -97 -36 c-54 -19 -142 -49 -195
-65 l-98 -30 -1 222 c-1 121 0 385 1 586 3 573 -37 979 -115 1171 -52 130 -63
261 -32 381 33 126 -16 239 -130 300 -91 49 -197 46 -221 -7 -8 -18 -12 -112
-12 -293 l-1 -267 -77 -50 c-60 -39 -82 -60 -99 -95 -43 -85 -63 -194 -73
-390 -16 -310 -49 -437 -115 -451 -57 -12 -341 -9 -535 6 -257 20 -612 54
-616 58 -2 2 16 114 41 250 25 135 45 254 45 264 0 10 -55 81 -121 158 -283
328 -361 434 -450 614 -70 143 -86 209 -93 392 l-6 157 260 208 259 209 0 993
1 992 260 0 c241 0 260 -1 260 -17z m-2641 -2011 l44 -7 38 -255 c28 -195 45
-280 72 -360 118 -353 183 -472 535 -980 l122 -175 0 -831 0 -832 -102 -6
c-191 -11 -1502 -29 -1600 -21 l-98 7 0 983 0 984 97 118 c181 220 277 328
460 514 176 180 183 190 232 290 71 147 81 194 88 402 l6 177 31 -1 c17 0 51
-4 75 -7z m9079 -558 c50 -9 94 -19 97 -24 5 -8 -253 -272 -585 -597 -129
-126 -285 -282 -347 -346 l-112 -117 -48 0 c-96 1 -372 37 -466 61 l-38 10 66
72 c205 222 552 517 830 704 192 129 452 265 490 258 11 -3 62 -12 113 -21z
m-5261 -1076 c35 -39 43 -64 43 -138 0 -62 -3 -74 -25 -95 -32 -33 -51 -31
-90 8 -63 63 -66 148 -8 217 30 36 52 38 80 8z m2087 -152 c70 -29 98 -115 61
-186 -21 -41 -48 -38 -98 13 -76 76 -95 150 -45 175 31 15 43 14 82 -2z m1361
-96 c77 -5 312 -9 523 -10 l382 0 0 -147 c0 -82 -4 -164 -10 -183 l-10 -35
-670 -3 -670 -3 1 83 c1 46 4 130 8 187 l6 104 40 13 c42 14 131 13 400 -6z
m-1409 -254 c85 -28 139 -69 150 -113 22 -86 -58 -193 -145 -193 -40 0 -85 40
-99 88 -17 55 -16 256 1 250 6 -3 48 -17 93 -32z m-2001 -19 c93 -93 51 -307
-60 -307 -65 0 -114 72 -115 168 0 140 97 217 175 139z m0 -460 c50 -50 65
-118 44 -203 -32 -124 -149 -142 -200 -30 -36 80 -20 189 37 241 38 36 78 33
119 -8z m2054 -92 c65 -33 79 -145 35 -280 -15 -44 -29 -83 -33 -87 -10 -12
-113 168 -124 216 -12 53 -3 106 24 140 23 30 56 33 98 11z m-3405 -351 c19
-18 21 -65 4 -82 -30 -30 -98 -1 -98 41 0 48 61 74 94 41z m1368 -133 c28 -25
33 -36 33 -73 0 -70 -44 -132 -140 -197 l-80 -53 -3 106 c-1 58 2 125 8 148
26 95 115 129 182 69z m2079 -18 c25 -47 18 -138 -21 -240 -19 -51 -38 -93
-42 -93 -12 0 -10 304 2 334 12 34 43 33 61 -1z m-771 -523 c0 -79 -4 -112
-12 -115 -7 -3 -271 -4 -586 -3 l-572 3 42 65 c50 76 92 101 209 125 139 29
201 32 562 34 l357 1 0 -110z"/>
<path d="M4490 3853 c-73 -18 -130 -53 -195 -118 -97 -97 -165 -250 -165 -369
0 -51 5 -70 29 -107 60 -94 109 -114 205 -84 74 23 125 79 181 198 61 129 89
233 89 339 1 72 -2 91 -20 114 -27 37 -59 44 -124 27z"/>
<path d="M1550 1925 l0 -435 285 0 285 0 0 435 0 435 -285 0 -285 0 0 -435z"/>
</g>
</svg>
