<?xml version="1.0" standalone="no"?>
<!DOCTYPE svg PUBLIC "-//W3C//DTD SVG 20010904//EN"
 "http://www.w3.org/TR/2001/REC-SVG-20010904/DTD/svg10.dtd">
<svg version="1.0" xmlns="http://www.w3.org/2000/svg"
 width="1280.000000pt" height="934.000000pt" viewBox="0 0 1280.000000 934.000000"
 preserveAspectRatio="xMidYMid meet">
<metadata>
Created by potrace 1.15, written by Peter Selinger 2001-2017
</metadata>
<g transform="translate(0.000000,934.000000) scale(0.100000,-0.100000)"
fill="#000000" stroke="none">
<path d="M1802 9220 c-696 -124 -692 -123 -713 -178 -7 -17 36 -203 171 -750
100 -400 219 -884 267 -1077 47 -192 86 -351 87 -352 1 -2 119 35 921 287 231
73 485 152 565 177 80 25 150 48 156 51 8 5 -97 308 -327 947 -186 517 -345
951 -351 964 -13 25 -64 52 -95 50 -10 0 -316 -54 -681 -119z"/>
<path d="M3150 7285 c-74 -24 -442 -139 -817 -257 -376 -117 -683 -215 -683
-218 0 -12 2033 -1805 2043 -1802 6 2 188 84 405 183 217 98 399 179 406 179
11 0 71 -69 64 -74 -1 -1 -174 -85 -383 -185 -209 -101 -401 -199 -427 -218
-110 -80 -207 -228 -243 -368 -39 -153 -26 -346 37 -525 16 -47 32 -92 35
-102 3 -10 -5 -22 -22 -34 -25 -16 -27 -16 -53 4 -15 12 -90 64 -167 115 -449
301 -950 513 -1475 626 -380 81 -796 92 -1105 29 -338 -69 -634 -228 -714
-387 -151 -294 50 -845 528 -1451 277 -351 703 -773 1098 -1088 77 -61 129
-110 125 -116 -3 -6 -122 -169 -264 -363 -141 -194 -262 -361 -267 -372 -15
-26 -14 -64 1 -79 24 -24 55 -12 99 36 32 34 553 651 575 681 2 2 43 -26 91
-61 594 -437 1261 -811 1783 -998 471 -169 873 -194 1121 -69 73 36 110 68
147 127 45 70 60 140 67 312 32 755 -309 1624 -930 2369 -45 55 -70 92 -59 88
10 -3 44 -15 75 -26 194 -70 405 -42 569 73 92 65 1129 736 1137 736 4 0 23
-13 41 -28 l34 -28 -430 -284 c-237 -157 -431 -288 -431 -291 -1 -3 540 -474
1202 -1046 1552 -1342 1481 -1281 1490 -1283 9 -1 1827 1631 1827 1640 -1 9
-2763 1845 -2775 1844 -7 -1 -166 -103 -355 -228 -188 -125 -343 -225 -344
-224 0 2 -14 17 -29 34 l-28 31 438 283 c516 334 560 371 636 530 61 129 72
180 71 340 0 157 -19 241 -86 380 -73 152 -245 297 -418 353 -117 38 -148 42
-295 41 -242 -2 -234 1 -1042 -389 -380 -184 -695 -335 -700 -335 -4 0 -27 13
-51 28 l-42 29 392 178 c216 98 397 181 401 185 7 6 -2140 1513 -2160 1516 -5
1 -69 -18 -143 -41z"/>
<path d="M8875 1889 c-489 -446 -903 -822 -919 -835 -16 -14 -27 -26 -25 -28
2 -2 112 -39 244 -84 132 -44 454 -153 715 -242 261 -89 581 -198 710 -242
129 -44 341 -115 470 -159 129 -44 339 -116 465 -159 127 -43 270 -92 319
-109 106 -37 149 -39 203 -8 62 34 1743 1890 1743 1924 0 31 -74 109 -110 117
-28 7 -2874 625 -2905 631 -15 3 -238 -194 -910 -806z"/>
</g>
</svg>
