<?xml version="1.0" standalone="no"?>
<!DOCTYPE svg PUBLIC "-//W3C//DTD SVG 20010904//EN"
 "http://www.w3.org/TR/2001/REC-SVG-20010904/DTD/svg10.dtd">
<svg version="1.0" xmlns="http://www.w3.org/2000/svg"
 width="1280.000000pt" height="898.000000pt" viewBox="0 0 1280.000000 898.000000"
 preserveAspectRatio="xMidYMid meet">
<metadata>
Created by potrace 1.15, written by Peter Selinger 2001-2017
</metadata>
<g transform="translate(0.000000,898.000000) scale(0.100000,-0.100000)"
fill="#000000" stroke="none">
<path d="M6825 8927 c-150 -79 -147 -77 -141 -115 l5 -34 -48 7 c-47 6 -48 5
-144 -65 -53 -39 -99 -80 -102 -91 -15 -45 38 -67 235 -101 74 -12 128 -24
119 -26 -9 -1 -104 11 -211 28 -107 17 -203 28 -212 24 -10 -4 -37 -37 -61
-74 -25 -36 -54 -75 -65 -85 -11 -10 -20 -31 -20 -46 0 -42 39 -57 196 -74 75
-9 166 -20 203 -25 36 -5 72 -10 80 -10 8 0 12 -3 9 -6 -3 -3 -121 7 -262 21
-293 30 -295 29 -334 -45 -14 -25 -38 -67 -54 -94 -18 -31 -28 -59 -25 -73 4
-22 1 -23 -50 -23 -33 0 -74 8 -104 22 -48 20 -52 20 -85 5 -40 -20 -108 -21
-222 -6 -74 10 -86 9 -116 -8 -19 -10 -339 -290 -712 -623 -373 -333 -856
-764 -1074 -958 -217 -193 -410 -371 -428 -393 -32 -40 -32 -42 -13 -55 17
-12 66 -27 164 -49 36 -8 25 -24 -35 -50 -78 -34 -93 -63 -68 -130 9 -22 6
-29 -18 -50 -32 -29 -39 -29 -236 16 -72 16 -142 29 -156 29 -17 0 -49 -21
-100 -66 -41 -37 -282 -245 -535 -462 -253 -218 -683 -590 -955 -827 -272
-237 -607 -527 -745 -644 -137 -118 -283 -246 -323 -283 -40 -38 -98 -85 -127
-104 -42 -26 -55 -40 -55 -59 0 -42 44 -81 128 -111 42 -15 246 -90 452 -167
206 -77 392 -146 412 -153 51 -19 79 -4 112 56 14 26 49 69 78 96 115 108 367
353 868 844 1266 1243 1543 1510 1563 1510 8 0 19 -12 26 -26 11 -24 8 -30
-30 -73 -77 -84 -2326 -2335 -2362 -2363 -33 -26 -35 -30 -26 -60 5 -18 18
-41 29 -50 17 -14 928 -381 997 -402 35 -11 63 11 88 67 15 35 77 113 192 242
93 105 385 435 648 735 514 584 874 990 879 990 2 0 27 -5 57 -10 65 -12 109
1 109 33 0 11 -11 40 -25 64 l-26 43 111 133 c135 159 421 477 430 477 16 0
30 -56 30 -118 0 -60 4 -74 35 -122 32 -51 35 -61 35 -136 0 -75 2 -84 31
-124 47 -65 60 -104 53 -158 -7 -55 4 -86 54 -162 20 -30 37 -56 38 -57 0 -2
60 -13 133 -25 142 -24 163 -21 169 21 2 14 -12 48 -33 83 -33 52 -38 70 -44
147 -7 77 -12 93 -44 141 -34 51 -37 60 -37 130 -1 64 -5 83 -30 130 -24 44
-30 68 -30 116 0 49 -7 74 -35 131 -19 39 -35 76 -35 82 0 29 46 25 437 -40
223 -38 407 -70 409 -71 1 -2 31 -104 67 -228 58 -204 63 -225 46 -228 -10 -2
-62 11 -116 29 -133 44 -214 45 -297 4 -96 -48 -158 -140 -197 -292 -35 -138
-19 -268 41 -337 37 -42 101 -69 221 -96 52 -11 168 -41 259 -67 142 -39 170
-44 203 -36 20 6 37 9 37 8 0 -2 -16 -26 -35 -55 -40 -60 -44 -96 -15 -154 25
-50 54 -72 117 -88 26 -7 49 -13 50 -13 1 0 13 -58 27 -128 38 -187 71 -239
179 -277 141 -50 343 -7 459 98 77 69 98 107 98 176 0 34 -12 104 -25 155 -14
52 -25 98 -25 101 0 4 145 -33 323 -82 177 -48 324 -88 326 -88 2 0 -4 -9 -13
-19 -20 -22 -24 -68 -7 -99 6 -12 29 -27 51 -33 60 -18 55 -48 -23 -146 -35
-43 -209 -267 -387 -498 -359 -465 -696 -898 -955 -1225 -93 -118 -198 -253
-232 -300 -34 -47 -73 -92 -88 -100 -42 -22 -50 -46 -30 -90 21 -48 87 -84
230 -129 55 -17 214 -74 355 -126 506 -186 647 -235 677 -235 46 0 76 41 86
118 2 13 90 150 197 305 432 630 753 1100 1260 1852 534 792 627 925 641 925
5 0 20 -20 34 -44 l26 -45 -219 -328 c-568 -852 -1560 -2356 -1624 -2461 -89
-148 -146 -228 -192 -270 -41 -37 -43 -47 -18 -98 21 -45 87 -78 375 -185 156
-58 566 -214 844 -321 87 -34 126 -9 142 89 6 38 87 188 378 698 204 358 502
882 663 1165 161 283 408 715 549 959 l256 443 75 -8 c41 -4 111 -8 155 -8
l80 -1 3 29 c2 19 -8 47 -32 86 -31 49 -37 70 -42 137 -4 43 -13 90 -20 105
-13 25 -9 35 73 185 48 87 111 198 140 248 29 49 53 94 53 100 -1 37 -38 52
-198 80 -204 36 -244 45 -239 58 2 7 21 18 43 25 92 32 101 40 170 139 37 54
70 101 74 106 3 4 60 -6 126 -23 65 -16 126 -30 136 -30 24 0 64 52 112 149
24 47 108 201 188 341 80 140 414 738 742 1328 429 771 595 1078 591 1092 -9
28 -61 39 -220 47 -112 5 -146 10 -173 26 -32 19 -34 19 -79 2 -42 -16 -57
-16 -185 -4 -94 8 -145 9 -156 3 -10 -6 -36 -39 -59 -75 -237 -363 -437 -673
-831 -1289 -642 -1002 -827 -1280 -850 -1280 -32 0 -82 12 -82 20 0 6 192 296
1283 1940 218 327 401 608 408 623 11 25 10 30 -9 50 -21 20 -34 22 -164 26
-121 2 -146 6 -167 22 -28 22 -85 25 -122 5 -21 -11 -55 -11 -180 -4 l-154 10
-38 -43 c-20 -24 -151 -197 -290 -384 -139 -187 -430 -572 -647 -855 -217
-283 -500 -654 -628 -825 -128 -170 -237 -311 -242 -313 -4 -2 -10 9 -14 22
-9 35 -44 56 -107 62 -83 9 -86 11 -59 40 13 13 55 48 92 77 72 54 99 90 168
224 31 61 59 98 110 146 68 63 96 107 120 182 9 27 35 61 82 107 63 61 70 71
63 95 -22 89 -29 75 140 279 87 104 162 199 168 211 8 18 6 27 -7 41 -23 26
-66 37 -246 63 -85 12 -175 27 -200 33 -51 13 -57 24 -85 159 -10 47 -25 88
-39 103 -21 25 -23 26 -59 11 -55 -23 -57 -2 -4 51 46 47 77 104 77 141 0 13
11 23 33 30 18 6 48 27 67 46 40 41 41 41 180 -66 117 -89 149 -109 176 -109
30 0 144 121 144 152 0 28 -29 58 -80 83 -27 13 -140 88 -169 112 -3 2 3 19
12 38 72 151 -80 385 -249 385 -24 0 -44 3 -44 6 0 3 11 19 25 36 14 16 25 38
25 49 0 13 7 19 21 19 36 0 56 18 128 111 71 91 75 100 71 152 -1 20 3 27 17
27 12 0 36 32 76 99 31 54 57 105 57 113 0 8 -8 22 -18 31 -18 17 -314 39
-1021 77 -219 12 -265 20 -326 55 -23 14 -52 25 -65 25 -12 0 -63 -26 -112
-57 -76 -49 -104 -76 -197 -188 -137 -165 -131 -160 -176 -145 -19 6 -35 14
-35 17 0 10 50 73 142 176 90 102 100 125 77 170 -36 70 -82 83 -149 45 l-39
-23 -113 28 c-122 31 -940 227 -942 227 -1 -1 -46 -24 -101 -53z m-28 -433
c-3 -3 -12 -4 -19 -1 -8 3 -5 6 6 6 11 1 17 -2 13 -5z"/>
</g>
</svg>
