<?xml version="1.0" standalone="no"?>
<!DOCTYPE svg PUBLIC "-//W3C//DTD SVG 20010904//EN"
 "http://www.w3.org/TR/2001/REC-SVG-20010904/DTD/svg10.dtd">
<svg version="1.0" xmlns="http://www.w3.org/2000/svg"
 width="989.000000pt" height="1280.000000pt" viewBox="0 0 989.000000 1280.000000"
 preserveAspectRatio="xMidYMid meet">
<metadata>
Created by potrace 1.15, written by Peter Selinger 2001-2017
</metadata>
<g transform="translate(0.000000,1280.000000) scale(0.100000,-0.100000)"
fill="#000000" stroke="none">
<path d="M4564 12492 c-44 -16 -101 -43 -127 -61 -101 -69 -197 -192 -228
-290 -9 -31 -31 -82 -48 -115 -17 -32 -31 -71 -31 -87 0 -37 -19 -117 -35
-149 -13 -26 -9 -90 6 -90 5 0 15 -12 22 -26 13 -24 11 -34 -11 -98 -21 -60
-25 -86 -23 -171 1 -55 2 -111 2 -125 -1 -14 -3 -90 -4 -170 -4 -163 -8 -177
-82 -260 -40 -45 -45 -56 -45 -98 1 -45 29 -121 30 -79 0 30 29 76 69 112 33
30 93 133 116 200 5 14 9 16 12 6 8 -20 -83 -197 -113 -220 -15 -12 -21 -21
-14 -21 10 0 9 -4 -1 -17 -22 -27 42 20 80 59 17 18 41 58 53 90 24 67 43 66
35 -1 -3 -30 0 -56 10 -74 8 -16 12 -34 10 -40 -2 -6 10 -19 27 -28 16 -9 31
-20 33 -26 9 -25 -78 -74 -193 -109 -169 -51 -221 -81 -331 -187 -124 -119
-153 -179 -268 -532 -48 -148 -103 -313 -122 -365 -64 -172 -283 -653 -303
-665 -5 -3 -14 -22 -21 -43 -6 -20 -20 -46 -30 -58 -38 -42 -278 -441 -354
-589 -51 -100 -54 -109 -38 -121 10 -7 15 -16 10 -20 -4 -4 -7 -2 -7 4 0 7 -6
12 -13 12 -11 0 -35 -47 -37 -75 -1 -5 -7 -17 -14 -25 -7 -8 -34 -67 -60 -130
-26 -63 -51 -124 -56 -135 -22 -49 -44 -107 -76 -199 -44 -129 -79 -189 -105
-181 -14 5 -22 0 -31 -19 -12 -27 -23 -33 -32 -17 -3 5 1 11 9 15 8 3 15 14
15 25 0 15 -7 19 -36 18 -30 -1 -38 -6 -46 -28 l-9 -26 -82 13 c-45 8 -109 14
-142 14 -33 0 -92 9 -130 19 -39 10 -101 22 -138 26 -38 4 -100 18 -139 31
-39 13 -74 21 -79 18 -15 -9 -10 -50 9 -67 10 -9 42 -27 72 -40 l55 -25 -40
-12 c-22 -6 -86 -14 -142 -17 -104 -6 -129 -15 -117 -46 9 -24 59 -40 152 -47
78 -5 83 -7 47 -14 -121 -24 -140 -31 -140 -51 0 -49 89 -54 238 -15 39 11 86
20 102 20 l30 0 -46 -43 c-26 -23 -68 -57 -93 -75 -48 -34 -53 -47 -24 -66 12
-7 29 -3 64 15 222 115 215 112 273 110 31 -1 72 -6 91 -10 l35 -8 -40 -17
c-76 -32 -92 -63 -56 -107 24 -30 89 -30 147 0 24 12 86 26 164 36 100 13 136
23 177 46 48 26 53 27 53 11 0 -10 3 -21 6 -25 10 -9 34 4 34 19 0 19 8 18 54
-7 36 -19 39 -19 52 -2 7 10 14 23 14 29 0 13 30 28 30 16 0 -5 -5 -13 -12
-20 -9 -9 -7 -12 9 -12 15 0 26 12 38 43 10 23 20 36 22 29 4 -10 10 -9 25 4
19 18 19 17 8 -10 -6 -16 -8 -32 -4 -35 9 -9 54 48 54 69 0 10 5 22 10 25 6 3
10 -3 10 -14 0 -11 4 -22 9 -25 11 -7 21 17 21 50 0 14 13 50 29 82 15 31 36
80 46 107 10 28 24 57 32 66 8 9 11 24 7 34 -4 11 -3 16 2 12 11 -6 104 164
104 191 0 9 9 23 21 30 17 11 20 20 15 43 -3 16 -1 29 4 29 6 0 10 -6 10 -12
1 -7 12 10 27 37 14 28 54 100 89 162 83 145 277 538 300 605 27 83 302 689
388 855 74 144 69 144 99 2 15 -68 33 -164 42 -214 8 -49 39 -182 70 -295 69
-262 102 -413 111 -520 4 -47 20 -128 36 -180 38 -124 46 -226 23 -305 -41
-143 -336 -669 -414 -739 -23 -21 -28 -55 -10 -73 8 -8 5 -14 -10 -22 -35 -19
-28 -65 14 -91 39 -24 55 -20 55 15 0 14 9 29 20 35 24 13 24 8 10 -88 -6 -37
-26 -202 -45 -367 -49 -424 -101 -829 -120 -937 -54 -316 -245 -843 -640
-1758 -106 -246 -134 -315 -140 -340 -1 -3 -7 -18 -14 -35 -20 -46 -27 -66
-40 -115 -7 -25 -14 -52 -17 -61 -7 -19 23 -52 38 -43 7 5 8 2 4 -5 -5 -7 -15
-10 -23 -7 -11 4 -13 1 -8 -14 4 -11 2 -20 -4 -20 -6 0 -11 10 -11 22 0 34
-11 14 -15 -28 -2 -22 -6 -54 -9 -71 -3 -18 -2 -33 2 -33 4 0 8 -10 9 -22 0
-13 -1 -17 -4 -10 -7 18 -23 4 -23 -20 0 -17 2 -18 15 -8 13 11 14 10 8 -5 -5
-14 -3 -17 10 -12 9 3 19 2 23 -4 7 -12 1 -20 -19 -23 -27 -4 -48 -36 -52 -79
-4 -48 8 -63 48 -62 15 1 27 -3 27 -8 0 -5 -11 -7 -25 -5 -14 3 -25 1 -25 -5
0 -5 -7 -4 -15 3 -13 10 -15 9 -15 -8 0 -25 16 -37 24 -20 3 7 4 0 2 -16 -3
-23 2 -34 20 -49 16 -13 22 -23 16 -31 -13 -16 -9 -113 6 -128 6 -6 12 -18 12
-26 0 -34 27 10 28 45 2 54 12 93 23 93 9 0 7 -17 -8 -57 -3 -7 0 -13 6 -13 7
0 8 -8 2 -23 -6 -14 -6 -30 0 -38 5 -8 9 -11 10 -6 1 4 2 10 3 15 1 4 26 52
56 107 75 138 92 177 87 202 -3 16 0 20 11 15 12 -4 14 0 10 16 -4 13 -2 20 6
19 6 -1 11 5 11 13 0 8 6 20 14 26 12 10 11 13 -8 19 -26 8 -20 19 11 20 12 0
23 6 26 14 3 8 0 11 -7 7 -7 -5 -9 -1 -4 9 4 11 8 13 12 6 8 -12 51 40 51 61
0 7 17 30 38 53 l37 40 -37 -34 -38 -35 0 30 c0 22 3 26 10 14 8 -13 10 -12
10 3 0 9 7 17 15 17 18 0 18 5 5 31 -17 31 -1 43 25 19 26 -24 42 -12 25 19
-13 26 -14 52 0 31 5 -8 10 -13 11 -10 0 3 2 12 5 20 2 8 11 44 20 80 8 36 51
178 95 315 44 138 82 256 84 263 7 22 20 13 31 -22 9 -30 8 -38 -10 -56 l-21
-21 23 -5 c23 -7 29 -19 12 -29 -13 -8 -13 -45 1 -45 5 0 7 5 4 10 -3 6 -2 10
4 10 6 0 9 14 7 30 -2 17 1 33 6 36 17 10 20 -3 9 -42 -5 -22 -12 -75 -16
-119 -9 -122 -41 -336 -70 -470 -14 -66 -28 -158 -30 -205 l-5 -85 14 45 c24
75 69 179 76 175 3 -2 12 5 19 17 7 11 8 17 2 13 -21 -12 -11 7 19 37 17 16
30 40 30 53 0 13 4 27 10 30 5 3 10 14 10 23 -1 15 -3 14 -17 -3 -15 -19 -15
-19 -9 9 4 17 14 35 21 40 9 7 16 40 20 91 9 119 22 192 66 380 49 205 58 235
79 236 8 1 20 2 26 3 7 0 21 12 33 26 15 18 20 21 21 9 0 -8 9 -25 20 -37 12
-12 16 -23 10 -27 -18 -11 -10 -25 25 -42 26 -12 34 -21 30 -35 -4 -9 -1 -26
4 -37 9 -16 6 -23 -16 -39 -26 -19 -26 -20 -6 -32 19 -12 19 -15 4 -41 -15
-27 -15 -28 12 -49 26 -21 27 -23 12 -40 -12 -13 -15 -28 -10 -48 4 -19 1 -39
-7 -51 -10 -16 -10 -24 -2 -29 7 -4 19 -24 27 -45 9 -20 23 -37 31 -37 10 0
16 -9 16 -21 0 -15 4 -19 16 -15 13 5 14 0 9 -27 -13 -66 -15 -68 -36 -56 -12
6 -27 8 -35 5 -18 -7 -18 -40 0 -55 10 -9 11 -19 2 -53 -9 -32 -8 -42 2 -45 6
-3 12 -11 12 -19 0 -9 4 -12 10 -9 6 4 10 -11 10 -39 l0 -45 -35 6 c-33 5 -35
4 -35 -21 0 -15 6 -29 14 -32 12 -4 13 -17 9 -57 -5 -43 -4 -49 9 -44 18 6 28
-18 28 -70 0 -36 -2 -38 -32 -22 -14 7 -23 8 -30 1 -15 -15 -1 -62 19 -62 12
0 9 -8 -15 -31 l-32 -31 -2 -152 c-1 -83 -3 -257 -4 -386 -1 -129 -4 -242 -5
-250 -2 -8 0 -31 5 -50 6 -29 1 -49 -26 -110 -19 -41 -33 -83 -31 -92 3 -11
-18 -34 -64 -68 -80 -61 -114 -107 -144 -198 -12 -37 -28 -74 -35 -83 -20 -23
-17 -49 13 -115 47 -103 35 -285 -23 -339 -13 -12 -24 -30 -24 -39 0 -18 52
-44 107 -53 29 -5 33 -3 33 16 0 12 -5 31 -10 42 -14 26 19 101 55 125 25 16
29 16 83 0 125 -39 168 -70 347 -251 196 -198 218 -216 307 -249 123 -47 352
-43 492 8 l61 22 -3 49 c-2 28 -10 60 -17 72 -25 38 -101 83 -247 144 -78 33
-149 66 -158 74 -25 23 -85 149 -124 264 -49 141 -76 315 -76 488 0 146 4 176
50 448 18 102 15 97 47 82 l27 -12 -27 -9 c-15 -6 -27 -13 -27 -17 0 -4 15
-20 34 -37 19 -16 36 -38 38 -48 4 -25 31 -29 52 -9 9 9 20 14 25 10 15 -8 1
-35 -17 -35 -25 0 33 -55 118 -111 60 -40 81 -49 104 -45 16 3 35 6 44 6 8 0
12 3 8 8 -4 4 -17 7 -29 7 -11 0 -22 6 -25 14 -4 11 2 12 23 7 22 -6 26 -4 22
8 -8 20 3 20 29 1 10 -8 27 -15 37 -15 15 0 15 -3 5 -19 -9 -15 -15 -17 -25
-9 -28 23 -22 -1 7 -31 32 -31 54 -39 64 -22 7 10 199 6 216 -4 12 -8 13 -158
0 -243 -5 -41 -24 -94 -51 -147 -39 -77 -41 -89 -37 -142 3 -34 19 -87 37
-127 27 -61 30 -74 21 -102 -6 -18 -22 -40 -36 -48 -16 -11 -24 -26 -24 -44 0
-30 5 -39 37 -65 19 -17 26 -17 60 -7 21 7 43 19 49 27 10 11 21 -14 57 -124
25 -76 53 -167 63 -203 25 -98 87 -221 135 -269 88 -88 181 -114 404 -115 201
-1 361 31 377 76 9 25 -32 161 -63 209 -38 60 -104 121 -161 149 -62 32 -85
57 -107 114 -26 70 -79 305 -96 429 -28 199 -35 237 -64 329 -38 118 -67 252
-76 348 -3 41 -9 85 -12 98 -4 18 -1 22 19 22 26 0 78 21 78 32 0 4 -4 10 -10
13 -5 3 -10 13 -10 22 0 9 2 14 5 11 3 -3 25 0 48 7 38 11 42 15 39 42 -2 24
2 32 19 36 18 5 20 9 10 20 -9 12 -9 24 1 55 11 37 15 40 40 35 26 -5 34 2 29
30 0 4 7 8 16 8 10 1 23 2 28 4 6 1 23 3 38 3 24 2 26 4 17 21 -5 11 -10 22
-10 24 0 7 89 -12 110 -23 27 -15 38 -6 32 25 l-4 25 36 -15 c40 -17 43 -15
20 20 -15 24 -15 25 4 25 11 0 25 7 32 15 11 13 15 13 33 0 29 -20 43 -19 26
2 -12 15 -12 16 7 11 19 -5 22 1 31 61 6 37 9 84 8 105 -7 84 -48 456 -75 686
-17 135 -44 362 -60 505 -41 345 -64 488 -110 680 -120 500 -156 709 -190
1095 -11 129 -34 323 -50 430 -86 570 -86 567 -68 587 8 10 19 29 23 43 4 14
14 33 23 42 12 15 13 22 2 47 -10 25 -9 34 4 53 9 12 16 36 16 53 0 17 13 50
30 75 36 54 36 54 10 91 -19 26 -19 30 -6 51 12 19 12 27 2 46 -10 18 -10 38
0 95 7 40 17 133 23 207 7 74 16 176 21 225 6 50 7 147 4 217 l-7 128 42 45
c45 49 50 75 22 120 -18 29 -18 31 1 63 14 23 19 43 15 67 -5 27 0 41 24 71
34 44 35 49 9 92 -11 18 -20 39 -20 47 0 8 -18 42 -39 75 -30 47 -41 75 -45
118 -19 192 -41 350 -52 377 -7 17 -13 51 -13 75 0 25 -6 81 -13 125 -10 60
-11 121 -4 247 13 248 -4 304 -140 448 -36 38 -70 67 -75 64 -5 -3 -9 1 -9 8
0 7 -14 29 -31 48 -16 19 -70 88 -120 152 -50 65 -103 128 -118 140 -14 13
-28 28 -30 33 -2 6 -20 30 -40 55 -63 76 -63 74 18 67 48 -4 128 -25 249 -66
342 -115 849 -216 999 -198 94 11 323 93 323 115 0 5 9 17 19 29 30 32 51 79
51 115 0 74 -60 225 -83 211 -6 -3 -7 -1 -3 5 9 14 -100 126 -165 170 -41 28
-424 219 -488 243 -17 7 -27 6 -31 -2 -6 -8 -9 -8 -14 0 -4 6 -2 11 4 11 6 0
8 5 5 10 -3 6 -15 10 -26 10 -13 0 -18 -4 -13 -12 4 -7 3 -8 -4 -4 -7 4 -12
13 -12 20 0 16 -88 59 -102 50 -6 -4 -8 -3 -5 3 7 11 -139 83 -254 126 -84 32
-142 61 -159 82 -11 13 -11 25 0 73 7 31 19 69 27 84 7 15 13 47 13 71 0 24 7
52 15 63 9 12 14 42 15 80 l0 62 -57 23 c-35 13 -80 43 -113 73 -30 29 -69 63
-86 76 -28 23 -32 34 -44 113 -7 51 -9 114 -5 151 7 68 0 82 -34 71 -22 -7
-39 -41 -47 -97 l-7 -41 -18 34 c-17 32 -38 97 -53 162 -5 22 -12 28 -28 25
-11 -2 -24 -10 -28 -18 -46 -92 -45 -83 -28 -151 9 -35 20 -72 24 -83 7 -18 6
-18 -19 -1 -14 9 -31 14 -37 10 -16 -10 -12 -50 10 -78 22 -28 25 -37 10 -37
-14 0 -56 70 -68 111 -14 52 -96 172 -149 218 -25 23 -78 57 -117 76 -148 72
-268 83 -402 37z m814 -650 c6 -18 -15 -14 -22 4 -4 10 -1 14 6 12 6 -2 14
-10 16 -16z m-1243 -746 c-3 -17 -12 -40 -20 -50 -14 -19 -15 -18 -15 16 0 19
3 57 7 84 l6 49 15 -34 c8 -20 11 -48 7 -65z m2140 44 c8 -13 -5 -13 -25 0
-13 8 -13 10 2 10 9 0 20 -4 23 -10z m-635 -55 c0 -5 -5 -3 -10 5 -5 8 -10 20
-10 25 0 6 5 3 10 -5 5 -8 10 -19 10 -25z m967 -111 c-3 -3 -12 -4 -19 -1 -8
3 -5 6 6 6 11 1 17 -2 13 -5z m58 -42 c-3 -3 -11 0 -18 7 -9 10 -8 11 6 5 10
-3 15 -9 12 -12z m-2594 -69 c-5 -10 -21 -29 -36 -43 -15 -14 -36 -38 -46 -55
-11 -16 -19 -24 -19 -17 0 11 98 131 108 132 1 0 -2 -8 -7 -17z m2943 -169 c3
-8 2 -12 -4 -9 -6 3 -10 10 -10 16 0 14 7 11 14 -7z m46 -364 c0 -5 -4 -10
-10 -10 -5 0 -10 5 -10 10 0 6 5 10 10 10 6 0 10 -4 10 -10z m-1075 -551 c11
-17 -1 -21 -15 -4 -8 9 -8 15 -2 15 6 0 14 -5 17 -11z m42 -161 c-3 -8 -6 -5
-6 6 -1 11 2 17 5 13 3 -3 4 -12 1 -19z m-5 -180 c-9 -9 -12 -7 -12 12 0 19 3
21 12 12 9 -9 9 -15 0 -24z m5 -110 c-3 -7 -5 -2 -5 12 0 14 2 19 5 13 2 -7 2
-19 0 -25z m60 -520 c-3 -8 -6 -5 -6 6 -1 11 2 17 5 13 3 -3 4 -12 1 -19z m23
-173 c0 -14 -4 -25 -9 -25 -10 0 -21 36 -13 44 12 13 22 5 22 -19z m-47 -106
c-3 -10 -9 -16 -14 -13 -11 6 -12 38 -2 47 10 11 21 -13 16 -34z m-3193 -92
c0 -2 -10 -12 -21 -23 -22 -19 -22 -19 -8 4 12 19 29 30 29 19z m3263 -46 c30
-45 44 -91 29 -91 -10 0 -41 60 -57 109 -10 31 -1 26 28 -18z m-9 -74 c16 -43
21 -87 10 -87 -14 0 -54 56 -59 82 -14 61 26 65 49 5z m-3344 -71 c0 -3 -4 -8
-10 -11 -5 -3 -10 -1 -10 4 0 6 5 11 10 11 6 0 10 -2 10 -4z m3365 -84 c8 -38
3 -40 -28 -8 -18 18 -23 32 -19 51 4 25 5 26 22 7 10 -10 21 -33 25 -50z
m-3395 44 c0 -2 -7 -9 -15 -16 -13 -11 -14 -10 -9 4 5 14 24 23 24 12z m3367
-178 c-3 -8 -6 -5 -6 6 -1 11 2 17 5 13 3 -3 4 -12 1 -19z m-2942 -88 c3 -5 1
-10 -4 -10 -6 0 -11 5 -11 10 0 6 2 10 4 10 3 0 8 -4 11 -10z m19 -86 c3 -8 2
-12 -4 -9 -6 3 -10 10 -10 16 0 14 7 11 14 -7z m-29 -5 c11 -17 -1 -21 -15 -4
-8 9 -8 15 -2 15 6 0 14 -5 17 -11z m-35 -70 c0 -6 -4 -7 -10 -4 -5 3 -10 11
-10 16 0 6 5 7 10 4 6 -3 10 -11 10 -16z m-612 -75 c-7 -15 -14 -21 -16 -15
-5 16 5 41 17 41 7 0 6 -10 -1 -26z m552 -9 c0 -8 -7 -15 -16 -15 -14 0 -14 3
-4 15 7 8 14 15 16 15 2 0 4 -7 4 -15z m-50 -27 c0 -11 -38 -10 -44 1 -3 5 5
8 19 7 14 0 25 -4 25 -8z m-10 -37 c0 -12 -20 -25 -27 -18 -7 7 6 27 18 27 5
0 9 -4 9 -9z m-550 -56 c-6 -15 -13 -26 -16 -23 -2 3 0 18 6 33 6 15 13 26 16
23 2 -3 0 -18 -6 -33z m510 -89 c0 -3 -4 -8 -10 -11 -5 -3 -10 -1 -10 4 0 6 5
11 10 11 6 0 10 -2 10 -4z m-183 -41 c-4 -34 -17 -44 -17 -13 0 22 7 38 17 38
2 0 2 -11 0 -25z m-373 0 c-4 -8 -8 -15 -10 -15 -2 0 -4 7 -4 15 0 8 4 15 10
15 5 0 7 -7 4 -15z m514 -35 c3 -21 2 -22 -12 -11 -19 16 -21 44 -3 39 6 -3
14 -15 15 -28z m-181 -22 c-3 -8 -6 -5 -6 6 -1 11 2 17 5 13 3 -3 4 -12 1 -19z
m-24 -45 c-6 -36 -23 -45 -23 -13 0 17 21 53 26 46 1 0 -1 -16 -3 -33z m-499
-62 c-10 -10 -23 -16 -27 -14 -5 3 0 11 10 19 27 20 39 17 17 -5z m96 -11 c0
-5 -7 -10 -15 -10 -8 0 -15 5 -15 10 0 6 7 10 15 10 8 0 15 -4 15 -10z m390
-120 c0 -5 -4 -10 -10 -10 -5 0 -10 5 -10 10 0 6 5 10 10 10 6 0 10 -4 10 -10z
m-110 -55 c-7 -9 -15 -13 -18 -10 -3 2 1 11 8 20 7 9 15 13 18 10 3 -2 -1 -11
-8 -20z m38 -41 c-13 -13 -20 -14 -34 -4 -13 8 -14 10 -3 7 9 -3 22 -1 30 4
22 14 25 11 7 -7z m2 -38 c0 -3 -4 -8 -10 -11 -5 -3 -10 -1 -10 4 0 6 5 11 10
11 6 0 10 -2 10 -4z m-60 -16 c0 -5 -4 -10 -10 -10 -5 0 -10 5 -10 10 0 6 5
10 10 10 6 0 10 -4 10 -10z m-99 -37 c-8 -15 -10 -15 -11 -2 0 17 10 32 18 25
2 -3 -1 -13 -7 -23z m94 7 c3 -5 -1 -10 -9 -10 -9 0 -16 5 -16 10 0 6 4 10 9
10 6 0 13 -4 16 -10z m1405 -2790 c0 -5 -7 -7 -15 -4 -8 4 -12 10 -9 15 6 11
24 2 24 -11z m-55 -50 c3 -5 1 -10 -4 -10 -6 0 -11 5 -11 10 0 6 2 10 4 10 3
0 8 -4 11 -10z m45 -1 c0 -15 -18 -19 -23 -6 -3 8 1 14 9 14 8 0 14 -4 14 -8z
m110 -3 c0 -2 -7 -6 -15 -10 -8 -3 -15 -1 -15 4 0 6 7 10 15 10 8 0 15 -2 15
-4z m-177 -20 c3 -8 -3 -22 -13 -31 -19 -17 -19 -16 -7 14 13 36 13 36 20 17z
m127 10 c0 -3 -4 -8 -10 -11 -5 -3 -10 -1 -10 4 0 6 5 11 10 11 6 0 10 -2 10
-4z m-90 -26 c0 -4 -6 -10 -14 -13 -10 -4 -12 0 -9 14 5 18 23 18 23 -1z m110
-10 c0 -5 -2 -10 -4 -10 -3 0 -8 5 -11 10 -3 6 -1 10 4 10 6 0 11 -4 11 -10z
m10 -61 c15 -28 4 -38 -15 -13 -17 22 -19 34 -5 34 5 0 14 -9 20 -21z m-377
-139 c-3 -11 -9 -17 -14 -15 -10 7 -1 35 11 35 5 0 6 -9 3 -20z m457 -20 c0
-5 -5 -10 -11 -10 -5 0 -7 5 -4 10 3 6 8 10 11 10 2 0 4 -4 4 -10z m-35 -10
c-3 -5 -1 -10 4 -10 6 0 11 -4 11 -10 0 -5 -7 -7 -15 -4 -9 4 -15 0 -15 -10 0
-9 -4 -16 -10 -16 -15 0 -7 44 10 52 21 9 22 9 15 -2z m-5 -69 c0 -6 -4 -13
-10 -16 -5 -3 -10 1 -10 9 0 9 5 16 10 16 6 0 10 -4 10 -9z m45 -141 c-3 -5
-10 -10 -16 -10 -5 0 -9 5 -9 10 0 6 7 10 16 10 8 0 12 -4 9 -10z m-25 -40 c0
-5 -4 -10 -10 -10 -5 0 -10 5 -10 10 0 6 5 10 10 10 6 0 10 -4 10 -10z m0 -67
c0 -13 -3 -13 -15 -3 -8 7 -12 16 -9 21 8 13 24 1 24 -18z m-390 -144 c0 -6
-4 -7 -10 -4 -5 3 -10 11 -10 16 0 6 5 7 10 4 6 -3 10 -11 10 -16z m-323 -55
c-3 -3 -12 -4 -19 -1 -8 3 -5 6 6 6 11 1 17 -2 13 -5z m-14 -44 c-3 -11 -9
-17 -14 -14 -14 8 -10 34 5 34 9 0 12 -7 9 -20z m-405 -24 c-10 -7 -18 -18
-18 -25 0 -6 -4 -11 -10 -11 -5 0 -10 3 -10 7 0 11 33 43 44 43 6 0 3 -7 -6
-14z m-8 -116 c0 -5 -10 -15 -22 -21 -23 -12 -23 -12 -4 10 21 23 26 26 26 11z
m310 -91 c0 -6 -4 -7 -10 -4 -5 3 -10 11 -10 16 0 6 5 7 10 4 6 -3 10 -11 10
-16z m-325 1 c3 -5 2 -10 -4 -10 -5 0 -13 5 -16 10 -3 6 -2 10 4 10 5 0 13 -4
16 -10z m5 -36 c0 -2 -7 -4 -15 -4 -8 0 -15 4 -15 10 0 5 7 7 15 4 8 -4 15 -8
15 -10z m-41 -123 c-13 -11 -26 -18 -28 -15 -2 2 7 12 20 23 13 11 26 18 28
15 2 -2 -7 -12 -20 -23z m15 -73 c-3 -4 -11 -5 -19 -1 -21 7 -19 12 4 10 11 0
18 -5 15 -9z m201 -19 c11 -17 0 -20 -21 -4 -17 13 -17 14 -2 15 9 0 20 -5 23
-11z m-125 -127 c0 -4 -15 -13 -32 -20 l-33 -12 25 20 c27 21 40 25 40 12z
m-65 -112 c3 -5 1 -10 -4 -10 -6 0 -11 5 -11 10 0 6 2 10 4 10 3 0 8 -4 11
-10z m3365 -90 c0 -5 -4 -10 -10 -10 -5 0 -10 5 -10 10 0 6 5 10 10 10 6 0 10
-4 10 -10z m-56 -66 c3 -9 10 -13 14 -10 5 3 16 -4 25 -15 9 -10 12 -19 7 -19
-6 0 -10 -7 -10 -15 0 -9 -6 -12 -16 -8 -8 3 -13 12 -10 20 4 9 -2 17 -15 20
-12 4 -18 11 -15 20 4 9 -1 17 -14 20 -11 3 -20 12 -20 19 0 12 4 12 24 -1 13
-9 27 -23 30 -31z m196 22 c0 -3 -4 -8 -10 -11 -5 -3 -10 -1 -10 4 0 6 5 11
10 11 6 0 10 -2 10 -4z m-333 -12 c-3 -3 -12 -4 -19 -1 -8 3 -5 6 6 6 11 1 17
-2 13 -5z m223 -4 c0 -5 -2 -10 -4 -10 -3 0 -8 5 -11 10 -3 6 -1 10 4 10 6 0
11 -4 11 -10z m-270 -49 c0 -11 -5 -10 -20 4 -11 10 -20 22 -20 27 0 4 9 3 20
-4 11 -7 20 -19 20 -27z m80 29 c0 -5 -4 -10 -9 -10 -6 0 -13 5 -16 10 -3 6 1
10 9 10 9 0 16 -4 16 -10z m-1518 -25 c0 -5 -5 -11 -11 -13 -6 -2 -11 4 -11
13 0 9 5 15 11 13 6 -2 11 -8 11 -13z m1600 -4 c14 -17 15 -20 1 -25 -20 -8
-36 3 -29 19 3 8 -3 16 -12 18 -13 4 -13 5 3 6 11 0 28 -8 37 -18z m-54 -9 c5
-17 -23 -15 -38 3 -11 13 -9 15 11 12 12 -2 25 -9 27 -15z m-53 -40 c-6 -7
-35 18 -35 31 0 5 9 2 20 -8 11 -10 18 -20 15 -23z m-1417 -50 c2 -7 -5 -12
-17 -12 -12 0 -21 4 -21 9 0 5 -9 7 -20 4 -11 -3 -17 -9 -14 -14 3 -5 -2 -9
-10 -9 -23 0 -28 18 -9 29 24 14 85 9 91 -7z m1352 8 c0 -5 -2 -10 -4 -10 -3
0 -8 5 -11 10 -3 6 -1 10 4 10 6 0 11 -4 11 -10z m-1360 -56 c0 -2 -7 -4 -15
-4 -8 0 -15 4 -15 10 0 5 7 7 15 4 8 -4 15 -8 15 -10z m30 6 c0 -5 -5 -10 -11
-10 -5 0 -7 5 -4 10 3 6 8 10 11 10 2 0 4 -4 4 -10z m-66 -15 c15 -11 16 -15
5 -15 -8 0 -24 7 -35 15 -14 11 -15 14 -4 14 8 0 24 -6 34 -14z m-38 -10 c18
-14 16 -16 -18 -19 -6 -1 -12 7 -14 17 -3 21 6 22 32 2z m109 -15 c3 -5 -1
-10 -10 -10 -9 0 -13 5 -10 10 3 6 8 10 10 10 2 0 7 -4 10 -10z m-60 -9 c-3
-5 5 -12 17 -14 20 -4 19 -4 -4 -6 -27 -1 -35 8 -21 22 9 10 15 8 8 -2z m1290
-42 c-3 -5 1 -6 9 -3 13 5 13 2 3 -20 -15 -32 -23 -33 -29 -3 -6 29 1 49 13
41 5 -3 7 -10 4 -15z m-1180 -31 c-19 -11 -30 -5 -21 11 4 6 14 7 22 4 15 -5
14 -7 -1 -15z m-56 8 c-12 -10 -60 -16 -54 -6 3 5 18 10 32 10 15 0 24 -2 22
-4z m1184 -13 c-7 -2 -19 -2 -25 0 -7 3 -2 5 12 5 14 0 19 -2 13 -5z m20 -24
c-6 -6 -17 -8 -24 -3 -9 5 -8 9 7 14 23 9 31 3 17 -11z m-58 -9 c3 -5 2 -10
-4 -10 -5 0 -13 5 -16 10 -3 6 -2 10 4 10 5 0 13 -4 16 -10z m-25 -50 c0 -6
-9 -5 -20 2 -11 7 -20 16 -20 21 0 4 9 3 20 -3 11 -6 20 -15 20 -20z m-953
-16 c-3 -3 -12 -4 -19 -1 -8 3 -5 6 6 6 11 1 17 -2 13 -5z m-21 -21 c-15 -4
-16 -7 -5 -14 11 -7 9 -9 -8 -9 -16 0 -21 4 -17 15 4 8 16 14 28 14 19 -1 19
-2 2 -6z m-69 -33 c-1 -11 -5 -20 -9 -20 -11 0 -20 19 -13 30 11 17 24 11 22
-10z m139 -17 c-10 -10 -19 5 -10 18 6 11 8 11 12 0 2 -7 1 -15 -2 -18z m-99
11 c-3 -3 -12 -4 -19 -1 -8 3 -5 6 6 6 11 1 17 -2 13 -5z m69 -19 c10 -8 14
-15 7 -15 -7 0 -10 -6 -7 -14 5 -13 -24 -31 -34 -21 -3 3 0 5 8 5 10 0 10 3 0
15 -7 8 -23 15 -36 15 -13 0 -24 5 -24 11 0 7 12 10 29 7 17 -2 28 -1 25 4 -8
13 11 9 32 -7z m294 11 c0 -11 -19 -15 -25 -6 -3 5 1 10 9 10 9 0 16 -2 16 -4z
m-156 -39 c-21 -12 -29 -2 -13 16 10 11 16 12 21 4 4 -7 0 -16 -8 -20z m194
14 c3 -8 -1 -12 -9 -9 -7 2 -15 10 -17 17 -3 8 1 12 9 9 7 -2 15 -10 17 -17z
m42 -36 c20 -24 6 -28 -15 -5 -10 11 -13 20 -8 20 6 0 16 -7 23 -15z m-140
-29 c0 -3 -4 -8 -10 -11 -5 -3 -10 -1 -10 4 0 6 5 11 10 11 6 0 10 -2 10 -4z
m35 -16 c-28 -12 -37 -12 -30 0 3 6 16 10 28 9 21 0 21 -1 2 -9z"/>
<path d="M2130 7306 c0 -8 7 -16 15 -20 8 -3 15 -1 15 4 0 6 -5 10 -11 10 -5
0 -7 5 -4 10 3 6 1 10 -4 10 -6 0 -11 -6 -11 -14z"/>
<path d="M3542 2845 c0 -16 2 -22 5 -12 2 9 2 23 0 30 -3 6 -5 -1 -5 -18z"/>
</g>
</svg>
