<?xml version="1.0" standalone="no"?>
<!DOCTYPE svg PUBLIC "-//W3C//DTD SVG 20010904//EN"
 "http://www.w3.org/TR/2001/REC-SVG-20010904/DTD/svg10.dtd">
<svg version="1.0" xmlns="http://www.w3.org/2000/svg"
 width="960.000000pt" height="1280.000000pt" viewBox="0 0 960.000000 1280.000000"
 preserveAspectRatio="xMidYMid meet">
<metadata>
Created by potrace 1.15, written by Peter Selinger 2001-2017
</metadata>
<g transform="translate(0.000000,1280.000000) scale(0.100000,-0.100000)"
fill="#000000" stroke="none">
<path d="M4929 11930 c-9 -5 -38 -9 -65 -8 -27 0 -80 -4 -117 -10 -95 -15
-128 -42 -178 -148 -22 -46 -51 -91 -64 -100 -39 -26 -61 -124 -33 -152 9 -9
8 -15 -8 -27 -16 -12 -16 -14 -1 -9 9 3 17 1 17 -5 0 -6 -7 -11 -15 -11 -22 0
-19 -66 5 -100 l20 -28 -25 -33 c-13 -19 -40 -61 -59 -94 -31 -55 -34 -67 -34
-140 0 -97 23 -162 107 -310 19 -34 35 -87 50 -170 29 -158 65 -284 102 -356
30 -60 46 -79 29 -34 -5 13 -18 42 -30 64 -11 22 -20 43 -20 47 0 14 38 -43
68 -101 17 -33 31 -52 32 -42 0 9 5 17 11 17 5 0 7 -4 4 -10 -3 -5 -1 -10 5
-10 6 0 9 -4 6 -9 -7 -10 19 -23 28 -14 3 4 2 11 -4 17 -5 7 -5 17 -1 24 6 9
12 7 26 -8 17 -19 17 -21 -9 -61 -16 -23 -26 -49 -23 -60 3 -12 -2 -20 -14
-24 -10 -3 -21 -15 -24 -26 -4 -12 -16 -30 -26 -40 -10 -10 -19 -26 -19 -34 0
-8 -6 -12 -14 -9 -10 4 -16 -2 -18 -17 -2 -19 -12 -25 -48 -32 -32 -7 -53 -19
-75 -44 -23 -27 -46 -39 -100 -54 -38 -10 -82 -19 -97 -19 -44 0 -86 -46 -139
-154 -53 -108 -79 -206 -79 -298 0 -75 26 -272 47 -351 12 -49 17 -131 20
-397 5 -351 2 -403 -41 -673 -49 -308 -66 -535 -84 -1097 l-7 -215 -75 -8
c-41 -4 -111 -12 -155 -18 -44 -5 -118 -14 -165 -20 -47 -6 -123 -17 -170 -25
-47 -8 -120 -14 -162 -14 -43 0 -78 -2 -78 -6 0 -3 13 -19 29 -36 27 -29 35
-32 123 -38 66 -4 87 -9 73 -15 -11 -5 -48 -28 -83 -51 -35 -23 -99 -55 -142
-70 -44 -16 -80 -33 -80 -39 0 -15 49 -35 84 -35 44 0 130 25 174 49 l37 21
-36 -32 c-20 -18 -62 -45 -92 -61 -77 -39 -86 -52 -49 -71 36 -19 68 -11 150
35 101 57 165 89 169 85 7 -6 -99 -170 -117 -181 -23 -14 -10 -35 21 -31 23 3
53 25 119 91 l88 88 114 23 c62 13 131 24 153 24 22 0 71 11 108 24 l68 23 -7
-31 c-3 -17 -34 -152 -69 -301 -72 -306 -81 -350 -165 -756 -75 -362 -130
-591 -254 -1049 -52 -195 -98 -372 -102 -393 -3 -20 -10 -40 -15 -43 -5 -3 -9
-17 -9 -32 0 -15 -9 -72 -20 -127 -40 -196 -43 -306 -9 -391 6 -16 11 -42 11
-59 -1 -16 4 -36 11 -43 27 -33 87 -158 87 -182 0 -9 13 -32 30 -51 l29 -34
38 35 c38 35 57 59 58 72 0 13 117 167 131 172 8 3 14 12 14 20 0 8 14 24 30
36 17 12 30 28 30 37 0 8 21 43 46 76 25 34 57 81 72 106 14 26 32 52 39 59 7
7 13 20 13 29 0 8 9 32 19 52 11 20 31 81 46 136 15 55 31 114 37 130 6 17 12
46 13 65 7 83 155 892 199 1087 43 191 138 574 141 571 2 -2 22 -119 44 -262
l42 -259 -40 -101 c-67 -171 -87 -238 -181 -616 -87 -350 -93 -370 -155 -495
-115 -235 -148 -373 -164 -690 -6 -115 -17 -298 -26 -405 -8 -107 -19 -256
-25 -330 -16 -203 -27 -258 -53 -262 -12 -2 -34 4 -49 15 l-28 18 -20 -33
c-11 -18 -20 -35 -20 -38 0 -3 14 -14 30 -25 16 -11 30 -25 30 -31 0 -7 7 -14
15 -18 40 -15 2 -84 -100 -181 -60 -57 -75 -78 -81 -110 -4 -22 -14 -46 -22
-54 -16 -16 -13 -117 8 -296 18 -157 13 -272 -26 -536 -6 -46 -6 -46 25 -51
24 -4 35 0 42 14 6 11 8 26 5 34 -8 22 31 226 64 327 40 124 44 129 65 81 20
-47 55 -173 86 -309 28 -119 40 -133 141 -163 163 -47 296 -52 387 -16 46 18
115 112 118 159 0 17 4 39 8 51 9 28 -15 51 -63 59 -30 5 -53 21 -103 71 -35
35 -63 67 -61 69 1 3 2 19 2 35 0 22 -5 30 -18 30 -16 0 -21 20 -42 159 -19
133 -21 165 -10 193 7 20 13 103 15 208 3 155 8 197 40 355 42 208 73 342 117
508 26 101 33 117 51 117 30 0 187 -167 187 -199 0 -4 11 -18 25 -31 13 -12
23 -26 20 -29 -2 -4 12 -22 31 -40 19 -19 34 -39 34 -46 0 -6 11 -22 25 -35
14 -13 25 -31 25 -41 0 -24 75 -89 104 -89 14 0 30 10 41 26 21 32 54 131 55
162 0 29 5 28 50 -8 27 -22 44 -46 56 -83 9 -28 46 -122 81 -207 109 -262 114
-278 107 -317 l-7 -35 -24 31 c-14 17 -29 29 -34 26 -16 -10 -10 -61 11 -88
11 -14 20 -32 20 -40 0 -9 16 -25 34 -37 58 -35 58 -68 1 -155 -31 -46 -46
-96 -62 -202 -3 -19 6 -70 22 -125 92 -313 115 -430 115 -586 0 -103 6 -112
60 -94 22 8 30 8 30 -1 0 -30 23 -90 41 -108 16 -16 33 -19 112 -19 90 0 356
39 411 59 35 14 78 106 83 180 l3 54 -80 78 c-44 44 -84 79 -89 79 -19 0 -42
32 -32 44 15 18 -8 86 -29 86 -24 0 -82 255 -84 370 -1 61 -7 95 -20 119 -10
20 -16 45 -13 60 3 14 2 59 -3 99 -6 55 -14 80 -35 108 -24 31 -34 70 -72 262
-48 247 -48 253 16 225 20 -8 46 -18 59 -20 12 -3 25 -9 28 -14 3 -5 18 -9 34
-9 15 0 30 -5 32 -11 2 -6 26 -13 52 -15 27 -1 54 -8 59 -13 6 -6 28 -11 48
-11 21 0 39 -5 42 -12 6 -19 146 -13 166 6 20 20 20 198 0 237 -5 9 -11 45
-14 80 -3 35 -10 73 -14 84 -13 31 -74 373 -79 440 -2 33 -9 67 -16 75 -7 8
-23 87 -35 175 -12 88 -26 174 -31 190 -5 17 -19 89 -29 160 -11 72 -38 241
-60 376 -23 135 -61 387 -86 560 -24 173 -65 430 -89 572 l-45 258 14 107 c8
59 19 156 24 215 15 154 55 403 111 692 27 138 53 284 59 325 14 96 31 401 31
538 0 92 2 104 14 92 15 -15 149 -204 311 -436 91 -131 192 -244 217 -244 8 0
52 -18 99 -41 69 -33 102 -58 185 -140 96 -94 132 -116 149 -89 4 6 -4 24 -17
40 -113 138 -138 170 -138 173 0 3 7 8 16 11 17 6 91 -29 169 -80 67 -45 114
-53 139 -26 18 21 17 21 -50 67 -103 69 -167 115 -160 115 16 0 105 -45 161
-80 81 -52 146 -68 180 -46 14 9 23 21 20 26 -3 5 -32 23 -64 40 -32 17 -74
44 -92 60 l-34 29 81 1 c81 0 104 9 104 40 0 10 -19 21 -57 32 -93 27 -224 73
-285 102 -32 14 -99 35 -150 45 -124 25 -178 51 -228 109 -56 65 -157 268
-290 582 -61 146 -154 350 -206 453 l-95 188 11 82 c17 128 39 193 86 257 58
79 74 113 123 263 36 107 41 133 32 157 -13 38 -62 100 -79 100 -7 0 -15 6
-18 14 -3 8 -18 19 -32 25 -44 16 -215 170 -234 210 -10 20 -41 108 -69 196
-62 195 -127 313 -189 346 -14 7 -73 16 -132 19 -96 6 -112 10 -148 35 l-40
28 5 86 c2 47 7 140 10 206 10 196 11 204 18 212 4 3 7 0 7 -8 0 -9 3 -10 8
-4 10 15 82 35 82 24 0 -5 -7 -9 -15 -9 -8 0 -15 -5 -15 -11 0 -5 5 -7 12 -3
7 5 9 2 6 -8 -4 -8 -1 -15 7 -15 7 0 12 8 10 19 -2 10 0 18 4 18 4 0 5 14 3
31 -4 25 -2 30 9 25 8 -4 4 1 -7 11 -20 18 -35 59 -39 107 -1 11 -12 26 -23
34 -28 19 -28 33 5 101 38 77 44 198 15 265 -15 33 -27 46 -41 46 -12 0 -21 6
-21 13 0 42 -23 189 -35 227 -8 25 -26 58 -39 75 -22 27 -23 32 -10 57 32 61
36 119 14 187 -11 35 -20 71 -20 80 0 9 -7 27 -15 41 -8 14 -23 43 -33 65 -28
57 -139 160 -188 174 -48 13 -163 14 -185 1z m560 -1385 c-14 -14 -16 -13 -16
15 0 28 2 29 16 15 14 -13 14 -17 0 -30z m3 -102 c-6 -10 -9 -2 -10 24 0 33 1
35 9 15 5 -13 5 -30 1 -39z m234 -668 c10 -8 15 -14 9 -14 -5 0 -19 6 -29 14
-11 8 -15 15 -10 15 6 0 19 -7 30 -15z m199 -442 c8 -20 13 -38 11 -40 -5 -6
-36 51 -36 67 0 20 10 10 25 -27z m-1217 -1119 l100 -160 12 -95 c6 -52 16
-111 21 -131 7 -25 6 -52 -2 -85 -16 -64 -93 -255 -117 -290 -11 -15 -37 -60
-59 -99 -35 -62 -254 -357 -260 -350 -1 1 18 65 42 142 50 154 85 291 112 434
14 75 17 136 15 290 -3 196 16 527 28 513 4 -5 52 -80 108 -169z m-528 -4545
c-21 -80 -59 -178 -71 -179 -3 0 -15 17 -26 37 l-21 37 47 70 c27 39 56 87 66
106 27 52 29 23 5 -71z m-591 -66 c12 -34 21 -70 21 -79 0 -10 -19 -41 -42
-71 -56 -73 -64 -56 -38 84 22 114 28 138 34 132 2 -2 14 -32 25 -66z m502
-166 c-6 -6 -11 -19 -11 -28 0 -28 -135 -225 -159 -232 -26 -7 -26 -7 5 55 14
28 46 103 71 167 25 64 48 120 50 124 3 5 17 -10 30 -33 19 -31 22 -45 14 -53z
m-106 -13 c-31 -84 -87 -206 -91 -201 -2 2 3 38 11 81 12 61 24 91 57 137 22
33 43 58 45 55 2 -2 -8 -34 -22 -72z m-395 -99 c-11 -72 -20 -151 -20 -177 0
-26 -4 -49 -9 -52 -30 -19 -68 113 -57 196 5 37 18 63 53 109 25 32 48 58 49
56 2 -1 -6 -61 -16 -132z m83 20 c1 -50 -59 -233 -71 -220 -15 15 15 296 36
329 10 18 35 -57 35 -109z m217 -22 c0 -41 -53 -211 -81 -260 -41 -71 -50 -74
-33 -11 7 29 21 89 30 133 15 76 53 155 74 155 6 0 10 -8 10 -17z m-173 -29
c3 -9 -12 -74 -35 -143 -22 -69 -44 -139 -48 -156 l-7 -30 -8 35 c-7 28 0 62
33 173 40 133 52 155 65 121z m2457 -141 c9 -65 18 -128 20 -141 3 -20 0 -23
-28 -20 l-31 3 -3 95 c-3 102 4 180 17 180 5 0 16 -53 25 -117z m-2384 93 c0
-23 -48 -249 -61 -285 -7 -19 -20 -42 -31 -53 -10 -10 -18 -27 -18 -37 0 -11
-4 -22 -9 -25 -5 -3 -12 21 -16 53 -5 45 -2 76 14 133 25 87 66 194 82 214 15
18 39 18 39 0z m95 -126 c-3 -5 -11 -10 -16 -10 -6 0 -7 5 -4 10 3 6 11 10 16
10 6 0 7 -4 4 -10z m-291 -110 c4 -34 3 -41 -5 -27 -5 9 -12 25 -14 35 -2 9
-4 22 -5 27 -1 6 -2 17 -1 25 3 26 18 -10 25 -60z m2596 -63 c0 -8 8 -29 17
-48 19 -39 104 -456 96 -476 -11 -28 -21 -10 -32 55 -16 91 -35 150 -87 262
-43 94 -63 173 -51 204 8 20 57 21 57 3z m-1215 -248 c-58 -58 -84 -74 -141
-83 -49 -7 -77 5 -134 58 -55 51 -52 59 18 49 84 -12 191 -7 237 10 67 26 71
19 20 -34z m1189 24 c25 -51 67 -196 76 -268 11 -85 -3 -203 -33 -294 l-22
-66 -59 2 c-43 2 -65 8 -78 21 -18 18 -17 21 21 108 62 138 76 201 75 334 0
63 -4 132 -8 153 -8 44 7 50 28 10z m-1104 0 c0 -10 3 -27 6 -38 7 -29 -54
-106 -128 -161 l-61 -44 -22 24 c-12 13 -25 35 -28 48 -6 21 -2 25 36 35 49
14 103 54 149 111 36 45 48 51 48 25z m1048 -246 c-10 -86 -44 -191 -91 -280
-29 -55 -32 -58 -61 -52 -43 8 -76 26 -76 41 0 6 16 23 35 38 52 40 100 148
141 316 19 80 38 152 41 160 12 27 21 -144 11 -223z m-1018 126 c0 -10 7 -39
17 -64 l16 -47 -45 -63 c-25 -35 -54 -71 -64 -81 -18 -15 -21 -15 -46 5 -14
12 -36 40 -48 61 l-22 40 29 20 c15 11 55 47 88 82 65 67 75 73 75 47z m909
-164 c-34 -100 -58 -140 -113 -191 -51 -48 -102 -64 -110 -35 -20 65 -18 72
49 116 36 23 93 73 127 111 34 38 64 67 66 66 1 -2 -7 -32 -19 -67z m-845 4
c7 -18 -5 -82 -34 -173 -22 -72 -45 -74 -79 -8 l-23 48 39 47 c22 27 48 60 58
76 20 31 30 34 39 10z m1156 -118 c20 -24 54 -207 45 -242 -7 -28 -38 -30 -95
-6 -28 13 -39 22 -34 33 12 33 44 177 44 203 0 30 20 36 40 12z m-1800 -1315
c0 -5 -2 -10 -4 -10 -3 0 -8 5 -11 10 -3 6 -1 10 4 10 6 0 11 -4 11 -10z"/>
</g>
</svg>
