<?xml version="1.0" standalone="no"?>
<!DOCTYPE svg PUBLIC "-//W3C//DTD SVG 20010904//EN"
 "http://www.w3.org/TR/2001/REC-SVG-20010904/DTD/svg10.dtd">
<svg version="1.0" xmlns="http://www.w3.org/2000/svg"
 width="1280.000000pt" height="1023.000000pt" viewBox="0 0 1280.000000 1023.000000"
 preserveAspectRatio="xMidYMid meet">
<metadata>
Created by potrace 1.15, written by Peter Selinger 2001-2017
</metadata>
<g transform="translate(0.000000,1023.000000) scale(0.100000,-0.100000)"
fill="#000000" stroke="none">
<path d="M6446 9605 c-83 -34 -225 -123 -226 -141 0 -6 -7 -17 -15 -24 -13
-11 -14 -10 -9 6 10 28 -45 -24 -57 -53 -4 -12 -32 -40 -62 -62 -97 -71 -180
-198 -158 -239 7 -12 9 -63 6 -132 -4 -111 -4 -112 15 -95 19 18 20 17 20 -8
0 -14 -4 -29 -10 -32 -5 -3 -10 -13 -10 -21 0 -12 4 -12 20 -4 11 6 24 8 29 5
12 -7 -1 -54 -24 -89 -16 -24 -16 -26 -1 -32 10 -4 26 1 38 12 21 19 21 19 15
-14 -5 -25 -2 -38 13 -55 23 -24 21 -32 -21 -123 -16 -34 -29 -74 -29 -90 0
-16 23 -68 52 -119 28 -49 68 -122 89 -161 l39 -71 -38 -26 c-20 -14 -68 -45
-107 -68 -118 -70 -144 -90 -181 -140 -48 -66 -62 -135 -47 -238 14 -91 39
-146 125 -274 32 -48 83 -137 113 -199 48 -97 55 -118 55 -172 0 -46 11 -94
46 -196 27 -80 48 -162 51 -202 5 -59 3 -74 -20 -121 -35 -70 -128 -165 -252
-257 -55 -40 -108 -81 -117 -89 -9 -9 -24 -22 -33 -29 -8 -7 -12 -18 -9 -24 4
-6 3 -8 -3 -5 -6 4 -23 -17 -38 -46 -16 -29 -53 -89 -82 -134 -103 -160 -193
-364 -234 -528 -11 -44 -22 -89 -25 -100 -3 -11 -9 -180 -14 -375 -20 -839
-38 -1183 -71 -1320 -21 -92 -74 -223 -125 -310 -64 -111 -128 -308 -161 -496
-19 -109 -20 -154 -5 -324 6 -63 11 -252 11 -420 1 -329 0 -335 -60 -540 -40
-137 -46 -248 -24 -415 16 -128 33 -293 41 -418 5 -80 8 -89 31 -104 58 -38
408 -22 451 20 12 13 11 25 -13 93 -16 44 -34 91 -42 107 -35 70 -73 207 -83
301 -6 55 -16 143 -21 194 -22 193 27 697 76 791 9 18 20 69 25 114 10 97 14
116 51 228 16 48 29 97 29 109 0 12 5 31 11 42 13 25 29 98 65 293 34 189 68
316 98 364 91 144 182 418 235 706 11 61 36 198 56 305 54 297 80 430 119 600
20 85 36 179 36 209 l0 54 23 -19 c12 -11 34 -25 50 -32 15 -6 27 -16 27 -22
0 -35 61 -133 122 -196 48 -49 79 -94 108 -153 36 -73 77 -139 209 -333 54
-80 99 -189 141 -344 174 -638 195 -702 278 -823 36 -53 73 -113 83 -136 21
-48 52 -166 84 -326 35 -173 85 -316 171 -494 49 -103 104 -253 104 -286 0
-12 20 -63 44 -113 65 -137 126 -368 126 -481 0 -23 7 -68 16 -100 13 -51 13
-73 3 -146 -10 -73 -9 -101 6 -187 18 -110 17 -189 -5 -459 -7 -84 -10 -163
-6 -177 3 -14 21 -31 43 -42 50 -25 241 -25 323 -1 91 27 95 32 95 134 1 70
-2 90 -16 100 -12 9 -18 37 -23 115 -7 111 -24 247 -61 478 -14 84 -21 166
-18 195 4 41 -2 66 -31 143 -34 86 -47 149 -76 362 -14 105 -50 534 -56 659
-2 65 -12 128 -24 165 -10 34 -35 120 -56 191 -50 179 -83 256 -179 430 -95
170 -109 216 -149 475 -33 213 -42 289 -61 495 -25 289 -36 375 -61 520 -46
258 -91 402 -173 545 l-48 85 3 355 c2 293 5 365 18 414 25 88 50 141 105 215
58 78 142 235 166 309 9 28 20 52 23 52 4 0 30 -34 57 -76 28 -41 89 -113 136
-159 85 -84 87 -85 137 -85 46 0 53 3 75 33 84 110 94 250 34 472 -19 72 -44
164 -56 205 -44 159 -62 277 -76 510 -8 129 -17 246 -21 260 -15 62 -48 158
-66 193 -30 59 -95 125 -137 137 -49 15 -221 49 -304 61 -89 12 -176 46 -208
80 -30 32 -54 107 -44 138 10 33 23 25 33 -21 9 -37 11 -40 17 -21 4 12 15 22
24 21 34 -3 47 3 56 25 6 12 20 26 33 32 12 5 25 18 28 27 4 14 9 16 24 8 44
-23 70 16 70 105 0 44 3 53 15 49 9 -4 15 0 15 9 0 8 6 17 13 20 22 7 14 117
-12 160 -21 33 -22 41 -11 68 16 38 41 35 52 -7 10 -40 36 -64 48 -44 4 7 15
10 25 6 12 -4 16 -2 12 8 -3 8 -11 51 -18 96 -10 63 -10 86 -1 101 7 10 12 29
12 41 0 21 1 21 30 -7 39 -37 38 -26 -4 49 -18 34 -36 72 -39 86 -11 43 -126
153 -182 174 -81 30 -189 91 -294 166 -170 121 -302 150 -435 95z m852 -570
c-3 -3 -9 2 -12 12 -6 14 -5 15 5 6 7 -7 10 -15 7 -18z m-94 -140 c-4 -8 -8
-15 -10 -15 -2 0 -4 7 -4 15 0 8 4 15 10 15 5 0 7 -7 4 -15z m-1134 -204 c14
-35 10 -73 -9 -79 -10 -3 -12 0 -8 11 3 9 0 32 -8 50 -13 32 -12 47 5 47 4 0
13 -13 20 -29z m340 -423 c0 -21 -30 -78 -41 -78 -4 0 -9 18 -11 41 -5 49 16
86 38 68 8 -6 14 -20 14 -31z"/>
</g>
</svg>
