<?xml version="1.0" standalone="no"?>
<!DOCTYPE svg PUBLIC "-//W3C//DTD SVG 20010904//EN"
 "http://www.w3.org/TR/2001/REC-SVG-20010904/DTD/svg10.dtd">
<svg version="1.0" xmlns="http://www.w3.org/2000/svg"
 width="989.000000pt" height="1280.000000pt" viewBox="0 0 989.000000 1280.000000"
 preserveAspectRatio="xMidYMid meet">
<metadata>
Created by potrace 1.15, written by Peter Selinger 2001-2017
</metadata>
<g transform="translate(0.000000,1280.000000) scale(0.100000,-0.100000)"
fill="#000000" stroke="none">
<path d="M5348 12585 c-5 -5 -59 -11 -158 -18 -19 -1 -34 -7 -33 -13 1 -6 -3
-11 -10 -12 -61 -9 -88 -16 -93 -23 -3 -5 -12 -9 -20 -9 -8 0 -20 -4 -27 -10
-57 -46 -76 -60 -85 -60 -5 0 -24 -16 -41 -35 -17 -19 -36 -35 -42 -35 -14 0
-79 -65 -79 -79 0 -6 -8 -15 -18 -20 -21 -11 -62 -85 -62 -113 0 -11 -5 -18
-12 -15 -20 7 -48 -12 -48 -31 0 -10 7 -27 15 -39 8 -12 11 -24 7 -27 -5 -3
-8 -42 -7 -86 2 -77 1 -82 -21 -90 -13 -5 -25 -13 -25 -17 -1 -5 -3 -18 -4
-31 -1 -13 -10 -31 -19 -40 -15 -15 -18 -15 -27 -2 -9 12 -10 12 -5 -4 4 -12
0 -23 -11 -31 -17 -12 -24 -44 -25 -108 -1 -15 9 -38 21 -50 11 -13 21 -30 21
-38 0 -9 14 -28 30 -44 26 -25 33 -27 41 -15 8 11 9 6 4 -20 -3 -19 -7 -71 -8
-115 -1 -52 -8 -92 -19 -113 -9 -18 -13 -30 -8 -27 4 3 6 -4 3 -15 -6 -24 -23
-37 -23 -17 0 7 -7 14 -15 14 -13 0 -13 -3 0 -24 20 -30 11 -47 -52 -102 -26
-23 -39 -39 -30 -35 14 5 17 0 19 -25 1 -17 2 -46 3 -63 2 -18 -4 -45 -12 -61
-10 -19 -11 -32 -4 -45 9 -14 11 -12 12 13 1 22 4 16 10 -20 4 -27 6 -51 3
-54 -2 -2 -4 4 -4 14 0 33 -13 6 -16 -33 -2 -31 -1 -33 6 -12 7 21 8 22 9 5 1
-32 -11 -68 -19 -55 -4 6 -7 -3 -7 -20 0 -17 -4 -34 -9 -39 -14 -13 -74 -22
-74 -11 0 6 18 47 40 93 23 45 35 74 27 65 -7 -9 -29 -50 -48 -91 -27 -60 -40
-77 -65 -86 -17 -6 -38 -9 -46 -6 -8 3 -28 -10 -48 -30 -28 -29 -32 -38 -20
-45 11 -7 12 -13 2 -35 -17 -36 -15 -45 8 -45 24 0 26 -13 4 -31 -8 -7 -22
-26 -31 -42 -14 -28 -18 -29 -58 -24 -39 6 -50 2 -108 -35 -45 -30 -72 -56
-89 -88 -28 -49 -48 -146 -48 -228 0 -85 47 -264 116 -443 27 -70 34 -105 40
-197 l7 -112 -34 -66 c-19 -37 -43 -70 -55 -74 -21 -8 -34 -50 -34 -109 0 -24
74 -101 97 -101 41 0 11 -69 -59 -136 -29 -28 -80 -71 -113 -96 -33 -25 -71
-58 -84 -72 -24 -26 -24 -27 -7 -62 15 -33 15 -39 1 -60 -11 -17 -12 -30 -5
-48 8 -23 2 -37 -49 -113 -50 -73 -58 -89 -49 -108 7 -16 7 -29 -1 -43 -16
-30 -16 -30 37 -55 33 -16 48 -29 50 -45 4 -25 14 -30 107 -59 l60 -18 -2 -85
c-2 -47 -10 -146 -19 -220 -15 -121 -21 -145 -59 -227 -53 -111 -99 -243 -119
-339 -36 -173 -66 -384 -80 -574 -9 -113 -21 -268 -27 -345 -6 -77 -15 -207
-19 -290 -18 -333 -66 -772 -130 -1200 -21 -143 -41 -300 -45 -350 -4 -49 -13
-126 -20 -170 -8 -44 -26 -150 -40 -235 -15 -85 -33 -186 -40 -225 -20 -97
-53 -305 -64 -406 -6 -46 -17 -142 -25 -214 -19 -162 -43 -395 -51 -500 -8
-101 -21 -168 -45 -225 -20 -48 -100 -578 -100 -663 0 -58 33 -113 91 -152 64
-42 86 -47 251 -50 175 -5 241 -18 321 -68 l49 -30 -6 -51 c-3 -28 -11 -124
-17 -214 -14 -193 -9 -222 53 -265 95 -67 247 -85 494 -58 120 14 339 12 362
-3 8 -5 12 -45 12 -131 l0 -125 37 -24 c21 -14 59 -28 86 -31 26 -4 49 -10 51
-14 3 -3 0 -58 -5 -120 -13 -164 -12 -165 191 -207 118 -24 272 -32 300 -14 8
5 19 24 25 41 8 22 24 39 51 53 43 23 91 24 494 17 238 -4 339 8 453 54 74 30
111 65 184 167 74 106 139 160 260 219 154 75 202 88 348 99 231 18 337 32
405 55 89 30 110 42 110 63 0 10 -28 125 -61 257 -34 132 -74 293 -89 358 -16
65 -38 142 -49 170 -12 29 -30 106 -41 172 -83 478 -198 1006 -317 1455 -115
431 -160 613 -178 715 -22 130 -83 406 -146 664 -27 113 -57 243 -65 289 -8
45 -23 115 -34 155 -11 39 -24 113 -30 162 -24 199 -85 528 -154 835 -46 202
-82 443 -116 773 -17 170 -90 409 -228 753 l-20 50 136 0 c76 -1 144 3 153 7
14 7 27 -16 79 -140 155 -365 245 -636 276 -827 17 -105 17 -105 -6 -183 -18
-62 -25 -114 -30 -253 -4 -96 -12 -188 -19 -203 -15 -38 -14 -126 2 -157 9
-19 22 -26 49 -28 l37 -3 20 66 c12 37 21 77 21 89 0 36 31 129 40 120 4 -5
14 -33 23 -61 14 -50 13 -57 -9 -137 -25 -89 -21 -136 10 -136 15 0 66 93 66
119 0 7 5 9 10 6 6 -4 10 -63 10 -145 0 -147 8 -189 39 -197 12 -3 23 -21 31
-48 15 -53 44 -84 67 -69 13 8 15 29 14 118 -2 74 1 106 8 101 6 -3 11 -13 11
-20 0 -8 14 -30 31 -50 32 -36 75 -47 85 -21 6 17 -70 221 -124 333 -37 76
-39 86 -35 150 5 69 -17 301 -43 448 -8 44 -14 97 -14 118 0 21 -20 156 -45
300 -56 327 -79 490 -100 687 -8 85 -18 164 -20 176 -4 17 7 26 63 52 37 18
77 32 88 32 11 0 43 19 71 43 28 23 66 53 84 67 l32 26 -103 94 c-181 166
-281 264 -301 296 -11 18 -44 100 -74 184 -30 84 -56 154 -59 157 -2 2 18 36
45 75 52 75 56 91 37 133 -15 34 -37 32 -44 -5 -7 -33 -11 -35 -36 -16 -36 27
-88 341 -89 541 -1 82 7 157 31 295 37 216 36 274 -11 386 -54 128 -106 181
-199 198 -42 7 -98 -7 -114 -30 -10 -13 -19 -15 -41 -7 -31 10 -34 17 -44 110
-5 50 -3 64 8 68 24 9 -15 38 -102 75 l-77 33 -16 54 c-17 57 -15 86 6 139 12
27 11 36 -9 77 -13 26 -27 47 -32 47 -5 0 0 -13 12 -30 22 -29 22 -30 4 -84
-17 -51 -17 -57 -2 -122 21 -85 21 -81 -3 -87 -14 -4 -20 0 -20 13 0 9 -2 33
-5 51 -4 29 -3 30 4 9 l9 -25 1 25 c1 33 -25 158 -37 173 -14 19 -23 49 -12
42 6 -3 10 3 10 13 0 11 11 45 25 77 44 99 67 201 66 292 0 46 -3 88 -6 94 -4
5 -3 15 2 22 13 17 15 67 3 67 -21 0 -9 18 20 30 34 14 35 35 1 34 -26 -1 -26
6 -2 56 10 22 15 44 10 51 -4 7 -3 21 2 30 11 22 12 32 0 25 -5 -3 -13 27 -19
66 -11 72 -9 103 4 54 3 -14 10 -26 15 -26 5 0 6 7 3 15 -4 8 -1 21 5 29 6 7
8 16 4 19 -3 4 0 7 8 7 12 0 12 2 0 9 -11 7 -9 10 8 16 11 3 21 11 21 16 0 6
-4 7 -10 4 -15 -9 -12 2 6 30 28 42 3 226 -43 317 -13 27 -24 51 -25 55 -3 16
-47 43 -67 43 -12 0 -21 5 -21 10 0 6 -8 10 -18 10 -10 0 -23 5 -30 12 -8 8
-15 8 -27 -2 -8 -7 -15 -9 -15 -4 0 5 -5 2 -10 -6 -6 -10 -10 -11 -10 -2 0 6
-5 12 -11 12 -5 0 -8 -4 -5 -9 3 -4 -4 -17 -15 -27 -20 -18 -21 -18 -47 14
-15 18 -31 32 -35 32 -4 0 -20 13 -35 29 -27 28 -60 40 -177 62 -72 13 -78 15
-96 23 -8 4 -28 2 -43 -4 -34 -13 -39 -13 -31 0 6 10 -8 14 -17 5z m42 -45 c0
-5 -5 -10 -11 -10 -5 0 -7 5 -4 10 3 6 8 10 11 10 2 0 4 -4 4 -10z m60 -20 c0
-5 -5 -10 -11 -10 -5 0 -7 5 -4 10 3 6 8 10 11 10 2 0 4 -4 4 -10z m-255 -10
c-3 -5 -12 -10 -18 -10 -7 0 -6 4 3 10 19 12 23 12 15 0z m-52 -7 c-7 -2 -19
-2 -25 0 -7 3 -2 5 12 5 14 0 19 -2 13 -5z m-178 -83 c-3 -5 -11 -10 -16 -10
-6 0 -7 5 -4 10 3 6 11 10 16 10 6 0 7 -4 4 -10z m-83 -62 c-7 -7 -12 -8 -12
-2 0 14 12 26 19 19 2 -3 -1 -11 -7 -17z m-37 -18 c-20 -22 -39 -27 -32 -7 2
6 9 12 15 12 5 0 14 3 18 8 17 16 16 6 -1 -13z m1274 -253 c0 -21 -1 -21 -9
-2 -12 28 -12 37 0 30 6 -3 10 -16 9 -28z m-32 -27 c-1 -12 -5 -16 -10 -11 -5
5 -6 14 -3 20 11 16 15 13 13 -9z m10 -50 c1 -11 -2 -20 -5 -20 -4 0 -8 9 -9
20 -1 11 2 20 5 20 4 0 8 -9 9 -20z m-1517 -480 c8 -5 12 -11 9 -14 -3 -3 -14
1 -25 9 -21 16 -8 20 16 5z m-2 -461 l-13 -54 -7 50 c-4 31 -3 54 4 63 21 25
29 -4 16 -59z m-41 -7 c3 -43 -16 -108 -27 -95 -5 4 -13 24 -18 44 -9 33 -7
39 16 63 15 14 27 26 27 26 0 0 1 -17 2 -38z m33 -76 c0 -2 -8 -10 -17 -17
-16 -13 -17 -12 -4 4 13 16 21 21 21 13z m-38 -68 c-7 -7 -12 -8 -12 -2 0 14
12 26 19 19 2 -3 -1 -11 -7 -17z m1445 -110 c-3 -8 -6 -5 -6 6 -1 11 2 17 5
13 3 -3 4 -12 1 -19z m99 -2072 c-3 -11 -15 -120 -26 -241 -30 -320 -48 -486
-53 -491 -7 -7 -46 96 -58 155 -20 95 10 335 62 498 38 118 34 112 60 106 15
-4 19 -11 15 -27z"/>
<path d="M4566 11355 c-3 -9 -6 -22 -5 -28 0 -7 5 -1 10 12 5 13 8 26 5 28 -2
2 -6 -3 -10 -12z"/>
<path d="M4347 10656 c-4 -10 -5 -21 -2 -24 9 -9 17 6 13 25 -3 17 -4 17 -11
-1z"/>
</g>
</svg>
