<?xml version="1.0" standalone="no"?>
<!DOCTYPE svg PUBLIC "-//W3C//DTD SVG 20010904//EN"
 "http://www.w3.org/TR/2001/REC-SVG-20010904/DTD/svg10.dtd">
<svg version="1.0" xmlns="http://www.w3.org/2000/svg"
 width="1280.000000pt" height="1280.000000pt" viewBox="0 0 1280.000000 1280.000000"
 preserveAspectRatio="xMidYMid meet">
<metadata>
Created by potrace 1.15, written by Peter Selinger 2001-2017
</metadata>
<g transform="translate(0.000000,1280.000000) scale(0.100000,-0.100000)"
fill="#000000" stroke="none">
<path d="M6299 12080 c-36 -3 -76 -14 -89 -23 -27 -19 -55 -23 -44 -6 9 16
-26 -4 -54 -31 -12 -11 -26 -18 -31 -15 -16 9 -93 -26 -87 -40 3 -8 -3 -16
-12 -20 -9 -3 -18 -1 -20 4 -3 8 -10 8 -22 1 -11 -6 -17 -17 -14 -25 4 -9 -6
-19 -30 -29 -26 -11 -41 -26 -52 -53 -9 -21 -34 -56 -57 -78 -49 -48 -99 -124
-90 -138 10 -16 -19 -26 -43 -15 -20 9 -31 4 -83 -35 -33 -24 -57 -48 -53 -52
4 -5 1 -5 -5 -1 -7 4 -13 3 -13 -2 0 -12 -39 -52 -51 -52 -6 0 -7 6 -4 13 4 6
-1 3 -9 -7 -9 -11 -16 -27 -16 -36 0 -16 -38 -40 -63 -40 -13 0 -62 -48 -62
-61 0 -8 -35 -47 -99 -109 l-36 -35 0 27 c0 18 11 35 34 55 24 19 37 40 40 63
5 31 4 33 -8 18 -7 -10 -18 -18 -23 -18 -12 0 -42 -42 -60 -84 -15 -33 -17
-49 -4 -42 5 4 8 -2 6 -11 -2 -10 -4 -20 -4 -23 -1 -3 -6 2 -11 10 -6 9 -10
10 -10 3 0 -16 -51 -63 -70 -64 -10 0 -11 -2 -2 -6 9 -3 6 -12 -10 -29 -13
-13 -27 -24 -33 -24 -5 0 -4 4 4 9 10 7 7 9 -12 8 -22 -2 -31 -12 -52 -58 -14
-31 -25 -64 -25 -73 0 -9 -4 -24 -9 -34 -5 -9 -18 -39 -28 -65 -10 -26 -31
-61 -46 -77 -32 -32 -79 -100 -71 -100 4 0 23 13 43 28 57 45 67 48 42 13 -13
-18 -36 -37 -51 -42 -21 -8 -26 -15 -23 -33 4 -17 -5 -33 -31 -60 -39 -38 -56
-45 -56 -22 0 7 13 19 28 25 29 12 58 66 41 77 -5 3 -9 0 -9 -6 0 -15 -48 -62
-58 -56 -4 2 -12 -7 -19 -20 -6 -13 -7 -22 -2 -18 15 9 10 -10 -7 -32 -14 -17
-15 -17 -10 -1 9 28 -14 9 -26 -21 -5 -15 -11 -32 -12 -39 -1 -7 -5 -16 -9
-19 -10 -11 -8 -24 3 -24 6 0 15 10 20 23 8 21 9 21 9 1 1 -13 -9 -25 -25 -32
-14 -7 -23 -16 -19 -21 3 -5 1 -12 -5 -16 -5 -3 -10 -11 -10 -17 0 -6 6 -6 15
2 23 19 30 4 11 -25 -9 -14 -13 -25 -8 -25 15 0 32 24 32 47 0 13 5 23 11 23
7 0 10 -14 7 -35 -2 -19 0 -35 4 -35 4 0 8 -7 8 -15 0 -8 4 -15 9 -15 10 0 19
-40 13 -58 -2 -7 -12 -12 -21 -12 -20 0 -76 -48 -67 -57 3 -3 14 0 23 8 16 12
17 12 6 -2 -7 -9 -10 -19 -7 -22 4 -4 -7 -14 -23 -23 -21 -12 -35 -34 -52 -78
-12 -34 -24 -70 -25 -81 -2 -12 -1 -13 1 -2 2 9 9 17 14 17 5 0 9 9 9 19 0 33
17 32 33 -1 11 -24 13 -36 5 -45 -6 -7 -8 -28 -5 -47 5 -31 2 -36 -41 -67 -48
-34 -79 -68 -74 -82 1 -5 -3 -26 -9 -48 -11 -35 -10 -42 8 -62 33 -36 37 -64
13 -95 -75 -97 -104 -142 -82 -128 5 3 9 -1 9 -9 0 -8 -4 -12 -7 -10 -4 3 -10
-14 -13 -37 -5 -35 -1 -46 25 -79 27 -33 28 -40 17 -61 -23 -41 -42 -200 -30
-245 4 -16 2 -43 -6 -66 -11 -31 -11 -50 -1 -97 9 -47 9 -73 -3 -141 -15 -82
-9 -149 12 -149 5 0 9 -9 9 -19 0 -11 5 -21 11 -23 8 -3 8 -19 -1 -61 -12 -54
-12 -60 8 -96 14 -25 22 -56 22 -87 0 -34 8 -63 26 -94 42 -73 66 -147 57
-172 -4 -13 -8 -27 -8 -33 0 -5 -11 -32 -24 -58 -20 -40 -22 -53 -12 -73 7
-17 8 -31 1 -42 -8 -15 -9 -15 -10 3 0 14 -3 16 -11 8 -9 -9 -9 -20 1 -45 19
-47 27 -53 25 -19 -3 47 11 61 32 31 29 -42 72 -86 73 -74 0 6 -9 21 -20 34
-20 23 -26 40 -14 40 3 0 15 -12 26 -26 27 -33 41 -14 23 30 -9 21 -10 37 -4
47 5 7 9 30 9 49 0 34 14 60 32 60 4 0 8 -4 8 -10 0 -5 -6 -9 -12 -7 -14 2
-14 -2 -2 -113 7 -61 35 -135 52 -135 15 0 55 -45 47 -52 -4 -5 -10 -2 -12 5
-9 25 -18 11 -18 -30 0 -26 -5 -43 -14 -46 -9 -3 -11 0 -6 8 6 9 4 11 -4 6 -7
-5 -10 -10 -7 -13 3 -3 -3 -18 -12 -32 -10 -14 -19 -37 -20 -51 0 -14 -6 -26
-12 -28 -20 -7 -11 -91 15 -131 13 -22 29 -42 35 -46 5 -3 10 -11 10 -16 0 -6
-4 -7 -10 -4 -5 3 -10 1 -10 -5 0 -7 7 -9 16 -6 9 3 17 6 19 6 2 0 -4 21 -12
48 -8 26 -16 54 -17 62 -1 9 -5 20 -8 26 -4 6 2 26 14 45 19 31 21 32 28 14 4
-12 16 -27 26 -35 16 -14 16 -13 6 7 -15 28 -15 40 0 25 7 -7 16 -12 21 -12 5
0 -1 8 -13 18 -27 22 -21 53 14 72 13 7 32 28 42 46 10 19 22 34 26 34 3 0 10
-25 13 -55 7 -55 35 -100 35 -57 0 42 43 1 45 -43 1 -15 36 -65 46 -65 5 0 9
7 9 16 0 11 5 14 17 10 15 -6 15 -5 -1 13 -26 28 -16 47 12 21 12 -11 22 -17
22 -12 0 6 -11 17 -25 26 -23 15 -38 45 -15 31 5 -3 4 8 -3 24 -18 42 -10 104
15 120 29 18 42 -4 21 -36 -23 -35 1 -28 35 11 27 31 51 103 43 131 -2 7 1 6
8 0 13 -13 17 -118 7 -162 -9 -39 5 -44 28 -11 18 26 21 109 6 139 -7 13 -7
19 0 19 5 0 10 8 10 18 0 15 2 15 11 2 8 -12 9 -11 7 5 -3 25 27 65 66 85 16
8 35 25 44 38 13 20 13 24 -2 41 -9 9 -13 21 -10 24 4 4 13 -1 21 -11 13 -15
13 -14 9 13 -3 17 -1 50 3 75 5 25 9 39 10 32 0 -7 7 -20 15 -28 8 -7 16 -19
18 -26 4 -10 8 -10 22 1 9 8 15 20 12 28 -4 9 -1 11 6 7 8 -5 9 2 4 22 -5 21
-4 25 4 14 8 -12 12 -13 19 -2 6 11 10 10 15 -3 9 -24 7 -32 -4 -15 -8 13 -10
12 -10 -2 0 -10 5 -18 10 -18 6 0 10 -8 10 -19 0 -28 24 -45 40 -27 6 9 9 19
6 24 -3 5 -7 19 -10 33 -3 13 -10 38 -17 55 -11 28 -10 34 15 67 26 33 54 53
63 43 3 -2 27 -76 54 -163 78 -251 88 -444 37 -703 -30 -151 -47 -378 -55
-725 -5 -218 -4 -223 41 -560 51 -373 70 -468 151 -750 70 -247 90 -332 125
-550 71 -438 124 -890 114 -964 -4 -27 -21 -65 -45 -99 -74 -105 -120 -276
-121 -441 0 -89 6 -134 40 -281 23 -96 59 -265 81 -375 23 -110 50 -238 61
-285 40 -171 35 -314 -16 -436 -8 -18 -19 -87 -24 -151 -10 -126 -40 -321 -67
-437 -16 -70 -16 -87 1 -336 4 -74 19 -100 55 -100 17 0 31 -7 35 -16 4 -11
16 -15 39 -13 18 2 43 -4 56 -13 25 -18 51 -14 64 10 7 11 12 10 24 -7 21 -31
60 -27 80 7 l16 28 23 -23 c31 -31 87 -31 118 0 22 22 23 28 19 153 -2 79 -13
170 -26 234 -19 93 -22 134 -21 350 1 135 2 344 2 465 1 136 7 264 17 335 20
155 78 446 120 605 43 165 65 289 65 374 0 76 30 225 65 322 41 116 74 251 85
359 7 58 15 301 20 540 7 383 16 523 41 695 1 6 5 -15 9 -45 14 -97 11 -428
-6 -655 -21 -282 -14 -486 21 -690 32 -187 34 -308 6 -479 -29 -173 -43 -355
-36 -446 4 -41 17 -159 30 -261 40 -311 57 -805 48 -1424 -1 -82 -2 -193 -1
-245 1 -52 -2 -123 -6 -156 -13 -95 -3 -130 48 -166 35 -24 45 -38 50 -68 4
-24 19 -52 43 -78 21 -22 46 -52 56 -66 10 -15 31 -28 51 -32 40 -7 105 11
113 32 4 11 11 8 30 -12 18 -20 29 -24 46 -19 12 4 40 8 62 9 22 1 45 4 51 8
5 4 34 10 63 14 63 8 87 35 78 89 -10 60 -40 108 -113 180 -81 80 -115 127
-171 240 l-40 80 2 210 c2 221 12 308 61 513 29 123 174 790 209 962 60 297
62 573 8 900 -9 53 -16 150 -15 220 1 287 61 592 337 1705 47 187 94 396 105
465 34 216 70 575 70 696 0 250 -90 519 -258 769 -79 118 -247 320 -308 370
-94 77 -256 239 -279 279 -45 78 -51 142 -30 354 25 271 17 634 -20 842 -56
321 -44 446 72 720 73 174 94 213 200 379 89 139 139 241 183 376 18 55 61
163 95 240 34 77 67 154 73 170 19 50 49 183 72 321 22 127 22 132 6 206 -20
90 -51 142 -87 146 -14 2 -59 -10 -100 -26 -41 -16 -110 -40 -154 -52 -117
-32 -204 -76 -345 -171 -69 -47 -130 -88 -137 -92 -21 -13 -23 10 -3 35 19 24
19 25 -1 57 -11 18 -25 72 -32 121 l-14 89 -86 85 c-49 49 -98 88 -114 92 -15
4 -35 12 -43 19 -20 16 -146 49 -159 41 -5 -3 -35 0 -68 8 -86 21 -111 23
-184 16z m-686 -507 c-7 -2 -19 -2 -25 0 -7 3 -2 5 12 5 14 0 19 -2 13 -5z
m57 -24 c0 -6 -9 -13 -20 -16 -11 -3 -17 -9 -14 -14 6 -11 1 -11 -21 -2 -15 5
-15 8 6 24 27 21 49 24 49 8z m-113 -101 c-7 -10 -15 -18 -19 -18 -10 0 -10 3
3 37 8 21 12 24 19 14 5 -9 3 -22 -3 -33z m-37 -9 c0 -4 -7 -9 -15 -13 -8 -3
-15 -1 -15 5 0 6 -4 7 -10 4 -5 -3 -10 -2 -10 3 0 6 11 9 25 8 14 0 25 -4 25
-7z m-176 -156 c-20 -21 -51 -51 -67 -68 -41 -41 -22 -9 32 54 24 28 51 51 59
51 8 0 -1 -15 -24 -37z m-109 -42 c-3 -6 -11 -11 -17 -11 -6 0 -6 6 2 15 14
17 26 13 15 -4z m-219 -215 c-22 -20 -34 -39 -31 -48 4 -10 -2 -17 -16 -21
-16 -4 -19 -3 -10 6 6 6 11 17 11 25 0 8 8 21 18 29 16 14 16 14 -1 9 -15 -5
-18 -1 -15 17 2 17 9 21 30 19 14 -1 30 3 34 10 6 9 9 9 12 0 2 -6 -13 -27
-32 -46z m2050 -44 c-36 -109 -65 -149 -183 -259 -84 -79 -119 -119 -157 -184
-27 -46 -70 -115 -95 -152 -49 -74 -58 -77 -133 -48 -24 9 -27 14 -22 48 10
75 11 102 2 97 -5 -3 -8 -13 -7 -22 3 -32 -1 -43 -13 -36 -7 4 -8 3 -4 -4 4
-7 4 -17 0 -24 -11 -18 -20 16 -16 62 l4 40 48 0 c75 0 105 16 158 83 71 89
184 274 203 331 l17 49 108 47 c60 26 110 47 112 45 1 -1 -8 -34 -22 -73z
m-2076 -47 c-7 -9 -15 -13 -19 -10 -3 3 1 10 9 15 21 14 24 12 10 -5z m-315
-455 c-4 -12 -9 -19 -12 -17 -3 3 -2 15 2 27 4 12 9 19 12 17 3 -3 2 -15 -2
-27z m-231 -1175 c3 -8 1 -15 -3 -15 -5 0 -11 7 -15 15 -3 8 -1 15 3 15 5 0
11 -7 15 -15z m821 -47 c-4 -16 -3 -19 3 -9 6 7 12 9 15 4 4 -6 -1 -19 -9 -29
-9 -10 -13 -13 -9 -6 3 6 1 12 -4 12 -6 0 -11 -5 -11 -11 0 -5 -4 -7 -10 -4
-18 11 0 65 21 65 6 0 8 -10 4 -22z m-40 -58 c3 -5 1 -10 -4 -10 -6 0 -11 5
-11 10 0 6 2 10 4 10 3 0 8 -4 11 -10z m-827 -355 c-3 -3 -9 2 -12 12 -6 14
-5 15 5 6 7 -7 10 -15 7 -18z m474 -107 c-8 -8 -9 -4 -5 13 4 13 8 18 11 10 2
-7 -1 -18 -6 -23z m535 -20 c-3 -8 -6 -5 -6 6 -1 11 2 17 5 13 3 -3 4 -12 1
-19z m-2 -118 c-3 -5 -11 -10 -16 -10 -6 0 -7 5 -4 10 3 6 11 10 16 10 6 0 7
-4 4 -10z m-955 -96 c0 -12 -4 -25 -9 -28 -11 -7 -21 17 -21 51 0 21 2 24 15
13 8 -7 15 -23 15 -36z m920 26 c-6 -11 -13 -20 -16 -20 -2 0 0 9 6 20 6 11
13 20 16 20 2 0 0 -9 -6 -20z m-666 -7 c4 -9 2 -21 -4 -27 -7 -7 -10 -7 -10 1
0 6 -3 18 -6 27 -3 9 -2 16 4 16 5 0 13 -8 16 -17z m36 2 c0 -8 -4 -15 -10
-15 -5 0 -10 7 -10 15 0 8 5 15 10 15 6 0 10 -7 10 -15z m709 -59 c-9 -8 -10
-7 -5 7 3 10 7 24 7 30 1 7 3 4 6 -7 3 -10 -1 -23 -8 -30z m-929 -70 c0 -3 -4
-8 -10 -11 -5 -3 -10 -1 -10 4 0 6 5 11 10 11 6 0 10 -2 10 -4z m799 -74 c-1
-34 -8 -64 -17 -74 -20 -24 4 -25 30 -1 17 15 18 15 18 -9 0 -14 -7 -32 -17
-39 -15 -13 -15 -12 -4 9 17 32 8 38 -12 8 -18 -27 -25 -51 -31 -111 -3 -22
-5 -42 -5 -44 -1 -2 -10 4 -20 13 -11 10 -17 25 -14 34 4 9 2 13 -5 8 -20 -12
-24 15 -5 37 11 12 23 31 27 42 5 17 3 17 -14 -4 -11 -13 -20 -18 -20 -12 0
13 11 28 52 72 24 27 26 43 1 18 -15 -15 -8 88 7 106 21 25 31 6 29 -53z
m-299 34 c0 -8 -8 -20 -17 -27 -15 -12 -16 -12 -10 4 4 10 7 25 7 33 0 9 5 12
10 9 6 -3 10 -12 10 -19z m387 -86 c-2 -29 -17 -24 -17 6 0 14 4 23 9 19 6 -3
9 -14 8 -25z m43 -5 c0 -8 -4 -15 -10 -15 -5 0 -10 7 -10 15 0 8 5 15 10 15 6
0 10 -7 10 -15z m60 -21 c0 -14 -6 -24 -14 -24 -8 0 -22 -7 -30 -16 -23 -23
-19 1 6 40 25 38 38 38 38 0z m-480 -1 c0 -30 -17 -50 -31 -36 -6 6 -8 17 -4
23 6 9 10 9 16 -1 6 -10 9 -8 9 9 0 12 2 22 5 22 3 0 5 -8 5 -17z m-353 -35
c-3 -8 -6 -5 -6 6 -1 11 2 17 5 13 3 -3 4 -12 1 -19z m32 -48 c0 -10 -3 -8 -9
5 -12 27 -12 43 0 25 5 -8 9 -22 9 -30z m-42 9 c-3 -12 0 -31 7 -43 11 -18 10
-28 -5 -66 l-17 -45 -1 60 c-1 62 7 115 16 115 3 0 3 -10 0 -21z m770 -21
c-15 -9 -19 -4 -11 16 5 14 9 15 15 5 5 -8 3 -17 -4 -21z m-685 -105 c-2 -13
-9 -23 -14 -23 -5 0 -6 5 -2 12 5 8 2 9 -11 5 -14 -6 -16 -3 -11 15 3 13 6 36
6 53 l0 30 18 -34 c10 -19 17 -45 14 -58z m625 0 c-3 -10 -5 -2 -5 17 0 19 2
27 5 18 2 -10 2 -26 0 -35z m-183 -5 c-4 -7 -3 -8 4 -4 7 4 12 2 12 -3 0 -6
-4 -11 -10 -11 -15 0 -12 -38 4 -47 7 -4 17 -26 20 -48 6 -37 4 -43 -33 -82
-44 -48 -51 -52 -44 -23 3 11 9 20 13 20 5 0 7 8 5 18 -2 9 -4 22 -5 27 0 6
-7 2 -14 -7 -7 -10 -16 -15 -19 -11 -14 13 -7 52 10 62 10 5 15 12 11 16 -6 7
5 60 24 108 9 24 13 26 20 13 5 -9 6 -21 2 -28z m83 -44 c1 -32 -1 -35 -14
-21 -12 12 -13 18 -1 36 7 11 13 21 13 21 1 0 1 -16 2 -36z m-557 12 c0 -2 -8
-10 -17 -17 -16 -13 -17 -12 -4 4 13 16 21 21 21 13z m333 -61 c-22 -16 -28
-12 -18 12 8 17 10 24 14 41 1 4 7 -4 12 -17 7 -18 5 -26 -8 -36z m-301 -70
c-2 -19 -8 -32 -13 -30 -4 3 -6 12 -4 20 3 8 7 22 10 30 8 26 11 16 7 -20z
m323 -53 c-13 -13 -23 22 -12 42 11 20 12 20 15 -7 2 -16 1 -32 -3 -35z m-418
16 c1 -26 -1 -29 -7 -13 -6 17 -3 45 5 45 1 0 2 -15 2 -32z m-93 0 c-6 -19 -5
-21 8 -11 8 7 17 10 20 7 8 -7 -3 -44 -13 -44 -14 0 -29 37 -23 54 9 25 16 19
8 -6z m161 -105 c-9 -21 -15 -38 -14 -38 2 0 -2 -9 -8 -19 -9 -17 -10 -14 -8
15 2 19 4 34 5 34 1 0 3 10 4 22 1 12 -1 20 -6 17 -11 -7 -10 -1 3 33 l11 28
14 -27 c13 -24 13 -32 -1 -65z m272 65 c-3 -8 -6 -5 -6 6 -1 11 2 17 5 13 3
-3 4 -12 1 -19z m-64 -96 c-3 -20 -6 -47 -7 -59 -1 -12 -6 -26 -10 -30 -5 -4
-6 -2 -2 5 4 6 2 12 -4 12 -6 0 -9 3 -7 8 3 4 0 20 -7 37 -11 25 -10 32 7 52
26 30 37 21 30 -25z m95 12 c-10 -10 -28 6 -28 24 0 15 1 15 17 -1 9 -9 14
-19 11 -23z m-64 -30 c5 -14 4 -15 -9 -4 -17 14 -19 20 -6 20 5 0 12 -7 15
-16z"/>
<path d="M5487 11553 c-4 -3 -7 -11 -7 -17 0 -6 5 -5 12 2 6 6 9 14 7 17 -3 3
-9 2 -12 -2z"/>
<path d="M5456 11513 c-6 -14 -5 -15 5 -6 7 7 10 15 7 18 -3 3 -9 -2 -12 -12z"/>
<path d="M4867 10983 c-4 -3 -7 -11 -7 -17 0 -6 5 -5 12 2 6 6 9 14 7 17 -3 3
-9 2 -12 -2z"/>
<path d="M4826 10944 c-11 -28 -6 -38 9 -18 8 10 15 22 15 27 0 13 -18 7 -24
-9z"/>
<path d="M4787 10844 c-8 -8 1 -24 14 -24 5 0 9 7 9 15 0 15 -12 20 -23 9z"/>
<path d="M4820 10834 c0 -8 5 -12 10 -9 6 3 10 10 10 16 0 5 -4 9 -10 9 -5 0
-10 -7 -10 -16z"/>
<path d="M4755 10798 l-30 -20 30 7 c33 7 51 20 38 28 -4 2 -21 -4 -38 -15z"/>
<path d="M4622 10735 c-14 -17 -32 -61 -32 -78 1 -7 7 2 14 18 7 17 20 36 29
44 18 14 23 31 10 31 -5 -1 -14 -7 -21 -15z"/>
<path d="M4707 10713 c-4 -3 -7 -11 -7 -17 0 -6 5 -5 12 2 6 6 9 14 7 17 -3 3
-9 2 -12 -2z"/>
<path d="M4672 10647 c-17 -40 -15 -55 4 -29 8 12 14 30 11 40 -3 13 -6 11
-15 -11z"/>
<path d="M4564 10305 c-4 -8 -10 -15 -16 -15 -5 0 -6 5 -2 12 4 7 3 8 -5 4
-12 -8 -6 -26 9 -26 5 0 14 9 20 20 6 11 8 20 5 20 -3 0 -8 -7 -11 -15z"/>
<path d="M4621 10264 c0 -11 3 -14 6 -6 3 7 2 16 -1 19 -3 4 -6 -2 -5 -13z"/>
<path d="M4436 10203 c-6 -14 -5 -15 5 -6 7 7 10 15 7 18 -3 3 -9 -2 -12 -12z"/>
<path d="M4590 10139 c0 -5 5 -7 10 -4 6 3 10 8 10 11 0 2 -4 4 -10 4 -5 0
-10 -5 -10 -11z"/>
<path d="M4531 10074 c0 -11 3 -14 6 -6 3 7 2 16 -1 19 -3 4 -6 -2 -5 -13z"/>
<path d="M5160 7670 c0 -5 5 -10 11 -10 5 0 7 5 4 10 -3 6 -8 10 -11 10 -2 0
-4 -4 -4 -10z"/>
</g>
</svg>
