<?xml version="1.0" standalone="no"?>
<!DOCTYPE svg PUBLIC "-//W3C//DTD SVG 20010904//EN"
 "http://www.w3.org/TR/2001/REC-SVG-20010904/DTD/svg10.dtd">
<svg version="1.0" xmlns="http://www.w3.org/2000/svg"
 width="989.000000pt" height="1280.000000pt" viewBox="0 0 989.000000 1280.000000"
 preserveAspectRatio="xMidYMid meet">
<metadata>
Created by potrace 1.15, written by Peter Selinger 2001-2017
</metadata>
<g transform="translate(0.000000,1280.000000) scale(0.100000,-0.100000)"
fill="#000000" stroke="none">
<path d="M5020 12666 c-30 -14 -71 -25 -90 -26 -100 -1 -226 -58 -341 -153
-78 -66 -111 -111 -150 -208 -16 -39 -55 -111 -87 -158 -77 -114 -108 -187
-133 -312 -11 -57 -32 -133 -46 -169 -71 -179 -70 -330 1 -468 9 -17 20 -33
25 -37 5 -3 2 9 -7 27 -8 18 -17 57 -20 88 l-4 55 20 -31 c18 -29 67 -53 80
-39 3 3 -2 5 -12 5 -27 0 -46 60 -46 147 0 97 24 270 44 315 17 38 20 20 6
-37 -13 -54 -22 -386 -11 -404 7 -10 11 -1 16 32 5 29 11 44 18 40 6 -4 8 0 4
10 -3 10 -3 17 1 17 20 -1 30 -20 36 -69 4 -30 16 -80 27 -110 14 -42 19 -82
19 -166 0 -131 -5 -155 -32 -155 -37 0 -79 -35 -147 -120 -82 -104 -159 -171
-226 -196 -27 -10 -69 -33 -92 -51 -24 -18 -83 -49 -131 -69 -48 -20 -108 -49
-134 -66 -54 -34 -115 -118 -149 -206 -26 -65 -27 -99 -15 -702 7 -325 8 -347
28 -380 20 -34 21 -42 14 -407 -5 -318 -4 -383 9 -448 39 -187 183 -503 372
-818 l96 -160 -17 -216 c-10 -119 -28 -297 -41 -396 -45 -347 -42 -479 20
-793 49 -252 59 -344 104 -997 21 -292 21 -305 46 -840 9 -181 20 -340 25
-352 10 -24 63 -43 121 -43 l37 0 5 -157 c4 -144 8 -174 50 -343 83 -341 146
-614 173 -757 24 -126 26 -148 15 -185 -7 -24 -17 -51 -22 -60 -12 -23 -12
-85 0 -92 11 -7 19 -52 31 -166 4 -47 18 -139 30 -205 22 -123 53 -461 51
-549 -1 -31 4 -55 14 -66 8 -9 21 -38 29 -65 8 -26 27 -61 43 -77 28 -29 28
-31 28 -152 0 -118 1 -124 33 -189 37 -75 83 -118 179 -166 146 -73 234 -92
271 -58 11 10 32 46 48 80 24 53 28 75 28 152 1 82 -2 94 -28 139 -40 67 -57
159 -37 209 13 35 13 43 -8 105 -66 191 -94 381 -73 489 6 32 13 121 16 198 4
119 12 175 55 380 28 132 78 337 110 455 168 606 199 766 210 1060 l6 165 160
32 c587 119 793 179 958 277 89 53 102 74 87 135 -28 110 -157 769 -226 1151
-98 545 -101 569 -114 750 -21 307 -59 496 -171 870 -107 354 -177 537 -300
781 l-48 96 49 124 c83 210 100 283 100 422 0 114 -4 180 -34 557 -12 145 -12
156 5 180 17 23 18 37 8 190 -5 91 -14 201 -19 245 -5 44 -16 186 -24 315 -16
243 -26 302 -73 393 -39 79 -94 129 -203 188 -55 30 -100 59 -100 65 0 12 -94
54 -295 134 -198 79 -315 140 -315 165 0 26 48 125 61 125 5 0 36 27 70 60 42
41 65 58 72 51 14 -14 -9 -41 -34 -41 -21 0 -26 -16 -6 -23 8 -3 2 -15 -18
-33 -26 -26 -27 -29 -10 -33 17 -3 15 -7 -13 -30 l-33 -26 63 1 63 2 74 78
c40 44 66 68 57 54 -9 -14 -27 -47 -40 -75 -28 -58 -74 -106 -131 -135 -36
-18 -37 -20 -10 -14 l30 5 -25 -15 c-14 -8 -19 -15 -12 -16 19 0 101 48 135
79 35 32 123 180 167 279 17 41 48 95 67 120 20 26 60 97 90 159 29 61 57 113
61 115 8 3 28 39 105 189 38 75 51 179 38 307 -12 109 -27 159 -75 247 -18 34
-41 88 -51 120 -14 48 -28 71 -73 117 -32 31 -67 68 -79 82 -15 16 -38 27 -69
32 -36 5 -56 16 -86 46 -34 34 -44 39 -86 38 -26 -1 -78 2 -117 5 -60 4 -78 2
-125 -19z m-683 -1213 c-3 -10 -9 -36 -13 -58 -6 -37 -8 -38 -14 -15 -5 14 -8
40 -9 58 -1 26 3 32 20 32 15 0 19 -5 16 -17z m841 -515 c-25 -29 -54 -54 -64
-56 -14 -3 -10 6 16 31 19 18 43 43 52 55 10 12 23 22 29 22 6 0 -9 -24 -33
-52z m367 -2680 c-11 -63 -17 -66 -31 -17 -8 24 -14 45 -14 46 0 2 30 10 43
12 5 0 6 -18 2 -41z"/>
<path d="M4211 11921 c-29 -69 -26 -78 5 -12 13 30 23 56 20 58 -2 2 -13 -19
-25 -46z"/>
<path d="M4161 11772 c-12 -37 -25 -74 -28 -82 -4 -10 -2 -12 5 -5 11 12 56
144 50 150 -2 3 -14 -26 -27 -63z"/>
<path d="M5550 11289 c-7 -11 -10 -23 -7 -25 2 -2 9 7 15 21 14 30 7 33 -8 4z"/>
<path d="M5511 11214 c-12 -19 -16 -32 -11 -29 11 7 43 65 36 65 -2 0 -13 -16
-25 -36z"/>
<path d="M5440 11108 c-22 -33 -40 -66 -40 -72 0 -6 6 -2 12 9 6 11 26 44 44
73 19 28 31 52 29 52 -3 0 -23 -28 -45 -62z"/>
</g>
</svg>
