<?xml version="1.0" standalone="no"?>
<!DOCTYPE svg PUBLIC "-//W3C//DTD SVG 20010904//EN"
 "http://www.w3.org/TR/2001/REC-SVG-20010904/DTD/svg10.dtd">
<svg version="1.0" xmlns="http://www.w3.org/2000/svg"
 width="640.000000pt" height="1280.000000pt" viewBox="0 0 640.000000 1280.000000"
 preserveAspectRatio="xMidYMid meet">
<metadata>
Created by potrace 1.15, written by Peter Selinger 2001-2017
</metadata>
<g transform="translate(0.000000,1280.000000) scale(0.100000,-0.100000)"
fill="#000000" stroke="none">
<path d="M2417 12789 c-85 -20 -172 -90 -202 -163 -11 -25 -23 -34 -58 -43
-69 -19 -126 -69 -164 -143 -236 -464 -325 -692 -403 -1030 -12 -52 -40 -167
-63 -255 -22 -88 -41 -182 -42 -210 -1 -27 -14 -88 -29 -134 -24 -76 -27 -118
-6 -81 31 54 104 142 128 154 63 33 85 -23 117 -289 40 -334 98 -502 205 -598
44 -40 110 -76 110 -61 0 3 -16 24 -35 47 -25 29 -35 50 -35 74 0 37 -24 93
-40 93 -5 0 -12 11 -16 24 -6 27 13 72 45 100 12 11 21 30 21 43 0 17 5 23 18
21 13 -2 19 9 29 52 6 30 12 81 12 113 1 51 11 71 25 49 3 -5 -2 -46 -11 -93
-21 -116 -21 -357 1 -479 9 -52 19 -110 22 -127 3 -18 8 -33 13 -33 18 0 46
30 57 61 l12 34 7 -32 c5 -22 13 -33 25 -33 13 0 19 -11 24 -46 3 -26 6 -305
6 -620 l0 -574 -29 -107 c-17 -60 -59 -215 -95 -345 -93 -339 -156 -678 -156
-842 0 -27 -47 -275 -105 -552 l-105 -504 -114 -208 c-62 -115 -116 -217 -120
-228 -5 -16 4 -28 36 -54 24 -19 47 -41 52 -49 5 -9 31 -37 57 -63 36 -35 57
-48 78 -48 17 0 33 5 36 11 5 6 13 3 22 -10 22 -33 45 -41 88 -31 30 7 43 5
56 -6 18 -16 44 -10 53 12 8 21 26 7 26 -19 -1 -36 -33 -64 -116 -103 -92 -42
-178 -64 -364 -94 -151 -25 -227 -49 -257 -83 -51 -57 -150 -343 -196 -567
-44 -213 -44 -203 -1 -238 l37 -31 30 22 c22 16 31 19 34 9 7 -20 33 -42 49
-42 16 0 48 44 107 149 l42 74 110 47 c79 34 130 49 180 54 39 4 153 17 255
28 136 16 244 22 405 22 197 0 230 -2 314 -23 52 -13 124 -35 160 -50 l66 -26
8 -161 c8 -152 7 -167 -17 -275 -79 -356 -81 -592 -6 -1184 21 -170 41 -339
45 -375 11 -111 25 -186 85 -460 33 -146 64 -305 71 -354 13 -99 6 -213 -16
-275 -12 -35 -11 -54 6 -158 21 -132 24 -228 8 -270 -6 -16 -10 -97 -10 -193
1 -169 -26 -384 -65 -520 -33 -117 3 -249 91 -335 85 -82 268 -154 392 -155
69 0 89 15 118 89 79 196 91 297 52 436 -44 157 -76 336 -88 490 -6 83 -22
221 -35 308 -13 87 -24 180 -24 206 0 26 -9 83 -20 127 -44 171 -53 258 -41
383 6 64 15 184 21 266 6 83 27 274 46 425 46 355 54 575 29 780 -11 86 -19
215 -19 315 0 151 3 189 33 345 18 96 34 176 36 178 2 2 74 -35 162 -81 180
-96 730 -386 813 -429 93 -47 177 -68 321 -80 l136 -11 95 46 c104 50 179 114
221 187 76 132 85 379 26 716 -96 555 -162 844 -260 1137 -50 151 -150 388
-177 420 -23 26 -10 29 33 7 51 -26 92 -26 100 0 5 16 10 18 33 9 21 -8 29 -7
39 7 7 10 13 23 13 29 0 6 -28 49 -62 96 -49 67 -65 98 -79 154 -9 39 -15 73
-12 78 10 16 21 5 27 -28 9 -46 93 -213 123 -242 19 -20 26 -22 44 -12 19 10
21 17 15 57 -3 25 -24 100 -45 166 l-39 121 5 235 c4 164 2 267 -8 340 -21
169 -19 185 54 434 128 436 207 787 248 1111 11 88 27 185 35 215 19 75 18
126 -11 341 -25 192 -149 856 -211 1129 -71 313 -154 589 -216 717 -42 86 -80
127 -144 159 -54 26 -57 27 -187 20 -134 -7 -175 -14 -374 -59 -62 -15 -153
-29 -202 -33 l-90 -7 24 69 c14 38 25 84 25 102 0 42 -30 72 -74 72 -18 0 -54
3 -80 6 -44 6 -46 8 -30 25 11 13 15 28 11 49 -5 24 -3 30 11 30 28 0 81 37
102 72 14 23 20 47 18 77 -3 43 -4 44 -53 63 -41 16 -53 26 -67 58 -15 35 -20
40 -50 40 -36 0 -108 -40 -142 -78 -11 -12 -22 -22 -26 -22 -3 0 -12 22 -20
49 -13 47 -15 49 -64 63 l-51 13 -3 50 c-2 31 -9 53 -18 58 -8 5 -31 40 -50
80 -46 89 -111 190 -165 251 -48 54 -254 221 -319 258 -157 89 -386 137 -513
107z m541 -3397 c24 -19 63 -64 87 -101 23 -36 71 -111 107 -166 35 -55 79
-114 97 -132 37 -38 55 -78 77 -170 20 -87 19 -197 -2 -259 -20 -60 -42 -91
-172 -240 -120 -137 -235 -287 -276 -359 -16 -27 -71 -105 -123 -172 -75 -98
-102 -143 -133 -220 -75 -188 -96 -312 -106 -613 -10 -305 37 -646 192 -1379
35 -168 63 -309 62 -313 -2 -5 -45 18 -96 49 -84 53 -93 62 -103 98 -32 131
-92 238 -158 282 -58 39 -104 46 -258 40 -131 -6 -143 -5 -143 11 0 9 -14 62
-30 117 -38 128 -39 195 -4 278 53 125 66 175 80 304 9 93 20 149 38 190 13
32 52 141 86 243 50 150 90 243 212 490 249 506 255 528 308 1115 5 66 26 228
45 360 40 274 55 430 55 563 l0 93 58 -37 c31 -20 76 -52 100 -72z m716 -2987
c33 -50 38 -67 57 -197 33 -232 74 -385 147 -553 48 -111 311 -765 307 -765
-1 0 -59 27 -127 60 -142 69 -280 108 -410 117 -75 5 -88 9 -88 24 0 9 7 75
15 146 26 230 45 559 52 894 3 181 7 329 8 329 1 0 19 -25 39 -55z"/>
</g>
</svg>
