<?xml version="1.0" standalone="no"?>
<!DOCTYPE svg PUBLIC "-//W3C//DTD SVG 20010904//EN"
 "http://www.w3.org/TR/2001/REC-SVG-20010904/DTD/svg10.dtd">
<svg version="1.0" xmlns="http://www.w3.org/2000/svg"
 width="640.000000pt" height="1280.000000pt" viewBox="0 0 640.000000 1280.000000"
 preserveAspectRatio="xMidYMid meet">
<metadata>
Created by potrace 1.15, written by Peter Selinger 2001-2017
</metadata>
<g transform="translate(0.000000,1280.000000) scale(0.100000,-0.100000)"
fill="#000000" stroke="none">
<path d="M3410 12789 c-14 -6 -35 -20 -48 -32 -13 -12 -43 -26 -68 -33 -43
-11 -47 -10 -70 13 -14 14 -31 22 -42 19 -50 -15 -190 -35 -282 -41 -166 -11
-295 -53 -468 -154 -39 -22 -130 -64 -204 -92 -222 -84 -397 -149 -528 -194
-228 -79 -413 -155 -575 -234 -178 -88 -354 -200 -405 -257 -31 -36 -32 -41
-27 -97 3 -35 16 -79 31 -108 62 -121 240 -324 542 -619 194 -190 246 -234
589 -508 226 -180 340 -293 385 -381 44 -87 42 -93 -34 -113 -59 -16 -161 -57
-154 -63 2 -1 55 10 118 26 63 16 118 29 121 29 3 0 14 -27 24 -60 l18 -61
-31 -32 c-17 -18 -34 -45 -38 -61 -4 -17 -20 -41 -36 -55 -35 -29 -52 -66 -39
-88 7 -13 9 -11 14 8 6 25 68 69 74 53 7 -21 65 -116 68 -112 2 2 -9 30 -26
63 -32 63 -28 75 21 75 24 0 27 -6 52 -107 24 -96 28 -128 29 -288 0 -99 -2
-188 -6 -198 -4 -10 -2 -29 5 -41 10 -19 9 -29 -5 -55 -15 -30 -15 -35 -1 -56
18 -28 21 -61 6 -70 -15 -9 -12 -45 4 -51 16 -6 15 -75 -3 -119 -7 -16 -22
-66 -33 -110 -39 -150 -121 -272 -349 -513 -79 -84 -163 -179 -186 -210 -63
-86 -122 -208 -139 -291 -8 -40 -26 -95 -39 -121 -14 -27 -40 -95 -59 -152
-19 -57 -68 -185 -109 -285 -91 -221 -102 -290 -94 -569 7 -250 39 -399 182
-827 40 -122 87 -276 104 -342 17 -66 66 -232 108 -370 l76 -249 -23 -61 c-76
-199 -213 -631 -260 -818 -52 -210 -53 -221 -43 -282 18 -104 46 -145 235
-344 97 -103 196 -211 221 -241 45 -55 45 -55 57 -170 13 -129 42 -269 129
-635 75 -314 84 -364 176 -948 83 -524 83 -517 28 -602 -35 -53 -164 -187
-234 -240 -78 -61 -174 -111 -244 -129 -72 -19 -110 -55 -100 -95 13 -51 42
-62 109 -42 17 6 83 14 147 19 122 10 147 18 264 87 85 50 193 81 305 89 149
10 217 54 227 148 4 37 0 52 -26 92 -17 27 -41 79 -55 115 -24 66 -24 67 -31
590 l-7 524 108 -134 c60 -74 165 -202 234 -285 69 -84 140 -177 159 -208 65
-109 112 -273 114 -406 1 -64 -3 -87 -32 -158 -64 -162 -148 -290 -250 -384
-49 -45 -61 -62 -61 -87 0 -59 66 -69 115 -17 18 19 69 53 114 75 95 48 148
94 202 172 59 87 189 193 323 263 128 67 166 110 168 190 1 65 -29 106 -116
160 -64 40 -80 56 -122 124 -26 42 -82 129 -124 192 -254 382 -285 453 -440
1005 -54 193 -115 394 -134 446 -20 53 -41 122 -47 154 -22 118 -69 219 -153
332 l-46 61 0 99 c0 54 8 153 17 218 30 219 21 501 -23 736 l-17 85 108 190
c59 104 181 315 270 469 203 349 253 444 303 570 45 114 105 301 156 485 18
69 52 168 74 220 52 123 77 221 97 378 9 70 19 134 22 142 3 8 5 19 4 24 -1 4
4 15 10 23 19 22 97 8 213 -38 178 -72 233 -66 370 41 289 226 598 550 997
1046 85 105 196 239 247 298 102 117 106 130 78 224 -8 26 -29 101 -47 167
-18 66 -59 185 -91 265 -32 80 -74 191 -93 248 -39 113 -96 233 -183 380 -78
132 -157 305 -183 399 -32 116 -109 319 -185 488 -108 240 -166 326 -248 372
-45 24 -61 27 -131 26 -44 0 -109 -6 -144 -12 -34 -7 -66 -9 -70 -6 -3 4 13
23 35 43 82 74 99 122 70 205 -19 52 -37 70 -132 133 -71 47 -82 58 -93 96
-30 99 -108 219 -151 233 -37 12 -90 -32 -111 -93 -18 -54 -21 -29 -5 36 9 33
16 90 16 127 l0 67 78 -64 c118 -99 143 -137 183 -288 l12 -45 17 39 c10 22
26 77 36 123 9 46 20 83 24 83 4 0 15 -9 26 -21 26 -29 27 -172 2 -212 -23
-33 -23 -43 -1 -26 28 23 53 91 53 144 0 62 -28 126 -68 155 -26 19 -30 30
-36 88 -9 89 -22 134 -45 159 -20 21 -20 21 0 39 23 21 25 40 4 48 -21 8 -19
40 5 61 11 10 20 22 20 27 0 5 10 22 22 39 l22 29 -32 65 c-35 71 -73 98 -152
111 l-42 7 7 83 c6 69 4 89 -13 126 -10 24 -31 49 -46 58 -27 14 -29 13 -52
-13 -13 -16 -24 -35 -24 -43 0 -8 -4 -14 -10 -14 -5 0 -10 4 -10 8 0 19 -111
141 -139 153 -17 8 -35 26 -41 40 -13 31 -51 67 -102 98 -20 12 -47 41 -60 64
-41 73 -110 103 -178 76z m115 -43 c18 -8 38 -24 45 -35 13 -26 13 -26 -45 -1
-26 11 -61 20 -78 20 -35 0 -26 16 13 23 14 2 26 5 28 6 1 0 18 -5 37 -13z
m485 -387 c0 -18 -2 -19 -15 -9 -15 12 -12 30 6 30 5 0 9 -10 9 -21z m-1400
-169 c0 -13 -91 -112 -97 -106 -7 7 21 61 46 89 25 27 51 36 51 17z m-110 -50
c-12 -16 -24 -46 -27 -66 -4 -24 -13 -39 -29 -46 -27 -13 -31 -30 -9 -48 21
-17 19 -25 -10 -40 -29 -16 -31 -27 -8 -52 20 -23 5 -23 -41 -1 -29 13 -40 14
-61 5 -14 -6 -25 -18 -25 -25 0 -21 41 -53 85 -67 79 -25 81 -28 38 -59 -21
-16 -47 -39 -59 -52 -22 -25 -44 -115 -44 -181 0 -21 -2 -38 -4 -38 -2 0 -21
7 -42 16 -29 12 -57 15 -109 11 -97 -8 -160 -32 -211 -82 -36 -34 -44 -48 -44
-77 0 -38 37 -94 46 -71 39 91 145 152 242 139 103 -14 152 -65 152 -157 0
-109 -53 -129 -145 -54 -30 24 -72 49 -94 56 -39 12 -41 11 -88 -28 -143 -118
-140 -118 -288 13 -66 59 -171 147 -234 197 l-113 92 33 28 c19 16 156 110
304 209 296 199 491 301 725 384 84 30 85 29 60 -6z m140 7 c0 -10 -132 -109
-137 -103 -4 3 -4 7 -2 9 2 2 30 24 62 50 51 41 77 56 77 44z m-51 -73 c-13
-14 -33 -30 -44 -36 -11 -5 -2 6 20 26 47 42 58 46 24 10z m1640 -50 c41 -53
15 -72 -46 -34 -20 12 -33 28 -33 40 0 31 53 27 79 -6z m-1691 -46 c-38 -54
-58 -62 -58 -25 0 17 10 28 33 39 47 23 50 21 25 -14z m1475 -175 c22 -21 46
-51 54 -68 l16 -30 -25 26 c-13 14 -45 34 -71 44 -47 18 -48 19 -62 88 -3 16
-1 16 23 -2 15 -10 44 -36 65 -58z m-1428 -53 c-11 -18 -109 -70 -130 -69 -14
1 -10 4 10 10 17 4 50 22 75 38 52 34 53 35 45 21z m1408 -22 c42 -28 127
-110 127 -121 0 -5 -27 16 -61 47 -33 31 -74 63 -90 71 -16 9 -29 18 -29 20 0
11 24 4 53 -17z m-1424 -174 c-45 -47 -113 -94 -136 -94 -10 0 0 9 22 19 22
10 63 39 90 64 60 55 72 60 24 11z m365 -245 c11 -1 31 0 44 1 33 2 30 -50 -6
-92 -98 -114 -138 -199 -162 -351 -12 -77 -29 -143 -41 -165 -11 -20 -17 -28
-14 -17 11 31 24 153 25 220 0 41 6 69 17 85 54 77 66 195 33 325 -11 43 -20
80 -20 83 0 2 23 -17 51 -42 28 -25 61 -46 73 -47z m-803 -140 c105 -71 156
-83 226 -54 32 14 34 14 22 -1 -24 -29 -71 -46 -113 -42 -23 3 -92 30 -154 61
-96 47 -111 57 -95 66 31 18 52 12 114 -30z m1788 -57 c6 -35 23 -94 35 -132
l24 -69 -33 25 c-19 14 -46 29 -62 33 -25 7 -28 12 -31 55 -3 47 36 174 48
158 4 -4 12 -35 19 -70z m-833 -22 c9 -30 18 -63 20 -72 3 -10 -3 -19 -15 -23
-13 -4 -25 -21 -32 -46 -19 -61 -22 -39 -6 45 10 50 12 90 6 118 -16 84 1 70
27 -22z m-1016 23 l32 -26 -52 -20 -53 -19 -59 28 -60 29 38 17 c59 27 116 23
154 -9z m2128 -32 c43 -22 85 -47 93 -57 13 -16 11 -17 -35 -11 -27 4 -73 7
-102 7 -49 0 -54 2 -60 26 -6 23 8 74 21 74 3 0 40 -18 83 -39z m-2118 -41 c0
-19 -20 -27 -33 -13 -8 7 11 33 24 33 5 0 9 -9 9 -20z m460 -29 c0 -10 -15
-24 -35 -34 -49 -24 -50 -22 -14 23 32 40 49 44 49 11z m1753 -52 l47 -31 -16
-36 c-8 -20 -26 -51 -41 -70 l-26 -35 -12 39 c-16 53 -31 79 -72 125 l-35 39
54 0 c44 0 63 -6 101 -31z m-359 -113 c30 -46 27 -56 -9 -32 -27 18 -49 49
-60 85 l-7 24 25 -19 c14 -11 37 -37 51 -58z m-794 21 c0 -38 -25 -176 -34
-184 -10 -11 -7 123 5 177 12 54 29 59 29 7z m1003 -38 c11 -14 17 -38 17 -70
0 -27 -1 -49 -3 -49 -2 0 -24 7 -49 15 -40 14 -44 19 -40 40 2 14 -3 37 -13
51 -14 22 -15 28 -4 36 21 13 72 1 92 -23z m561 -1376 c64 -128 109 -231 250
-571 42 -101 89 -209 105 -240 36 -73 43 -112 31 -168 -11 -47 -286 -520 -398
-684 -71 -104 -236 -312 -385 -486 -93 -109 -97 -112 -142 -116 -44 -3 -47 -1
-108 59 -87 87 -105 113 -133 198 -14 41 -35 87 -47 102 -24 30 -24 51 0 153
18 83 81 206 176 351 130 198 191 331 317 689 37 107 84 233 103 281 20 47 61
186 92 310 61 245 62 249 70 249 2 0 34 -57 69 -127z"/>
<path d="M2920 11259 c0 -19 -11 -58 -25 -88 -14 -30 -24 -55 -23 -56 2 -2 23
27 48 64 l45 66 -22 24 -23 24 0 -34z"/>
</g>
</svg>
