<?xml version="1.0" standalone="no"?>
<!DOCTYPE svg PUBLIC "-//W3C//DTD SVG 20010904//EN"
 "http://www.w3.org/TR/2001/REC-SVG-20010904/DTD/svg10.dtd">
<svg version="1.0" xmlns="http://www.w3.org/2000/svg"
 width="989.000000pt" height="1280.000000pt" viewBox="0 0 989.000000 1280.000000"
 preserveAspectRatio="xMidYMid meet">
<metadata>
Created by potrace 1.15, written by Peter Selinger 2001-2017
</metadata>
<g transform="translate(0.000000,1280.000000) scale(0.100000,-0.100000)"
fill="#000000" stroke="none">
<path d="M1820 12580 c0 -29 39 -80 61 -80 4 0 29 -28 56 -62 45 -59 94 -170
80 -184 -3 -3 -26 23 -52 58 -41 55 -58 69 -138 110 -110 57 -127 59 -127 19
0 -30 8 -39 104 -109 92 -68 127 -171 128 -377 0 -71 4 -150 10 -175 11 -55
57 -146 109 -218 22 -31 63 -117 95 -201 140 -357 295 -643 419 -767 63 -64
85 -78 229 -148 87 -42 216 -110 285 -151 213 -125 517 -290 720 -393 171 -85
203 -105 257 -159 42 -42 75 -88 100 -137 l36 -75 -46 -70 c-26 -38 -69 -118
-97 -178 -27 -59 -70 -146 -94 -193 -57 -113 -85 -213 -92 -336 -7 -123 6
-186 54 -257 56 -83 60 -95 61 -212 3 -174 19 -298 62 -468 22 -87 40 -168 40
-180 0 -12 6 -31 14 -42 13 -20 32 -115 22 -115 -3 0 -26 11 -52 25 -56 30
-84 31 -114 7 -35 -29 -13 -54 117 -132 52 -32 45 -52 -20 -52 -48 0 -68 9
-133 54 -59 41 -95 45 -130 15 -24 -21 -27 -27 -15 -41 12 -14 11 -16 -7 -16
-12 0 -26 -10 -33 -22 -10 -18 -8 -24 12 -40 36 -28 137 -74 204 -93 33 -10
61 -19 63 -20 2 -2 -21 -52 -51 -111 -30 -60 -62 -129 -70 -154 -43 -126 -89
-238 -105 -260 -10 -13 -45 -35 -78 -47 -69 -27 -84 -44 -84 -92 0 -28 -8 -44
-35 -70 -40 -39 -58 -93 -50 -148 6 -36 2 -43 -69 -128 -71 -85 -89 -115 -66
-115 5 0 7 -7 3 -15 -3 -9 2 -24 11 -34 13 -14 16 -28 11 -55 -4 -20 -11 -34
-15 -31 -11 7 -20 -19 -12 -32 4 -6 22 -14 40 -18 17 -3 32 -11 32 -16 0 -5 7
-9 16 -9 8 0 12 5 9 10 -3 6 -2 10 3 10 6 0 12 -7 15 -14 4 -10 19 -14 45 -13
32 1 45 -5 76 -36 30 -30 44 -37 75 -37 l39 0 7 -62 c4 -35 15 -130 26 -213
11 -82 33 -267 49 -410 17 -143 42 -343 55 -444 14 -102 34 -280 45 -396 11
-117 30 -270 43 -341 30 -160 46 -260 53 -345 6 -54 3 -76 -16 -125 -30 -80
-31 -245 -1 -344 7 -22 7 -38 1 -44 -17 -17 -11 -53 11 -67 21 -15 24 -29 93
-449 13 -85 37 -193 51 -240 30 -98 64 -259 65 -308 0 -18 13 -66 29 -105 16
-40 33 -88 36 -107 4 -19 14 -48 23 -65 11 -22 16 -60 16 -140 1 -102 -2 -117
-37 -214 -20 -58 -37 -121 -37 -141 0 -26 -13 -60 -41 -109 -27 -46 -43 -86
-45 -113 -2 -24 -10 -47 -18 -54 -9 -6 -16 -22 -16 -35 0 -13 -32 -88 -71
-166 -39 -79 -69 -149 -66 -157 3 -8 2 -30 -4 -48 -5 -18 -10 -61 -10 -95 0
-76 40 -169 96 -223 35 -34 39 -35 113 -35 96 0 154 26 230 102 75 75 86 105
83 238 -2 122 22 314 45 358 9 15 13 31 9 36 -3 5 -1 12 5 16 5 3 10 14 10 25
0 34 62 97 109 111 53 15 94 67 118 148 15 53 15 61 -6 156 -15 69 -37 131
-71 200 -60 120 -90 206 -80 226 14 26 23 164 21 309 -3 137 -1 152 29 260
l33 115 -8 258 c-3 141 -3 257 2 257 4 0 9 49 10 110 2 95 -1 116 -21 162 -13
29 -26 80 -28 114 -6 63 -26 113 -60 151 -17 18 -20 31 -15 70 30 257 38 327
47 454 6 80 15 330 20 555 8 394 16 492 51 662 10 50 11 52 37 45 40 -11 86
-5 98 11 7 10 14 12 21 5 5 -5 31 -10 56 -11 40 0 48 -4 52 -22 2 -11 7 -34
10 -51 4 -16 10 -282 14 -590 9 -610 11 -643 71 -837 l30 -97 -20 -61 c-11
-34 -21 -82 -21 -108 0 -96 -6 -178 -14 -195 -5 -11 -2 -24 8 -35 22 -25 25
-99 15 -344 -10 -233 -9 -245 43 -383 19 -51 23 -83 25 -215 1 -85 7 -194 13
-242 8 -72 7 -97 -6 -140 -25 -87 -46 -238 -45 -328 2 -167 1 -183 -14 -212
-11 -21 -14 -44 -9 -77 5 -37 3 -50 -10 -61 -10 -9 -15 -27 -14 -54 1 -23 -6
-69 -15 -103 -9 -34 -19 -90 -22 -125 -4 -40 -15 -81 -32 -113 -22 -41 -26
-62 -25 -118 2 -88 32 -151 91 -192 39 -27 52 -30 115 -30 60 1 83 6 138 33
75 36 141 101 170 167 25 57 38 159 40 325 1 76 6 141 12 151 8 13 8 24 -2 43
-10 18 -12 45 -6 108 9 99 9 129 1 361 -4 98 -11 189 -16 203 -15 37 -12 98 5
130 8 16 15 39 15 51 0 13 11 51 23 85 14 36 27 99 31 147 4 57 15 100 31 136
14 28 25 63 25 76 0 13 9 48 20 77 24 64 44 185 65 397 19 198 30 269 48 318
8 23 13 71 12 125 -2 76 -6 95 -34 152 -18 36 -51 87 -73 114 l-41 48 -5 122
c-3 90 1 161 17 276 20 143 38 247 125 734 l32 179 56 1 c38 1 62 7 75 18 13
12 33 17 64 16 42 -2 90 21 124 58 5 7 22 14 37 18 16 4 32 17 40 34 10 19 23
28 48 32 24 4 34 10 32 20 -3 12 -1 13 9 3 18 -18 49 -16 49 3 0 13 3 14 15 4
12 -10 14 -5 11 37 -3 47 -46 180 -115 358 -19 49 -31 98 -31 128 0 26 -9 67
-19 90 -11 23 -33 78 -51 122 -38 96 -82 179 -161 300 -72 112 -96 166 -115
258 -8 40 -25 95 -38 122 -13 28 -34 88 -46 135 -12 47 -38 132 -58 190 -33
94 -37 116 -37 210 0 65 5 113 12 125 12 20 12 20 13 0 0 -30 28 -134 46 -177
16 -35 16 -39 -5 -75 l-22 -38 35 37 35 36 8 -24 c16 -48 13 188 -4 274 -10
51 -12 87 -7 90 5 4 18 56 27 115 10 60 27 127 37 150 25 56 25 29 0 -58 -21
-75 -28 -152 -10 -125 5 8 10 32 10 52 0 59 17 53 39 -14 11 -35 18 -52 16
-38 -12 58 -16 157 -8 179 8 20 11 11 16 -50 9 -118 25 -142 20 -29 -3 69 -2
91 6 80 9 -12 11 -10 11 11 0 57 30 126 65 153 48 37 69 83 93 206 21 101 29
165 52 385 16 151 40 302 61 380 25 92 24 186 -2 270 -22 71 -21 159 3 250 17
64 12 159 -11 204 -11 21 -52 67 -91 101 -129 115 -227 330 -279 615 -45 246
-47 295 -23 570 9 96 -2 251 -19 271 -10 13 -15 12 -35 -7 l-23 -21 -11 43
c-38 149 -68 207 -149 292 -107 113 -206 153 -348 143 -262 -19 -298 -28 -430
-113 -128 -82 -200 -189 -255 -378 -12 -44 -28 -84 -35 -90 -14 -12 0 -439 17
-520 22 -102 38 -271 31 -336 l-6 -67 -99 59 c-120 71 -261 127 -455 180 -149
41 -264 91 -496 212 -71 38 -220 111 -329 163 -110 52 -212 104 -227 115 -15
10 -44 50 -65 87 -61 110 -117 176 -336 397 -114 116 -225 234 -247 263 -38
52 -39 55 -27 90 7 20 28 119 46 220 27 152 31 190 22 220 -6 20 -20 69 -31
108 -16 55 -29 78 -58 105 -21 19 -46 49 -55 66 -21 41 -127 119 -181 135 -23
6 -65 12 -93 13 -27 1 -60 7 -71 14 -12 6 -31 11 -42 11 -17 0 -21 -6 -21 -30z
m4007 -2173 c7 -23 20 -93 28 -155 9 -63 22 -130 30 -149 9 -20 13 -38 11 -40
-13 -13 -37 69 -61 202 -14 83 -29 161 -32 175 -9 40 10 13 24 -33z m-1217
-207 c-10 -23 -10 -22 -5 9 3 18 6 43 7 55 1 12 3 9 5 -9 2 -17 -1 -42 -7 -55z
m260 -87 c-11 -17 -11 -17 -6 0 3 10 7 26 7 35 1 15 2 15 6 0 2 -10 -1 -25 -7
-35z m1330 -486 c0 -23 -2 -22 -19 10 -10 19 -9 22 4 17 8 -4 15 -15 15 -27z
m47 -114 c-3 -10 -5 -4 -5 12 0 17 2 24 5 18 2 -7 2 -21 0 -30z m-458 -2235
c7 -21 11 -46 9 -55 -9 -40 -30 67 -33 167 l-3 105 7 -90 c4 -49 13 -107 20
-127z m-2149 -1318 c0 -5 -5 -10 -11 -10 -5 0 -7 5 -4 10 3 6 8 10 11 10 2 0
4 -4 4 -10z m-70 -40 c0 -5 -2 -10 -4 -10 -3 0 -8 5 -11 10 -3 6 -1 10 4 10 6
0 11 -4 11 -10z m145 -30 c3 -5 1 -10 -4 -10 -6 0 -11 5 -11 10 0 6 2 10 4 10
3 0 8 -4 11 -10z m-285 -10 c0 -5 -5 -10 -11 -10 -5 0 -7 5 -4 10 3 6 8 10 11
10 2 0 4 -4 4 -10z m70 0 c0 -5 -2 -10 -4 -10 -3 0 -8 5 -11 10 -3 6 -1 10 4
10 6 0 11 -4 11 -10z m40 0 c0 -5 -2 -10 -4 -10 -3 0 -8 5 -11 10 -3 6 -1 10
4 10 6 0 11 -4 11 -10z m45 0 c3 -5 1 -10 -4 -10 -6 0 -11 5 -11 10 0 6 2 10
4 10 3 0 8 -4 11 -10z m45 0 c0 -5 -4 -10 -10 -10 -5 0 -10 5 -10 10 0 6 5 10
10 10 6 0 10 -4 10 -10z m55 -30 c3 -5 1 -10 -4 -10 -6 0 -11 5 -11 10 0 6 2
10 4 10 3 0 8 -4 11 -10z m55 0 c0 -5 -4 -10 -10 -10 -5 0 -10 5 -10 10 0 6 5
10 10 10 6 0 10 -4 10 -10z m-180 -10 c0 -5 -2 -10 -4 -10 -3 0 -8 5 -11 10
-3 6 -1 10 4 10 6 0 11 -4 11 -10z m87 4 c-3 -3 -12 -4 -19 -1 -8 3 -5 6 6 6
11 1 17 -2 13 -5z m18 -34 c3 -5 2 -10 -4 -10 -5 0 -13 5 -16 10 -3 6 -2 10 4
10 5 0 13 -4 16 -10z m45 0 c0 -5 -2 -10 -4 -10 -3 0 -8 5 -11 10 -3 6 -1 10
4 10 6 0 11 -4 11 -10z m-25 -40 c3 -5 1 -10 -4 -10 -6 0 -11 5 -11 10 0 6 2
10 4 10 3 0 8 -4 11 -10z m2305 -204 c0 -3 -4 -8 -10 -11 -5 -3 -10 -1 -10 4
0 6 5 11 10 11 6 0 10 -2 10 -4z m-70 -16 c0 -5 -5 -10 -11 -10 -5 0 -7 5 -4
10 3 6 8 10 11 10 2 0 4 -4 4 -10z m120 -40 c0 -5 -5 -10 -11 -10 -5 0 -7 5
-4 10 3 6 8 10 11 10 2 0 4 -4 4 -10z m-135 -30 c-3 -5 -11 -10 -16 -10 -6 0
-7 5 -4 10 3 6 11 10 16 10 6 0 7 -4 4 -10z m42 -25 c-4 -8 -16 -15 -28 -15
-21 0 -21 0 2 19 26 21 35 20 26 -4z m108 15 c3 -5 1 -10 -4 -10 -6 0 -11 5
-11 10 0 6 2 10 4 10 3 0 8 -4 11 -10z m-1145 -40 c0 -5 -5 -10 -11 -10 -5 0
-7 5 -4 10 3 6 8 10 11 10 2 0 4 -4 4 -10z m1060 0 c0 -5 -4 -10 -10 -10 -5 0
-10 5 -10 10 0 6 5 10 10 10 6 0 10 -4 10 -10z m-1120 -4 c0 -3 -4 -8 -10 -11
-5 -3 -10 -1 -10 4 0 6 5 11 10 11 6 0 10 -2 10 -4z m1050 -16 c0 -5 -2 -10
-4 -10 -3 0 -8 5 -11 10 -3 6 -1 10 4 10 6 0 11 -4 11 -10z m-1085 -10 c3 -5
1 -10 -4 -10 -6 0 -11 5 -11 10 0 6 2 10 4 10 3 0 8 -4 11 -10z m1235 0 c0 -5
-4 -10 -10 -10 -5 0 -10 5 -10 10 0 6 5 10 10 10 6 0 10 -4 10 -10z m-1100
-34 c0 -3 -4 -8 -10 -11 -5 -3 -10 -1 -10 4 0 6 5 11 10 11 6 0 10 -2 10 -4z
m1005 -6 c3 -5 1 -10 -4 -10 -6 0 -11 5 -11 10 0 6 2 10 4 10 3 0 8 -4 11 -10z
m110 0 c3 -5 1 -10 -4 -10 -6 0 -11 5 -11 10 0 6 2 10 4 10 3 0 8 -4 11 -10z
m105 6 c0 -3 -4 -8 -10 -11 -5 -3 -10 -1 -10 4 0 6 5 11 10 11 6 0 10 -2 10
-4z m-1350 -10 c0 -3 -4 -8 -10 -11 -5 -3 -10 -1 -10 4 0 6 5 11 10 11 6 0 10
-2 10 -4z m1175 -6 c3 -5 1 -10 -4 -10 -6 0 -11 5 -11 10 0 6 2 10 4 10 3 0 8
-4 11 -10z m-1145 -20 c0 -5 -5 -10 -11 -10 -5 0 -7 5 -4 10 3 6 8 10 11 10 2
0 4 -4 4 -10z m1080 6 c0 -3 -4 -8 -10 -11 -5 -3 -10 -1 -10 4 0 6 5 11 10 11
6 0 10 -2 10 -4z m145 -7 c4 -6 5 -12 4 -14 -7 -7 -59 8 -59 16 0 13 47 11 55
-2z m105 -9 c0 -5 -5 -10 -11 -10 -5 0 -7 5 -4 10 3 6 8 10 11 10 2 0 4 -4 4
-10z m-213 -6 c-3 -3 -12 -4 -19 -1 -8 3 -5 6 6 6 11 1 17 -2 13 -5z m74 -14
c10 0 19 -4 19 -10 0 -17 -57 -11 -64 6 -5 12 -2 15 10 10 8 -3 24 -6 35 -6z
m-101 -10 c0 -5 -5 -10 -11 -10 -5 0 -7 5 -4 10 3 6 8 10 11 10 2 0 4 -4 4
-10z m220 0 c0 -5 -2 -10 -4 -10 -3 0 -8 5 -11 10 -3 6 -1 10 4 10 6 0 11 -4
11 -10z m-60 -20 c0 -5 -4 -10 -10 -10 -5 0 -10 5 -10 10 0 6 5 10 10 10 6 0
10 -4 10 -10z m-190 -10 c0 -5 -5 -10 -11 -10 -5 0 -7 5 -4 10 3 6 8 10 11 10
2 0 4 -4 4 -10z m120 0 c0 -5 -4 -10 -10 -10 -5 0 -10 5 -10 10 0 6 5 10 10
10 6 0 10 -4 10 -10z m150 -10 c0 -5 -4 -10 -10 -10 -5 0 -10 5 -10 10 0 6 5
10 10 10 6 0 10 -4 10 -10z m-300 -20 c0 -5 -4 -10 -10 -10 -5 0 -10 5 -10 10
0 6 5 10 10 10 6 0 10 -4 10 -10z m120 0 c0 -5 -4 -10 -10 -10 -5 0 -10 5 -10
10 0 6 5 10 10 10 6 0 10 -4 10 -10z m-73 -16 c-3 -3 -12 -4 -19 -1 -8 3 -5 6
6 6 11 1 17 -2 13 -5z m38 -3 c3 -5 1 -12 -5 -16 -5 -3 -10 1 -10 9 0 18 6 21
15 7z m-115 -5 c0 -3 -4 -8 -10 -11 -5 -3 -10 -1 -10 4 0 6 5 11 10 11 6 0 10
-2 10 -4z m47 -22 c-3 -3 -12 -4 -19 -1 -8 3 -5 6 6 6 11 1 17 -2 13 -5z m120
0 c-3 -3 -12 -4 -19 -1 -8 3 -5 6 6 6 11 1 17 -2 13 -5z m-97 -29 c-24 -25
-43 -25 -34 0 5 12 21 20 48 24 5 0 -1 -10 -14 -24z m137 19 c-3 -3 -12 -4
-19 -1 -8 3 -5 6 6 6 11 1 17 -2 13 -5z"/>
</g>
</svg>
