<?xml version="1.0" standalone="no"?>
<!DOCTYPE svg PUBLIC "-//W3C//DTD SVG 20010904//EN"
 "http://www.w3.org/TR/2001/REC-SVG-20010904/DTD/svg10.dtd">
<svg version="1.0" xmlns="http://www.w3.org/2000/svg"
 width="989.000000pt" height="1280.000000pt" viewBox="0 0 989.000000 1280.000000"
 preserveAspectRatio="xMidYMid meet">
<metadata>
Created by potrace 1.15, written by Peter Selinger 2001-2017
</metadata>
<g transform="translate(0.000000,1280.000000) scale(0.100000,-0.100000)"
fill="#000000" stroke="none">
<path d="M5035 12574 c-60 -36 -139 -80 -175 -98 l-65 -32 -149 2 c-128 2
-156 0 -201 -17 -145 -54 -309 -203 -393 -357 -28 -51 -30 -53 -223 -150 -395
-200 -616 -368 -688 -521 -36 -79 -42 -251 -13 -407 11 -60 26 -149 32 -199 6
-49 31 -180 56 -290 25 -110 53 -254 64 -320 22 -134 46 -210 148 -468 113
-281 158 -360 296 -520 34 -39 96 -119 136 -176 101 -143 124 -233 75 -297
-14 -18 -25 -41 -25 -50 0 -15 4 -14 26 7 l27 24 -6 -75 c-4 -41 -18 -131 -33
-200 -21 -103 -26 -159 -29 -320 -2 -107 -2 -185 1 -172 3 12 9 22 14 22 4 0
8 18 8 39 0 22 6 49 11 60 6 11 11 31 11 45 0 14 5 26 12 26 6 0 9 3 5 6 -3 3
1 25 9 47 10 28 17 106 22 232 9 253 20 156 21 -188 l1 -248 -47 -63 c-27 -34
-79 -115 -118 -179 -136 -227 -243 -383 -351 -511 -266 -314 -321 -408 -365
-621 -31 -151 -22 -438 25 -760 8 -55 20 -244 26 -420 6 -176 16 -394 21 -485
6 -91 16 -264 24 -385 13 -218 42 -444 72 -560 10 -41 17 -144 22 -325 6 -233
9 -270 27 -305 23 -47 35 -47 50 3 l12 37 1 -40 c1 -30 -9 -58 -40 -110 -101
-173 -138 -269 -165 -427 -15 -91 -16 -121 -5 -258 9 -118 9 -163 0 -188 -17
-49 -7 -177 19 -232 23 -51 43 -251 45 -445 2 -108 1 -113 -26 -148 -15 -20
-27 -45 -27 -56 0 -11 -4 -22 -9 -26 -11 -6 -126 87 -141 115 -6 11 -15 20
-21 20 -10 0 0 -14 115 -157 l58 -73 -4 -82 c-3 -63 -12 -105 -37 -173 -105
-279 -207 -505 -266 -585 -48 -65 -70 -109 -90 -176 -23 -78 -20 -87 40 -143
98 -89 264 -151 405 -151 46 0 55 4 99 45 61 57 123 180 151 300 11 50 41 141
66 204 50 125 118 392 135 523 6 45 12 84 14 86 2 2 22 6 44 9 54 7 52 23 -3
23 l-43 0 -6 61 c-4 33 -18 94 -33 135 -21 63 -25 86 -19 137 10 96 24 173 52
287 22 90 33 113 73 165 65 85 73 100 141 289 47 132 64 195 75 280 8 61 28
154 44 208 24 82 27 102 18 132 -11 33 -9 39 29 93 108 155 120 204 127 548 3
149 14 387 24 531 18 245 20 262 42 284 18 18 21 29 16 58 -3 19 -11 39 -18
43 -10 6 -6 50 16 201 49 341 55 390 67 573 6 99 12 181 14 183 1 1 12 -62 24
-140 32 -205 95 -526 142 -716 35 -143 38 -168 28 -199 -14 -45 -6 -100 20
-127 19 -20 21 -39 26 -266 7 -282 17 -396 51 -599 31 -183 44 -225 104 -314
35 -53 50 -86 55 -124 6 -48 11 -56 56 -89 48 -35 123 -126 203 -247 21 -32
64 -77 95 -101 68 -53 131 -119 159 -166 22 -38 69 -79 139 -123 32 -20 56
-50 98 -122 94 -159 117 -218 120 -306 2 -63 7 -86 29 -123 20 -34 23 -47 14
-50 -39 -13 -186 -56 -203 -60 -23 -6 107 2 178 11 47 6 47 5 47 -23 0 -16 -7
-72 -16 -124 -10 -62 -15 -152 -15 -260 1 -106 -4 -196 -14 -250 -8 -47 -15
-112 -15 -145 -1 -33 -7 -89 -15 -125 -67 -303 102 -459 362 -335 65 31 93 53
170 134 51 53 100 111 109 130 14 29 16 63 11 240 -5 219 -20 331 -77 572 -63
267 -64 392 -4 490 44 73 43 83 -2 31 -36 -43 -54 -46 -54 -11 0 10 -15 36
-33 56 -97 109 -135 191 -177 374 -17 73 -18 96 -9 149 14 74 2 147 -36 221
-14 28 -25 63 -25 79 0 61 -32 179 -70 255 -54 108 -129 197 -227 269 l-82 61
6 68 c3 37 0 124 -7 192 -15 137 -7 203 46 420 20 79 28 152 39 345 8 135 22
304 31 375 22 160 23 486 3 720 -8 88 -13 229 -11 314 2 103 -1 158 -9 167 -6
7 -22 55 -35 106 -23 88 -24 104 -19 283 4 120 13 227 25 290 11 55 22 123 25
150 4 28 22 112 41 188 50 197 53 218 64 426 6 102 17 215 25 251 48 225 76
367 90 450 21 124 59 275 91 358 14 37 33 97 42 134 l17 67 154 -230 c85 -127
176 -257 203 -290 71 -85 176 -151 306 -193 211 -68 341 -95 756 -156 154 -22
311 -48 350 -56 81 -17 309 -85 403 -120 75 -28 162 -31 243 -9 30 8 88 22
128 30 68 14 77 14 129 -4 31 -10 60 -27 66 -37 6 -10 7 -54 3 -107 -6 -95 0
-117 35 -117 13 0 22 14 32 53 27 94 39 168 32 203 -3 19 -2 34 2 34 26 -1 33
-23 39 -120 6 -105 21 -150 48 -150 28 0 37 31 45 157 8 135 3 163 -32 202
-19 21 -19 23 -4 18 10 -4 23 -7 27 -7 13 0 89 -132 107 -185 14 -42 53 -95
71 -95 4 0 16 6 26 13 18 13 18 16 0 88 -22 90 -96 252 -124 272 l-21 14 23 7
c13 3 54 6 91 6 37 0 84 7 103 15 30 12 35 19 32 42 -3 28 -4 28 -93 36 -49 4
-153 9 -230 11 -77 1 -160 8 -184 15 -37 11 -64 10 -155 -3 -61 -9 -186 -23
-277 -31 -190 -18 -168 -21 -464 61 -327 91 -413 120 -652 220 -125 53 -255
106 -288 119 -106 40 -159 71 -211 127 -64 68 -95 116 -145 230 -22 50 -81
179 -131 287 -176 380 -201 448 -318 861 -86 304 -190 451 -354 502 -58 18
-83 20 -161 14 -52 -3 -95 -2 -97 3 -1 4 -13 11 -24 15 -17 5 -23 2 -27 -14
-5 -19 -10 -21 -54 -15 -99 13 -92 5 -86 92 7 95 34 175 73 225 17 20 30 40
30 43 0 4 9 20 21 36 26 37 29 52 30 192 1 64 5 117 10 117 5 0 9 53 9 118 0
144 -29 323 -71 441 -17 47 -33 93 -36 102 -5 16 17 15 144 -6 39 -7 44 -5 52
16 7 17 5 31 -7 49 -30 47 -74 73 -209 120 -35 13 -63 28 -63 34 0 6 17 22 38
36 59 40 122 101 122 119 0 28 -25 54 -52 54 -13 0 -55 -20 -92 -43 -72 -45
-69 -45 -97 4 -9 16 6 35 110 140 67 68 121 128 121 135 0 7 -13 26 -30 43
-16 16 -30 40 -30 52 0 29 -18 46 -49 46 -13 0 -72 -29 -130 -64 -152 -91
-225 -126 -241 -116 -8 5 -12 11 -10 13 3 2 51 34 108 71 115 76 140 103 122
135 -18 35 -58 25 -175 -45z m110 -274 c-3 -5 -11 -10 -16 -10 -6 0 -7 5 -4
10 3 6 11 10 16 10 6 0 7 -4 4 -10z m-1289 -1058 c0 -71 5 -131 13 -149 11
-26 9 -46 -10 -134 -24 -114 -20 -148 27 -198 19 -20 24 -37 24 -76 0 -47 -36
-175 -50 -175 -4 0 -14 26 -24 58 -31 99 -105 281 -146 361 -23 44 -40 91 -40
110 0 50 75 185 143 258 33 35 60 63 61 63 0 0 1 -53 2 -118z m36 -102 l-10
-55 -1 76 c0 42 2 92 7 110 6 31 7 30 10 -21 1 -30 -1 -80 -6 -110z m55 -177
c-3 -10 -5 -4 -5 12 0 17 2 24 5 18 2 -7 2 -21 0 -30z m42 -101 c-8 -48 -13
-111 -12 -141 1 -36 -2 -50 -8 -40 -16 26 -11 219 9 269 14 37 18 41 20 22 2
-13 -2 -63 -9 -110z m-18 -206 c13 8 10 -26 -6 -61 -13 -30 -13 -30 -13 25 0
30 2 49 5 42 2 -6 9 -10 14 -6z m-71 -151 c-9 -11 -9 -15 -1 -15 9 0 9 -5 1
-20 -6 -11 -8 -26 -5 -33 4 -6 -1 -3 -9 7 -20 25 -20 30 1 69 9 18 18 27 21
19 2 -7 -2 -19 -8 -27z m87 -1867 c-3 -7 -5 -2 -5 12 0 14 2 19 5 13 2 -7 2
-19 0 -25z m89 -197 c-4 -50 -12 -88 -19 -93 -18 -11 -21 36 -7 104 7 31 10
74 6 95 l-6 38 16 -29 c14 -24 15 -46 10 -115z m1 -243 c-5 -34 -17 -87 -28
-117 l-19 -56 5 85 c3 47 5 112 5 145 l1 60 23 -28 c21 -26 22 -33 13 -89z"/>
<path d="M3881 10734 c0 -11 3 -14 6 -6 3 7 2 16 -1 19 -3 4 -6 -2 -5 -13z"/>
</g>
</svg>
