<?xml version="1.0" standalone="no"?>
<!DOCTYPE svg PUBLIC "-//W3C//DTD SVG 20010904//EN"
 "http://www.w3.org/TR/2001/REC-SVG-20010904/DTD/svg10.dtd">
<svg version="1.0" xmlns="http://www.w3.org/2000/svg"
 width="989.000000pt" height="1280.000000pt" viewBox="0 0 989.000000 1280.000000"
 preserveAspectRatio="xMidYMid meet">
<metadata>
Created by potrace 1.15, written by Peter Selinger 2001-2017
</metadata>
<g transform="translate(0.000000,1280.000000) scale(0.100000,-0.100000)"
fill="#000000" stroke="none">
<path d="M4808 12315 c-3 -3 -38 -15 -78 -26 -116 -32 -218 -92 -328 -194 -33
-30 -85 -70 -116 -89 -30 -18 -52 -36 -48 -40 3 -4 -1 -4 -10 -1 -9 4 -51 -11
-100 -35 -89 -44 -123 -68 -73 -51 34 12 30 8 -69 -52 -80 -48 -93 -67 -46
-67 18 0 29 -4 25 -10 -3 -5 -22 -10 -41 -10 -19 0 -34 -4 -34 -10 0 -5 11
-10 24 -10 31 0 43 -36 15 -45 -21 -7 -24 -18 -9 -45 8 -15 19 -17 74 -13 l64
6 -3 -29 c-2 -16 -13 -56 -24 -88 -24 -68 -28 -191 -9 -296 6 -36 11 -81 10
-100 -1 -26 1 -30 7 -15 7 17 8 15 14 -10 3 -17 8 -39 12 -50 5 -15 2 -13 -10
5 -17 28 -18 33 10 -79 17 -66 17 -179 0 -215 -7 -15 -5 -18 6 -11 10 6 9 3
-2 -11 -9 -10 -15 -24 -12 -30 4 -12 -61 -74 -79 -74 -6 0 -28 -16 -49 -35
-22 -19 -46 -35 -54 -35 -8 0 -24 -5 -35 -12 -18 -12 -18 -13 8 -24 l27 -12
-28 -11 c-73 -29 -329 4 -485 61 -45 17 -84 29 -87 26 -3 -2 33 -31 80 -63 47
-32 85 -60 85 -62 0 -3 -21 8 -47 23 -115 65 -148 84 -155 84 -22 0 -2 -32 54
-88 l61 -63 -54 6 c-30 3 -84 13 -121 22 -62 14 -71 14 -113 -2 -49 -19 -57
-34 -24 -42 19 -5 15 -12 -36 -59 l-57 -54 33 6 c19 3 50 10 70 16 61 18 161
-4 378 -81 63 -23 117 -41 120 -41 3 -1 -12 -11 -34 -23 l-40 -22 40 -5 c39
-6 39 -7 15 -18 -21 -9 -16 -10 35 -7 l60 5 -74 -14 c-107 -21 -143 -50 -204
-164 -28 -54 -46 -99 -43 -108 5 -13 9 -14 21 -4 12 10 15 10 15 -1 0 -8 10 1
21 18 25 40 115 95 189 117 30 9 129 21 220 26 91 6 173 13 183 16 9 3 17 3
17 0 0 -11 -112 -68 -216 -109 -266 -108 -399 -203 -504 -364 -106 -160 -105
-346 2 -507 28 -43 30 -50 20 -84 -21 -70 -62 -298 -72 -394 -9 -88 -27 -167
-120 -508 -16 -58 -34 -139 -40 -179 -7 -41 -25 -111 -40 -155 -16 -45 -36
-121 -46 -169 -12 -65 -28 -106 -57 -154 -21 -36 -56 -100 -76 -142 -36 -75
-36 -77 -37 -211 -1 -74 -9 -187 -18 -251 -14 -93 -15 -135 -7 -211 5 -52 7
-121 4 -154 -5 -65 13 -157 50 -258 23 -59 43 -143 74 -310 8 -44 25 -100 38
-125 12 -25 30 -75 39 -111 20 -76 40 -110 65 -110 26 0 31 -9 90 -160 30 -74
82 -192 117 -262 l64 -128 0 -101 c0 -167 29 -544 56 -710 39 -253 35 -340
-41 -951 -13 -109 -42 -286 -64 -395 -22 -109 -51 -277 -66 -373 -39 -257 -73
-431 -89 -456 -16 -23 -40 -140 -32 -152 8 -13 -22 -104 -43 -133 -16 -22 -19
-44 -18 -181 1 -129 -2 -160 -15 -175 -15 -18 -46 -165 -40 -193 9 -44 -13
-82 -111 -185 -53 -56 -55 -79 -11 -126 13 -14 40 -57 58 -96 41 -84 73 -113
130 -113 46 0 330 75 363 96 31 19 43 73 43 189 0 80 5 115 25 174 14 40 28
92 31 115 4 22 11 50 17 61 9 17 12 14 27 -30 24 -72 47 -195 73 -390 l22
-170 30 3 c17 2 31 5 33 7 2 2 -5 65 -15 142 -12 93 -17 199 -17 323 1 161 4
199 26 288 24 100 24 103 6 132 -10 17 -22 30 -28 30 -5 0 -10 12 -10 28 -1
15 -14 60 -30 101 l-29 74 25 36 24 36 -25 3 c-21 3 -25 8 -25 38 0 43 11 65
167 332 68 117 146 261 173 320 26 59 79 164 117 234 76 138 119 239 157 369
14 46 25 82 26 79 3 -27 110 -322 151 -420 29 -69 170 -357 312 -640 295 -585
320 -639 305 -657 -20 -24 11 -152 52 -213 17 -26 41 -106 60 -202 6 -31 22
-72 35 -90 32 -46 119 -186 138 -224 9 -17 43 -68 77 -113 52 -71 59 -84 46
-96 -18 -18 -33 -88 -41 -188 -7 -77 -7 -77 25 -107 17 -16 47 -34 67 -39 19
-6 64 -28 100 -51 129 -81 147 -73 329 143 99 117 99 126 -16 307 -58 90 -108
247 -117 364 l-6 80 34 -24 c55 -38 195 -184 327 -343 110 -131 125 -146 143
-136 11 6 22 16 25 24 3 7 -42 73 -101 147 -185 232 -259 353 -340 558 -37 95
-44 106 -73 116 -18 5 -49 26 -70 46 -20 19 -57 49 -82 66 -54 36 -105 89
-113 117 -3 11 -12 39 -21 61 -8 23 -24 142 -35 265 -12 123 -23 247 -26 274
-3 28 -10 187 -15 355 -9 313 -16 369 -60 500 -35 104 -130 291 -246 485 -133
223 -165 291 -204 430 -18 61 -51 172 -76 249 -62 195 -80 293 -109 611 -14
154 -34 336 -46 404 -11 68 -18 134 -15 147 4 13 29 77 57 144 40 94 55 120
70 120 24 0 48 38 102 165 40 96 47 105 172 235 123 127 133 141 169 225 20
50 43 117 51 150 20 91 38 327 30 403 -17 165 -67 356 -122 466 -47 93 -158
241 -245 326 -86 83 -158 165 -158 179 0 3 26 22 58 40 31 19 103 63 160 99
57 35 104 62 106 60 1 -1 16 -52 34 -113 18 -61 58 -161 91 -225 32 -63 96
-189 142 -280 47 -91 111 -232 144 -314 98 -246 138 -299 253 -331 31 -9 88
-25 127 -36 l70 -21 -28 -14 c-36 -19 -34 -32 7 -49 29 -12 33 -18 28 -41 l-5
-26 74 3 c58 3 81 9 108 28 27 20 35 21 42 10 5 -8 9 -19 9 -25 0 -16 39 -54
55 -54 11 0 15 11 15 39 0 21 7 78 15 127 l16 88 -39 56 c-22 30 -42 69 -46
87 -15 68 -77 92 -237 93 -159 0 -157 -2 -176 165 -8 72 -26 182 -39 245 -14
63 -45 211 -70 328 -56 274 -73 337 -133 511 l-50 143 1 342 1 341 34 105 c61
187 113 572 96 703 -8 53 -6 93 8 175 40 248 42 278 33 384 -5 57 -9 137 -9
179 0 71 3 80 33 123 18 25 41 70 52 100 24 70 48 206 48 271 0 28 10 97 22
155 26 125 28 266 5 365 -33 145 -146 331 -257 424 -67 56 -160 100 -228 108
-28 3 -54 12 -57 19 -10 25 -126 72 -206 83 -81 11 -250 15 -259 6z m-731
-1327 c-3 -8 -6 -5 -6 6 -1 11 2 17 5 13 3 -3 4 -12 1 -19z m1348 -10677 c-10
-16 -25 -3 -25 22 0 20 1 20 16 5 9 -9 13 -21 9 -27z"/>
</g>
</svg>
