<?xml version="1.0" standalone="no"?>
<!DOCTYPE svg PUBLIC "-//W3C//DTD SVG 20010904//EN"
 "http://www.w3.org/TR/2001/REC-SVG-20010904/DTD/svg10.dtd">
<svg version="1.0" xmlns="http://www.w3.org/2000/svg"
 width="989.000000pt" height="1280.000000pt" viewBox="0 0 989.000000 1280.000000"
 preserveAspectRatio="xMidYMid meet">
<metadata>
Created by potrace 1.15, written by Peter Selinger 2001-2017
</metadata>
<g transform="translate(0.000000,1280.000000) scale(0.100000,-0.100000)"
fill="#000000" stroke="none">
<path d="M3313 12599 c-62 -12 -125 -42 -169 -81 -86 -76 -144 -109 -196 -114
-34 -2 -62 -13 -91 -33 -23 -17 -67 -47 -97 -67 -79 -52 -96 -70 -155 -159
-74 -111 -86 -146 -92 -250 -6 -105 9 -176 60 -288 66 -141 98 -242 147 -466
32 -144 77 -253 151 -364 32 -48 45 -79 55 -135 13 -76 35 -122 58 -122 7 0
21 -9 30 -19 10 -11 31 -23 47 -26 15 -4 44 -17 63 -30 19 -13 37 -21 40 -18
6 6 66 -86 66 -102 0 -7 9 -20 20 -30 11 -10 34 -40 50 -67 l30 -48 -38 -43
c-20 -23 -45 -48 -55 -55 -10 -8 -17 -21 -16 -30 3 -33 -1 -44 -15 -39 -8 3
-27 -3 -41 -15 -22 -17 -26 -27 -23 -62 2 -27 -3 -50 -16 -68 -12 -18 -16 -37
-12 -52 6 -25 -11 -76 -24 -76 -15 0 -32 -60 -26 -87 7 -25 14 -97 16 -148 0
-11 -2 -38 -6 -60 -4 -32 -1 -44 15 -62 12 -12 21 -35 21 -51 0 -16 9 -37 20
-47 15 -14 19 -26 14 -54 -4 -28 -1 -42 15 -60 12 -13 21 -33 21 -43 0 -12 12
-24 33 -33 l34 -14 31 -153 c18 -84 39 -207 47 -273 9 -66 25 -175 35 -242
l20 -123 -40 -52 c-56 -73 -162 -292 -200 -413 -57 -181 -65 -234 -65 -430 1
-236 29 -440 92 -660 27 -94 151 -426 272 -727 53 -131 88 -239 133 -415 84
-329 85 -333 108 -562 19 -190 32 -274 91 -601 21 -121 22 -133 10 -375 -14
-303 -14 -403 -1 -520 13 -112 73 -359 150 -620 32 -110 70 -243 84 -296 15
-52 44 -149 66 -215 63 -185 78 -294 69 -501 -4 -95 -12 -225 -18 -290 -6 -65
-15 -159 -20 -208 -7 -83 -12 -97 -51 -159 l-43 -68 1 -106 c1 -106 1 -107
-42 -197 -30 -63 -69 -121 -133 -197 -49 -59 -105 -136 -123 -170 -19 -35 -53
-90 -77 -123 -50 -68 -55 -104 -19 -140 34 -34 72 -41 123 -23 32 12 43 12 43
3 0 -20 35 -45 63 -45 16 0 33 10 46 26 12 15 21 22 21 16 0 -20 31 -42 60
-42 18 0 35 9 47 24 17 21 21 22 38 10 28 -21 53 -17 79 11 19 21 25 23 30 10
13 -35 106 1 106 41 0 6 20 24 44 41 51 36 97 99 127 174 23 61 111 210 134
229 27 22 37 86 24 148 -15 70 -15 149 1 225 9 49 9 71 -6 139 -22 103 -14
158 65 442 32 116 80 303 106 416 26 113 61 250 77 305 51 171 136 516 149
605 26 182 -11 577 -82 860 -56 226 -58 208 75 760 72 299 93 377 140 521 76
230 163 434 314 735 39 78 90 186 112 240 23 55 75 164 116 243 207 398 271
624 281 991 5 183 -6 324 -33 416 -5 19 2 22 71 37 41 9 95 17 118 17 141 0
192 69 221 297 13 100 14 170 6 458 -10 369 -7 345 -89 665 -27 107 -62 251
-77 319 -24 111 -25 128 -14 160 8 20 14 72 14 116 1 44 6 90 13 101 10 18 9
28 -8 60 -12 23 -18 50 -15 65 3 14 -2 36 -9 50 -29 49 -36 74 -41 138 -3 44
-14 81 -30 110 -13 24 -22 52 -19 62 9 26 -31 96 -63 113 -15 8 -38 33 -52 55
-18 29 -41 49 -78 67 -40 19 -56 33 -64 56 -8 24 -24 36 -75 59 -36 16 -70 29
-76 29 -27 0 -118 50 -111 61 4 8 9 7 16 -2 5 -9 7 0 3 26 -6 39 -6 40 12 19
10 -11 26 -31 36 -45 10 -13 7 -2 -7 24 -14 26 -23 54 -20 62 3 7 -11 31 -30
53 -20 22 -36 45 -36 51 0 6 -4 11 -9 11 -4 0 -25 26 -45 58 l-37 57 51 -54
c62 -68 67 -58 5 12 -24 28 -42 54 -39 59 3 5 0 7 -7 6 -6 -2 -14 3 -17 11 -3
9 0 11 9 7 9 -5 8 -2 -2 6 -8 7 -29 34 -47 59 -17 26 -50 61 -72 79 -22 17
-38 35 -35 39 2 4 -12 23 -33 42 -20 19 -28 24 -18 11 19 -22 19 -22 0 -19
-29 4 -45 17 -38 29 4 6 3 9 -2 6 -5 -3 -25 7 -44 23 -38 32 -34 37 12 13 16
-9 27 -11 23 -5 -3 6 -25 21 -48 33 -23 11 -56 32 -74 45 -23 17 -33 21 -39
12 -4 -8 -3 -9 4 -5 7 4 12 3 12 -2 0 -6 19 -22 43 -37 37 -23 39 -26 15 -22
-15 2 -25 0 -22 -4 3 -5 13 -9 22 -9 9 0 40 -21 67 -47 28 -26 53 -46 57 -45
4 1 29 -20 56 -46 26 -26 34 -34 16 -18 -18 15 -36 26 -41 23 -12 -8 -75 34
-128 83 -22 20 -66 54 -97 75 -54 35 -132 114 -122 124 2 3 23 -13 46 -35 l42
-39 -47 55 c-25 30 -60 69 -76 85 -17 17 -32 40 -34 53 -2 12 -7 25 -12 29 -4
5 -5 2 -1 -4 11 -19 -9 -16 -25 4 -10 11 -10 14 -1 9 30 -18 8 4 -35 34 -27
19 -72 57 -102 85 -30 27 -51 43 -46 35 5 -8 -7 1 -26 20 -74 73 -213 195
-224 195 -6 0 -41 30 -76 66 -59 59 -213 189 -225 189 -3 0 -2 -5 2 -11 3 -6
-31 8 -76 32 -45 23 -130 55 -188 70 -58 16 -108 33 -111 38 -9 13 -80 23
-194 26 -56 1 -109 5 -117 8 -8 3 -34 1 -57 -4z m848 -266 c13 -16 12 -17 -3
-4 -10 7 -18 15 -18 17 0 8 8 3 21 -13z m59 -48 c19 -19 32 -35 29 -35 -3 0
-20 16 -39 35 -19 19 -32 35 -29 35 3 0 20 -16 39 -35z m294 -264 c-2 -2 -31
20 -64 49 -33 29 -58 55 -55 58 3 3 -5 17 -17 31 -12 14 14 -10 59 -54 44 -44
78 -82 77 -84z m251 -211 c10 -11 16 -20 13 -20 -3 0 -13 9 -23 20 -10 11 -16
20 -13 20 3 0 13 -9 23 -20z m88 -90 c21 -22 37 -45 37 -52 0 -9 -3 -9 -12 1
-7 6 -13 15 -13 19 0 4 -20 26 -45 50 -25 24 -36 39 -24 33 11 -5 37 -28 57
-51z m48 -100 c52 -58 80 -94 64 -80 -49 40 -171 173 -185 200 -12 25 -12 25
7 5 11 -11 62 -67 114 -125z m360 -207 c13 -16 12 -17 -3 -4 -17 13 -22 21
-14 21 2 0 10 -8 17 -17z m-21 -78 c7 -8 18 -15 24 -15 7 0 23 -12 37 -27 17
-20 18 -23 3 -10 -11 9 -25 17 -30 17 -5 1 -31 21 -59 46 -28 26 -36 37 -19
26 17 -12 37 -28 44 -37z m-2340 -497 c0 -17 -10 -6 -25 25 l-16 32 20 -25
c11 -14 21 -28 21 -32z m65 -229 l5 -44 -20 40 c-11 22 -20 51 -20 65 0 24 0
24 15 3 8 -11 17 -40 20 -64z m131 -71 l29 -33 -32 29 c-18 17 -33 31 -33 33
0 8 8 1 36 -29z m60 -63 c24 -37 12 -40 -15 -5 -12 17 -17 30 -12 30 6 0 18
-11 27 -25z"/>
<path d="M4400 12126 c0 -2 8 -10 18 -17 15 -13 16 -12 3 4 -13 16 -21 21 -21
13z"/>
<path d="M4854 11766 c1 -8 5 -18 8 -22 4 -3 5 1 4 10 -1 8 -5 18 -8 22 -4 3
-5 -1 -4 -10z"/>
<path d="M4890 11746 c0 -2 8 -10 18 -17 15 -13 16 -12 3 4 -13 16 -21 21 -21
13z"/>
<path d="M5089 11576 c8 -9 28 -24 45 -33 17 -9 49 -30 71 -46 22 -17 32 -22
22 -11 -9 11 -14 23 -11 27 3 3 -3 10 -14 16 -11 6 -22 7 -26 4 -3 -3 -6 -1
-6 5 0 7 -7 12 -16 12 -9 0 -30 10 -47 22 -24 17 -28 18 -18 4z"/>
<path d="M5350 11419 c35 -35 63 -68 62 -72 -1 -4 15 -33 36 -65 22 -31 49
-76 61 -99 12 -24 23 -43 26 -43 10 0 -18 56 -61 123 -26 39 -47 77 -48 84 -3
17 -72 89 -111 115 -16 11 -1 -8 35 -43z"/>
<path d="M5265 11463 c6 -5 39 -36 75 -68 l65 -59 -55 58 c-30 31 -64 62 -75
68 -11 6 -15 6 -10 1z"/>
<path d="M5210 11406 c0 -2 8 -10 18 -17 15 -13 16 -12 3 4 -13 16 -21 21 -21
13z"/>
<path d="M5546 11097 c3 -10 9 -15 12 -12 3 3 0 11 -7 18 -10 9 -11 8 -5 -6z"/>
<path d="M5587 10993 c50 -76 62 -90 43 -53 -22 43 -74 120 -81 120 -4 0 13
-30 38 -67z"/>
</g>
</svg>
