<?xml version="1.0" standalone="no"?>
<!DOCTYPE svg PUBLIC "-//W3C//DTD SVG 20010904//EN"
 "http://www.w3.org/TR/2001/REC-SVG-20010904/DTD/svg10.dtd">
<svg version="1.0" xmlns="http://www.w3.org/2000/svg"
 width="989.000000pt" height="1280.000000pt" viewBox="0 0 989.000000 1280.000000"
 preserveAspectRatio="xMidYMid meet">
<metadata>
Created by potrace 1.15, written by Peter Selinger 2001-2017
</metadata>
<g transform="translate(0.000000,1280.000000) scale(0.100000,-0.100000)"
fill="#000000" stroke="none">
<path d="M4613 12600 c-112 -40 -196 -93 -279 -175 -125 -123 -191 -245 -234
-431 -12 -49 -32 -108 -45 -133 -14 -24 -25 -49 -24 -55 0 -6 5 0 11 14 6 14
12 20 15 13 5 -15 -31 -86 -72 -140 -18 -24 -38 -63 -44 -88 -6 -24 -20 -59
-31 -77 -48 -79 -55 -97 -40 -111 7 -6 10 -7 7 -1 -3 6 0 11 8 11 16 0 6 -26
-18 -45 -8 -7 -22 -30 -32 -53 -18 -40 -18 -43 -1 -92 16 -45 16 -51 2 -59 -9
-5 -21 -18 -26 -29 -11 -19 -10 -19 26 -4 43 18 38 20 64 -31 13 -27 19 -33
19 -19 1 11 -3 26 -8 34 -7 11 -3 18 16 28 34 17 33 18 33 -18 0 -17 7 -37 15
-45 13 -14 15 -12 15 18 0 26 3 30 11 18 8 -11 9 -7 6 18 -5 42 8 29 22 -22
10 -37 7 -48 -30 -133 -24 -54 -59 -113 -83 -141 -23 -26 -51 -60 -63 -77 -28
-41 -135 -277 -128 -283 3 -3 5 1 5 8 0 7 2 11 5 8 3 -2 -2 -36 -11 -74 -24
-104 -28 -144 -14 -144 8 0 10 -12 6 -37 -3 -21 0 -63 7 -94 12 -49 12 -60 -2
-85 -26 -50 -19 -165 17 -266 35 -100 51 -133 52 -106 0 11 6 15 19 11 15 -4
24 -22 35 -73 9 -38 16 -88 16 -111 0 -22 7 -68 16 -101 9 -37 13 -83 10 -120
-5 -63 0 -92 14 -83 5 3 11 -3 14 -12 7 -22 56 -27 56 -7 0 8 7 17 15 20 8 4
15 10 15 15 0 5 13 27 29 49 l29 40 17 -44 c14 -35 22 -43 41 -43 14 0 27 -2
29 -5 2 -2 23 -62 45 -134 97 -307 119 -468 82 -590 -28 -91 -69 -154 -100
-154 -18 0 -22 -4 -17 -19 4 -14 -6 -29 -37 -56 -62 -53 -84 -62 -236 -101
-146 -36 -245 -78 -339 -142 -66 -45 -195 -175 -239 -242 -122 -183 -162 -320
-171 -591 -6 -189 5 -333 36 -483 18 -86 29 -106 62 -106 27 0 37 -20 66 -131
22 -82 33 -106 50 -114 19 -8 29 -39 72 -215 28 -113 64 -284 81 -380 38 -213
72 -358 150 -640 76 -275 84 -319 83 -465 -1 -167 -26 -331 -80 -514 -119
-408 -137 -505 -136 -716 1 -201 5 -222 173 -865 29 -107 69 -257 91 -334 21
-76 39 -152 39 -168 0 -78 -45 -197 -140 -368 -93 -168 -121 -295 -85 -395 8
-22 12 -54 9 -72 -12 -62 45 -135 116 -150 32 -6 34 -8 44 -55 3 -15 27 -57
51 -93 63 -91 80 -139 119 -337 39 -192 72 -275 157 -389 46 -61 55 -69 85
-69 23 0 38 6 46 19 12 19 13 19 35 -6 22 -23 29 -24 71 -18 52 9 56 8 94 -1
19 -4 37 -1 54 11 21 14 31 15 54 5 21 -9 33 -9 50 0 17 9 25 9 39 -4 11 -10
36 -16 65 -16 39 0 53 5 77 29 16 16 29 38 29 49 0 19 -66 112 -89 126 -5 4
-19 36 -32 73 -12 37 -42 110 -66 162 -55 117 -74 179 -108 341 -15 69 -45
179 -66 245 -33 99 -42 141 -49 241 -5 70 -21 175 -39 250 -47 201 -49 247
-13 384 46 174 171 418 293 570 138 173 264 312 531 587 400 410 550 619 683
948 40 99 80 176 137 262 86 133 126 220 135 292 5 46 -34 461 -63 666 -22
157 -188 984 -230 1149 -20 76 -47 170 -60 209 -30 87 -24 99 65 141 33 16 61
35 61 41 0 22 -184 253 -285 357 -139 145 -152 185 -123 386 14 103 2 216 -43
387 -20 80 -29 132 -25 156 9 59 55 208 88 286 25 62 36 76 64 88 19 8 38 24
43 37 5 13 29 38 55 56 25 18 44 37 41 42 -3 5 15 38 40 74 25 37 45 70 45 74
0 4 9 13 21 20 16 11 20 21 16 45 -6 39 20 93 74 158 22 26 39 56 39 68 0 11
11 45 25 74 25 56 25 57 29 152 3 80 4 82 20 59 19 -26 28 -14 34 45 5 53 -18
137 -49 182 l-18 26 52 24 c28 13 97 54 152 90 55 37 111 70 125 74 14 4 43
16 65 27 82 41 106 86 65 123 -26 23 -70 15 -154 -30 -77 -40 -163 -68 -172
-54 -3 5 3 38 14 72 138 427 153 527 81 527 -17 0 -30 -28 -60 -124 -16 -54
-99 -230 -105 -224 -2 3 5 27 16 53 30 71 90 279 90 314 0 21 -7 34 -22 42
-29 16 -49 -10 -79 -99 -12 -37 -33 -92 -47 -122 -59 -131 -84 -181 -88 -178
-2 2 0 59 5 126 10 149 5 186 -29 190 -16 2 -32 15 -45 37 -19 33 -124 162
-175 215 -24 25 -25 29 -12 60 14 36 25 127 42 354 10 129 9 161 -4 229 -9 44
-19 84 -22 89 -3 5 -13 58 -20 116 -8 59 -17 127 -21 152 -3 25 -9 50 -14 56
-5 6 -8 24 -8 40 3 110 -27 222 -76 284 -7 8 -22 45 -34 81 -43 130 -101 186
-241 230 -59 18 -86 33 -125 70 -27 26 -63 54 -80 62 -81 40 -339 50 -432 17z
m-720 -1267 c-3 -27 -10 -49 -15 -51 -4 -2 -8 -8 -8 -14 0 -6 7 -7 16 -4 14 5
15 4 5 -8 -9 -10 -9 -15 0 -18 7 -2 6 -8 -5 -17 -14 -12 -16 -11 -17 5 -1 11
-1 22 0 27 0 4 -3 7 -8 7 -16 0 -21 29 -10 58 9 24 37 62 45 62 2 0 1 -21 -3
-47z m17 -163 c0 -5 -5 -10 -11 -10 -5 0 -7 5 -4 10 3 6 8 10 11 10 2 0 4 -4
4 -10z m-7 -497 c-3 -9 -21 -41 -40 -71 -18 -31 -33 -60 -33 -66 0 -5 -2 -7
-5 -4 -8 8 13 57 47 111 31 48 42 59 31 30z m1577 -436 c0 -13 -29 12 -42 37
-10 19 -8 18 16 -3 14 -14 26 -29 26 -34z m-1318 -424 c2 -16 -2 -46 -8 -68
l-12 -40 -1 68 c-1 66 13 93 21 40z m1489 -890 c-12 -20 -14 -14 -5 12 4 9 9
14 11 11 3 -2 0 -13 -6 -23z m17 -93 c15 0 15 1 -8 -44 -10 -21 -29 -45 -41
-54 l-21 -15 7 64 c9 78 12 85 34 65 10 -9 23 -16 29 -16z m-48 -145 c-7 -8
-17 -15 -22 -15 -6 0 -5 7 2 15 7 8 17 15 22 15 6 0 5 -7 -2 -15z m-999 -2446
c110 -215 586 -1194 613 -1259 27 -67 73 -221 83 -276 10 -62 -47 -144 -225
-324 -206 -208 -280 -328 -370 -605 -64 -195 -144 -389 -244 -589 -75 -151
-195 -356 -208 -356 -6 0 -5 146 4 725 5 289 16 407 56 585 63 274 72 324 80
430 5 71 20 159 38 230 52 196 57 255 52 580 -2 162 -4 432 -4 600 l1 305 24
37 c13 20 28 36 33 35 5 -2 35 -55 67 -118z"/>
<path d="M3973 11778 c-14 -18 -34 -80 -28 -86 2 -3 8 4 11 14 4 10 13 34 20
52 14 34 13 40 -3 20z"/>
<path d="M4009 11773 c-13 -16 -12 -17 4 -4 9 7 17 15 17 17 0 8 -8 3 -21 -13z"/>
<path d="M3711 10464 c0 -11 3 -14 6 -6 3 7 2 16 -1 19 -3 4 -6 -2 -5 -13z"/>
</g>
</svg>
