<?xml version="1.0" standalone="no"?>
<!DOCTYPE svg PUBLIC "-//W3C//DTD SVG 20010904//EN"
 "http://www.w3.org/TR/2001/REC-SVG-20010904/DTD/svg10.dtd">
<svg version="1.0" xmlns="http://www.w3.org/2000/svg"
 width="984.000000pt" height="1280.000000pt" viewBox="0 0 984.000000 1280.000000"
 preserveAspectRatio="xMidYMid meet">
<metadata>
Created by potrace 1.15, written by Peter Selinger 2001-2017
</metadata>
<g transform="translate(0.000000,1280.000000) scale(0.100000,-0.100000)"
fill="#000000" stroke="none">
<path d="M4350 12644 c-185 -22 -227 -37 -270 -99 -27 -40 -33 -42 -100 -54
-39 -6 -93 -22 -119 -35 -97 -50 -200 -216 -242 -392 -18 -75 -20 -104 -14
-184 4 -52 6 -138 4 -190 -2 -52 -4 -158 -3 -235 0 -120 3 -148 22 -196 26
-66 91 -170 133 -215 28 -28 29 -32 13 -45 -9 -7 -28 -32 -43 -54 -25 -38 -26
-47 -26 -168 0 -148 7 -137 -127 -207 -73 -38 -148 -107 -148 -136 0 -19 -178
-173 -349 -302 -180 -136 -522 -453 -639 -592 -26 -30 -76 -89 -113 -130 -110
-126 -148 -179 -195 -275 -48 -100 -58 -170 -29 -224 20 -40 219 -218 328
-294 50 -35 139 -97 197 -138 64 -45 161 -100 245 -139 316 -146 561 -284 675
-378 30 -24 69 -51 86 -58 17 -7 34 -20 37 -28 3 -8 -6 -68 -19 -133 -42 -197
-59 -399 -55 -685 1 -89 3 -108 16 -108 28 0 19 -110 -19 -239 -74 -249 -94
-613 -46 -811 12 -47 30 -143 41 -215 11 -71 51 -253 89 -405 116 -465 156
-652 215 -1005 31 -187 67 -385 81 -439 33 -137 28 -152 -99 -308 -224 -275
-282 -363 -299 -456 -5 -31 -18 -88 -29 -127 -10 -38 -25 -115 -34 -171 -8
-55 -26 -143 -40 -195 -22 -80 -82 -398 -116 -614 -5 -33 -16 -91 -25 -128
-16 -65 -19 -69 -58 -88 -23 -11 -59 -40 -80 -65 -21 -24 -55 -56 -76 -69 -47
-30 -85 -104 -100 -195 -5 -36 -10 -135 -10 -220 0 -85 -9 -245 -19 -355 -11
-110 -17 -221 -14 -246 4 -34 2 -46 -8 -46 -8 -1 -36 -4 -64 -8 -27 -4 -58 -7
-67 -8 -9 -1 -14 -6 -11 -11 4 -5 -1 -7 -10 -3 -9 3 -23 0 -31 -8 -11 -11 -16
-12 -19 -2 -4 9 -6 9 -6 0 -1 -7 -8 -13 -17 -13 -9 0 -12 -5 -8 -12 4 -7 3 -8
-5 -4 -6 4 -19 2 -28 -6 -13 -10 -17 -10 -20 0 -3 6 -9 12 -14 12 -6 0 -7 -5
-3 -12 5 -8 2 -9 -10 -5 -9 4 -15 3 -11 -2 3 -5 2 -16 -1 -25 -5 -12 -10 -14
-19 -6 -10 8 -12 4 -12 -17 0 -16 2 -22 4 -15 7 19 23 14 23 -8 0 -11 4 -20 9
-20 6 0 8 -9 6 -19 -3 -15 1 -19 16 -16 10 2 18 -1 16 -8 -1 -7 4 -11 11 -9 6
1 12 -4 12 -12 0 -8 19 -18 44 -25 24 -6 46 -17 49 -25 3 -8 14 -13 24 -12 10
2 27 -1 38 -7 11 -6 29 -12 40 -14 11 -2 41 -7 67 -13 140 -29 444 -18 555 21
32 11 67 22 78 25 35 9 265 2 283 -10 4 -2 42 -7 83 -11 41 -3 91 -8 112 -10
20 -3 54 -7 75 -10 212 -27 597 -36 669 -16 54 15 99 53 112 94 9 26 7 43 -7
85 -10 28 -26 60 -35 70 -20 21 -22 63 -5 80 12 12 -14 52 -84 125 -22 23 -60
80 -84 126 -38 74 -45 97 -54 185 -24 230 -24 225 -5 246 15 17 16 25 5 69
-11 45 -9 65 15 178 86 413 188 719 335 1014 47 93 104 232 125 307 9 31 30
86 45 122 28 64 72 223 85 310 3 25 10 104 14 176 8 126 9 133 43 190 43 71
142 269 153 304 4 14 29 72 55 130 26 58 59 138 75 178 19 51 57 113 127 209
150 203 199 280 266 415 82 168 119 265 233 610 127 385 220 748 249 973 22
166 -10 617 -50 700 -5 11 -25 65 -45 120 -76 208 -176 378 -324 550 -44 52
-81 97 -81 100 0 3 -18 31 -39 63 -33 48 -121 227 -121 245 0 3 29 48 64 100
75 111 120 204 169 347 55 165 59 186 63 350 3 150 22 293 60 459 13 60 20 74
44 86 27 14 60 64 60 90 0 7 7 18 15 25 19 15 20 46 2 57 -8 4 -16 15 -19 24
-9 23 17 124 40 156 27 38 124 129 198 186 79 59 114 101 114 135 0 38 27 182
39 215 6 15 10 49 9 75 -2 60 7 112 32 185 25 72 27 165 4 174 -31 12 -47 -6
-98 -117 l-25 -55 -79 0 c-76 -1 -112 -12 -112 -37 0 -20 50 -58 77 -58 l28
-1 -37 -32 c-41 -36 -135 -97 -191 -123 -28 -14 -40 -15 -49 -6 -9 9 1 36 40
114 42 84 52 113 52 154 0 55 -19 84 -57 84 -23 0 -65 -66 -97 -153 -10 -27
-41 -83 -68 -124 -74 -109 -127 -276 -128 -396 0 -48 -7 -119 -16 -158 -14
-63 -18 -69 -41 -69 -36 0 -87 -60 -108 -125 -16 -53 -16 -55 5 -85 12 -16 26
-30 31 -30 14 0 11 -12 -22 -86 l-32 -69 -61 67 -62 67 -13 163 c-19 249 -54
405 -106 482 -21 31 -23 44 -23 167 0 156 -22 267 -76 383 -18 39 -36 97 -39
127 -4 30 -16 81 -27 114 -22 65 -27 135 -8 135 6 0 20 -8 31 -17 21 -19 21
-19 -1 47 -3 9 2 7 12 -5 11 -14 8 0 -9 49 -19 49 -28 102 -35 191 -11 145
-32 209 -114 348 -43 73 -58 109 -71 176 -25 129 -80 241 -167 339 -97 111
-130 134 -348 241 -191 93 -234 106 -330 95z m977 -1216 c-3 -7 -5 -2 -5 12 0
14 2 19 5 13 2 -7 2 -19 0 -25z m10 -90 c-2 -13 -4 -5 -4 17 -1 22 1 32 4 23
2 -10 2 -28 0 -40z m603 -1487 c0 -5 -11 -11 -25 -13 -28 -6 -35 8 -7 15 28 8
32 7 32 -2z m-12 -43 c-7 -20 -48 -23 -48 -4 0 11 9 16 26 16 16 0 24 -5 22
-12z m-18 -54 c0 -8 -4 -12 -10 -9 -5 3 -10 10 -10 16 0 5 5 9 10 9 6 0 10 -7
10 -16z m-36 -40 c9 -3 16 -13 16 -21 0 -20 -34 -12 -38 10 -4 19 -1 20 22 11z
m366 -159 c-7 -8 -17 -15 -22 -15 -6 0 -5 7 2 15 7 8 17 15 22 15 6 0 5 -7 -2
-15z m-2799 -174 c23 -187 67 -408 115 -576 20 -71 36 -145 36 -162 -2 -34 56
-189 108 -294 17 -32 27 -59 23 -59 -15 0 -198 168 -583 534 -121 115 -233
199 -332 247 l-48 23 128 66 c167 86 319 192 477 333 28 25 52 43 54 41 2 -2
12 -71 22 -153z m829 -7336 c-13 -241 -58 -475 -90 -475 -6 0 -27 -12 -46 -26
-24 -19 -34 -34 -34 -53 0 -17 -10 -37 -26 -52 -15 -13 -35 -43 -45 -65 -11
-23 -25 -44 -33 -47 -30 -12 -28 -61 6 -148 31 -81 32 -89 32 -229 0 -108 -5
-158 -17 -195 -14 -43 -15 -52 -2 -64 10 -11 20 -12 36 -5 16 7 26 28 40 82
22 88 55 165 68 158 22 -14 201 -350 201 -379 0 -1 -111 -2 -247 -3 -327 -1
-453 -6 -453 -16 0 -5 -9 -4 -20 2 -15 8 -20 8 -21 -2 -4 -51 -40 239 -45 367
-8 191 6 295 66 480 21 66 46 147 55 180 24 86 48 127 207 365 142 213 195
300 298 495 29 55 58 106 64 114 16 21 20 -251 6 -484z m-975 -314 c-3 -6 -11
-11 -17 -11 -6 0 -6 6 2 15 14 17 26 13 15 -4z"/>
</g>
</svg>
