<?xml version="1.0" standalone="no"?>
<!DOCTYPE svg PUBLIC "-//W3C//DTD SVG 20010904//EN"
 "http://www.w3.org/TR/2001/REC-SVG-20010904/DTD/svg10.dtd">
<svg version="1.0" xmlns="http://www.w3.org/2000/svg"
 width="984.000000pt" height="1280.000000pt" viewBox="0 0 984.000000 1280.000000"
 preserveAspectRatio="xMidYMid meet">
<metadata>
Created by potrace 1.15, written by Peter Selinger 2001-2017
</metadata>
<g transform="translate(0.000000,1280.000000) scale(0.100000,-0.100000)"
fill="#000000" stroke="none">
<path d="M4213 12360 c-118 -41 -219 -121 -284 -221 -19 -31 -38 -49 -50 -49
-25 0 -35 -26 -22 -60 12 -31 3 -60 -27 -90 -16 -16 -20 -28 -15 -43 11 -32
10 -70 -4 -177 -16 -116 -2 -248 34 -325 13 -28 27 -63 30 -78 4 -15 11 -27
15 -27 4 0 18 -27 30 -60 25 -67 35 -77 26 -25 -4 19 -5 35 -2 35 8 0 63 -115
71 -148 3 -17 11 -32 16 -32 5 0 9 -35 10 -77 1 -95 8 -117 35 -120 17 -2 26
8 43 45 23 53 24 45 12 -84 -6 -57 -17 -106 -29 -130 -23 -45 -271 -292 -352
-351 -30 -22 -98 -65 -150 -96 -195 -113 -253 -224 -285 -542 -18 -178 -20
-191 -45 -275 -10 -36 -25 -101 -34 -145 -8 -44 -31 -131 -50 -192 -41 -131
-66 -330 -66 -525 0 -103 4 -130 21 -168 12 -25 41 -102 65 -173 98 -283 119
-327 268 -566 86 -137 177 -314 202 -396 16 -51 16 -55 -4 -112 -56 -158 -65
-700 -16 -938 27 -129 116 -428 205 -685 106 -308 124 -372 144 -509 18 -115
14 -168 -26 -380 -36 -187 -79 -524 -79 -611 0 -116 19 -194 78 -330 28 -63
73 -196 101 -295 57 -198 117 -358 194 -510 27 -55 60 -131 73 -168 l23 -68
-24 -38 c-57 -86 -62 -120 -60 -436 2 -287 2 -291 29 -370 15 -44 41 -109 59
-145 30 -61 34 -65 67 -65 28 0 35 4 41 25 l7 25 1 -26 c1 -15 9 -37 20 -50
16 -21 22 -22 45 -11 14 6 26 17 26 24 1 7 9 -3 18 -22 20 -42 67 -54 90 -23
12 17 14 17 23 1 13 -24 55 -23 75 1 13 14 26 17 59 13 34 -3 47 0 64 17 30
30 27 47 -27 131 -26 41 -61 113 -76 159 -29 84 -29 86 -20 225 5 78 8 225 7
327 -1 174 -4 195 -32 300 -17 63 -36 159 -42 214 -16 144 -4 557 22 760 18
134 20 192 16 355 -3 107 -2 272 2 365 7 154 11 179 41 265 31 93 60 148 44
85 -12 -48 -9 -558 5 -695 27 -275 26 -337 -9 -585 -42 -297 -40 -436 8 -620
43 -165 58 -270 82 -545 20 -233 37 -377 65 -560 8 -52 15 -128 15 -169 0 -70
-3 -79 -40 -141 -69 -114 -74 -158 -31 -240 16 -31 39 -94 51 -140 25 -97 24
-209 -5 -340 -26 -119 -23 -206 9 -275 14 -31 26 -69 26 -84 l0 -27 -127 14
c-71 7 -210 15 -310 16 -155 3 -183 2 -183 -11 0 -8 -5 -11 -12 -7 -7 4 -8 3
-4 -5 4 -6 12 -9 17 -5 13 8 49 -24 49 -44 0 -8 6 -12 15 -8 8 3 14 0 12 -7
-1 -7 10 -13 26 -15 15 -2 27 -8 27 -13 0 -5 6 -8 13 -7 6 2 11 -2 10 -9 -2
-7 3 -10 11 -7 8 3 34 -6 58 -19 25 -14 62 -27 84 -30 21 -2 64 -12 94 -21 30
-9 82 -16 115 -16 111 1 376 28 391 41 9 7 34 22 57 33 35 18 43 27 45 54 2
20 9 32 18 32 8 0 23 14 32 30 9 17 24 32 33 35 24 8 40 92 28 145 -7 30 -7
65 1 110 11 64 10 72 -31 221 -28 102 -45 186 -49 249 -4 52 -13 125 -20 163
-11 53 -11 83 -2 145 7 42 12 107 12 143 0 73 24 217 75 449 37 167 60 298
130 753 80 522 87 624 60 902 -25 255 -16 498 30 768 19 116 43 206 109 405
47 142 103 320 125 397 22 77 65 219 95 316 64 207 119 425 146 583 58 339 50
947 -16 1211 -8 33 -41 116 -74 185 -63 135 -90 219 -90 286 0 68 -26 186 -58
260 -16 38 -55 150 -86 249 -32 99 -64 200 -73 225 -8 26 -18 112 -23 205 -10
181 -19 292 -26 316 -3 12 5 20 28 28 82 29 142 94 179 192 11 30 27 69 35 86
21 47 29 156 15 206 -7 23 -17 58 -23 77 -15 52 -90 180 -104 180 -14 0 -65
46 -192 172 -68 67 -121 105 -144 100 -4 -1 -26 16 -48 37 -39 37 -40 41 -34
82 16 106 108 297 197 412 16 21 82 77 146 125 128 95 418 380 525 517 194
245 294 468 267 588 -21 90 -70 110 -337 142 -250 30 -381 31 -590 5 -311 -38
-438 -50 -548 -50 l-111 0 -58 115 c-87 172 -189 263 -331 295 -76 17 -356 10
-413 -10z m1138 -800 c158 -9 399 -37 408 -46 3 -2 -11 -21 -31 -42 -19 -20
-54 -63 -77 -95 -45 -62 -108 -107 -201 -146 -161 -68 -263 -144 -459 -340
-126 -127 -144 -143 -153 -127 -17 30 7 208 37 270 14 29 29 88 35 132 14 100
21 119 30 79 4 -16 8 -48 9 -71 1 -51 9 -59 32 -32 13 14 19 37 19 67 0 25 5
63 11 85 10 38 11 38 50 32 21 -3 39 -4 39 -2 0 2 -10 28 -23 57 -18 43 -22
68 -19 120 l4 66 62 2 c34 1 136 -3 227 -9z m-1522 -2588 c19 -81 53 -175 100
-282 39 -88 71 -162 71 -165 0 -3 21 -61 46 -128 59 -154 62 -212 16 -333 -17
-44 -37 -114 -46 -155 -30 -147 -77 -265 -90 -228 -3 8 -34 97 -70 199 -35
102 -87 244 -115 315 -27 72 -64 176 -81 232 -36 119 -38 104 35 331 25 79 55
193 67 253 13 65 25 104 29 96 4 -7 21 -68 38 -135z"/>
<path d="M4005 1480 l-20 -9 20 -1 c11 -2 23 -2 28 -1 4 0 7 -3 7 -8 0 -18 72
-33 163 -33 87 0 197 9 205 17 28 28 -343 61 -403 35z"/>
</g>
</svg>
