<?xml version="1.0" standalone="no"?>
<!DOCTYPE svg PUBLIC "-//W3C//DTD SVG 20010904//EN"
 "http://www.w3.org/TR/2001/REC-SVG-20010904/DTD/svg10.dtd">
<svg version="1.0" xmlns="http://www.w3.org/2000/svg"
 width="984.000000pt" height="1280.000000pt" viewBox="0 0 984.000000 1280.000000"
 preserveAspectRatio="xMidYMid meet">
<metadata>
Created by potrace 1.15, written by Peter Selinger 2001-2017
</metadata>
<g transform="translate(0.000000,1280.000000) scale(0.100000,-0.100000)"
fill="#000000" stroke="none">
<path d="M4155 12534 c-187 -40 -279 -137 -400 -419 -25 -60 -55 -145 -65
-189 -18 -73 -41 -272 -39 -336 1 -48 16 10 29 110 8 62 19 107 33 130 30 49
32 26 12 -130 -18 -144 -11 -244 25 -342 13 -34 18 -41 14 -20 -4 24 -2 32 9
32 9 0 24 -25 38 -62 12 -34 25 -56 27 -49 7 21 28 -19 42 -79 7 -30 21 -63
31 -73 18 -17 19 -17 19 5 1 14 21 -17 55 -82 53 -102 83 -143 125 -173 21
-14 94 -204 128 -331 23 -85 8 -162 -53 -270 -37 -65 -63 -96 -119 -143 -106
-89 -588 -433 -654 -467 -18 -9 -69 -55 -114 -101 -99 -102 -118 -145 -118
-260 0 -63 -5 -89 -21 -120 -85 -157 -50 -328 98 -485 l42 -45 -19 -80 c-23
-94 -45 -369 -35 -440 3 -27 10 -129 15 -225 4 -96 14 -214 21 -262 10 -68 10
-103 1 -165 -7 -43 -12 -94 -12 -114 0 -28 -12 -52 -51 -105 -95 -128 -111
-173 -173 -474 -45 -216 -76 -432 -97 -678 -17 -202 8 -460 86 -862 19 -96 50
-267 70 -380 20 -113 61 -308 91 -433 59 -247 69 -330 79 -656 7 -212 -5 -338
-50 -541 -19 -85 -40 -184 -47 -220 -25 -127 -8 -912 28 -1335 9 -99 14 -205
12 -234 l-3 -55 -57 -17 c-31 -9 -91 -35 -133 -58 -65 -35 -82 -40 -118 -35
-38 5 -45 3 -69 -25 -16 -17 -45 -42 -67 -55 -42 -27 -81 -71 -81 -92 0 -7 -9
-28 -20 -46 -33 -55 -22 -98 26 -98 12 0 36 -11 52 -25 39 -33 58 -39 225 -75
114 -24 157 -39 254 -87 115 -57 118 -58 202 -58 179 0 239 84 201 285 -17 89
-5 151 72 385 32 99 85 286 118 416 74 294 106 390 181 551 96 204 102 238 98
528 -6 403 -5 428 40 622 66 287 83 420 96 743 10 238 43 559 71 682 13 62 45
185 69 273 25 89 45 163 45 166 0 2 4 4 8 4 12 0 26 -44 77 -239 60 -227 107
-371 165 -506 26 -60 79 -186 118 -280 131 -318 175 -397 272 -490 28 -27 60
-66 70 -85 10 -19 41 -63 69 -98 28 -35 69 -95 92 -134 23 -40 68 -100 100
-134 64 -69 78 -93 115 -196 15 -40 66 -161 115 -269 49 -108 122 -286 163
-395 40 -109 130 -338 198 -509 188 -466 256 -709 274 -983 9 -148 -16 -245
-106 -414 -51 -94 -88 -150 -128 -191 -72 -74 -135 -117 -171 -117 -37 0 -61
-28 -61 -72 0 -63 72 -107 140 -87 28 9 46 9 71 0 49 -17 113 -13 171 10 29
12 102 34 161 50 125 33 166 50 260 107 59 37 75 42 127 42 77 0 162 32 214
81 40 37 41 39 41 106 0 59 -5 76 -35 128 -73 130 -110 213 -132 300 -21 82
-23 110 -21 320 3 291 -11 528 -47 821 -26 205 -28 250 -23 410 5 145 3 194
-11 262 -37 181 -112 352 -291 662 -163 280 -338 632 -380 760 -73 224 -80
282 -95 720 -11 334 -20 431 -76 845 -25 181 -35 290 -33 358 4 175 3 410 -2
503 -4 73 -9 95 -26 118 -28 35 -66 149 -68 206 -3 70 -42 166 -77 192 -70 53
-244 246 -264 294 -15 37 -69 94 -89 94 -7 0 -29 19 -49 41 l-35 41 34 68 c65
128 67 149 69 610 0 228 -3 520 -7 649 -7 193 -5 257 9 370 34 276 5 509 -106
871 -117 382 -147 475 -182 570 -60 161 -64 194 -22 168 10 -7 54 0 54 8 0 2
-6 23 -14 46 -12 40 -28 101 -39 156 -3 12 -3 22 -1 22 3 0 9 -10 14 -22 7
-16 8 -1 4 47 -5 52 -1 88 11 134 10 34 21 58 25 52 6 -10 26 49 72 209 16 55
18 58 13 20 -8 -57 2 -47 21 21 18 72 18 197 -2 278 -47 193 -235 472 -380
567 -88 57 -164 77 -269 70 -116 -7 -105 -7 -210 -1 -60 3 -113 -1 -160 -11z
m852 -1211 c-3 -10 -5 -4 -5 12 0 17 2 24 5 18 2 -7 2 -21 0 -30z"/>
</g>
</svg>
