<?xml version="1.0" standalone="no"?>
<!DOCTYPE svg PUBLIC "-//W3C//DTD SVG 20010904//EN"
 "http://www.w3.org/TR/2001/REC-SVG-20010904/DTD/svg10.dtd">
<svg version="1.0" xmlns="http://www.w3.org/2000/svg"
 width="474.000000pt" height="1280.000000pt" viewBox="0 0 474.000000 1280.000000"
 preserveAspectRatio="xMidYMid meet">
<metadata>
Created by potrace 1.15, written by Peter Selinger 2001-2017
</metadata>
<g transform="translate(0.000000,1280.000000) scale(0.100000,-0.100000)"
fill="#000000" stroke="none">
<path d="M2490 12585 c-247 -70 -401 -206 -565 -499 -67 -120 -127 -288 -149
-416 -14 -76 -16 -142 -13 -335 5 -254 15 -330 60 -466 25 -76 26 -129 2 -149
-7 -6 -60 -15 -118 -20 -58 -6 -125 -17 -149 -26 -24 -8 -70 -14 -103 -13 -85
2 -220 -10 -290 -28 -101 -25 -172 -69 -275 -173 -144 -144 -201 -232 -342
-535 -43 -93 -122 -249 -176 -345 -119 -215 -207 -400 -230 -483 -47 -175 24
-525 194 -943 108 -266 134 -347 134 -414 0 -46 5 -62 24 -83 13 -14 32 -50
42 -79 23 -72 110 -237 142 -271 16 -16 51 -35 87 -46 34 -11 89 -31 123 -45
101 -43 175 -31 175 28 0 19 3 24 10 17 12 -12 35 -127 46 -233 4 -43 13 -84
20 -91 8 -11 8 -26 -4 -63 -8 -27 -26 -91 -41 -143 -15 -52 -37 -115 -50 -139
-13 -25 -24 -57 -24 -71 0 -14 -13 -64 -29 -111 -16 -47 -34 -105 -41 -130 -6
-25 -18 -65 -25 -90 -18 -60 -36 -142 -46 -210 -17 -122 -27 -186 -33 -200
-12 -31 -88 -493 -84 -513 1 -7 -4 -43 -10 -82 -9 -49 -9 -94 -3 -148 7 -59 6
-91 -5 -130 -16 -59 -38 -233 -53 -417 -30 -360 -32 -427 -21 -531 13 -124 30
-179 80 -268 40 -70 49 -99 129 -411 27 -107 73 -260 101 -340 28 -80 98 -282
155 -450 57 -168 128 -376 159 -463 77 -214 84 -255 83 -427 -2 -159 -2 -159
-73 -250 -49 -62 -74 -116 -74 -157 0 -16 15 -61 34 -100 l35 -72 -39 -31
c-21 -17 -81 -51 -132 -75 -120 -57 -141 -78 -146 -153 -5 -74 28 -199 60
-226 58 -47 208 -106 324 -126 103 -18 213 13 256 71 27 36 33 56 72 244 14
67 39 161 56 210 32 93 157 318 175 312 19 -7 40 -144 55 -356 7 -108 7 -158
-1 -167 -5 -7 -62 -45 -126 -85 -98 -61 -118 -78 -134 -113 -20 -45 -24 -87
-10 -114 6 -9 17 -50 27 -91 17 -73 17 -73 76 -112 66 -42 177 -88 278 -114
49 -13 86 -16 150 -11 168 12 235 56 270 178 101 348 115 387 150 448 21 36
48 77 60 90 l21 25 -6 -150 c-3 -82 -8 -180 -11 -216 -5 -55 -3 -67 10 -72 37
-14 43 1 50 121 16 276 54 464 109 542 107 149 127 217 101 329 -17 75 -52
141 -90 168 -16 12 -34 43 -48 83 -14 39 -28 64 -35 62 -21 -4 -3 100 78 463
58 262 93 619 94 955 0 211 -12 300 -68 485 -53 173 -65 228 -76 350 -21 232
-22 345 -4 465 28 192 84 499 99 543 8 23 20 78 26 122 7 44 33 148 58 230 25
83 56 188 70 235 28 98 31 107 106 295 93 237 125 332 146 440 31 165 26 357
-14 520 -44 179 -96 324 -155 433 -28 51 -51 99 -51 107 0 7 -15 33 -32 57
-71 93 -91 130 -76 139 7 5 19 6 27 4 20 -8 111 24 111 38 0 7 107 59 238 116
428 188 595 279 811 445 77 59 211 142 276 171 89 39 111 98 85 236 -28 152
-236 472 -510 785 -139 158 -173 205 -295 407 -58 96 -104 156 -187 245 -213
227 -293 292 -406 326 l-61 19 4 217 c3 199 8 270 22 310 2 8 6 38 7 65 3 50
46 143 87 190 27 30 71 144 51 131 -5 -3 -12 -20 -16 -37 -6 -30 -86 -162 -86
-142 0 6 13 30 30 54 16 24 30 55 30 69 0 14 7 48 16 75 34 110 43 174 33 238
-11 68 -3 170 14 160 6 -4 7 4 2 23 -5 16 -9 85 -10 154 -3 206 -46 324 -170
467 -80 93 -208 193 -280 220 -78 30 -276 84 -298 82 -7 0 -32 -7 -57 -14z
m780 -1215 c-10 -23 -10 -22 -5 9 3 18 6 45 7 60 1 19 2 16 5 -9 2 -20 -1 -47
-7 -60z m143 -2275 c149 -157 275 -302 365 -419 57 -75 60 -81 46 -102 -23
-34 -290 -277 -390 -352 -49 -38 -136 -95 -194 -127 -58 -32 -124 -71 -146
-86 -23 -16 -70 -38 -105 -50 -35 -12 -70 -28 -77 -36 -7 -7 -17 -13 -22 -13
-5 0 -15 -3 -23 -6 -11 -4 -17 4 -22 26 -4 18 -22 49 -41 70 -19 21 -33 46
-33 56 4 39 -2 51 -33 65 -27 11 -33 20 -34 44 0 17 -4 37 -8 43 -4 7 -2 19 4
27 6 8 9 23 5 34 -10 32 5 72 25 69 24 -4 60 30 60 56 0 12 -7 31 -15 43 -20
28 1 106 30 112 11 2 26 8 33 13 15 13 16 69 0 104 -11 25 -10 29 30 63 23 20
42 41 42 48 0 6 4 15 10 18 18 11 -12 -329 -39 -432 -5 -21 -12 -54 -15 -74
-3 -20 -8 -43 -12 -52 -5 -13 -2 -16 10 -11 9 3 21 25 26 48 6 22 22 68 36
101 33 78 60 248 95 598 11 116 13 120 50 165 21 26 55 70 76 99 l38 52 47
-27 c29 -16 102 -84 181 -167z m-2696 -142 c59 -85 117 -196 158 -300 47 -123
118 -425 155 -660 16 -103 33 -206 36 -227 l7 -39 -31 6 c-18 4 -50 0 -77 -9
-25 -9 -52 -13 -60 -10 -19 7 -34 45 -46 115 -4 30 -15 61 -23 70 -35 39 -97
281 -131 511 -14 96 -37 224 -50 285 -30 133 -32 214 -5 273 10 23 21 42 23
42 2 0 22 -26 44 -57z m2220 -20 c-6 -64 -15 -115 -21 -121 -3 -2 -11 7 -17
22 -10 21 -9 33 6 67 11 23 18 50 18 60 -1 11 3 19 9 19 6 0 8 -18 5 -47z m13
-434 c-7 -38 -16 -71 -21 -75 -12 -7 -11 10 1 55 5 20 13 59 16 86 5 32 9 42
12 27 2 -13 -2 -55 -8 -93z m-1091 -3987 c1 -134 45 -417 78 -501 14 -37 29
-95 35 -131 11 -79 34 -131 94 -223 60 -91 85 -166 134 -410 30 -149 46 -264
60 -437 11 -129 34 -359 52 -510 29 -263 30 -282 20 -440 -11 -174 -29 -260
-98 -470 -19 -58 -34 -126 -34 -151 0 -50 -80 -304 -127 -404 l-28 -60 -5 120
c-7 155 4 350 25 445 10 41 35 111 56 155 45 93 48 126 18 212 -16 48 -32 72
-72 110 -55 51 -85 90 -117 153 -17 33 -24 38 -54 38 -19 0 -40 3 -46 7 -29
18 -46 107 -60 312 -6 87 -17 220 -25 295 -8 75 -15 211 -15 301 0 258 -29
392 -152 700 -63 157 -69 181 -59 203 20 44 50 163 86 335 35 167 50 210 166
479 l54 125 6 -75 c4 -41 7 -122 8 -178z m-495 -3313 c-24 -165 -36 -176 -70
-62 -19 66 -10 105 43 174 34 45 38 48 41 28 2 -12 -4 -75 -14 -140z"/>
<path d="M3311 11604 c0 -11 3 -14 6 -6 3 7 2 16 -1 19 -3 4 -6 -2 -5 -13z"/>
<path d="M3292 11540 c0 -14 2 -19 5 -12 2 6 2 18 0 25 -3 6 -5 1 -5 -13z"/>
<path d="M3310 11472 c0 -22 -2 -52 -4 -68 -2 -16 -1 -23 1 -16 3 7 9 10 14 7
5 -4 9 18 9 49 0 30 -4 58 -10 61 -6 4 -10 -9 -10 -33z"/>
<path d="M3291 11343 c0 -12 -4 -30 -7 -40 -5 -17 -5 -17 6 0 6 10 9 28 7 40
-4 22 -4 22 -6 0z"/>
</g>
</svg>
