<?xml version="1.0" standalone="no"?>
<!DOCTYPE svg PUBLIC "-//W3C//DTD SVG 20010904//EN"
 "http://www.w3.org/TR/2001/REC-SVG-20010904/DTD/svg10.dtd">
<svg version="1.0" xmlns="http://www.w3.org/2000/svg"
 width="1024.000000pt" height="1280.000000pt" viewBox="0 0 1024.000000 1280.000000"
 preserveAspectRatio="xMidYMid meet">
<metadata>
Created by potrace 1.15, written by Peter Selinger 2001-2017
</metadata>
<g transform="translate(0.000000,1280.000000) scale(0.100000,-0.100000)"
fill="#000000" stroke="none">
<path d="M9376 12589 c-28 -29 -67 -62 -86 -74 -48 -30 -57 -43 -69 -94 -5
-23 -16 -50 -23 -59 -8 -9 -27 -43 -42 -74 -21 -43 -45 -72 -109 -126 -92 -77
-379 -305 -504 -400 -46 -35 -83 -67 -83 -72 0 -5 -10 -12 -22 -15 -13 -4 -38
-14 -56 -22 -31 -15 -36 -14 -104 17 -95 44 -166 43 -232 -3 -16 -12 -47 -23
-69 -25 -22 -2 -61 -11 -86 -21 -67 -26 -330 -202 -377 -252 -22 -24 -63 -87
-91 -139 -28 -52 -76 -126 -107 -165 -31 -38 -65 -88 -76 -111 -18 -35 -31
-46 -98 -77 -42 -20 -149 -57 -236 -82 -178 -52 -237 -79 -376 -170 -109 -71
-125 -80 -163 -89 -19 -4 -26 -3 -22 4 3 5 5 10 3 10 -2 0 -39 -7 -83 -15
-103 -18 -150 -18 -211 0 -68 20 -85 35 -94 82 -7 39 -5 44 31 79 35 34 44 37
40 12 -2 -14 17 -8 23 7 11 30 28 15 24 -21 -4 -31 -2 -34 8 -19 12 16 18 12
69 -39 57 -59 78 -59 54 0 -6 16 -18 49 -25 73 -14 43 -14 44 5 27 19 -17 19
-17 17 18 -2 19 -9 49 -16 66 -11 26 -10 37 5 77 18 47 17 79 -10 403 -4 38
-2 50 5 40 5 -8 10 -23 10 -32 0 -9 5 -20 11 -23 7 -5 8 5 3 30 -10 53 10 37
26 -20 7 -24 16 -43 20 -40 4 2 19 -24 34 -58 l27 -62 -5 85 c-4 79 -3 81 6
32 5 -30 12 -51 15 -48 8 7 -24 190 -53 303 -59 232 -56 210 -38 244 17 34 13
49 -9 30 -14 -11 -19 0 -61 124 -4 11 6 -5 23 -35 42 -77 38 -53 -7 44 -58
122 -139 240 -238 346 -124 133 -233 209 -344 241 -25 7 -50 16 -56 21 -6 4
-27 5 -47 3 -20 -3 -58 2 -83 11 -59 20 -121 12 -187 -24 -45 -24 -103 -78
-124 -116 -9 -16 -12 -16 -39 -2 -91 47 -94 48 -141 25 -30 -15 -52 -19 -75
-14 -22 4 -28 3 -20 -3 11 -7 6 -12 -17 -20 -18 -6 -39 -9 -49 -6 -12 4 -13 3
-4 -3 9 -7 3 -14 -22 -25 -53 -26 -100 -72 -174 -171 -115 -154 -160 -228
-193 -317 -28 -76 -32 -102 -40 -240 -4 -85 -13 -224 -19 -309 -17 -238 4
-491 55 -663 8 -27 13 -48 11 -48 -1 0 -27 4 -57 10 -30 5 -128 16 -219 25
-205 19 -231 26 -283 77 -23 22 -86 70 -141 106 -54 36 -140 104 -190 151
-145 138 -173 154 -446 261 -232 90 -288 98 -407 55 -68 -25 -105 -46 -182
-102 -13 -10 -26 -8 -71 13 -30 15 -77 27 -104 29 -26 1 -51 7 -55 13 -3 5
-107 56 -231 112 -124 56 -317 147 -430 202 -198 97 -208 103 -279 177 -40 42
-97 110 -126 151 -67 95 -77 104 -147 130 -31 11 -76 36 -100 54 -63 49 -102
66 -147 66 -33 0 -42 -5 -60 -32 l-20 -33 32 -33 c18 -19 55 -45 82 -59 28
-14 63 -35 78 -45 l28 -20 -23 -25 c-37 -40 -52 -44 -102 -27 -30 10 -60 14
-84 10 -56 -10 -159 -4 -370 24 -78 10 -95 10 -115 -2 -14 -10 -29 -12 -42 -7
-41 16 -105 10 -135 -13 -17 -12 -30 -25 -30 -29 0 -5 18 -14 40 -20 22 -7 40
-16 40 -21 0 -5 -4 -6 -10 -3 -5 3 -10 2 -10 -3 0 -11 58 -36 107 -47 27 -5
31 -9 20 -20 -43 -49 -42 -55 10 -55 19 0 112 -18 207 -40 95 -22 185 -40 199
-40 29 0 38 -2 262 -56 l150 -37 75 -64 c41 -35 122 -96 180 -135 58 -39 175
-122 260 -183 348 -251 444 -316 456 -311 17 7 116 -53 108 -66 -3 -4 25 -22
61 -40 64 -30 67 -32 61 -61 -3 -16 -6 -40 -6 -53 0 -16 -7 -24 -22 -26 -31
-4 -35 -60 -9 -120 22 -51 62 -87 197 -175 287 -187 495 -244 729 -197 77 15
86 15 205 -6 73 -12 207 -25 320 -31 107 -5 227 -13 266 -18 83 -10 188 -54
359 -149 l120 -67 113 -165 c62 -91 140 -218 172 -282 57 -112 60 -121 60
-191 0 -40 7 -98 16 -128 22 -74 71 -179 99 -209 12 -14 32 -57 44 -97 12 -40
24 -79 27 -88 4 -10 0 -15 -10 -15 -20 0 -20 -3 5 -52 82 -160 105 -544 43
-694 -9 -22 -22 -33 -43 -37 -31 -7 -62 -50 -54 -75 3 -7 -3 -22 -13 -33 -15
-17 -29 -19 -108 -18 -66 2 -99 -2 -122 -14 -42 -22 -104 -115 -154 -231 -71
-168 -88 -293 -96 -706 -6 -278 -5 -291 25 -530 17 -135 41 -294 52 -355 43
-229 67 -412 78 -605 8 -134 -1 -405 -19 -535 -5 -44 -17 -129 -25 -190 -8
-60 -19 -175 -25 -255 -6 -80 -15 -188 -20 -240 -22 -224 -23 -285 -6 -302 15
-15 13 -29 -24 -180 -22 -90 -56 -219 -75 -288 -40 -142 -89 -351 -100 -423
-4 -32 -2 -53 6 -63 12 -15 11 -37 -36 -531 -23 -241 -4 -262 210 -232 42 6
80 8 83 4 17 -17 -134 -471 -231 -690 -95 -217 -109 -258 -110 -325 -1 -45 4
-65 31 -111 17 -31 32 -67 32 -81 0 -100 131 -70 273 62 41 39 82 87 92 107 9
21 41 63 70 93 29 30 65 74 79 97 34 55 93 85 242 124 64 17 136 39 160 50 25
10 47 19 49 19 5 0 -14 -89 -51 -244 -30 -122 -38 -181 -45 -311 -5 -88 -12
-197 -15 -242 -4 -45 -3 -112 1 -150 7 -65 9 -70 59 -119 l53 -51 1 -83 c1
-76 3 -85 28 -111 48 -50 103 -64 249 -64 147 1 250 24 298 69 25 23 27 32 27
99 0 97 -19 149 -86 233 -58 73 -75 98 -73 111 5 28 -4 55 -24 75 -33 32 -67
171 -67 271 0 43 7 117 16 165 44 236 76 384 97 452 l24 75 8 -50 c5 -31 3
-91 -4 -155 -14 -110 -75 -460 -91 -520 -6 -19 -10 -65 -10 -102 0 -61 3 -71
31 -103 71 -81 191 -127 334 -129 110 -1 148 12 189 67 31 42 35 199 8 337
-31 162 -33 182 -17 256 20 95 19 176 -6 329 -23 151 -56 326 -65 348 -10 28
104 32 226 8 58 -12 117 -21 132 -21 29 0 49 24 47 57 -1 12 -3 10 -8 -7 -8
-29 -36 -38 -45 -15 -4 11 -1 15 12 13 20 -3 24 33 5 39 -7 3 -13 -3 -13 -12
0 -11 -5 -15 -14 -12 -8 3 -16 -2 -19 -13 -4 -16 -12 -18 -48 -15 -24 2 -57 8
-73 13 l-29 8 32 34 c23 25 31 29 26 15 -5 -16 -1 -15 20 7 14 15 25 32 25 38
0 18 20 0 20 -18 0 -9 8 -26 16 -37 15 -19 16 -18 11 23 -3 23 -1 42 4 42 5 0
9 -7 9 -15 0 -8 6 -15 13 -15 19 0 49 -35 40 -45 -5 -4 -1 -6 7 -3 23 7 23
116 0 410 -11 143 -20 284 -20 314 0 49 2 55 30 69 16 8 36 15 44 15 8 0 22
10 30 22 23 32 21 243 -5 509 -35 373 -37 437 -17 492 24 63 38 268 38 565 0
146 4 241 11 253 8 15 7 24 -3 36 -8 11 -13 49 -13 117 0 96 3 109 58 276 70
211 158 531 189 683 21 103 23 138 22 422 0 171 -6 352 -12 403 -13 109 2 245
64 598 43 242 48 355 21 427 -23 58 -42 69 -131 76 l-70 6 -1 36 c0 29 -9 44
-47 80 -52 49 -53 54 -79 269 -11 88 4 269 37 455 7 44 14 114 14 155 1 107
23 162 98 236 69 71 112 148 143 261 38 138 26 255 -41 398 -15 33 -44 97 -64
142 l-36 81 35 74 c29 62 43 80 95 118 34 25 71 57 82 72 21 30 199 179 263
221 49 32 194 81 317 108 50 11 139 37 197 59 92 33 120 39 216 43 61 3 140
13 175 22 105 27 223 92 323 177 111 95 284 280 304 327 8 18 17 65 20 103 5
60 4 71 -14 88 -11 10 -24 35 -27 55 -6 31 -3 42 15 61 12 13 27 34 33 46 6
13 24 29 39 36 23 11 355 398 580 676 32 39 71 87 86 106 30 36 164 101 241
116 19 3 50 19 70 35 20 16 85 51 145 77 61 27 130 58 155 70 25 11 71 28 103
37 31 9 57 21 57 26 0 6 -4 7 -10 4 -17 -11 -11 16 10 42 l20 25 -24 19 c-27
21 -77 25 -108 8 -27 -14 -278 -89 -343 -102 -27 -5 -79 -10 -115 -11 -36 -1
-75 -7 -88 -14 -29 -16 -74 -8 -97 18 -17 19 -16 21 23 57 51 47 62 83 33 112
-37 37 -77 28 -135 -30z m-3119 -1041 c-3 -8 -6 -5 -6 6 -1 11 2 17 5 13 3 -3
4 -12 1 -19z m40 -160 c-3 -8 -6 -5 -6 6 -1 11 2 17 5 13 3 -3 4 -12 1 -19z
m10 -70 c-3 -7 -5 -2 -5 12 0 14 2 19 5 13 2 -7 2 -19 0 -25z m-1837 -338 c6
21 9 15 19 -35 7 -33 38 -138 69 -233 30 -95 52 -175 49 -178 -3 -3 -26 2 -51
11 l-45 17 -20 87 c-33 142 -41 201 -40 280 1 42 4 65 7 51 l5 -25 7 25z m-67
-277 c25 -82 30 -113 21 -113 -19 0 -23 11 -45 120 -31 163 -26 161 24 -7z
m1574 7 c1 -11 -2 -22 -8 -25 -7 -5 -7 18 0 43 3 8 7 -1 8 -18z m-1492 -138
c-7 -7 -23 40 -29 84 -5 32 -2 28 14 -20 11 -33 18 -61 15 -64z m679 -21 c-16
-14 -21 -17 -11 -5 9 11 17 31 17 45 1 22 2 22 11 5 9 -15 6 -23 -17 -45z
m-144 29 c0 -5 -5 -10 -11 -10 -5 0 -7 5 -4 10 3 6 8 10 11 10 2 0 4 -4 4 -10z
m0 -58 c0 -15 2 -15 10 -2 12 19 33 0 28 -26 -2 -14 -15 -21 -48 -25 -64 -9
-130 0 -123 17 2 7 11 10 19 7 10 -4 14 3 14 23 0 27 1 27 15 8 8 -11 14 -14
15 -6 0 9 5 10 19 2 27 -14 31 -13 31 11 0 11 5 17 10 14 6 -3 10 -14 10 -23z
m-270 -27 c0 22 38 11 43 -12 5 -26 -1 -28 -38 -11 -14 6 -25 18 -25 27 0 14
2 14 10 1 5 -8 10 -10 10 -5z m160 -2705 c0 -5 -5 -10 -11 -10 -5 0 -7 5 -4
10 3 6 8 10 11 10 2 0 4 -4 4 -10z m1531 -4276 c1 -27 6 -51 10 -54 4 -3 4
-12 -2 -20 -8 -13 -10 -13 -19 0 -17 26 -11 144 7 127 1 -2 3 -26 4 -53z
m-1646 -123 c-3 -3 -10 1 -14 8 -6 9 -8 5 -8 -13 0 -25 12 -36 19 -16 2 5 8 6
15 2 7 -4 9 -13 4 -21 -6 -10 -13 -10 -29 -2 -22 12 -35 58 -18 64 13 5 39
-13 31 -22z m30 19 c3 -5 1 -10 -4 -10 -6 0 -11 5 -11 10 0 6 2 10 4 10 3 0 8
-4 11 -10z m1315 -82 c0 -9 -28 -23 -35 -17 -2 2 -1 17 2 33 6 27 7 28 19 11
8 -10 14 -23 14 -27z m-1380 7 c0 -7 -6 -16 -12 -18 -8 -4 -7 -6 4 -6 9 -1 19
5 22 12 3 6 5 3 3 -8 -1 -11 -10 -21 -20 -23 -21 -4 -35 27 -17 38 7 4 9 13 5
20 -5 9 -4 11 3 6 7 -4 12 -13 12 -21z m1686 -6 c3 -6 1 -16 -5 -22 -6 -6 -11
-23 -11 -38 0 -15 -4 -31 -10 -34 -11 -7 -14 63 -4 89 7 19 20 21 30 5z
m-1770 -34 c-3 -20 -16 -31 -16 -13 0 13 8 28 16 28 1 0 1 -7 0 -15z m1494 -5
c0 -5 -5 -10 -11 -10 -5 0 -7 5 -4 10 3 6 8 10 11 10 2 0 4 -4 4 -10z m-1700
-50 c0 -6 4 -9 9 -6 5 4 7 -3 4 -14 -6 -22 -18 -26 -28 -10 -3 6 0 10 7 11 9
0 9 2 -2 6 -8 3 -23 15 -35 26 -11 11 -15 17 -8 13 6 -3 14 -2 18 4 7 12 35
-12 35 -30z m1689 31 c9 -6 10 -11 2 -15 -13 -8 -31 1 -31 15 0 11 11 11 29 0z
m61 -41 c0 -13 -1 -13 -10 0 -5 8 -10 22 -10 30 0 13 1 13 10 0 5 -8 10 -22
10 -30z m-104 21 c-4 -5 0 -12 6 -14 8 -4 7 -6 -3 -6 -9 -1 -19 6 -23 14 -3 9
0 15 10 15 8 0 13 -4 10 -9z m381 -71 c7 -86 -7 -91 -47 -16 l-25 46 30 24
c17 13 31 23 33 21 2 -2 6 -36 9 -75z m-2084 40 c-4 -15 -2 -19 10 -15 23 9
28 -21 6 -41 -20 -18 -25 -11 -19 25 1 13 -1 13 -17 1 -15 -12 -16 -12 -5 0 6
8 12 25 12 38 0 13 4 21 9 18 5 -3 7 -15 4 -26z m1770 4 c-4 -12 -8 -13 -14
-3 -9 15 -2 32 11 24 5 -3 6 -13 3 -21z m-1423 8 c0 -5 -7 -9 -15 -9 -8 0 -12
4 -9 9 3 4 9 8 15 8 5 0 9 -4 9 -8z m17 -14 c-3 -8 -6 -5 -6 6 -1 11 2 17 5
13 3 -3 4 -12 1 -19z m1583 2 c-28 -22 -40 -25 -40 -9 0 5 4 8 9 5 5 -3 11 1
15 9 3 8 13 15 23 15 15 0 14 -4 -7 -20z m-80 -16 c0 -8 -19 -13 -24 -6 -3 5
1 9 9 9 8 0 15 -2 15 -3z m71 -27 c-10 -9 -11 -8 -5 6 3 10 9 15 12 12 3 -3 0
-11 -7 -18z m-44 -19 c-3 -8 -6 -5 -6 6 -1 11 2 17 5 13 3 -3 4 -12 1 -19z
m142 -16 c20 -39 15 -72 -9 -57 -7 4 -16 1 -21 -6 -6 -9 -8 2 -5 31 3 25 5 51
5 58 1 21 10 14 30 -26z m-1689 13 c0 -8 -7 -15 -16 -15 -9 0 -12 -5 -8 -12 4
-7 3 -8 -5 -4 -6 4 -9 12 -6 17 4 5 1 9 -5 9 -6 0 -8 5 -5 10 10 16 45 12 45
-5z m1610 5 c0 -5 -5 -10 -11 -10 -5 0 -7 5 -4 10 3 6 8 10 11 10 2 0 4 -4 4
-10z m-1918 -12 c-19 -19 -14 -33 6 -15 21 20 32 22 32 6 0 -5 -4 -7 -10 -4
-9 6 -14 -8 -11 -27 2 -13 -16 -9 -29 7 -10 12 -10 18 0 30 7 8 15 15 18 15 3
0 1 -5 -6 -12z m-75 -30 c-3 -8 -6 -5 -6 6 -1 11 2 17 5 13 3 -3 4 -12 1 -19z
m198 -19 c11 -16 1 -19 -13 -3 -7 8 -8 14 -3 14 5 0 13 -5 16 -11z m-114 -39
c6 0 7 -4 4 -10 -10 -15 -35 -12 -42 6 -3 9 0 20 8 25 9 6 15 4 17 -6 2 -8 8
-15 13 -15z m1616 -12 c-3 -8 -6 -5 -6 6 -1 11 2 17 5 13 3 -3 4 -12 1 -19z
m433 -54 c0 -30 -4 -54 -9 -54 -5 0 -22 15 -37 33 -15 17 -31 31 -36 30 -4 -2
-8 6 -8 18 0 11 4 18 9 15 5 -3 21 1 37 9 15 7 31 12 36 9 4 -3 8 -30 8 -60z
m-1762 33 c4 -22 -1 -21 -22 2 -17 19 -17 19 1 17 10 -2 19 -10 21 -19z m1401
-17 c11 -24 11 -24 -3 -6 -9 11 -16 24 -16 30 0 12 5 7 19 -24z m-18 -12 c14
-26 4 -35 -18 -17 -15 12 -16 12 -9 -1 4 -8 -2 -4 -14 9 -15 18 -18 26 -9 32
17 10 38 0 50 -23z m189 12 c0 -5 -2 -10 -4 -10 -3 0 -8 5 -11 10 -3 6 -1 10
4 10 6 0 11 -4 11 -10z m-113 -22 c-3 -8 -6 -5 -6 6 -1 11 2 17 5 13 3 -3 4
-12 1 -19z m88 12 c3 -6 -1 -7 -9 -4 -18 7 -21 14 -7 14 6 0 13 -4 16 -10z
m-1860 -10 c-4 -6 -11 -7 -17 -4 -7 4 -8 2 -4 -4 8 -13 -4 -15 -28 -6 -28 11
-17 24 20 24 21 0 33 -4 29 -10z m1818 -5 c-3 -9 -8 -14 -10 -11 -3 3 -2 9 2
15 9 16 15 13 8 -4z m-1810 -20 c-3 -9 -8 -14 -10 -11 -3 3 -2 9 2 15 9 16 15
13 8 -4z m297 -6 c0 -13 -13 -11 -35 5 -18 13 -18 14 8 9 15 -3 27 -9 27 -14z
m1346 -25 c-3 -8 -10 -14 -16 -14 -11 0 -14 43 -3 54 10 10 26 -23 19 -40z
m364 -13 c0 -16 -18 -31 -36 -31 -2 0 -4 16 -4 35 0 33 2 35 20 25 11 -6 20
-19 20 -29z m-2037 -6 c-3 -9 -8 -14 -10 -11 -3 3 -2 9 2 15 9 16 15 13 8 -4z
m1716 -3 c-28 -22 -65 -26 -48 -6 9 11 25 17 63 23 5 0 -2 -7 -15 -17z m386
-59 c5 -67 4 -71 -19 -87 -14 -9 -36 -15 -48 -14 -22 2 -24 7 -26 63 -3 51 0
62 17 72 18 11 24 9 46 -15 26 -28 33 -25 13 7 -6 10 -8 26 -4 36 10 28 16 13
21 -62z m-2181 58 c3 -5 -1 -14 -8 -20 -12 -10 -13 -8 -9 8 6 23 9 25 17 12z
m56 -7 c0 -8 -4 -12 -10 -9 -5 3 -10 10 -10 16 0 5 5 9 10 9 6 0 10 -7 10 -16z
m47 -19 c1 -29 -2 -34 -12 -25 -11 9 -11 17 -3 36 6 13 12 24 13 24 0 0 1 -16
2 -35z m279 -5 c-1 -33 -19 -45 -24 -17 -3 14 13 47 23 47 1 0 2 -13 1 -30z
m1464 8 c0 -12 -1 -19 -3 -17 -1 2 -9 12 -16 22 -12 14 -11 17 3 17 10 0 16
-8 16 -22z m110 2 c0 -5 -2 -10 -4 -10 -3 0 -8 5 -11 10 -3 6 -1 10 4 10 6 0
11 -4 11 -10z m-1948 -17 c-6 -3 -10 -9 -7 -13 3 -5 1 -11 -5 -15 -5 -3 -10 0
-10 7 0 17 22 40 29 31 3 -3 0 -8 -7 -10z m29 -22 c-12 -22 -31 -29 -31 -11 0
6 7 13 16 17 9 3 13 12 9 22 -5 12 -3 13 5 5 9 -9 9 -17 1 -33z m-129 -3 c-8
-8 -9 -4 -5 13 4 13 8 18 11 10 2 -7 -1 -18 -6 -23z m1891 16 c7 1 9 1 5 -1
-5 -3 -8 -9 -8 -14 0 -6 5 -7 10 -4 6 3 10 -4 10 -17 0 -22 -1 -21 -20 7 -11
17 -20 35 -19 40 0 6 3 5 5 -2 3 -7 11 -11 17 -9z m-1712 -53 c-13 -24 -33
-27 -50 -8 -8 10 -5 19 10 36 19 20 23 21 36 8 12 -12 13 -19 4 -36z m282 -7
c-7 -18 -10 -18 -35 6 -12 11 -18 23 -15 27 4 3 7 1 7 -6 0 -7 5 -9 10 -6 6 4
7 12 3 18 -3 7 3 4 15 -6 11 -11 18 -25 15 -33z m1380 23 c-4 -7 0 -6 10 2 15
12 21 9 18 -11 0 -5 4 -8 10 -8 5 0 7 -5 4 -10 -4 -6 -18 -2 -36 11 -16 11
-27 25 -23 30 3 5 10 7 15 3 5 -3 6 -11 2 -17z m-19 -22 c3 -8 1 -15 -4 -15
-6 0 -10 7 -10 15 0 8 2 15 4 15 2 0 6 -7 10 -15z m-1403 -32 c13 -16 12 -17
-3 -4 -17 13 -22 21 -14 21 2 0 10 -8 17 -17z m-209 -24 c57 -2 88 -20 88 -52
0 -13 5 -17 15 -13 25 9 35 -25 18 -59 -15 -28 -15 -29 0 -17 23 20 40 5 34
-31 l-4 -31 18 22 c9 12 19 22 22 22 11 0 -30 -110 -48 -130 -15 -16 -16 -23
-6 -29 10 -6 9 -19 -4 -65 -14 -47 -19 -55 -31 -46 -7 7 -12 17 -11 23 1 6 -7
11 -18 12 -11 0 -24 9 -29 21 -5 11 -22 26 -38 33 -15 7 -28 19 -28 27 0 8 -5
14 -12 14 -17 0 -58 41 -58 58 0 9 8 25 17 36 13 16 11 15 -9 -3 l-27 -24 -20
24 c-11 13 -20 29 -21 34 0 6 -10 11 -21 12 -16 2 -19 -1 -11 -9 6 -6 8 -17 4
-26 -4 -11 -1 -14 10 -9 19 7 48 -22 48 -47 0 -11 5 -16 14 -13 21 8 60 -38
53 -62 -4 -17 -2 -19 13 -11 19 10 50 -14 50 -39 0 -7 6 -11 14 -8 26 10 53
-40 39 -73 -3 -8 -7 -21 -7 -29 -1 -8 -7 -16 -14 -18 -8 -3 -10 1 -5 14 3 10
3 15 -2 11 -4 -4 -14 -3 -22 3 -10 9 -13 7 -13 -10 0 -26 -14 -27 -32 -3 -7 9
-26 23 -41 30 -16 7 -31 21 -34 32 -3 11 -13 20 -22 20 -22 0 -41 19 -41 41 0
10 -7 16 -17 15 -16 -1 -18 8 -17 69 1 209 43 306 106 248 10 -9 18 -23 18
-31 0 -9 3 -12 7 -9 10 11 43 -24 43 -45 0 -11 5 -16 11 -13 14 9 38 -24 39
-54 0 -16 4 -21 14 -18 17 7 46 -23 46 -47 0 -9 4 -15 9 -12 5 3 14 -1 21 -9
7 -8 17 -15 23 -15 6 0 1 10 -11 23 -12 13 -22 29 -22 37 0 7 -3 10 -7 7 -10
-11 -43 24 -43 45 0 10 -5 18 -11 18 -16 0 -38 31 -39 53 0 10 -6 17 -12 14
-16 -5 -37 22 -38 46 0 10 -4 15 -10 12 -15 -9 -60 25 -60 46 0 18 2 18 34 5
19 -8 59 -16 88 -17z m-164 -5 c1 -10 -4 -28 -12 -39 -14 -19 -15 -17 -16 23
0 31 4 42 13 40 6 -3 13 -13 15 -24z m1840 20 c30 -8 28 -15 -13 -43 -36 -24
-61 -23 -71 4 -15 38 21 55 84 39z m-1508 -13 c0 -5 3 -16 6 -24 4 -10 -4 -16
-25 -19 -21 -3 -31 0 -31 8 0 8 -6 11 -14 8 -8 -3 -19 3 -26 15 -10 20 -8 21
40 21 27 0 50 -4 50 -9z m1870 -16 c-7 -9 -15 -13 -19 -10 -3 3 1 10 9 15 21
14 24 12 10 -5z m-311 -7 c11 -10 13 -10 7 0 -4 6 -3 12 3 12 23 0 128 -44
157 -66 17 -13 35 -20 39 -16 4 4 4 -9 0 -29 -4 -23 -3 -39 4 -43 6 -4 11 -15
11 -24 0 -15 -2 -15 -10 -2 -7 11 -9 8 -8 -15 1 -16 6 -36 11 -42 5 -7 6 -13
1 -13 -5 0 -19 15 -31 32 -21 30 -22 33 -5 52 16 19 16 20 0 7 -9 -7 -21 -10
-26 -7 -5 3 -12 -8 -16 -24 -3 -18 -12 -30 -21 -30 -8 0 -15 -6 -15 -12 0 -7
-12 -26 -27 -42 -24 -29 -26 -29 -39 -11 -8 10 -14 23 -14 29 0 5 -3 7 -6 4
-3 -4 -1 -15 4 -25 13 -25 -2 -61 -33 -75 -21 -9 -28 -8 -46 8 -22 19 -22 19
-8 -3 12 -20 12 -26 0 -45 -13 -21 -13 -22 1 -10 9 7 23 10 32 6 11 -4 16 -1
16 11 0 23 41 55 63 49 12 -4 17 0 17 14 0 21 43 66 53 55 4 -3 7 2 7 13 0 10
7 27 15 37 13 18 14 17 31 -10 10 -15 25 -32 32 -36 11 -7 9 -12 -7 -23 -20
-15 -20 -15 -1 -34 13 -13 20 -34 20 -57 1 -34 2 -36 13 -18 10 18 12 15 18
-30 6 -49 -4 -80 -22 -69 -5 3 -9 0 -9 -7 0 -19 -30 -48 -45 -43 -7 3 -15 -4
-18 -15 -8 -32 -23 -25 -39 17 l-14 37 3 -60 c3 -33 1 -55 -4 -49 -10 14 -73
47 -79 41 -2 -2 10 -16 26 -31 32 -28 32 -51 -1 -41 -13 5 -19 2 -19 -10 0
-20 -38 -54 -62 -55 -16 0 -78 69 -78 88 0 15 62 57 80 54 8 -1 20 8 25 20 6
13 24 27 43 33 17 5 32 15 32 22 0 13 39 39 53 35 4 -1 7 4 7 11 0 18 34 49
43 40 4 -3 7 1 7 9 0 9 7 21 15 28 8 7 15 17 15 23 0 5 -8 3 -18 -6 -10 -10
-22 -14 -25 -10 -4 3 -7 -1 -7 -11 0 -22 -27 -49 -40 -41 -5 3 -10 -2 -10 -12
0 -21 -38 -48 -62 -44 -10 1 -18 -4 -18 -12 0 -7 -10 -23 -22 -34 -18 -16 -28
-19 -45 -12 -13 4 -23 14 -23 20 0 7 -3 10 -6 7 -3 -3 1 -16 8 -28 12 -19 10
-24 -22 -49 -35 -29 -45 -29 -87 -1 -30 19 -29 26 5 38 l27 10 -31 1 -32 1 -1
76 c-1 46 2 73 8 70 5 -4 3 6 -4 21 -12 24 -12 36 2 88 9 33 18 62 20 64 6 9
41 -31 39 -45 -1 -7 -15 -29 -32 -46 l-29 -33 31 28 c16 15 38 27 47 27 9 0
17 5 17 10 0 16 63 69 83 70 9 0 17 7 17 16 0 18 38 53 58 54 6 0 12 6 12 13
0 18 34 49 43 40 4 -3 7 3 7 15 0 14 -6 22 -17 22 -9 0 -13 -3 -10 -7 9 -9
-22 -43 -40 -43 -7 0 -13 -9 -13 -20 0 -21 -43 -55 -59 -46 -5 4 -21 27 -35
52 l-26 46 31 29 c35 33 40 34 58 17z m-129 -42 c0 -13 -8 -30 -17 -37 -15
-12 -16 -12 -10 4 4 10 7 27 7 38 0 10 5 19 10 19 6 0 10 -11 10 -24z m-1440
-16 c0 -5 -2 -10 -4 -10 -3 0 -8 5 -11 10 -3 6 -1 10 4 10 6 0 11 -4 11 -10z
m1505 -47 c26 -51 25 -63 -4 -95 -30 -34 -60 -36 -89 -5 -18 19 -20 28 -12 60
18 82 73 103 105 40z m-1865 -259 c0 -9 6 -14 13 -11 18 6 47 -22 40 -40 -5
-11 -1 -14 13 -10 22 7 69 -27 59 -43 -3 -6 3 -10 16 -10 28 0 59 -27 52 -46
-3 -8 -27 -16 -55 -20 l-50 -7 31 -13 c17 -7 39 -11 49 -8 12 4 11 0 -6 -14
-18 -16 -29 -19 -52 -12 -40 11 -50 19 -50 35 0 7 -10 15 -22 17 -13 2 -27 13
-33 26 -6 13 -16 20 -24 17 -11 -4 -13 4 -8 47 4 29 7 68 7 86 0 20 4 31 10
27 6 -3 10 -13 10 -21z m306 -89 c-6 -14 -18 -25 -25 -25 -12 0 -12 3 -3 12 7
7 12 23 12 36 0 20 3 22 14 13 11 -9 11 -17 2 -36z m1882 -109 c7 -55 6 -68
-7 -79 -24 -19 -67 -21 -74 -3 -4 9 -3 16 1 16 4 0 7 20 6 45 -1 25 2 45 6 45
4 0 18 11 31 24 13 14 25 23 27 22 1 -2 6 -33 10 -70z m-2162 -3 c6 -13 13
-20 17 -17 10 11 52 -26 53 -46 3 -42 4 -43 22 -27 11 10 26 14 40 10 31 -8
28 -23 -5 -24 -16 -1 -39 -3 -53 -5 -95 -15 -137 -2 -109 33 12 16 12 17 -2 6
-9 -7 -19 -10 -22 -6 -9 9 -9 88 0 97 14 13 48 1 59 -21z m254 -7 c0 -3 -4 -8
-10 -11 -5 -3 -10 -1 -10 4 0 6 5 11 10 11 6 0 10 -2 10 -4z m1490 -38 c0 -10
5 -18 12 -18 18 0 78 -62 78 -81 0 -18 -76 -73 -89 -64 -5 2 -12 22 -16 42 -3
21 -9 48 -12 60 -4 17 0 22 19 25 23 4 23 5 -4 16 -20 8 -28 19 -28 37 0 23 2
24 20 13 11 -7 20 -21 20 -30z m317 18 c-7 -15 -16 -21 -21 -16 -6 6 -4 15 4
25 19 23 29 18 17 -9z m-1900 -31 c-4 -8 -11 -15 -17 -15 -14 0 -13 27 3 33
16 6 21 1 14 -18z m65 -32 c-7 -22 -29 -14 -34 11 -7 35 12 51 27 23 6 -12 10
-28 7 -34z m1771 12 c4 -8 3 -16 -1 -19 -13 -8 -35 11 -28 23 10 15 23 14 29
-4z m175 -127 l-3 -43 -23 43 c-12 23 -27 42 -32 42 -6 0 -10 7 -10 16 0 8 3
13 8 10 10 -6 36 15 47 39 8 16 10 12 13 -22 2 -24 2 -62 0 -85z m-1228 70 c0
-29 -3 -38 -9 -29 -7 11 -10 10 -14 -5 -2 -10 -4 -1 -3 21 1 33 10 54 24 55 1
0 2 -19 2 -42z m994 17 c-18 -14 -18 -14 8 -15 15 0 30 -5 34 -11 4 -8 9 -7
15 2 6 10 10 9 15 -6 5 -11 3 -20 -4 -23 -7 -2 -12 -14 -12 -27 0 -21 -32 -55
-52 -55 -8 0 -68 87 -68 100 0 12 52 49 69 50 11 0 9 -4 -5 -15z m-1044 -35
c0 -5 -2 -10 -4 -10 -3 0 -8 5 -11 10 -3 6 -1 10 4 10 6 0 11 -4 11 -10z
m-614 -46 c-5 -19 -10 -24 -17 -17 -8 8 -7 18 1 33 15 28 24 19 16 -16z m613
15 c13 -11 22 -21 20 -23 -2 -2 -23 -15 -46 -30 l-43 -26 -20 20 c-26 26 -25
34 6 59 33 26 52 26 83 0z m1004 -26 c34 -53 26 -69 -36 -76 -47 -5 -54 -3
-74 21 -13 15 -23 23 -23 18 0 -5 7 -17 15 -26 14 -16 14 -18 1 -23 -44 -17
-29 69 17 100 48 33 73 29 100 -14z m-1113 -24 c0 -6 -6 -7 -12 -3 -7 4 -5 -2
5 -13 10 -12 15 -23 10 -25 -17 -9 -63 -7 -63 2 0 6 4 10 8 10 5 0 15 11 22
25 12 23 30 25 30 4z m148 -38 c2 -29 -2 -49 -12 -60 -9 -10 -13 -21 -9 -24 3
-4 2 -7 -3 -7 -5 0 -19 15 -32 33 l-23 32 37 33 c21 17 33 32 27 32 -5 0 -20
-11 -33 -25 -13 -14 -33 -25 -44 -25 -16 0 -10 7 24 30 25 16 50 28 55 27 6
-2 11 -23 13 -46z m-662 17 c-3 -7 -7 -25 -10 -40 -4 -16 -11 -28 -16 -28 -13
0 -13 36 0 61 12 21 32 26 26 7z m158 -6 c3 -5 -1 -9 -9 -9 -8 0 -12 4 -9 9 3
4 7 8 9 8 2 0 6 -4 9 -8z m386 -49 c0 -10 -42 -53 -52 -53 -4 0 -8 7 -8 16 0
8 -4 12 -10 9 -5 -3 -10 -2 -10 2 0 10 39 30 63 32 9 0 17 -2 17 -6z m-334
-25 c-10 -6 -20 -7 -24 -3 -9 8 20 25 31 18 5 -3 2 -10 -7 -15z m171 0 c-3 -8
-6 -5 -6 6 -1 11 2 17 5 13 3 -3 4 -12 1 -19z m203 -3 c0 -8 -4 -15 -10 -15
-5 0 -10 7 -10 15 0 8 5 15 10 15 6 0 10 -7 10 -15z m-605 -4 c3 -5 1 -12 -4
-15 -5 -3 -7 -16 -5 -29 2 -12 1 -15 -2 -7 -4 8 -11 18 -16 21 -10 7 0 39 12
39 5 0 11 -4 15 -9z m579 -7 c9 -22 2 -27 -24 -19 -17 5 -19 10 -9 21 15 18
25 18 33 -2z m-514 2 c0 -2 -7 -7 -16 -10 -8 -3 -12 -2 -9 4 6 10 25 14 25 6z
m310 -28 c0 -18 -2 -20 -9 -8 -6 8 -7 18 -5 22 9 14 14 9 14 -14z m90 -7 c0
-11 -4 -22 -9 -25 -5 -3 -8 6 -8 19 0 14 3 25 8 25 5 0 9 -9 9 -19z m98 -23
l23 -15 -32 -13 c-26 -11 -32 -11 -40 1 -26 41 5 59 49 27z m-209 -24 c14 -18
18 -31 12 -43 -13 -23 -70 -73 -79 -68 -4 3 -14 -11 -23 -29 -13 -26 -13 -32
-3 -23 11 9 17 4 29 -24 8 -20 15 -45 15 -56 0 -24 -75 -85 -91 -75 -7 4 -9 3
-6 -3 3 -5 0 -21 -7 -35 -12 -23 -12 -25 5 -21 14 4 19 -3 24 -30 7 -35 -3
-65 -33 -100 -9 -10 -17 -27 -19 -39 -2 -12 -24 -44 -50 -71 -25 -27 -43 -42
-40 -32 4 9 7 21 7 26 0 5 7 9 16 9 8 0 12 5 9 11 -4 6 2 13 13 16 21 5 36 39
22 48 -5 3 -14 -4 -20 -16 -7 -11 -14 -18 -17 -15 -3 3 5 17 17 33 12 15 17
29 12 31 -6 2 -5 14 4 30 8 15 14 34 13 42 0 8 -6 3 -13 -13 -13 -29 -26 -27
-26 5 0 29 -20 21 -22 -9 -2 -46 -3 -51 -10 -58 -10 -11 -56 37 -62 65 -7 29
7 48 51 73 37 20 69 22 76 5 3 -7 6 -4 6 8 1 11 12 31 26 44 14 13 25 28 25
34 0 5 -9 0 -20 -12 -12 -12 -32 -22 -45 -22 -14 0 -25 -6 -25 -13 0 -7 -20
-23 -45 -35 l-45 -22 -17 28 c-10 15 -24 33 -31 41 -10 10 -10 16 0 28 7 9 14
11 16 5 2 -7 15 -4 35 5 18 9 39 19 47 23 8 4 17 18 20 31 3 13 28 49 55 79
111 121 158 170 166 170 4 0 17 -12 28 -26z m-373 0 c-3 -9 -9 -34 -12 -57 -3
-23 -8 -49 -11 -57 -3 -8 -5 -27 -4 -41 3 -31 -23 -58 -33 -34 -3 9 -2 14 3
11 5 -3 11 5 13 19 4 17 0 26 -12 30 -18 6 -17 18 11 90 4 11 10 28 13 38 3 9
13 17 22 17 11 0 14 -5 10 -16z m532 -22 c6 -20 -37 -13 -47 7 -6 10 -7 21 -4
25 8 8 45 -16 51 -32z m-328 13 c0 -8 -2 -15 -4 -15 -2 0 -6 7 -10 15 -3 8 -1
15 4 15 6 0 10 -7 10 -15z m272 -7 c7 -18 -2 -39 -13 -32 -12 7 -12 44 0 44 5
0 11 -6 13 -12z m-227 -18 c-11 -18 -43 -31 -50 -20 -3 6 4 14 17 19 31 13 40
13 33 1z m363 -16 c-11 -11 -23 -14 -35 -9 -16 7 -15 9 7 15 40 12 45 11 28
-6z m-143 -28 c54 -35 71 -61 60 -95 -4 -14 0 -21 13 -25 11 -4 27 -25 37 -47
16 -34 17 -44 6 -61 -7 -11 -9 -18 -4 -15 11 6 53 -10 53 -21 0 -11 -89 -42
-124 -42 -21 0 -27 4 -22 15 3 8 0 15 -7 15 -31 0 -37 23 -15 59 21 34 21 35
2 19 -31 -27 -47 -23 -42 12 3 20 0 30 -8 30 -20 0 -47 58 -40 86 4 13 23 35
43 49 21 14 33 25 28 25 -6 0 -19 -7 -29 -15 -26 -20 -37 -19 -29 3 3 9 3 14
-1 11 -3 -3 -17 -37 -30 -75 -23 -68 -24 -68 -35 -41 -6 16 -11 36 -11 45 0
19 59 82 77 82 7 0 13 5 13 10 0 15 7 13 65 -24z m88 21 c8 -21 -7 -39 -26
-31 -27 10 -20 44 9 44 6 0 14 -6 17 -13z m111 -19 c10 -42 -48 -70 -88 -43
-15 11 -16 15 -5 15 8 0 20 -5 27 -12 9 -9 12 -8 12 5 0 10 7 20 15 23 8 4 15
12 15 20 0 22 17 16 24 -8z m-505 -26 c-1 -16 -2 -15 -6 1 -2 9 -9 15 -14 12
-5 -4 -9 -1 -9 5 0 6 -5 8 -12 4 -7 -4 -8 -3 -4 4 10 17 46 -4 45 -26z m-53
-1 c12 10 13 9 8 -4 -9 -25 -30 -27 -31 -3 0 11 1 15 4 8 4 -10 8 -10 19 -1z
m474 -53 c0 -13 -17 -9 -34 8 -22 22 -20 25 9 12 14 -6 25 -15 25 -20z m100
22 c0 -13 -28 -25 -38 -16 -3 4 0 11 8 16 20 13 30 12 30 0z m-623 -22 c-3 -8
-6 -5 -6 6 -1 11 2 17 5 13 3 -3 4 -12 1 -19z m595 -26 c4 -4 2 -25 -4 -46
-10 -33 -10 -40 5 -51 21 -15 22 -51 2 -59 -21 -8 -31 20 -15 39 10 13 9 15
-12 15 -18 0 -29 10 -45 43 -27 56 -16 82 30 73 17 -4 35 -10 39 -14z m-290
-85 c-30 -30 -35 -18 -15 39 l17 49 10 -33 c8 -28 6 -36 -12 -55z m-322 63 c0
-5 -5 -10 -11 -10 -5 0 -7 5 -4 10 3 6 8 10 11 10 2 0 4 -4 4 -10z m631 -33
c-10 -9 -11 -8 -5 6 3 10 9 15 12 12 3 -3 0 -11 -7 -18z m-561 4 c0 -5 -9 -11
-20 -14 -22 -6 -28 8 -7 16 19 8 27 8 27 -2z m304 -56 c3 -9 -3 -19 -15 -25
-11 -6 -17 -15 -14 -21 8 -12 -20 -23 -35 -14 -8 5 -8 10 0 20 8 10 8 15 0 20
-17 10 8 35 35 35 13 0 25 -7 29 -15z m-126 -56 c-29 -73 -30 -73 -42 -32 -5
16 1 31 25 58 17 19 33 34 35 32 3 -2 -6 -28 -18 -58z m-379 -35 c-6 -7 -7
-19 -3 -26 12 -19 16 -55 5 -43 -13 14 -31 86 -25 97 3 5 12 4 20 -3 11 -9 11
-15 3 -25z m71 21 c0 -8 7 -15 15 -15 26 0 16 -30 -17 -50 -44 -26 -49 -25
-37 9 5 15 9 32 8 37 -4 22 2 34 16 34 8 0 15 -7 15 -15z m450 -15 c-6 -11
-15 -18 -20 -15 -13 8 0 35 16 35 12 0 12 -4 4 -20z m-546 -32 c13 -48 7 -64
-33 -86 -21 -12 -41 -22 -44 -22 -6 0 18 82 33 109 14 28 36 27 44 -1z m148
-25 c0 -5 3 -19 4 -33 2 -14 6 -37 10 -52 6 -24 2 -29 -40 -49 -25 -11 -52
-19 -60 -16 -16 6 -31 77 -22 105 10 29 103 68 108 45z m-116 -109 c8 -58 3
-69 -47 -94 -46 -24 -55 -20 -62 25 -3 20 -4 15 -4 -14 1 -34 -4 -48 -22 -63
-13 -10 -25 -17 -27 -15 -5 5 29 121 37 127 4 3 8 14 10 25 5 22 75 66 95 58
7 -3 16 -25 20 -49z m154 -61 c0 -7 -4 -13 -10 -13 -5 0 -17 -14 -25 -31 l-16
-30 31 16 c37 19 41 17 33 -13 -6 -25 -61 -62 -91 -62 -17 0 -24 9 -32 43 -6
23 -13 48 -15 55 -3 7 4 21 15 32 23 23 110 25 110 3z m-124 -82 c7 -29 10
-59 8 -65 -4 -11 -94 -61 -94 -52 0 2 12 24 26 50 30 53 23 59 -18 16 -15 -16
-29 -30 -31 -30 -1 0 -4 22 -5 48 -2 46 0 49 36 70 53 31 65 25 78 -37z m-140
-49 c2 -38 1 -38 -31 -10 -23 20 -23 22 -7 34 25 19 36 12 38 -24z m243 -14
c-11 -25 -57 -63 -65 -55 -13 12 10 55 34 64 40 16 43 15 31 -9z m-279 -54 c0
-2 -7 -4 -15 -4 -10 0 -15 10 -15 33 l0 32 15 -29 c8 -15 15 -30 15 -32z m194
10 c9 -8 16 -17 16 -19 0 -11 -101 -75 -110 -70 -6 4 -8 11 -5 16 4 5 1 9 -4
9 -26 0 -8 18 24 24 37 7 57 26 28 26 -17 1 -17 2 1 15 25 19 31 19 50 -1z
m-199 -55 c-7 -11 -35 -12 -35 -1 0 4 9 8 20 9 11 1 18 -2 15 -8z m63 -71
c-20 -12 -32 -9 -19 5 6 8 8 17 5 20 -3 3 -3 11 2 18 5 9 10 5 16 -11 6 -16 5
-26 -4 -32z m-46 12 c-3 -21 -10 -30 -23 -30 -21 0 -38 22 -20 28 7 2 17 10
24 18 19 21 24 17 19 -16z"/>
<path d="M4400 2825 c0 -9 -6 -12 -17 -8 -11 4 -14 3 -9 -5 11 -19 33 -14 39
8 3 11 1 20 -4 20 -5 0 -9 -7 -9 -15z"/>
<path d="M6170 2521 c0 -6 4 -13 10 -16 6 -3 7 1 4 9 -7 18 -14 21 -14 7z"/>
<path d="M6250 2370 c6 -11 13 -20 16 -20 2 0 0 9 -6 20 -6 11 -13 20 -16 20
-2 0 0 -9 6 -20z"/>
<path d="M6015 2321 c11 -13 18 -26 17 -30 -2 -3 10 -14 27 -23 30 -17 31 -17
19 2 -10 16 -10 24 1 43 10 17 11 19 0 10 -18 -18 -39 -16 -63 5 l-21 17 20
-24z"/>
<path d="M6170 2136 c0 -2 8 -10 18 -17 15 -13 16 -12 3 4 -13 16 -21 21 -21
13z"/>
<path d="M4816 1722 c-15 -24 -25 -63 -15 -57 12 8 32 56 25 62 -2 2 -7 0 -10
-5z"/>
<path d="M4775 1640 c-3 -5 -14 -10 -24 -10 -10 0 -26 -12 -36 -26 -9 -15 -12
-23 -6 -20 6 4 20 2 31 -4 17 -9 20 -8 20 11 0 12 7 31 17 41 9 10 13 18 10
18 -3 0 -9 -4 -12 -10z"/>
<path d="M4745 1500 c-4 -12 -5 -24 -2 -27 3 -2 8 5 12 17 4 12 5 24 2 27 -3
2 -8 -5 -12 -17z"/>
<path d="M4636 1467 c3 -10 9 -15 12 -12 3 3 0 11 -7 18 -10 9 -11 8 -5 -6z"/>
<path d="M4995 1530 c-3 -6 1 -7 9 -4 18 7 21 14 7 14 -6 0 -13 -4 -16 -10z"/>
<path d="M4955 1510 c-3 -6 1 -7 9 -4 18 7 21 14 7 14 -6 0 -13 -4 -16 -10z"/>
<path d="M4685 12340 c-11 -4 -33 -23 -50 -41 l-30 -34 35 33 c20 17 41 32 47
32 7 0 15 5 18 10 7 12 7 12 -20 0z"/>
</g>
</svg>
