<?xml version="1.0" standalone="no"?>
<!DOCTYPE svg PUBLIC "-//W3C//DTD SVG 20010904//EN"
 "http://www.w3.org/TR/2001/REC-SVG-20010904/DTD/svg10.dtd">
<svg version="1.0" xmlns="http://www.w3.org/2000/svg"
 width="644.000000pt" height="1280.000000pt" viewBox="0 0 644.000000 1280.000000"
 preserveAspectRatio="xMidYMid meet">
<metadata>
Created by potrace 1.15, written by Peter Selinger 2001-2017
</metadata>
<g transform="translate(0.000000,1280.000000) scale(0.100000,-0.100000)"
fill="#000000" stroke="none">
<path d="M3795 12790 c-139 -22 -312 -81 -418 -143 -57 -34 -135 -114 -175
-180 -82 -137 -116 -303 -115 -572 1 -329 66 -711 202 -1183 23 -77 41 -146
41 -153 0 -13 -92 -7 -203 12 -70 12 -111 -4 -161 -63 -91 -106 -68 -305 70
-608 l36 -78 -69 -93 c-138 -187 -136 -185 -130 -246 3 -31 18 -80 33 -110 33
-68 126 -168 192 -208 49 -29 50 -31 56 -90 42 -401 56 -550 62 -660 8 -154 7
-158 -104 -299 -108 -137 -119 -161 -152 -353 -120 -693 -304 -1214 -590
-1669 -56 -89 -58 -96 -69 -191 -22 -205 -33 -398 -28 -511 l5 -117 -85 -335
c-175 -690 -233 -890 -297 -1018 -84 -168 -120 -290 -131 -442 -5 -66 -21
-129 -70 -280 -35 -107 -101 -314 -145 -460 -288 -939 -427 -1317 -636 -1730
-139 -274 -166 -314 -266 -390 -113 -85 -224 -151 -324 -191 -66 -27 -97 -33
-187 -38 -117 -6 -137 -16 -137 -67 0 -20 9 -24 69 -38 94 -21 95 -21 309 20
152 30 217 38 347 41 156 5 163 4 270 -27 141 -40 257 -50 285 -25 29 26 25
63 -15 146 -56 119 -68 185 -62 324 12 262 82 415 526 1155 257 427 383 669
434 826 34 104 71 262 172 729 25 116 53 233 62 260 45 142 150 306 432 679
245 324 294 396 444 660 235 412 407 697 569 939 l65 97 7 -182 c11 -283 48
-579 117 -923 40 -203 63 -300 185 -797 57 -235 115 -480 128 -545 23 -110 29
-157 57 -410 39 -358 132 -827 265 -1338 99 -377 123 -478 145 -604 26 -152
35 -390 20 -504 -30 -223 -124 -439 -287 -658 -42 -56 -74 -102 -72 -104 2 -2
68 -11 148 -21 155 -18 439 -24 532 -11 57 8 57 9 84 63 35 73 30 137 -25 306
-43 133 -51 197 -27 218 8 6 22 31 32 56 18 48 11 102 -26 173 -19 39 -33 136
-51 376 -11 148 -6 257 21 475 26 209 2 614 -51 860 -19 85 -40 164 -140 505
-68 233 -112 422 -117 505 -9 167 31 515 143 1245 103 670 132 929 147 1320
15 361 15 623 -1 715 -17 106 -48 247 -64 301 -13 43 -13 47 10 73 12 15 23
33 23 41 0 16 -38 45 -60 45 -47 1 -42 18 37 111 43 52 100 126 126 164 26 39
61 88 77 109 17 22 38 62 48 89 15 42 49 80 252 280 290 285 456 459 572 601
90 109 217 295 257 374 26 52 31 42 -87 182 -120 144 -359 387 -742 755 -190
183 -387 374 -439 426 l-94 95 -57 165 c-96 278 -219 565 -351 818 -36 70 -55
119 -50 124 5 5 8 23 6 41 -14 116 -14 126 -1 126 7 0 18 6 24 13 16 19 26
117 18 181 -6 48 -11 57 -32 62 -13 3 -24 7 -24 8 1 0 7 23 14 51 l13 50 23
-45 c22 -43 23 -44 31 -20 4 14 11 52 14 85 l7 59 32 -34 c17 -19 50 -58 74
-85 l42 -50 -6 35 c-33 207 -88 329 -196 446 -175 187 -388 280 -658 289 -69
2 -152 0 -185 -5z m1570 -3104 c130 -109 251 -226 357 -343 104 -116 238 -279
238 -290 0 -3 -27 -39 -60 -80 -71 -88 -131 -189 -268 -450 -117 -221 -147
-272 -218 -369 -66 -91 -101 -118 -319 -254 -99 -61 -205 -130 -234 -153 l-55
-41 -20 27 c-54 71 -198 323 -294 515 l-107 213 -4 121 c-2 66 2 164 9 217 12
94 13 98 63 159 28 34 53 62 57 62 3 0 24 -43 46 -95 45 -109 49 -106 60 39 4
52 9 94 13 92 3 -2 17 -34 31 -70 17 -47 29 -66 42 -66 15 0 18 8 18 44 0 24
3 64 6 90 l7 47 38 -68 c21 -37 43 -68 49 -67 5 1 14 2 18 3 5 0 7 43 5 94
l-3 92 43 -87 c30 -63 47 -88 61 -88 17 0 18 8 12 138 -4 75 -9 157 -12 182
-7 70 9 30 51 -128 30 -112 42 -142 54 -140 14 3 16 22 13 133 l-2 130 45 -87
c57 -110 75 -115 75 -20 l0 67 31 -53 c20 -34 37 -52 47 -50 14 3 16 18 14 98
-3 104 -27 371 -42 465 -6 33 -10 66 -10 73 0 14 38 -13 145 -102z"/>
</g>
</svg>
