<?xml version="1.0" standalone="no"?>
<!DOCTYPE svg PUBLIC "-//W3C//DTD SVG 20010904//EN"
 "http://www.w3.org/TR/2001/REC-SVG-20010904/DTD/svg10.dtd">
<svg version="1.0" xmlns="http://www.w3.org/2000/svg"
 width="640.000000pt" height="1280.000000pt" viewBox="0 0 640.000000 1280.000000"
 preserveAspectRatio="xMidYMid meet">
<metadata>
Created by potrace 1.15, written by Peter Selinger 2001-2017
</metadata>
<g transform="translate(0.000000,1280.000000) scale(0.100000,-0.100000)"
fill="#000000" stroke="none">
<path d="M3462 12784 c-29 -7 -62 -19 -73 -25 -13 -6 -44 -8 -82 -4 -82 9
-114 -4 -133 -53 l-15 -37 -77 -1 c-42 0 -121 -4 -176 -9 -82 -7 -103 -12
-127 -32 -15 -13 -31 -32 -34 -42 -3 -10 -41 -42 -85 -70 -226 -149 -345 -293
-411 -496 -31 -95 -31 -248 -1 -353 11 -40 24 -104 28 -142 l7 -70 -52 -52
c-28 -28 -51 -53 -51 -55 0 -6 64 29 98 55 l32 24 0 -24 c0 -57 -68 -102 -175
-114 -45 -6 -53 -9 -44 -20 10 -12 101 -31 122 -26 12 3 8 -5 -23 -55 -37 -58
-47 -94 -56 -198 -7 -81 -30 -138 -109 -275 l-26 -45 35 38 c19 21 53 73 75
115 l40 77 1 -41 c0 -53 24 -122 55 -159 l25 -30 -5 60 c-3 33 -2 85 3 115 l8
55 8 -80 c4 -44 19 -150 33 -235 22 -141 24 -162 12 -230 -16 -99 -14 -247 5
-341 18 -86 62 -220 75 -228 13 -10 23 -61 11 -61 -6 0 -8 -5 -4 -12 4 -6 3
-8 -4 -4 -15 9 -94 -138 -128 -239 -21 -63 -28 -100 -28 -170 -1 -81 2 -97 30
-155 32 -67 91 -134 157 -178 40 -27 43 -36 26 -79 -12 -29 -36 -291 -40 -418
-1 -38 -4 -61 -7 -50 -3 12 -12 -12 -23 -63 -22 -101 -46 -153 -139 -297 -86
-135 -149 -260 -191 -385 -28 -82 -33 -109 -33 -197 l-1 -103 -43 0 c-64 0
-94 -20 -127 -87 -25 -48 -30 -70 -30 -129 0 -51 -5 -81 -20 -107 -17 -32 -18
-41 -7 -70 7 -19 10 -42 6 -50 -7 -18 13 -87 25 -87 5 0 11 -16 14 -37 6 -37
50 -93 74 -93 13 0 13 -6 -8 -105 -15 -76 -23 -474 -11 -610 22 -254 81 -457
206 -718 83 -174 185 -469 256 -742 63 -245 106 -496 130 -760 6 -66 13 -127
15 -135 3 -8 11 -62 19 -120 12 -84 13 -134 4 -259 -21 -314 29 -685 147
-1083 51 -172 184 -542 265 -738 147 -357 221 -603 217 -720 -3 -91 8 -133 49
-181 23 -28 33 -47 28 -58 -4 -9 -9 -56 -11 -104 -2 -55 -9 -99 -19 -119 -23
-45 -4 -50 64 -16 31 15 83 32 115 36 72 11 220 -2 274 -23 39 -16 40 -17 47
-76 3 -33 16 -82 27 -110 28 -63 53 -75 115 -54 40 13 47 13 79 -2 33 -16 36
-15 55 2 14 13 44 20 103 25 45 4 92 13 105 21 12 8 41 47 63 87 46 84 46 108
3 242 -13 41 -28 109 -34 150 -5 41 -13 88 -18 103 -4 16 -3 63 3 105 7 50 7
104 1 157 -13 119 -11 194 8 255 26 85 31 178 12 224 -26 61 -20 187 18 417
65 387 104 699 126 1010 19 266 -11 667 -61 808 -38 109 -48 442 -19 611 5 30
24 141 41 245 40 250 91 507 134 680 19 77 63 291 97 475 l63 335 -1 215 c0
234 -12 355 -49 497 -24 90 -72 200 -103 236 -11 12 -15 34 -13 73 2 47 -2 61
-25 91 -22 29 -31 34 -54 29 l-28 -5 -11 92 c-27 211 -74 405 -143 592 -39
105 -40 113 -35 195 3 48 14 111 25 141 11 30 48 127 81 217 34 90 69 193 77
230 8 36 25 79 36 95 14 20 23 55 30 115 5 48 24 152 44 232 19 80 42 174 50
210 42 175 66 239 101 265 35 28 40 44 21 74 -9 15 -7 43 10 133 33 169 38
290 17 437 -17 122 -17 190 1 372 9 95 -13 164 -71 220 -25 24 -45 48 -45 52
0 5 -12 18 -26 30 -33 25 -54 75 -54 125 0 27 -7 45 -21 58 -45 41 -75 126
-108 309 -12 62 -35 138 -61 199 -67 159 -90 246 -99 387 -13 186 -67 343
-155 448 -20 24 -36 53 -36 66 0 33 -57 202 -82 244 -48 81 -112 131 -166 131
-16 0 -46 7 -65 15 -45 18 -105 18 -175 -1z m-1034 -2161 c9 -27 7 -34 -13
-53 l-24 -23 -7 28 c-8 32 1 198 13 235 6 18 10 0 14 -65 4 -49 11 -104 17
-122z m581 154 c8 -34 8 -35 -28 -41 -20 -3 -61 -6 -92 -6 -30 0 -82 -5 -115
-10 -136 -23 -123 -25 -121 15 l2 35 80 0 c80 0 148 14 215 42 41 18 49 13 59
-35z m-1086 -3964 c5 -43 -1 -62 -14 -42 -11 18 -11 79 0 79 5 0 11 -17 14
-37z m1375 -944 c9 -37 9 -56 1 -71 -11 -21 -12 -20 -24 8 -6 16 -19 35 -28
43 -25 20 -22 59 6 64 12 2 25 5 28 6 3 0 11 -22 17 -50z m136 -2409 c20 -115
39 -311 34 -360 -2 -22 0 -41 3 -42 4 -2 9 -82 12 -178 6 -178 16 -230 61
-318 46 -90 164 -712 182 -963 l7 -96 -48 -88 c-26 -48 -56 -108 -66 -133 -15
-40 -19 -44 -25 -27 -4 11 -41 101 -82 200 l-74 180 -9 165 c-5 91 -16 306
-24 479 -9 173 -22 358 -31 410 -8 53 -20 128 -26 166 -13 88 -3 403 16 500 8
39 17 102 20 140 4 39 10 81 13 95 6 24 6 23 14 -10 4 -19 15 -73 23 -120z"/>
</g>
</svg>
