<?xml version="1.0" standalone="no"?>
<!DOCTYPE svg PUBLIC "-//W3C//DTD SVG 20010904//EN"
 "http://www.w3.org/TR/2001/REC-SVG-20010904/DTD/svg10.dtd">
<svg version="1.0" xmlns="http://www.w3.org/2000/svg"
 width="753.000000pt" height="1280.000000pt" viewBox="0 0 753.000000 1280.000000"
 preserveAspectRatio="xMidYMid meet">
<metadata>
Created by potrace 1.15, written by Peter Selinger 2001-2017
</metadata>
<g transform="translate(0.000000,1280.000000) scale(0.100000,-0.100000)"
fill="#000000" stroke="none">
<path d="M6296 12445 c-26 -42 -66 -90 -89 -108 -50 -39 -148 -136 -183 -182
-14 -18 -40 -69 -58 -113 -55 -132 -154 -250 -321 -384 -93 -74 -365 -252
-495 -323 -255 -140 -500 -294 -619 -388 -35 -28 -114 -76 -175 -107 -61 -31
-228 -117 -371 -192 -277 -146 -371 -188 -475 -212 -206 -47 -255 -61 -350
-99 -58 -23 -109 -44 -114 -46 -13 -6 4 96 31 184 14 44 71 170 128 281 168
324 212 447 222 604 10 165 -21 300 -93 407 -25 37 -61 93 -80 124 -36 59 -79
95 -156 129 -234 103 -527 71 -695 -75 -50 -44 -122 -80 -144 -73 -7 2 12 16
42 31 96 47 119 65 119 91 0 38 -37 40 -117 7 -202 -85 -365 -169 -469 -243
-77 -53 -313 -259 -380 -330 -121 -128 -262 -380 -271 -485 -7 -71 3 -92 82
-183 31 -36 90 -118 131 -183 96 -153 167 -249 249 -336 l66 -70 -76 -60 c-97
-77 -177 -122 -298 -166 -54 -19 -116 -44 -139 -56 -93 -47 -212 -134 -250
-183 -42 -52 -73 -114 -64 -124 3 -3 12 10 21 29 8 19 24 45 36 59 20 24 20
24 -2 -20 -12 -25 -30 -61 -41 -80 -33 -61 -59 -124 -64 -155 -3 -16 7 1 22
38 15 37 28 66 30 64 2 -1 -7 -32 -18 -67 -32 -94 -30 -261 5 -488 29 -184 33
-285 17 -373 -30 -169 -49 -306 -55 -401 -5 -88 -14 -130 -45 -224 -22 -64
-49 -160 -60 -213 -11 -53 -25 -112 -30 -131 -6 -19 -10 -46 -10 -59 0 -13 -7
-32 -15 -41 -21 -23 -41 -189 -27 -227 5 -17 6 -69 1 -132 -8 -108 -6 -124 38
-296 10 -38 26 -81 35 -95 10 -13 18 -32 18 -41 0 -9 9 -42 20 -74 11 -32 20
-73 20 -92 0 -19 5 -44 11 -55 7 -12 16 -95 20 -186 10 -189 38 -381 78 -545
16 -68 24 -121 20 -130 -11 -19 20 -127 36 -127 7 0 27 -39 45 -87 40 -107
140 -339 221 -515 33 -72 59 -132 56 -134 -6 -6 -99 195 -192 414 -43 100 -80
181 -82 179 -9 -9 260 -624 361 -824 65 -131 128 -272 217 -492 74 -181 78
-194 62 -207 -10 -7 -21 -14 -25 -14 -13 0 -22 -45 -23 -117 -1 -54 -5 -77
-19 -92 -16 -17 -18 -34 -14 -119 4 -108 12 -127 59 -137 23 -5 29 -12 29 -32
0 -36 18 -144 41 -240 10 -45 19 -118 19 -162 0 -44 4 -113 10 -153 33 -256
51 -440 60 -630 6 -120 13 -224 15 -230 2 -7 9 -107 15 -223 10 -193 13 -217
42 -300 16 -49 33 -115 35 -145 6 -59 -21 -205 -39 -216 -6 -4 -6 -9 2 -14 10
-6 10 -22 1 -71 -9 -53 -8 -65 4 -79 21 -23 19 -33 -5 -25 -29 9 -84 -12 -136
-52 -26 -19 -82 -48 -126 -65 -102 -39 -135 -66 -133 -109 2 -40 39 -73 137
-124 66 -35 78 -47 59 -59 -5 -4 -8 -23 -6 -43 3 -45 22 -61 141 -119 143 -69
223 -87 394 -88 129 -1 150 1 192 21 59 27 127 95 157 156 12 26 26 47 31 47
4 0 13 37 19 83 15 104 47 227 77 292 l22 50 1 -42 c1 -24 4 -43 9 -43 4 0 20
10 35 23 l29 22 -13 61 c-12 60 -12 62 17 102 16 23 33 40 39 38 26 -8 75
-238 75 -353 0 -58 3 -73 15 -73 27 0 57 40 52 68 -2 15 -15 81 -27 147 -31
169 -36 223 -28 280 11 83 9 145 -6 173 -8 15 -22 46 -32 70 -19 46 -122 150
-177 178 -56 29 -59 6 43 320 133 409 173 678 174 1154 1 206 4 281 14 298 18
31 -2 226 -28 262 -12 18 -19 50 -22 104 -3 70 -6 81 -30 101 -15 13 -53 29
-85 36 -32 7 -59 13 -61 15 -15 10 -76 277 -93 407 -11 89 -23 164 -26 167 -3
3 -3 -40 0 -95 l5 -100 -14 67 c-27 135 -45 349 -54 633 -5 160 -14 347 -20
417 -10 111 -9 130 5 158 19 36 13 123 -11 176 -25 54 0 258 54 441 17 54 33
126 37 159 4 32 13 65 19 73 7 9 11 72 10 185 l0 171 -40 100 c-47 118 -100
211 -184 325 -34 45 -76 105 -93 134 -17 28 -53 81 -79 118 -42 59 -52 84 -84
210 -44 171 -43 231 5 377 40 121 87 208 158 298 179 221 206 254 209 250 6
-6 -55 -147 -79 -182 -11 -16 -34 -45 -50 -62 -17 -18 -27 -36 -23 -40 5 -5
34 20 66 55 57 62 170 261 170 301 0 10 10 26 22 37 l21 19 -17 -27 c-10 -15
-15 -32 -11 -38 4 -6 1 -17 -5 -25 -7 -8 -10 -15 -7 -15 7 0 67 86 67 96 0 4
-7 -1 -16 -12 -14 -18 -15 -18 -4 4 6 12 15 20 20 17 5 -3 27 27 49 67 23 40
41 70 41 66 0 -16 -50 -118 -84 -174 -34 -55 -35 -56 -7 -24 40 46 39 31 -1
-28 -18 -26 -24 -41 -15 -33 10 8 43 53 74 100 31 47 61 91 66 96 15 16 -12
-34 -58 -105 -61 -96 -62 -97 -43 -82 31 25 213 308 238 370 7 18 14 31 16 29
6 -6 -28 -101 -40 -112 -6 -5 -31 -43 -54 -83 -24 -40 -63 -103 -88 -140 l-45
-67 41 45 c22 25 45 44 50 43 14 -4 163 170 221 258 53 78 61 83 28 16 -20
-42 -20 -42 0 -17 39 48 133 262 146 333 4 21 12 40 17 43 13 8 3 -39 -24
-121 -19 -58 -79 -184 -173 -365 -24 -47 -44 -89 -45 -94 0 -13 75 96 112 161
30 53 49 74 28 31 -9 -19 -7 -18 14 5 30 33 32 29 10 -16 -9 -18 -12 -27 -6
-22 24 23 155 296 177 370 25 84 45 207 45 280 0 40 6 50 59 107 37 40 105 93
182 143 335 217 1049 700 1164 787 72 54 191 148 265 209 74 60 176 138 225
171 177 121 264 196 540 468 154 152 297 287 317 300 21 14 48 45 60 68 16 31
36 50 68 67 69 35 194 71 309 89 57 9 115 23 130 30 36 19 297 276 305 301 3
11 29 35 57 53 46 30 50 36 44 62 -4 20 0 40 16 68 26 44 20 72 -13 72 -30 -1
-46 -14 -96 -82 -23 -31 -46 -59 -51 -63 -9 -5 -17 15 -37 98 -4 17 -13 27
-24 27 -36 0 -53 -50 -41 -118 9 -46 1 -61 -19 -37 -19 22 -39 18 -46 -9 -8
-32 -42 -40 -155 -38 -48 1 -101 -3 -119 -8 -23 -7 -42 -5 -71 7 -51 20 -58
47 -27 103 13 23 31 56 40 73 24 43 23 98 -3 131 -11 14 -26 26 -33 26 -7 0
-34 -34 -60 -75z m-4332 -1160 c55 -19 102 -37 104 -40 9 -9 -134 -545 -150
-560 -2 -2 -54 44 -115 103 -96 92 -113 114 -128 160 l-17 53 34 37 c21 23 46
70 63 118 38 104 74 164 99 164 6 0 56 -16 110 -35z m1204 -552 c-17 -32 -36
-62 -41 -68 -11 -12 29 70 51 103 27 42 22 22 -10 -35z m-1008 -187 c-17 -76
-41 -56 -27 22 8 49 10 52 22 35 10 -14 11 -30 5 -57z m864 -116 c-8 -30 -14
-72 -14 -94 0 -22 -3 -36 -6 -33 -12 12 -4 117 11 154 21 51 26 38 9 -27z
m-1462 -562 c-27 -28 -34 -30 -42 -18 -7 11 -2 19 23 32 49 26 55 21 19 -14z
m-193 -32 c-5 -5 -130 -56 -137 -56 -14 0 12 14 65 36 53 22 82 30 72 20z
m-44 -52 c-27 -13 -57 -24 -65 -23 -16 0 88 47 105 47 6 0 -12 -10 -40 -24z
m-315 -38 c0 -2 -8 -10 -17 -17 -16 -13 -17 -12 -4 4 13 16 21 21 21 13z m140
0 c0 -2 -12 -11 -27 -20 l-28 -17 24 20 c23 21 31 25 31 17z m2047 -478 c-3
-7 -5 -2 -5 12 0 14 2 19 5 13 2 -7 2 -19 0 -25z m17 -177 c-9 -23 -18 -40
-20 -38 -2 2 4 22 13 45 9 23 18 40 20 38 2 -2 -4 -22 -13 -45z m-210 -132
c-47 -114 -93 -197 -155 -284 -34 -47 -63 -85 -66 -85 -2 0 22 39 55 88 69
102 118 190 157 285 15 37 30 65 32 63 2 -2 -8 -32 -23 -67z m-146 -70 c-11
-33 -22 -58 -24 -56 -4 3 7 37 31 105 2 6 6 12 9 12 3 0 -5 -27 -16 -61z m-88
-124 c-6 -15 -13 -25 -16 -22 -3 3 0 22 8 43 7 20 14 30 16 22 2 -8 -2 -27 -8
-43z m-65 -135 c-26 -44 -49 -79 -51 -77 -5 5 89 167 94 162 2 -2 -18 -40 -43
-85z m-123 -102 c-7 -7 -12 -8 -12 -2 0 14 12 26 19 19 2 -3 -1 -11 -7 -17z
m-77 -65 c-25 -55 -46 -89 -31 -48 5 11 13 34 18 50 11 29 26 55 34 55 2 0 -8
-26 -21 -57z"/>
<path d="M950 5475 c0 -5 5 -17 10 -25 5 -8 10 -10 10 -5 0 6 -5 17 -10 25 -5
8 -10 11 -10 5z"/>
<path d="M970 5425 c0 -5 5 -17 10 -25 5 -8 10 -10 10 -5 0 6 -5 17 -10 25 -5
8 -10 11 -10 5z"/>
<path d="M2483 5340 c0 -30 2 -43 4 -27 2 15 2 39 0 55 -2 15 -4 2 -4 -28z"/>
<path d="M2493 5030 c0 -30 2 -43 4 -27 2 15 2 39 0 55 -2 15 -4 2 -4 -28z"/>
<path d="M2501 4893 c-1 -34 3 -64 7 -67 5 -3 7 21 5 52 -6 81 -11 87 -12 15z"/>
<path d="M2512 4780 c0 -19 2 -27 5 -17 2 9 2 25 0 35 -3 9 -5 1 -5 -18z"/>
<path d="M2522 4590 c0 -19 2 -27 5 -17 2 9 2 25 0 35 -3 9 -5 1 -5 -18z"/>
<path d="M2533 4415 c0 -22 2 -30 4 -17 2 12 2 30 0 40 -3 9 -5 -1 -4 -23z"/>
</g>
</svg>
