<?xml version="1.0" standalone="no"?>
<!DOCTYPE svg PUBLIC "-//W3C//DTD SVG 20010904//EN"
 "http://www.w3.org/TR/2001/REC-SVG-20010904/DTD/svg10.dtd">
<svg version="1.0" xmlns="http://www.w3.org/2000/svg"
 width="989.000000pt" height="1280.000000pt" viewBox="0 0 989.000000 1280.000000"
 preserveAspectRatio="xMidYMid meet">
<metadata>
Created by potrace 1.15, written by Peter Selinger 2001-2017
</metadata>
<g transform="translate(0.000000,1280.000000) scale(0.100000,-0.100000)"
fill="#000000" stroke="none">
<path d="M4381 11943 c-56 -19 -129 -51 -162 -70 -70 -42 -160 -136 -223 -233
-42 -65 -48 -70 -81 -70 -20 0 -51 7 -71 15 l-35 14 21 -29 c27 -38 38 -44 73
-42 l29 2 -24 -42 c-33 -60 -114 -135 -154 -142 -44 -9 -91 12 -134 59 -52 56
-68 69 -93 76 -12 3 -21 11 -19 18 1 7 -2 9 -8 6 -15 -9 4 -36 74 -107 56 -57
57 -58 29 -58 -15 1 -57 7 -93 15 -36 8 -83 14 -105 14 -60 -1 229 -58 295
-59 39 0 51 -3 40 -10 -8 -5 -63 -10 -122 -10 -103 0 -140 -12 -83 -26 39 -10
30 -21 -22 -28 -56 -8 -116 -26 -110 -33 3 -2 22 0 43 6 22 6 100 12 174 14
74 3 144 8 155 13 18 7 19 6 6 -10 -24 -29 -103 -70 -151 -78 -39 -6 -36 -6
17 -3 67 3 150 41 183 82 26 34 31 28 15 -17 -28 -79 -46 -107 -82 -126 -20
-10 -51 -27 -70 -37 -52 -27 -39 -39 18 -16 29 11 54 18 56 15 7 -6 -50 -99
-91 -151 -37 -46 -49 -65 -42 -65 8 0 121 141 155 195 l32 50 -6 -38 c-3 -21
-12 -86 -19 -145 -13 -105 -42 -229 -56 -245 -5 -5 -18 -4 -31 3 l-24 11 23
-20 c25 -21 26 -58 2 -53 -11 3 -11 0 -1 -12 28 -33 -16 -76 -78 -76 -16 0
-52 -10 -81 -22 -42 -17 -49 -23 -34 -29 12 -4 28 1 43 12 13 11 35 19 50 19
14 1 43 7 64 14 20 8 37 12 37 9 0 -2 -7 -35 -15 -72 l-16 -68 40 -66 c54 -88
48 -106 -40 -125 -35 -8 -89 -15 -119 -17 -115 -7 -138 -14 -165 -49 -22 -29
-34 -35 -83 -41 -31 -4 -104 -25 -162 -47 -281 -107 -387 -69 -652 234 -77 87
-147 129 -212 127 -23 -1 -33 -3 -23 -6 20 -5 67 -49 67 -62 0 -5 7 -14 15
-21 8 -7 12 -16 10 -21 -3 -4 6 -18 19 -31 13 -13 42 -46 63 -75 83 -111 160
-182 236 -217 161 -73 321 -64 535 31 72 31 76 29 17 -11 -48 -32 -113 -96
-146 -143 -28 -41 -228 -112 -318 -114 l-36 -1 35 -12 c23 -8 49 -10 78 -4 24
4 48 6 52 3 4 -3 37 8 72 24 35 16 92 37 127 46 103 26 236 96 314 164 30 27
149 102 154 97 1 -1 -9 -30 -23 -65 -21 -51 -25 -76 -22 -136 2 -40 5 -71 8
-69 2 3 10 33 17 67 11 52 19 67 55 99 24 21 72 51 106 68 35 17 94 51 130 75
37 25 72 45 79 45 6 0 19 -22 28 -49 l16 -49 -68 -72 c-82 -86 -194 -172 -266
-204 -42 -18 -65 -22 -105 -18 -32 3 -52 1 -52 -6 0 -11 32 -21 75 -23 30 -1
30 -1 5 -10 -18 -6 -8 -7 35 -5 33 2 69 7 79 11 15 6 17 5 11 -5 -6 -10 -4
-12 9 -7 10 4 21 7 24 7 4 0 0 5 -8 11 -12 9 -12 10 3 5 11 -4 31 2 47 14 39
28 47 25 13 -5 -24 -22 -21 -21 18 5 53 34 80 40 58 13 -9 -11 -3 -10 19 6 17
12 32 27 32 32 0 6 5 7 10 4 6 -3 10 -23 10 -45 0 -34 -6 -43 -52 -81 -111
-91 -147 -127 -130 -134 8 -3 18 -2 21 2 3 4 15 15 26 23 16 11 15 9 -3 -12
-13 -14 -39 -29 -57 -32 -18 -4 -50 -18 -70 -32 -21 -14 -38 -24 -40 -22 -1 2
-23 34 -49 73 -34 52 -46 79 -46 107 0 43 -15 51 -24 12 -7 -26 22 -149 57
-239 47 -123 54 -238 17 -288 -28 -38 -23 -75 22 -146 l33 -54 -3 -126 c-2
-102 0 -132 14 -156 23 -43 33 -79 48 -175 7 -47 22 -103 32 -125 18 -40 18
-40 22 -12 2 20 8 27 20 25 22 -4 34 -118 22 -200 -10 -69 -79 -205 -111 -222
-18 -9 -28 -34 -54 -131 -18 -66 -57 -212 -88 -325 -32 -112 -57 -210 -57
-218 0 -8 -27 -97 -61 -199 -48 -145 -58 -187 -49 -198 9 -11 9 -27 0 -67 -30
-130 -45 -170 -102 -276 -33 -63 -65 -133 -72 -155 -14 -48 -62 -87 -107 -87
-15 0 -35 -3 -44 -6 -20 -8 -45 -55 -45 -86 0 -13 -9 -36 -20 -53 -25 -37 -25
-42 -1 -50 29 -9 68 14 81 49 27 72 51 84 55 26 11 -151 18 -190 36 -190 10 0
20 4 23 9 3 5 17 9 31 9 33 0 82 44 105 95 l18 39 19 -29 c11 -15 30 -47 43
-70 13 -24 27 -43 30 -43 4 0 15 9 24 19 23 25 14 70 -25 130 -40 61 -41 93
-6 150 l21 34 11 -33 c6 -19 22 -41 36 -50 97 -66 110 -73 121 -62 19 19 -3
64 -45 91 -29 19 -41 36 -53 76 l-17 52 48 44 c26 24 60 66 76 94 26 44 29 60
29 136 0 104 20 164 51 156 14 -4 23 1 28 16 5 12 69 137 142 277 165 316 234
457 301 612 41 97 49 124 40 138 -8 13 -7 31 4 71 9 30 18 110 21 179 4 84 11
132 20 147 15 22 15 22 39 -25 28 -52 58 -82 83 -82 10 0 28 -25 48 -68 17
-37 49 -85 70 -107 21 -22 46 -59 56 -82 16 -41 16 -43 -7 -70 -13 -15 -48
-66 -78 -114 -36 -55 -79 -106 -124 -145 -166 -143 -233 -234 -323 -444 -88
-203 -104 -272 -105 -445 -1 -151 9 -233 45 -377 10 -42 19 -82 19 -88 0 -7
-18 -1 -44 14 -38 22 -76 34 -76 23 0 -19 148 -416 249 -671 68 -172 155 -454
202 -656 12 -52 28 -113 36 -135 21 -56 24 -135 7 -160 -18 -25 -18 -51 1 -59
10 -3 13 -14 9 -33 -4 -22 5 -43 41 -97 31 -47 43 -75 38 -85 -4 -9 -8 -50 -8
-91 1 -136 35 -725 46 -786 14 -81 84 -367 120 -492 38 -132 114 -439 128
-517 23 -126 43 -361 36 -427 -4 -40 -2 -75 4 -86 6 -11 42 -43 81 -72 38 -28
70 -57 70 -63 0 -7 -9 -102 -20 -212 -20 -201 -19 -264 7 -542 6 -60 21 -77
96 -110 48 -20 52 -24 49 -53 -1 -18 -9 -42 -17 -53 -8 -12 -15 -42 -16 -67 0
-25 -6 -70 -12 -100 -11 -50 -16 -57 -52 -75 -79 -41 -98 -138 -45 -234 17
-30 30 -60 30 -67 0 -63 353 -89 475 -35 166 73 211 208 246 727 l11 171 -36
83 -36 83 35 45 c19 25 35 50 35 56 6 763 10 855 55 1126 52 314 58 545 20
827 -54 399 -108 641 -159 707 -15 20 -31 36 -37 36 -10 0 -10 113 0 225 6 70
9 73 45 59 16 -6 18 -3 13 22 -3 16 -8 39 -12 51 -5 17 -3 24 11 30 36 13 64
47 64 80 0 43 45 331 76 483 40 199 61 275 124 441 32 85 86 249 120 362 33
114 65 218 70 231 11 31 -5 38 -42 19 -34 -16 -34 -15 -6 42 25 51 19 64 -22
48 -17 -6 -30 -10 -30 -9 0 1 11 69 25 150 14 81 25 187 25 235 0 152 -41 417
-80 516 -7 17 -40 136 -73 265 -56 214 -62 244 -62 340 0 144 12 234 35 261
11 12 34 58 51 103 26 68 33 103 42 226 9 115 15 149 29 164 10 11 18 28 18
38 0 9 9 22 19 28 22 11 24 6 77 -160 15 -47 33 -97 40 -111 11 -23 11 -29 -1
-39 -19 -15 -20 -13 123 -230 63 -96 142 -220 175 -275 119 -199 341 -509 368
-513 26 -5 49 -52 70 -142 46 -203 70 -254 174 -370 85 -95 117 -155 99 -189
-20 -39 4 -69 33 -40 7 7 21 3 48 -15 35 -24 39 -25 67 -10 29 15 30 20 11 70
-2 6 3 17 12 24 8 7 15 20 15 29 1 13 3 13 15 -3 25 -33 18 -70 -20 -110 -38
-41 -53 -95 -36 -132 16 -35 38 -29 52 14 6 20 30 54 51 74 22 20 46 54 53 75
11 30 15 34 20 20 4 -9 0 -39 -10 -65 -35 -97 -26 -173 23 -180 20 -3 22 1 22
43 0 48 10 75 41 108 16 18 19 18 40 3 25 -17 74 -22 83 -7 4 5 -4 22 -17 38
-35 41 -47 68 -47 103 0 44 -21 79 -79 128 -28 24 -57 58 -65 75 -8 18 -57 76
-110 130 -160 163 -203 221 -231 310 -14 47 -22 90 -18 110 4 26 -10 63 -70
187 -41 85 -92 202 -112 260 -41 116 -122 304 -195 450 -26 52 -56 122 -66
154 -12 38 -25 61 -36 64 -26 6 -172 217 -214 306 -45 98 -52 133 -30 149 16
12 15 19 -12 104 -16 51 -27 95 -24 98 3 3 15 5 27 5 30 0 69 32 84 69 11 24
9 40 -8 96 -12 37 -21 77 -21 89 0 11 -8 35 -18 53 -57 104 -72 134 -72 146 0
30 -114 244 -191 359 -44 67 -92 144 -106 172 -30 61 -37 66 -85 66 -39 0 -62
17 -73 52 -5 14 -2 24 9 30 9 5 14 13 11 18 -3 4 2 11 11 14 8 3 13 10 9 15
-3 5 3 12 14 16 10 3 21 15 24 26 4 14 -9 7 -45 -27 -45 -42 -52 -45 -60 -30
-10 18 -3 112 10 132 4 6 14 14 22 17 13 4 12 6 -1 6 -9 1 -20 12 -23 25 -3
14 -13 32 -22 41 -20 20 -44 4 -44 -31 0 -18 -4 -22 -17 -17 -17 5 -17 5 -1
-8 15 -13 16 -20 4 -75 -17 -80 -23 -90 -45 -70 -30 27 -125 29 -276 7 -77
-12 -144 -21 -148 -21 -4 0 3 19 17 43 13 23 27 62 31 87 4 25 13 48 19 52 21
14 36 8 37 -14 1 -18 4 -15 13 12 6 20 21 45 32 57 15 14 20 29 17 45 -3 17 4
35 23 58 28 33 28 33 4 20 l-25 -12 23 23 23 24 27 -31 c15 -18 40 -51 56 -74
28 -42 119 -120 138 -120 6 0 -7 13 -30 30 -22 16 -52 49 -66 73 -24 41 -34
96 -20 110 6 5 65 -24 91 -45 23 -19 110 -35 174 -33 73 3 111 21 189 93 25
23 50 42 56 42 6 0 21 9 34 20 13 11 35 21 49 21 17 1 20 3 8 6 -24 6 -87 -16
-111 -39 -61 -58 -157 -105 -193 -95 -15 4 -15 6 5 12 12 4 22 11 22 16 0 5 5
9 10 9 6 0 28 18 50 40 58 58 22 51 -61 -12 -42 -32 -130 -68 -164 -68 -38 0
-90 29 -109 61 -17 28 -31 119 -19 119 4 0 34 -13 67 -29 34 -16 79 -32 101
-35 35 -5 32 -3 -18 14 -66 22 -142 70 -141 88 1 7 2 26 3 42 1 25 5 30 26 30
14 0 25 3 25 8 -1 10 -30 48 -30 37 0 -4 -9 0 -20 10 -16 15 -18 21 -7 33 9
12 9 16 0 19 -7 3 -14 14 -14 26 -1 17 -2 18 -6 5 -2 -10 -9 -18 -15 -18 -7 0
-7 -4 0 -13 7 -8 8 -18 1 -27 -8 -12 -14 -10 -34 15 -14 17 -23 35 -22 40 2 6
-11 32 -30 59 -18 26 -34 56 -34 65 -4 49 -8 62 -20 78 -9 11 -10 14 -2 9 17
-9 7 19 -19 57 -11 15 -18 27 -16 27 2 0 28 -7 58 -15 105 -28 198 -14 280 43
19 13 26 21 16 18 -19 -7 -19 -6 -2 13 10 11 16 28 14 38 -3 14 -8 11 -25 -17
-46 -74 -190 -113 -279 -75 -20 8 -33 19 -29 25 4 6 -3 18 -15 28 -25 20 -19
46 14 64 20 12 20 12 -9 18 -24 4 -31 11 -33 33 -2 15 -7 25 -11 23 -4 -3 -7
3 -7 12 0 92 -4 110 -26 116 -25 6 -36 27 -64 121 -17 57 -44 119 -44 102 0
-14 50 -208 70 -272 49 -156 31 -178 -50 -60 -36 53 -37 59 -5 73 38 17 30 28
-17 24 l-43 -3 -55 76 c-62 87 -138 161 -224 216 -96 63 -149 78 -290 82 -119
4 -127 3 -225 -30z m946 -395 c-3 -8 -6 -5 -6 6 -1 11 2 17 5 13 3 -3 4 -12 1
-19z m47 -298 c17 -57 7 -59 -13 -1 -11 33 -15 69 -7 60 2 -2 11 -29 20 -59z
m85 -330 c1 -13 0 -13 -9 0 -5 8 -9 24 -9 35 l0 20 9 -20 c5 -11 9 -27 9 -35z
m96 -48 c0 -30 -18 -28 -27 4 -5 20 -3 25 10 22 10 -2 17 -13 17 -26z m-20
-41 c3 -5 1 -12 -5 -16 -5 -3 -10 1 -10 9 0 18 6 21 15 7z m-1632 -128 c-4
-97 -18 -163 -34 -163 -19 0 -21 31 -5 103 20 88 36 147 40 147 2 0 2 -39 -1
-87z m1632 -71 c-8 -8 -25 10 -25 26 0 13 2 13 14 -4 8 -10 13 -21 11 -22z
m-1705 -342 c2 -19 2 -52 1 -72 -1 -33 -4 -38 -25 -38 -22 0 -25 6 -35 63 -14
81 -14 184 0 193 7 4 10 -5 7 -27 -1 -19 1 -34 6 -34 5 0 10 27 11 60 4 118
19 118 26 0 4 -60 8 -126 9 -145z m46 182 c-2 -15 -1 -19 1 -9 2 9 8 17 13 17
5 0 2 -24 -7 -52 -9 -29 -22 -73 -29 -98 -12 -44 -12 -43 -13 57 -1 56 2 109
5 117 10 26 34 -1 30 -32z m-1496 -212 c0 -5 -2 -10 -4 -10 -3 0 -8 5 -11 10
-3 6 -1 10 4 10 6 0 11 -4 11 -10z m1655 -341 c4 -6 17 -14 28 -18 20 -7 17
-13 -38 -72 -33 -35 -49 -55 -35 -44 l25 20 -19 -22 c-22 -26 -29 -24 -45 16
-12 26 -10 33 24 80 38 52 49 59 60 40z m-5 -132 c0 -2 -12 -14 -27 -28 l-28
-24 24 28 c23 25 31 32 31 24z m219 -1474 c1 -17 -3 -35 -9 -38 -6 -4 -10 16
-9 52 0 42 3 52 9 38 5 -11 9 -34 9 -52z m2922 -1626 c17 -13 36 -112 19 -102
-11 7 -70 105 -70 117 0 9 31 -1 51 -15z m-2227 -480 c-4 -43 -10 -77 -14 -77
-4 0 -10 24 -14 53 -3 28 -9 62 -12 74 -5 17 -1 22 18 25 12 2 24 3 26 3 1 -1
-1 -36 -4 -78z m-1751 -79 c-9 -49 -22 -69 -23 -35 0 26 15 67 25 67 3 0 2
-15 -2 -32z"/>
<path d="M3345 11180 c-3 -6 1 -7 9 -4 18 7 21 14 7 14 -6 0 -13 -4 -16 -10z"/>
<path d="M3550 10755 c8 -10 14 -28 12 -39 -2 -17 -1 -18 7 -6 8 12 13 11 31
-5 12 -11 30 -36 40 -56 32 -62 47 -61 17 2 -23 49 -77 121 -77 103 0 -2 -10
1 -22 7 -22 11 -22 11 -8 -6z"/>
<path d="M3436 10445 c-3 -9 0 -15 9 -15 8 0 15 4 15 9 0 5 8 12 18 14 11 3 8
5 -9 6 -16 1 -29 -5 -33 -14z"/>
<path d="M2443 9790 c-13 -5 -23 -12 -23 -15 0 -4 5 -3 12 1 15 9 80 7 110 -5
12 -5 25 -8 28 -8 3 0 24 -10 48 -22 24 -12 51 -21 60 -19 23 4 -123 64 -173
71 -22 4 -50 2 -62 -3z"/>
<path d="M3403 9733 c15 -2 37 -2 50 0 12 2 0 4 -28 4 -27 0 -38 -2 -22 -4z"/>
</g>
</svg>
