<?xml version="1.0" standalone="no"?>
<!DOCTYPE svg PUBLIC "-//W3C//DTD SVG 20010904//EN"
 "http://www.w3.org/TR/2001/REC-SVG-20010904/DTD/svg10.dtd">
<svg version="1.0" xmlns="http://www.w3.org/2000/svg"
 width="746.000000pt" height="1280.000000pt" viewBox="0 0 746.000000 1280.000000"
 preserveAspectRatio="xMidYMid meet">
<metadata>
Created by potrace 1.15, written by Peter Selinger 2001-2017
</metadata>
<g transform="translate(0.000000,1280.000000) scale(0.100000,-0.100000)"
fill="#000000" stroke="none">
<path d="M2235 12764 c-105 -42 -152 -50 -375 -63 -128 -7 -183 -15 -245 -34
-115 -36 -198 -68 -216 -83 -8 -8 -22 -14 -30 -14 -8 0 -58 -25 -110 -56 -51
-31 -174 -97 -273 -146 -194 -97 -399 -210 -431 -238 -11 -9 -47 -33 -80 -52
-107 -63 -289 -180 -312 -200 -18 -17 -21 -27 -16 -72 4 -41 0 -68 -21 -126
-26 -73 -96 -203 -116 -215 -17 -10 -11 -23 13 -29 96 -24 246 -222 275 -364
8 -36 10 -37 107 -73 91 -33 206 -84 245 -108 8 -6 46 -27 83 -49 98 -57 200
-149 195 -176 -4 -20 0 -22 51 -22 173 -2 440 -82 718 -214 87 -42 123 -65
128 -80 5 -16 10 -19 18 -11 16 16 57 14 318 -15 262 -28 392 -51 522 -91 l88
-26 -6 -101 c-11 -194 -25 -350 -34 -385 -5 -20 -12 -70 -16 -111 -14 -160
-35 -252 -72 -307 -20 -30 -44 -54 -58 -57 -30 -8 -53 -51 -61 -113 -4 -27
-17 -67 -29 -89 -12 -23 -26 -68 -30 -99 -7 -59 -31 -95 -62 -95 -9 0 -25 -7
-35 -16 -16 -16 -18 -15 -25 2 -9 24 -9 76 2 137 10 58 -10 87 -60 87 -40 0
-62 -24 -81 -86 -20 -66 -18 -100 11 -187 13 -41 29 -111 34 -154 14 -109 2
-150 -60 -208 -54 -50 -68 -54 -94 -25 -10 11 -21 20 -25 20 -23 0 -41 -34
-55 -100 -11 -54 -38 -118 -99 -237 l-84 -162 -7 -143 c-7 -147 3 -255 27
-304 19 -39 71 -62 167 -75 79 -11 86 -10 130 12 25 12 69 47 97 76 l51 53 7
-31 c3 -17 6 -48 6 -69 0 -34 10 -55 76 -154 75 -113 79 -136 34 -205 -42 -66
-58 -110 -69 -187 -6 -38 -20 -107 -32 -154 -12 -47 -21 -110 -21 -140 1 -30
-17 -155 -38 -277 l-40 -222 0 -409 c0 -459 0 -457 60 -422 65 38 103 52 156
57 l52 6 21 -57 c11 -31 21 -60 21 -65 0 -4 9 -16 19 -25 14 -13 50 -21 128
-28 59 -6 109 -11 110 -12 1 -1 11 -63 22 -138 11 -77 57 -283 105 -470 70
-274 153 -648 197 -888 27 -144 31 -217 27 -487 -3 -306 -5 -317 -54 -356 -13
-9 -25 -26 -29 -36 -7 -24 58 -324 84 -381 24 -54 54 -178 90 -367 5 -29 12
-56 15 -61 5 -8 76 -309 125 -532 34 -152 63 -427 64 -600 1 -92 -3 -126 -20
-170 -11 -30 -26 -73 -33 -95 -7 -22 -39 -96 -72 -164 -59 -122 -60 -125 -55
-190 12 -143 47 -195 140 -206 31 -4 105 -6 165 -4 102 4 113 7 183 41 75 38
130 82 166 134 17 24 22 58 33 217 7 105 10 229 6 282 -6 86 -11 106 -61 218
-30 68 -55 133 -55 145 0 11 -4 23 -9 27 -18 11 -21 93 -25 720 -3 590 -13
878 -37 1105 -29 280 -30 305 -18 468 14 188 7 901 -12 1358 -12 280 -12 281
9 311 21 30 64 51 157 77 28 7 75 23 105 34 30 11 76 23 101 27 l46 7 399
-399 c405 -405 709 -681 809 -733 28 -15 80 -46 114 -69 34 -22 66 -41 70 -41
15 0 228 -199 365 -341 76 -79 229 -252 339 -384 109 -132 235 -282 278 -333
93 -110 157 -215 276 -458 70 -141 95 -206 121 -304 76 -294 120 -394 182
-420 89 -37 231 71 309 235 48 102 51 113 51 208 l0 92 -59 87 c-64 94 -101
179 -101 233 0 18 -7 46 -14 62 -8 15 -28 57 -44 93 -23 51 -51 87 -133 170
-114 116 -168 179 -214 251 -96 152 -131 201 -184 264 -33 39 -60 78 -61 88 0
9 -4 17 -10 17 -5 0 -10 5 -10 11 0 6 -14 30 -30 55 -34 48 -98 182 -137 283
-56 148 -131 287 -185 344 -56 59 -79 68 -131 48 -21 -8 -28 -5 -46 19 -11 16
-42 41 -68 56 -93 54 -453 315 -505 366 -68 67 -144 163 -248 308 -91 128
-286 417 -315 467 l-19 32 33 46 32 45 -130 257 c-262 518 -417 759 -611 953
-64 64 -202 181 -334 283 -20 15 -43 39 -52 52 -18 27 -42 156 -51 267 -7 95
-7 95 120 78 148 -20 171 -15 125 25 -26 22 -26 24 -8 40 22 20 30 68 18 110
-20 62 43 186 85 170 24 -10 21 -44 -8 -107 -51 -109 -23 -121 31 -13 l38 75
45 0 c25 0 63 -5 84 -11 30 -8 37 -15 37 -34 0 -16 6 -25 15 -25 11 0 15 11
15 38 0 45 -38 105 -79 126 -33 18 -41 46 -41 154 0 79 -13 113 -79 202 -14
19 -30 42 -36 51 -5 9 -26 40 -46 70 -20 30 -39 68 -43 84 -18 77 -25 125 -26
180 -1 70 -15 135 -58 260 -36 106 -38 114 -57 268 -12 102 -51 250 -96 372
-11 30 -23 75 -34 130 -4 17 -10 39 -15 50 -5 11 -21 59 -35 108 -15 48 -31
87 -36 87 -5 0 -9 6 -9 13 0 7 -20 41 -46 76 -57 78 -138 132 -254 167 -47 14
-97 30 -112 36 -20 7 -32 6 -51 -6 -18 -12 -36 -15 -66 -10 -48 8 -82 -4 -161
-57 -65 -43 -121 -102 -149 -158 -12 -22 -25 -42 -31 -46 -5 -3 -10 -15 -10
-26 0 -10 -5 -19 -11 -19 -12 0 -11 31 9 250 l7 75 55 8 c30 5 195 6 365 4
314 -5 382 -11 530 -54 48 -14 52 -13 110 12 54 24 130 47 249 76 125 31 540
24 579 -9 14 -12 20 -10 39 11 27 30 223 130 288 147 25 6 59 16 75 22 63 21
124 30 227 31 106 2 108 2 108 25 0 74 210 310 289 325 14 3 36 1 49 -4 14 -5
26 -8 28 -6 2 2 -10 30 -26 63 -35 68 -60 176 -67 287 -5 68 -3 76 11 71 55
-21 -39 89 -265 312 -204 199 -408 380 -494 437 -57 39 -108 79 -240 192 -196
167 -302 236 -465 301 -92 36 -124 46 -222 64 -58 11 -121 42 -211 103 -79 54
-139 73 -257 82 -153 11 -439 76 -475 107 -12 11 -98 10 -213 -2 -72 -8 -123
-7 -220 5 -70 9 -185 18 -257 20 l-130 5 -90 -36z m1915 -4704 c0 -19 -5 -30
-14 -30 -23 0 -27 15 -10 38 20 29 24 28 24 -8z m120 -134 c0 -3 -4 -8 -10
-11 -5 -3 -10 -1 -10 4 0 6 5 11 10 11 6 0 10 -2 10 -4z m-200 -66 c0 -24 -34
-60 -56 -60 -12 0 -14 4 -7 13 5 6 17 24 26 40 20 32 37 35 37 7z m170 -10 c0
-14 -15 -19 -29 -10 -17 10 -5 31 14 23 8 -3 15 -9 15 -13z m112 -49 c18 -16
29 -33 25 -37 -4 -5 -12 -2 -17 6 -4 7 -23 18 -41 24 -38 13 -51 36 -20 36 11
0 35 -13 53 -29z m-378 -35 c-6 -16 -24 -23 -24 -8 0 10 22 33 27 28 2 -2 1
-11 -3 -20z m11 -104 c-5 -14 -8 -14 -15 -2 -5 8 -4 22 3 34 10 19 11 20 15 3
2 -10 1 -26 -3 -35z"/>
</g>
</svg>
