<?xml version="1.0" standalone="no"?>
<!DOCTYPE svg PUBLIC "-//W3C//DTD SVG 20010904//EN"
 "http://www.w3.org/TR/2001/REC-SVG-20010904/DTD/svg10.dtd">
<svg version="1.0" xmlns="http://www.w3.org/2000/svg"
 width="497.000000pt" height="1280.000000pt" viewBox="0 0 497.000000 1280.000000"
 preserveAspectRatio="xMidYMid meet">
<metadata>
Created by potrace 1.15, written by Peter Selinger 2001-2017
</metadata>
<g transform="translate(0.000000,1280.000000) scale(0.100000,-0.100000)"
fill="#000000" stroke="none">
<path d="M1953 12519 c-6 -6 -29 -10 -51 -7 -22 2 -38 0 -36 -4 3 -5 12 -8 20
-8 8 0 14 -4 14 -9 0 -11 -56 -25 -68 -17 -5 3 -20 -6 -32 -19 -13 -14 -32
-25 -41 -25 -13 0 -16 -5 -12 -16 4 -12 0 -15 -19 -13 -26 4 -58 -15 -58 -34
0 -5 -15 -27 -34 -48 -41 -44 -51 -87 -43 -175 6 -65 40 -146 73 -175 11 -9
42 -25 70 -35 34 -12 50 -22 47 -31 -7 -17 15 -43 31 -37 10 4 11 -6 5 -43
-14 -84 -10 -146 20 -319 21 -122 37 -184 57 -224 15 -30 29 -62 30 -70 2 -8
13 -22 26 -30 12 -8 31 -26 43 -38 11 -13 29 -28 40 -34 11 -5 7 2 -10 15
l-30 26 56 -27 c31 -15 55 -29 54 -32 -2 -3 8 -19 22 -35 16 -20 21 -22 14 -8
-14 28 -14 46 1 41 7 -3 16 -18 20 -34 12 -42 29 -343 22 -383 -11 -57 -182
-222 -246 -237 -13 -3 -41 -9 -63 -14 -22 -4 -67 -17 -100 -28 -33 -11 -92
-30 -131 -42 -80 -24 -166 -87 -196 -142 -29 -54 -58 -162 -58 -214 0 -27 6
-78 14 -113 13 -62 12 -65 -10 -98 -40 -59 -43 -134 -11 -299 20 -101 46 -171
81 -217 l27 -35 -18 -59 c-12 -40 -18 -91 -18 -163 1 -98 3 -110 34 -177 31
-68 83 -128 168 -194 14 -11 24 -39 33 -85 7 -38 37 -139 67 -224 30 -85 58
-171 62 -191 4 -20 24 -69 44 -110 35 -71 37 -79 37 -175 0 -120 -2 -124 -122
-216 -44 -33 -124 -97 -177 -142 -53 -45 -166 -135 -251 -201 -85 -65 -177
-139 -205 -164 -171 -155 -325 -389 -445 -677 -23 -54 -61 -139 -85 -189 -24
-49 -62 -129 -84 -178 -22 -48 -50 -101 -62 -118 l-22 -32 24 -18 c65 -50 481
-233 694 -305 87 -29 100 -36 97 -54 -3 -16 6 -24 34 -36 89 -37 190 -56 314
-59 l125 -2 42 -144 c24 -79 65 -225 93 -324 27 -99 67 -232 89 -296 l39 -117
-29 -98 c-58 -195 -81 -336 -77 -474 4 -112 7 -133 36 -205 37 -95 115 -216
193 -300 l55 -60 11 -125 c14 -151 61 -421 109 -625 84 -355 91 -390 124 -639
10 -75 9 -81 -15 -130 -25 -50 -25 -55 -14 -131 9 -59 9 -86 0 -110 -6 -18
-11 -52 -10 -77 1 -25 -1 -50 -5 -56 -11 -19 -9 -174 3 -219 6 -23 18 -46 26
-50 17 -10 3 -91 -49 -273 -41 -141 -54 -178 -68 -186 -6 -4 -5 3 1 14 16 30
31 72 26 72 -3 0 -12 -15 -20 -32 -9 -18 -24 -49 -35 -68 -21 -39 -25 -54 -11
-46 5 4 7 -3 4 -15 -4 -14 -8 -17 -13 -9 -4 7 -11 -14 -15 -46 -7 -62 5 -135
31 -190 34 -72 146 -110 297 -102 75 4 91 9 163 47 90 48 130 82 138 118 4 14
11 21 18 17 7 -5 9 -2 5 9 -5 14 -3 14 24 -1 16 -10 34 -31 40 -49 16 -49 97
-140 138 -156 20 -7 70 -15 111 -16 136 -4 253 53 376 181 134 140 182 262
171 428 -8 109 9 405 27 478 42 174 44 254 6 356 -53 140 -134 175 -245 105
-25 -16 -49 -29 -54 -29 -11 0 -51 105 -51 133 0 56 -21 97 -58 115 l-37 17
-37 190 c-20 105 -51 289 -68 410 -36 259 -49 323 -91 441 -55 156 -97 230
-225 394 -111 143 -141 193 -166 274 -16 53 -19 81 -14 130 4 33 11 97 16 141
12 116 83 299 212 549 59 116 158 311 218 434 l109 222 78 0 c49 0 101 7 140
20 34 10 85 22 113 26 l52 7 -7 -49 c-4 -27 -8 -53 -9 -59 -2 -15 333 -7 436
10 106 18 268 69 298 93 l22 18 -27 53 c-17 34 -50 153 -90 328 -66 284 -120
458 -200 648 -25 61 -53 144 -61 186 -19 99 -78 286 -114 361 l-29 59 76 142
c82 154 152 299 214 445 50 118 185 495 194 544 8 40 -4 94 -60 293 -19 66
-46 176 -61 245 -14 69 -38 166 -54 215 -38 123 -70 241 -70 256 0 7 8 21 17
31 14 16 15 23 5 38 -6 11 -9 25 -6 33 2 7 -4 22 -16 32 -26 23 -25 27 7 94
23 47 28 69 28 136 0 70 -4 87 -32 140 -42 80 -164 219 -213 242 -30 14 -41
27 -50 58 -22 75 -91 192 -144 247 -59 60 -164 119 -241 136 -54 12 -151 45
-161 55 -3 3 -17 1 -31 -4 -23 -8 -42 0 -155 69 -129 78 -238 153 -238 162 0
3 15 12 33 21 39 19 124 129 166 215 72 147 152 395 131 402 -13 5 -13 35 -1
48 5 5 11 20 13 34 2 17 9 25 21 24 13 -1 17 7 18 40 l2 41 6 -47 c4 -26 11
-51 15 -55 5 -4 5 11 1 35 -7 45 4 56 27 23 16 -22 75 -54 91 -48 7 3 0 10
-15 16 -33 12 -38 26 -7 18 12 -3 28 2 38 12 16 16 16 19 3 27 -8 6 -22 29
-32 53 -13 35 -15 55 -8 100 15 92 6 163 -28 218 -22 34 -33 70 -41 124 -12
87 -35 141 -94 222 -28 38 -39 61 -32 68 5 5 7 23 5 40 -3 17 -8 26 -11 20 -4
-6 -7 5 -7 24 0 39 -24 70 -62 80 -15 4 -29 10 -32 14 -3 3 -18 15 -33 24 -19
12 -27 24 -23 34 5 13 4 14 -8 4 -11 -9 -16 -9 -21 -1 -4 7 -16 9 -27 7 -14
-4 -18 -2 -14 9 3 8 1 14 -4 14 -6 0 -10 -4 -10 -8 0 -5 -18 -16 -40 -25 -22
-8 -38 -12 -35 -7 6 9 -48 17 -84 12 -17 -3 -20 -6 -11 -12 7 -5 -35 -9 -96
-10 -138 -3 -139 -3 -259 5 -81 6 -117 3 -190 -13 l-90 -20 -26 24 c-14 13
-30 24 -36 24 -6 0 -21 11 -34 25 -26 26 -76 34 -96 14z m60 -6 c-7 -2 -21 -2
-30 0 -10 3 -4 5 12 5 17 0 24 -2 18 -5z m1147 -181 c0 -21 -26 2 -33 29 -5
20 -5 20 14 3 10 -9 19 -24 19 -32z m-1553 -159 c-2 -16 -4 -3 -4 27 0 30 2
43 4 28 2 -16 2 -40 0 -55z m1768 -390 c8 -19 15 -43 14 -52 0 -9 -7 2 -15 24
-7 22 -19 48 -25 59 -7 13 -7 16 0 11 6 -3 18 -22 26 -42z m-21 -19 c9 -24 2
-26 -12 -4 -7 11 -8 20 -3 20 5 0 12 -7 15 -16z m-99 -353 c-13 -12 -25 27
-25 85 0 89 14 88 23 -1 4 -43 5 -80 2 -84z m42 127 c-3 -8 -6 -5 -6 6 -1 11
2 17 5 13 3 -3 4 -12 1 -19z m-1302 -288 l38 -54 -41 32 c-38 30 -82 101 -82
132 0 7 10 -2 23 -21 13 -19 40 -59 62 -89z m11 -51 c4 -8 1 -8 -14 0 -12 6
-24 16 -28 22 -4 8 -1 8 14 0 12 -6 24 -16 28 -22z m1508 -2135 c10 -4 16 -18
16 -38 0 -27 6 -34 49 -53 47 -21 49 -24 83 -115 20 -51 50 -145 68 -208 18
-63 56 -167 85 -230 83 -183 85 -216 26 -416 -11 -38 -43 -161 -71 -274 -74
-300 -89 -346 -104 -329 -39 43 -158 206 -205 279 -73 113 -107 184 -131 273
-19 67 -20 86 -10 198 6 80 20 163 40 234 36 131 103 462 121 593 6 50 13 92
15 92 1 0 9 -3 18 -6z m-645 -6995 c91 -251 92 -259 6 -202 l-52 35 -6 92 c-3
50 -13 111 -21 135 -17 47 -22 162 -7 146 5 -6 41 -98 80 -206z m-459 -688 c0
-45 -6 -37 -14 19 -4 31 -3 40 4 30 5 -8 10 -30 10 -49z m529 -165 c26 -31 33
-18 27 52 l-6 67 19 -50 c10 -27 31 -75 45 -105 14 -30 25 -64 25 -75 -1 -16
-2 -15 -9 5 -6 21 -8 22 -14 8 -4 -9 -13 -15 -20 -12 -7 3 -19 -2 -26 -11 -7
-8 -19 -15 -26 -15 -8 0 -14 -4 -14 -10 0 -5 -11 -20 -25 -34 -14 -14 -25 -37
-26 -53 -1 -21 -4 -16 -15 22 -19 68 -18 92 8 225 l22 115 11 -56 c5 -31 16
-64 24 -73z m-666 -421 c-3 -9 -8 -14 -10 -11 -3 3 -2 9 2 15 9 16 15 13 8 -4z"/>
<path d="M1970 11260 c6 -11 13 -20 16 -20 2 0 0 9 -6 20 -6 11 -13 20 -16 20
-2 0 0 -9 6 -20z"/>
<path d="M3320 11388 c0 -9 5 -20 10 -23 13 -8 13 5 0 25 -8 13 -10 13 -10 -2z"/>
</g>
</svg>
