<?xml version="1.0" standalone="no"?>
<!DOCTYPE svg PUBLIC "-//W3C//DTD SVG 20010904//EN"
 "http://www.w3.org/TR/2001/REC-SVG-20010904/DTD/svg10.dtd">
<svg version="1.0" xmlns="http://www.w3.org/2000/svg"
 width="988.000000pt" height="1280.000000pt" viewBox="0 0 988.000000 1280.000000"
 preserveAspectRatio="xMidYMid meet">
<metadata>
Created by potrace 1.15, written by Peter Selinger 2001-2017
</metadata>
<g transform="translate(0.000000,1280.000000) scale(0.100000,-0.100000)"
fill="#000000" stroke="none">
<path d="M4099 12673 c-13 -15 -12 -15 8 -2 18 11 25 11 35 1 7 -8 9 -12 3
-10 -5 1 -27 -8 -47 -20 -21 -13 -42 -21 -48 -17 -5 3 -10 0 -10 -9 0 -8 6
-16 13 -19 19 -7 4 -17 -29 -19 -16 -1 -33 -7 -37 -13 -5 -6 -7 -2 -5 10 2 12
11 19 21 19 9 -1 17 2 17 7 0 5 -9 9 -19 9 -11 0 -27 3 -37 7 -12 4 -15 3 -10
-6 12 -20 -21 -61 -50 -61 -14 0 -22 4 -19 10 3 6 16 10 28 10 18 0 19 2 7 10
-10 6 -21 3 -35 -10 -12 -12 -29 -17 -41 -14 -12 3 -26 -1 -35 -12 -13 -16
-12 -16 8 -3 18 11 25 11 35 1 9 -9 8 -12 -9 -12 -25 0 -56 -27 -47 -41 3 -5
2 -9 -3 -8 -23 4 -43 -2 -38 -11 4 -6 1 -17 -5 -26 -11 -12 -14 -12 -24 2 -13
17 -12 18 -17 -51 -1 -21 -4 -23 -15 -14 -12 10 -13 9 -8 -5 4 -11 1 -16 -10
-16 -9 0 -16 7 -16 17 0 29 -11 6 -16 -33 -5 -41 -14 -57 -21 -36 -3 6 -9 12
-14 12 -4 0 -6 -7 -2 -16 8 -22 -36 -57 -54 -42 -9 7 -13 7 -13 -1 0 -6 9 -19
20 -28 24 -21 26 -33 5 -33 -8 0 -15 5 -15 11 0 5 -5 7 -10 4 -6 -4 -8 -10 -5
-15 7 -12 -5 -40 -19 -40 -6 0 -12 -14 -13 -31 -1 -19 -11 -38 -23 -46 -25
-18 -26 -44 -1 -62 19 -14 19 -15 -7 -49 -22 -29 -24 -37 -15 -63 12 -30 5
-35 -36 -30 -7 2 -10 -2 -6 -9 4 -7 19 -10 33 -7 24 5 25 4 9 -8 -12 -8 -14
-14 -6 -17 20 -7 -13 -48 -38 -48 -13 0 -23 -4 -23 -10 0 -5 9 -10 20 -10 10
0 23 -7 28 -16 11 -20 4 -62 -12 -67 -6 -2 -1 -3 10 -1 18 3 23 -3 31 -46 11
-56 -3 -68 -31 -28 -9 12 -16 17 -16 10 0 -7 11 -24 25 -36 14 -13 27 -32 30
-43 2 -10 11 -38 19 -62 16 -44 13 -69 -4 -41 -8 13 -10 12 -10 -3 0 -10 -4
-16 -9 -13 -5 3 -11 -3 -14 -14 -3 -13 -1 -18 6 -13 6 4 21 7 33 8 17 0 20 -3
13 -12 -6 -7 -8 -17 -4 -23 10 -16 65 -41 75 -35 6 3 10 1 10 -4 0 -6 -4 -11
-9 -11 -5 0 -13 -9 -16 -20 -4 -11 -11 -18 -16 -15 -13 9 -11 -9 3 -23 7 -7
27 -12 46 -12 29 0 34 -3 29 -20 -4 -14 3 -26 23 -40 18 -13 27 -26 23 -35 -4
-11 2 -15 22 -15 l26 0 -22 -32 c-19 -27 -20 -31 -5 -25 14 5 16 3 11 -12 -3
-11 -1 -22 5 -26 6 -3 8 -11 4 -16 -3 -6 3 -5 14 2 11 7 18 19 14 27 -3 10 2
9 16 -4 29 -24 28 -32 -5 -37 -28 -4 -28 -4 2 -6 17 0 36 4 42 10 9 9 11 7 9
-5 -1 -9 -7 -21 -13 -27 -8 -8 -8 -18 -1 -35 10 -21 12 -22 23 -7 11 15 14 14
35 -10 13 -15 29 -27 36 -27 6 0 14 -7 18 -15 3 -8 9 -15 13 -14 34 6 53 -13
74 -76 7 -20 7 -20 8 1 1 18 7 20 47 20 40 -1 44 1 40 18 -4 16 -3 17 8 5 8
-8 17 -25 21 -39 7 -23 7 -24 -10 -10 -11 8 -16 10 -12 4 3 -6 -6 -20 -22 -32
-22 -16 -29 -31 -34 -69 -7 -63 -35 -87 -205 -170 -94 -45 -136 -71 -142 -87
-6 -16 -25 -27 -72 -41 -196 -58 -322 -185 -373 -375 -24 -91 -20 -396 8 -550
19 -108 22 -158 21 -360 -1 -246 -11 -348 -49 -515 -70 -299 -87 -520 -80
-1015 3 -212 8 -402 10 -422 3 -20 0 -125 -5 -232 l-10 -196 -56 -171 c-30
-94 -65 -191 -76 -217 -11 -26 -20 -61 -20 -78 1 -38 78 -250 102 -281 29 -38
117 -102 174 -127 39 -17 57 -31 61 -48 27 -119 40 -246 55 -523 10 -198 21
-264 81 -467 22 -75 55 -219 74 -320 18 -100 52 -256 74 -346 71 -286 71 -302
26 -677 -52 -427 42 -1082 224 -1564 50 -131 71 -227 117 -516 16 -106 31
-174 40 -181 17 -14 18 -49 2 -108 -9 -36 -8 -62 6 -147 11 -60 22 -199 26
-327 l9 -223 35 -47 c69 -94 151 -155 276 -205 131 -52 241 -43 308 26 48 49
76 137 68 212 -4 33 -11 96 -15 140 -13 117 -38 233 -59 269 -13 23 -26 32
-50 34 -36 4 -36 4 -56 132 -26 165 -25 220 3 220 11 0 32 10 47 23 l27 23
-21 90 c-12 49 -24 139 -28 200 l-7 112 71 -6 c87 -6 147 9 196 50 60 49 70
79 69 194 -2 103 -17 155 -61 206 -11 14 -12 21 -3 32 13 15 0 62 -23 80 -8 6
-19 52 -26 106 l-12 95 51 52 c31 32 54 67 60 91 6 21 31 86 54 143 24 57 50
122 57 144 7 22 55 129 106 237 109 228 250 636 285 823 30 162 33 172 94 268
70 110 82 137 159 367 35 102 88 250 119 330 73 191 95 302 102 521 9 251 21
371 61 563 77 383 81 452 40 686 -14 80 -30 214 -36 298 -11 158 -46 309 -104
455 -14 32 -22 66 -19 73 3 8 -11 45 -31 83 -20 38 -36 82 -36 97 0 55 -20
101 -90 209 -80 124 -104 181 -121 293 -10 67 -10 94 2 154 16 84 18 161 5
268 -4 41 -5 72 -2 69 4 -4 18 -58 31 -121 13 -63 40 -157 60 -209 45 -118
210 -466 376 -794 124 -245 166 -344 188 -436 13 -56 35 -106 82 -184 24 -39
39 -79 43 -113 9 -70 24 -101 53 -108 13 -4 23 -10 24 -15 5 -71 0 -102 -22
-125 -13 -14 -38 -32 -56 -39 -45 -19 -57 -46 -41 -93 6 -20 15 -41 19 -46 13
-16 56 3 146 63 101 68 168 131 176 164 3 12 15 68 26 124 32 160 30 168 -111
354 -128 169 -142 199 -193 399 -22 87 -38 170 -126 630 -52 276 -142 581
-218 745 -49 104 -83 211 -115 360 -41 193 -46 241 -50 477 -4 244 -29 444
-67 553 -41 115 -133 221 -239 275 -44 22 -135 46 -212 55 -45 5 -61 12 -75
31 -12 15 -37 29 -73 38 -114 30 -231 78 -264 110 -20 18 -39 49 -45 74 -7 23
-21 48 -31 55 -11 6 -20 18 -20 25 0 10 -5 10 -20 2 -15 -8 -21 -6 -30 9 -14
28 -13 41 5 41 21 0 76 -41 69 -52 -3 -4 -1 -8 5 -8 6 0 13 11 17 25 3 14 12
25 19 25 7 0 26 7 41 15 16 8 23 15 15 15 -8 0 -3 10 14 26 22 20 26 31 21 54
-7 35 10 49 32 26 14 -14 15 -19 3 -39 -13 -20 -13 -21 2 -8 33 26 13 70 -32
74 -12 1 -21 5 -21 10 0 5 6 7 13 4 10 -4 13 2 9 18 -4 25 15 40 63 49 16 3
33 10 39 16 8 8 6 9 -6 5 -15 -6 -16 -1 -13 32 2 21 2 29 -1 18 -9 -28 -35
-65 -46 -65 -5 0 -6 5 -2 11 3 6 0 16 -7 21 -10 7 -8 8 8 3 17 -5 20 -2 16 13
-3 13 7 28 33 50 37 31 42 62 9 62 -9 0 -13 5 -10 10 11 17 44 11 55 -11 9
-15 8 -24 -2 -36 -11 -14 -11 -15 2 -11 14 5 17 34 7 68 -2 8 -7 27 -11 42 -8
26 -9 27 -32 11 -13 -8 -24 -11 -24 -6 0 5 11 15 25 21 14 6 25 16 25 21 0 5
9 7 20 4 25 -7 26 9 0 32 -17 16 -18 19 -4 40 8 12 14 35 12 51 -4 66 1 84 25
84 18 0 22 5 22 33 0 17 -4 35 -10 39 -6 4 -2 8 8 8 10 0 28 10 40 21 l22 21
-22 -11 c-26 -13 -37 -1 -28 29 4 11 2 20 -4 20 -6 0 -11 -7 -11 -16 0 -13 -2
-14 -21 0 -12 8 -28 12 -35 9 -8 -3 -14 0 -14 6 0 6 4 11 9 11 4 0 6 12 3 26
-5 29 2 28 43 -5 11 -9 7 -2 -8 16 -16 17 -24 32 -19 34 16 7 2 79 -16 79 -15
0 -15 2 0 17 16 15 16 17 0 30 -16 12 -15 14 7 33 27 23 26 25 -9 34 -14 3
-20 3 -13 0 10 -4 10 -10 0 -25 -6 -10 -15 -19 -19 -19 -9 0 -3 59 11 95 10
28 10 28 -4 11 -8 -11 -15 -25 -15 -30 0 -6 -8 5 -19 24 -19 37 -18 60 4 60 8
0 17 4 20 10 3 6 -1 7 -9 4 -9 -3 -16 -1 -16 5 0 6 -9 20 -20 31 -11 11 -20
32 -20 48 0 21 -2 24 -10 12 -8 -13 -13 -13 -40 3 -17 10 -42 25 -56 32 -28
14 -17 29 13 19 17 -6 17 -6 1 7 -15 12 -15 16 -3 33 13 17 14 16 24 -15 8
-31 9 -31 10 -8 1 14 -7 34 -18 43 -17 16 -19 16 -24 -4 -3 -11 -13 -20 -22
-20 -14 0 -15 3 -5 15 10 13 9 15 -9 15 -11 0 -21 5 -21 10 0 6 -7 10 -17 10
-9 0 -14 3 -10 6 3 3 -3 14 -13 24 -9 9 -19 23 -21 29 -3 7 -12 13 -22 15 -9
1 -23 8 -30 16 -10 12 -9 12 6 1 9 -8 17 -9 17 -3 0 18 -46 40 -73 35 -18 -4
-41 4 -77 28 -43 28 -51 37 -47 57 4 22 3 22 -27 -7 -18 -17 -35 -28 -39 -24
-4 3 -32 8 -62 9 -34 2 -61 9 -71 19 -9 9 -22 14 -29 11 -7 -2 -21 2 -32 9
-26 20 -46 19 -41 -2 4 -14 -2 -18 -23 -20 -16 -1 -31 3 -35 9 -5 7 0 9 14 6
13 -4 20 -2 16 4 -3 5 -23 7 -44 3 -23 -4 -41 -2 -45 4 -10 16 -41 13 -56 -6z
m76 -51 c-3 -3 -11 0 -18 7 -9 10 -8 11 6 5 10 -3 15 -9 12 -12z m-325 -127
c-7 -9 -15 -13 -17 -11 -7 7 7 26 19 26 6 0 6 -6 -2 -15z m915 5 c3 -5 1 -10
-4 -10 -6 0 -11 5 -11 10 0 6 2 10 4 10 3 0 8 -4 11 -10z m-1160 -278 c-3 -3
-11 0 -18 7 -9 10 -8 11 6 5 10 -3 15 -9 12 -12z m-45 -67 c0 -8 -4 -15 -10
-15 -5 0 -10 7 -10 15 0 8 5 15 10 15 6 0 10 -7 10 -15z m1595 -375 c3 -5 1
-10 -4 -10 -6 0 -11 5 -11 10 0 6 2 10 4 10 3 0 8 -4 11 -10z m-55 -320 c0
-11 -4 -20 -9 -20 -5 0 -7 9 -4 20 3 11 7 20 9 20 2 0 4 -9 4 -20z m-1562 -25
c-3 -3 -9 2 -12 12 -6 14 -5 15 5 6 7 -7 10 -15 7 -18z m7 -55 c3 -5 1 -10 -4
-10 -6 0 -11 5 -11 10 0 6 2 10 4 10 3 0 8 -4 11 -10z m1555 0 c0 -5 -7 -10
-16 -10 -8 0 -12 5 -9 10 3 6 10 10 16 10 5 0 9 -4 9 -10z m-1504 -108 c-22
-5 -30 3 -21 18 5 8 11 7 22 -2 15 -12 14 -13 -1 -16z m1368 -131 c4 -5 -3 -7
-14 -4 -23 6 -26 13 -6 13 8 0 17 -4 20 -9z m-54 -31 c0 -5 -2 -10 -4 -10 -3
0 -8 5 -11 10 -3 6 -1 10 4 10 6 0 11 -4 11 -10z m24 -55 c3 -8 1 -15 -4 -15
-6 0 -10 7 -10 15 0 8 2 15 4 15 2 0 6 -7 10 -15z m-27 -27 c-3 -8 -6 -5 -6 6
-1 11 2 17 5 13 3 -3 4 -12 1 -19z m14 -47 c7 11 9 11 9 1 0 -20 -19 -52 -31
-52 -6 0 -7 6 -2 13 4 6 7 21 6 32 -2 12 0 14 3 6 5 -11 8 -11 15 0z m-87 -16
c-7 -16 -24 -21 -24 -6 0 8 7 13 27 20 1 1 0 -6 -3 -14z m26 -47 c0 -10 -9 -9
-35 2 -17 8 -16 8 8 7 15 -1 27 -5 27 -9z m-830 -73 c0 -8 -2 -15 -4 -15 -2 0
-6 7 -10 15 -3 8 -1 15 4 15 6 0 10 -7 10 -15z m-275 -2249 c4 -17 -1 -65 -10
-106 -29 -133 -29 -145 -5 -214 21 -59 22 -69 10 -106 -12 -36 -100 -154 -100
-133 0 4 7 43 15 86 8 43 15 115 15 158 0 92 16 253 31 322 9 39 14 46 25 36
7 -6 16 -25 19 -43z m905 -7841 c0 -27 -9 -32 -28 -13 -18 18 -14 38 8 38 15
0 20 -7 20 -25z m54 -157 c10 -38 6 -45 -9 -18 -17 29 -18 40 -6 40 5 0 11
-10 15 -22z"/>
<path d="M3666 12454 c-10 -27 -7 -56 7 -51 6 2 12 18 12 35 1 34 -9 42 -19
16z"/>
<path d="M3440 11989 c0 -5 5 -7 10 -4 6 3 10 8 10 11 0 2 -4 4 -10 4 -5 0
-10 -5 -10 -11z"/>
<path d="M5214 11696 c4 -10 1 -26 -6 -35 -11 -14 -10 -14 6 0 15 14 16 20 6
35 -11 18 -11 18 -6 0z"/>
<path d="M5150 11609 c0 -5 5 -7 10 -4 6 3 10 8 10 11 0 2 -4 4 -10 4 -5 0
-10 -5 -10 -11z"/>
<path d="M5002 11120 c0 -14 2 -19 5 -12 2 6 2 18 0 25 -3 6 -5 1 -5 -13z"/>
<path d="M4970 10960 c-8 -5 -11 -10 -6 -10 5 0 2 -7 -5 -17 -13 -15 -12 -15
9 -4 12 6 22 18 22 26 0 18 0 18 -20 5z"/>
<path d="M3935 10860 c-4 -7 -20 -10 -36 -8 -23 4 -26 2 -18 -9 7 -7 17 -13
23 -13 18 0 52 27 44 35 -3 3 -9 1 -13 -5z"/>
</g>
</svg>
