<?xml version="1.0" standalone="no"?>
<!DOCTYPE svg PUBLIC "-//W3C//DTD SVG 20010904//EN"
 "http://www.w3.org/TR/2001/REC-SVG-20010904/DTD/svg10.dtd">
<svg version="1.0" xmlns="http://www.w3.org/2000/svg"
 width="988.000000pt" height="1280.000000pt" viewBox="0 0 988.000000 1280.000000"
 preserveAspectRatio="xMidYMid meet">
<metadata>
Created by potrace 1.15, written by Peter Selinger 2001-2017
</metadata>
<g transform="translate(0.000000,1280.000000) scale(0.100000,-0.100000)"
fill="#000000" stroke="none">
<path d="M5035 12377 c-53 -18 -105 -45 -105 -56 0 -4 -25 -11 -56 -14 -113
-12 -210 -85 -392 -294 -69 -80 -75 -83 -227 -105 -66 -9 -80 -14 -53 -16 20
-2 59 1 87 6 28 5 48 5 45 1 -3 -5 1 -9 8 -9 19 0 -37 -37 -117 -76 -38 -19
-61 -34 -52 -34 10 0 28 5 39 11 30 16 17 -2 -69 -98 -42 -46 -92 -90 -116
-102 -23 -12 -35 -21 -26 -21 19 0 90 46 102 66 4 8 13 14 19 14 22 0 -57 -73
-102 -93 -31 -15 -40 -22 -27 -25 10 -2 39 9 65 24 26 16 52 29 57 29 6 0 9 8
9 18 -1 9 2 14 7 12 4 -3 22 15 39 39 16 25 35 48 41 52 21 13 -89 -141 -126
-176 -33 -32 -41 -35 -95 -35 -51 0 -57 -2 -49 -16 11 -21 31 -29 72 -29 30
-1 31 -1 13 -15 -11 -8 -29 -15 -40 -16 -18 -1 -18 -2 4 -9 l25 -8 -25 -2
c-18 -1 -21 -3 -10 -8 20 -9 19 -32 -3 -65 -25 -38 -21 -44 9 -16 26 24 26 24
15 2 -10 -20 -9 -23 7 -23 11 0 31 9 45 20 30 24 34 24 53 5 8 -8 21 -12 29
-9 19 8 19 5 0 -39 -9 -23 -29 -44 -55 -58 -33 -19 -38 -25 -27 -37 10 -13 7
-14 -22 -10 -31 4 -32 4 -16 -9 11 -7 24 -13 29 -13 6 0 4 -4 -4 -10 -12 -8
-12 -10 3 -16 27 -10 84 2 117 26 17 12 30 17 30 12 0 -12 -40 -47 -65 -57
-12 -4 -15 -9 -8 -12 7 -2 22 1 33 7 41 22 31 2 -12 -24 l-43 -26 37 4 c21 2
44 9 53 16 13 11 15 9 15 -13 0 -26 -36 -60 -75 -70 -18 -4 -18 -5 2 -6 16 -1
21 -5 16 -17 -4 -11 -15 -15 -34 -12 -37 6 -37 -7 -1 -26 24 -13 25 -15 9 -22
-14 -5 -16 -9 -6 -15 11 -6 8 -15 -10 -41 -23 -31 -23 -32 -2 -14 12 11 33 20
46 21 26 1 33 -9 15 -20 -36 -22 14 -22 106 0 17 4 23 -1 28 -20 4 -14 11 -23
16 -20 11 7 5 -26 -10 -54 -6 -12 -8 -21 -4 -21 3 0 1 -7 -6 -15 -17 -20 -1
-19 22 2 16 14 18 15 18 0 0 -9 -4 -19 -10 -22 -5 -3 -10 -15 -10 -25 0 -17 2
-17 28 -4 15 7 39 25 52 40 l25 26 6 -24 6 -23 11 25 c12 28 13 26 16 -50 2
-30 4 -66 5 -80 l2 -25 14 25 14 25 1 -37 c0 -21 5 -38 11 -38 8 0 9 -13 5
-42 -6 -36 -5 -40 9 -28 8 7 15 16 15 21 0 11 58 97 71 105 6 3 7 -18 3 -60
-7 -72 4 -87 30 -38 l15 27 1 -50 1 -50 15 35 c15 33 16 34 30 16 8 -11 14
-24 14 -29 0 -4 5 -5 10 -2 6 3 10 1 10 -4 0 -21 19 -11 23 12 4 18 5 17 6 -6
2 -41 -26 -130 -52 -168 -16 -23 -37 -36 -77 -49 -76 -23 -94 -34 -166 -101
-35 -33 -68 -59 -73 -59 -5 0 -47 -37 -94 -82 -98 -96 -131 -154 -148 -259
-12 -69 -15 -74 -68 -123 -153 -141 -235 -225 -254 -261 -31 -58 -28 -165 7
-270 45 -133 84 -186 213 -288 65 -50 65 -51 58 -91 -19 -120 -24 -196 -25
-344 0 -226 0 -225 -238 -647 -173 -309 -336 -582 -382 -642 -36 -48 -37 -48
-91 -46 -173 5 -293 14 -303 21 -50 40 -225 55 -293 27 l-36 -15 22 -24 c17
-18 36 -24 92 -29 48 -4 77 -12 95 -26 38 -30 12 -36 -87 -21 -50 7 -85 8 -91
2 -16 -16 31 -79 75 -101 63 -31 98 -34 155 -17 55 16 69 8 26 -14 -34 -19
-49 -47 -33 -66 18 -21 48 -17 111 16 47 25 61 28 83 20 14 -6 37 -10 51 -10
13 0 24 -4 24 -8 0 -5 -18 -33 -41 -63 -56 -74 -73 -109 -61 -121 20 -20 61 3
124 70 67 73 74 76 193 93 87 12 135 42 163 102 31 66 106 146 328 351 181
166 246 233 336 346 l28 35 -36 -100 c-20 -55 -64 -185 -99 -290 -85 -257
-119 -342 -247 -610 -132 -275 -174 -369 -221 -496 -104 -278 -189 -696 -204
-1001 l-6 -137 32 -28 c17 -15 73 -53 123 -84 l92 -56 -3 -55 c-3 -69 6 -79
127 -138 48 -23 116 -63 151 -88 86 -61 272 -122 371 -122 49 0 56 -17 64
-152 15 -270 70 -401 216 -519 35 -28 88 -63 119 -79 31 -15 77 -43 102 -62
40 -28 45 -36 38 -56 -5 -12 -5 -30 -2 -40 8 -22 65 -106 74 -110 24 -10 135
-90 167 -120 l37 -35 2 -96 c1 -53 4 -126 8 -163 5 -61 3 -70 -21 -105 -23
-34 -25 -45 -21 -103 2 -36 9 -74 15 -85 34 -65 57 -185 53 -285 -2 -68 -1
-92 5 -102 9 -14 13 -84 12 -168 -1 -30 -1 -68 0 -85 8 -120 9 -268 1 -310 -5
-27 -15 -131 -23 -230 -12 -151 -12 -185 -1 -215 8 -19 21 -75 30 -125 9 -49
27 -125 41 -168 17 -49 27 -105 28 -150 2 -67 0 -74 -26 -99 -15 -14 -28 -31
-28 -37 0 -6 -5 -11 -10 -11 -16 0 -97 -89 -124 -135 -43 -72 -49 -114 -27
-183 26 -81 40 -100 80 -113 44 -15 136 -4 176 21 18 11 49 20 68 20 45 0 144
36 155 57 6 10 26 16 58 18 27 1 65 10 84 20 50 25 110 85 110 111 0 28 20 84
30 84 20 0 32 84 40 268 9 210 16 245 75 362 35 70 31 67 58 43 22 -21 168
-106 172 -101 1 2 18 25 38 52 55 73 57 105 11 174 -20 31 -74 96 -118 143
-45 47 -93 104 -107 126 -47 71 -92 97 -172 101 l-70 4 5 102 c5 99 34 216 99
391 18 49 32 115 44 207 7 52 21 70 32 41 13 -34 76 -101 124 -132 26 -17 72
-58 102 -91 31 -33 60 -60 64 -60 14 0 51 -45 66 -81 8 -20 31 -49 50 -65 20
-16 40 -41 46 -56 6 -15 29 -41 52 -58 23 -17 50 -43 60 -59 10 -16 27 -32 39
-36 12 -4 29 -14 38 -22 25 -23 218 -133 311 -178 l82 -39 -7 -46 c-4 -25 -12
-61 -19 -80 -7 -19 -18 -66 -25 -105 -21 -119 6 -173 113 -230 70 -37 117 -34
158 10 19 19 37 35 42 35 5 0 29 14 53 31 30 20 43 36 40 46 -4 9 10 30 34 54
22 22 40 47 41 57 5 77 3 112 -9 144 -8 21 -12 43 -9 50 6 17 -26 105 -129
365 -47 116 -87 233 -91 260 -8 74 -2 77 193 77 131 0 165 3 169 15 3 7 8 53
12 102 9 128 0 143 -90 164 -40 9 -112 21 -162 26 -49 5 -124 15 -165 21 -41
6 -114 12 -161 12 -80 1 -90 -1 -157 -37 -39 -20 -78 -37 -85 -37 -8 0 -31 19
-52 43 -153 174 -249 315 -480 697 -81 135 -181 294 -223 354 -124 179 -164
318 -177 609 l-7 157 43 40 c45 40 131 80 174 80 15 0 33 -12 49 -33 16 -21
41 -38 65 -45 61 -19 195 -14 350 13 172 30 271 33 271 9 0 -13 6 -15 28 -9
42 10 173 85 179 103 4 8 -1 72 -10 141 -10 69 -31 257 -47 416 -101 973 -197
1444 -365 1790 -107 221 -201 342 -505 651 -207 210 -294 318 -280 345 6 10 6
39 0 70 -14 81 -30 171 -35 196 l-5 23 34 -24 c66 -45 92 -50 159 -37 34 7 76
15 94 18 48 8 60 27 40 66 -15 28 -29 120 -42 273 -2 23 -13 59 -24 80 -12 21
-21 51 -21 65 0 14 -10 39 -21 54 -19 23 -26 26 -58 20 -20 -4 -51 -15 -70
-26 -18 -11 -36 -18 -38 -15 -8 8 62 149 91 183 17 20 26 42 25 60 -1 18 11
47 34 82 25 35 37 64 37 87 0 18 10 48 24 68 13 19 26 58 30 87 4 29 14 66 23
82 8 17 26 68 39 114 14 46 38 104 54 130 49 77 100 267 100 372 0 54 4 64 43
117 68 92 130 140 267 206 364 175 481 236 650 338 102 62 257 148 345 192
238 120 322 178 394 273 98 130 124 243 69 302 -26 28 -291 159 -413 205 -107
40 -381 125 -480 148 -44 11 -172 35 -285 55 -369 64 -531 107 -612 163 -24
17 -87 53 -140 81 -53 29 -112 64 -132 79 -19 15 -86 66 -149 114 -106 81
-217 141 -300 162 -32 8 -47 -15 -27 -39 17 -21 3 -19 -28 4 -15 10 -70 33
-122 51 -110 38 -246 50 -315 27z m-36 -71 c-2 -2 -15 -9 -29 -15 -24 -11 -24
-11 -6 3 16 13 49 24 35 12z m659 -135 c85 -63 129 -116 112 -136 -18 -22 -34
-18 -52 13 -10 16 -47 61 -84 100 -36 40 -61 72 -55 72 6 0 42 -22 79 -49z
m617 -655 c119 -31 463 -179 708 -303 l49 -24 -159 -81 c-87 -45 -180 -92
-206 -105 -118 -58 -434 -173 -478 -173 -38 0 -105 61 -163 149 -42 64 -90
151 -83 151 2 0 19 -21 37 -47 43 -63 138 -161 172 -179 39 -20 48 -17 13 5
-16 10 -43 33 -60 51 l-30 32 47 -33 c26 -18 50 -30 54 -27 3 4 -7 13 -23 21
-32 17 -82 67 -66 67 6 0 16 -6 22 -14 31 -37 177 -80 156 -46 -3 5 3 13 12
19 16 9 16 10 -4 11 -25 0 -31 15 -10 24 6 3 -5 3 -25 0 -47 -8 -48 -2 -3 25
35 21 49 46 18 34 -12 -5 -14 -3 -8 7 5 9 0 7 -16 -3 -31 -22 -112 -23 -133
-1 -9 8 -21 24 -26 35 -9 15 -8 17 6 12 12 -4 15 -3 10 5 -4 7 -13 12 -20 12
-8 0 -19 6 -25 13 -9 11 -1 13 42 9 40 -3 56 0 66 12 12 14 9 16 -27 16 -46 0
-76 24 -41 33 11 3 18 10 15 15 -3 6 1 12 9 16 24 9 17 26 -10 26 -30 0 -33
16 -4 23 27 7 15 27 -17 27 -14 0 -38 7 -54 15 -31 16 -42 32 -15 22 28 -11
24 11 -4 23 -42 17 -65 44 -49 57 20 16 209 74 268 82 3 0 28 -5 55 -13z
m-2161 -160 c-6 -15 -24 -23 -24 -11 0 8 24 34 28 30 1 -1 0 -10 -4 -19z
m1715 -111 c6 -63 14 -122 18 -131 4 -11 2 -15 -4 -11 -14 9 -40 123 -49 212
-5 60 -4 68 9 57 9 -8 18 -50 26 -127z m-1592 -177 c-3 -8 -6 -5 -6 6 -1 11 2
17 5 13 3 -3 4 -12 1 -19z m1597 -197 c14 -73 31 -141 36 -151 9 -17 4 -30
-12 -30 -4 0 -8 8 -8 19 0 10 -13 65 -30 122 -18 62 -30 126 -29 159 0 74 10
48 43 -119z m-1572 -13 c-7 -7 -12 -8 -12 -2 0 14 12 26 19 19 2 -3 -1 -11 -7
-17z m1632 -126 c4 -13 3 -22 -3 -22 -10 0 -31 62 -31 90 1 15 21 -26 34 -68z
m-54 -43 c0 -6 -4 -7 -10 -4 -5 3 -10 11 -10 16 0 6 5 7 10 4 6 -3 10 -11 10
-16z m-54 -24 c10 -8 14 -15 7 -15 -6 0 -18 -3 -27 -6 -12 -4 -16 0 -16 15 0
25 9 26 36 6z"/>
<path d="M5966 11425 c10 -8 23 -15 28 -15 6 0 1 7 -10 15 -10 8 -23 15 -28
15 -6 0 -1 -7 10 -15z"/>
<path d="M4285 11873 c-16 -9 -55 -27 -85 -40 -44 -19 -48 -23 -20 -17 35 6
150 60 150 69 0 9 -14 5 -45 -12z"/>
<path d="M4089 11563 c-13 -16 -12 -17 4 -4 16 13 21 21 13 21 -2 0 -10 -8
-17 -17z"/>
<path d="M3960 11246 c0 -2 7 -7 16 -10 8 -3 12 -2 9 4 -6 10 -25 14 -25 6z"/>
</g>
</svg>
