<?xml version="1.0" standalone="no"?>
<!DOCTYPE svg PUBLIC "-//W3C//DTD SVG 20010904//EN"
 "http://www.w3.org/TR/2001/REC-SVG-20010904/DTD/svg10.dtd">
<svg version="1.0" xmlns="http://www.w3.org/2000/svg"
 width="989.000000pt" height="1280.000000pt" viewBox="0 0 989.000000 1280.000000"
 preserveAspectRatio="xMidYMid meet">
<metadata>
Created by potrace 1.15, written by Peter Selinger 2001-2017
</metadata>
<g transform="translate(0.000000,1280.000000) scale(0.100000,-0.100000)"
fill="#000000" stroke="none">
<path d="M4933 12605 c-78 -14 -150 -50 -180 -89 -17 -23 -157 -76 -202 -76
-10 0 -21 -3 -25 -7 -4 -4 -24 -8 -45 -8 -42 -1 -121 -32 -121 -47 0 -5 -4 -7
-9 -4 -11 7 -89 -76 -102 -112 -6 -15 -15 -40 -19 -57 -4 -16 -10 -41 -14 -55
-6 -19 -5 -21 3 -10 8 11 10 0 10 -45 -1 -52 -3 -55 -9 -25 l-7 35 -2 -37 c0
-20 4 -38 9 -40 8 -2 7 -20 0 -56 -7 -29 -15 -50 -20 -47 -15 9 -40 98 -40
140 0 22 6 65 14 95 17 65 14 78 -5 23 -8 -21 -14 -79 -14 -130 0 -77 3 -96
21 -120 24 -32 23 -46 -7 -128 -26 -72 -47 -324 -27 -336 6 -4 8 -17 5 -30 -4
-16 3 -38 23 -71 30 -49 35 -78 19 -133 -6 -22 -7 -12 -4 34 2 41 0 59 -6 50
-13 -21 -11 -115 4 -179 8 -32 31 -81 54 -115 39 -58 172 -195 190 -195 16 -1
74 -61 74 -78 0 -9 -2 -37 -4 -61 -3 -26 -1 -38 4 -30 5 8 9 24 9 37 0 12 5
22 11 22 8 0 10 -16 6 -52 -4 -36 -3 -48 3 -38 5 8 10 40 10 70 1 56 16 90 41
90 11 0 11 2 -1 10 -12 8 -10 10 8 10 13 0 35 -13 50 -29 100 -108 137 -143
172 -162 37 -21 39 -24 46 -88 12 -110 8 -188 -11 -217 -18 -27 -60 -49 -139
-70 -41 -11 -51 -11 -60 0 -12 15 -47 24 -120 30 -42 4 -52 1 -75 -22 -24 -24
-31 -26 -113 -23 -218 7 -370 -97 -609 -416 -55 -73 -129 -167 -165 -210 -76
-89 -381 -408 -591 -617 -152 -152 -203 -229 -203 -307 0 -37 31 -136 70 -224
12 -27 50 -117 85 -200 34 -82 87 -202 117 -265 72 -150 416 -812 451 -868 16
-24 49 -57 74 -75 57 -39 211 -166 237 -195 25 -29 17 -78 -41 -246 -93 -271
-187 -434 -356 -616 -59 -63 -107 -118 -107 -123 0 -21 43 -88 66 -104 15 -10
61 -53 103 -96 95 -97 120 -106 185 -66 90 56 84 78 81 -328 -3 -387 -1 -362
-86 -1075 -85 -711 -126 -942 -225 -1270 -77 -253 -135 -411 -210 -566 -165
-346 -281 -497 -584 -765 -69 -60 -156 -139 -194 -175 l-69 -65 12 -51 c12
-47 25 -63 175 -211 89 -88 171 -173 181 -188 27 -42 24 -119 -7 -197 -15 -36
-29 -86 -33 -113 -7 -42 -4 -52 21 -88 33 -48 106 -88 209 -115 115 -31 326
-25 548 14 220 40 296 41 372 8 54 -24 157 -97 185 -131 8 -9 41 -30 74 -47
l61 -31 135 6 c74 4 243 16 375 27 148 13 328 21 470 22 223 0 278 -3 680 -39
131 -12 282 -17 485 -16 280 1 305 2 495 32 110 18 265 50 345 71 132 36 146
38 155 23 26 -43 79 -92 106 -98 34 -8 78 16 86 45 4 15 12 17 39 13 40 -7 64
9 64 43 0 19 5 24 25 24 32 0 48 30 35 65 -13 33 -12 35 1 35 6 0 29 15 49 33
21 17 56 44 77 58 44 30 72 80 106 195 39 134 98 192 334 330 250 147 334 217
310 260 -10 18 -151 178 -315 358 -75 82 -82 93 -82 131 0 93 -119 385 -425
1046 -283 608 -371 808 -607 1384 -371 903 -417 1023 -449 1162 -16 73 -45
177 -63 233 -19 55 -30 102 -26 105 4 3 49 -15 99 -40 98 -49 120 -52 245 -36
54 7 74 15 97 37 16 15 29 24 29 19 0 -12 -66 -92 -129 -156 -61 -61 -91 -96
-91 -104 0 -12 39 -3 89 20 61 29 180 130 211 179 11 19 39 83 61 142 36 97
40 116 35 169 -5 60 -70 343 -119 525 -26 94 -119 702 -157 1023 -26 218 -79
464 -141 652 -78 235 -90 293 -185 895 -8 52 -19 210 -24 350 -4 140 -14 298
-21 350 -12 94 -12 95 14 147 15 28 31 54 37 58 5 3 14 24 20 46 9 33 8 52 -5
97 -28 95 -35 108 -75 147 -34 33 -37 41 -33 75 5 38 -20 134 -37 145 -5 3 -3
-13 6 -37 17 -49 11 -111 -11 -106 -7 2 -31 25 -54 53 -33 40 -41 58 -41 90 0
33 6 46 38 76 20 20 46 47 57 60 l20 24 -28 -24 c-31 -28 -35 -21 -8 18 14 19
21 52 26 116 10 137 -2 196 -90 420 -9 22 101 -88 135 -136 12 -16 24 -28 26
-26 6 5 -29 67 -65 117 l-25 35 28 -25 c15 -14 39 -44 53 -67 31 -53 38 -55
18 -5 -12 31 -13 34 0 18 8 -10 22 -38 32 -62 10 -24 23 -46 30 -48 16 -7 11
11 -29 89 -44 87 -61 142 -45 149 7 2 5 5 -4 5 -9 1 -20 8 -23 17 -9 23 -8 24
17 24 12 0 40 12 62 26 22 14 31 22 20 18 -11 -3 -38 -13 -60 -21 -36 -13 -40
-13 -52 3 -18 25 -16 37 5 29 9 -3 31 -8 47 -11 30 -4 30 -4 -2 6 -44 14 -42
24 3 15 26 -4 34 -3 29 5 -4 7 -1 16 6 21 10 6 8 9 -8 9 -31 0 -93 31 -86 43
3 5 -1 13 -8 18 -10 6 -10 9 -2 9 7 0 18 10 24 23 12 22 12 22 -10 3 -27 -24
-27 -13 1 33 20 34 21 35 2 19 -28 -25 -84 -21 -84 4 0 6 7 5 16 -3 13 -10 17
-10 24 2 6 8 6 15 0 17 -6 2 -7 29 -3 63 5 55 5 59 -13 52 -17 -6 -17 -5 -6
10 16 19 8 37 -15 37 -9 0 -44 18 -79 40 -35 22 -68 40 -73 40 -5 0 -22 7 -37
15 -16 8 -24 15 -18 15 5 0 19 6 29 14 18 13 17 14 -7 11 -15 -2 -32 -6 -37
-10 -6 -3 -33 -6 -59 -7 -40 0 -54 5 -78 29 -16 15 -25 25 -19 21 5 -5 23 -8
40 -7 l30 1 -35 10 c-19 5 -43 10 -52 11 -9 1 -15 3 -13 5 2 2 -8 14 -23 27
-36 31 -21 42 36 25 62 -18 117 -24 147 -16 38 10 30 25 -9 16 -18 -4 -51 -4
-72 0 -29 6 -32 8 -13 9 15 0 37 10 50 22 l24 20 -25 -12 c-14 -7 -25 -11 -25
-9 0 2 -17 -2 -37 -9 -27 -9 -42 -9 -58 -1 -11 6 -26 8 -32 4 -6 -4 -8 -3 -4
4 3 5 0 12 -6 15 -10 3 -10 8 2 23 11 15 11 16 0 7 -16 -15 -34 -17 -26 -4 3
4 -6 7 -20 5 -14 -1 -23 0 -20 3 3 3 -8 23 -25 44 -17 21 -27 44 -24 50 4 6
35 24 69 40 62 30 102 52 111 61 3 3 -12 5 -32 5 -47 1 -195 32 -207 43 -5 5
28 32 73 62 44 29 81 59 81 67 0 8 -17 -2 -40 -23 -22 -20 -50 -36 -62 -36
-40 0 -152 23 -188 38 -19 9 -38 15 -42 14 -15 -4 -186 86 -320 168 -107 66
-230 83 -385 55z m-488 -210 c-27 -13 -72 -46 -98 -73 -40 -41 -47 -53 -39
-68 13 -27 -4 -88 -24 -80 -7 3 -14 1 -14 -4 0 -6 7 -10 15 -10 13 0 13 -3 3
-20 -16 -25 -20 -25 -36 1 -14 22 -8 43 33 122 8 15 10 27 4 27 -6 0 -7 5 -4
10 4 6 10 8 15 5 12 -7 51 50 42 61 -4 5 -3 6 1 2 5 -3 33 7 64 23 30 16 62
29 72 29 9 -1 -6 -12 -34 -25z m1402 -81 c-3 -3 -12 -4 -19 -1 -8 3 -5 6 6 6
11 1 17 -2 13 -5z m91 -113 c6 -1 12 -6 12 -12 0 -8 -20 -9 -62 -4 -83 9 -102
27 -23 21 33 -2 66 -5 73 -5z m56 -10 c-9 -9 -34 -9 -34 -1 0 5 9 8 20 7 10
-1 17 -3 14 -6z m-1734 -96 c0 -8 -4 -17 -10 -20 -6 -4 -10 5 -10 20 0 15 4
24 10 20 6 -3 10 -12 10 -20z m2136 -443 c-4 -3 -14 2 -24 12 -16 18 -16 18 6
6 13 -6 21 -14 18 -18z m-10 -64 c4 -7 -9 1 -29 16 -20 16 -37 30 -37 33 0 7
58 -36 66 -49z m49 22 c22 -23 26 -33 17 -42 -9 -9 -12 -8 -12 5 0 9 -4 17 -9
17 -5 0 -16 11 -25 25 -23 34 -6 31 29 -5z m30 11 c-3 -6 -11 -8 -17 -5 -6 4
-5 9 3 15 16 10 23 4 14 -10z m-31 -140 c-2 -3 -12 3 -22 13 -16 17 -16 18 5
5 12 -7 20 -15 17 -18z m-122 -393 c12 -21 25 -38 30 -38 13 0 58 -96 74 -162
20 -79 13 -201 -14 -237 -18 -24 -45 -41 -40 -24 1 4 -5 19 -14 33 -10 16 -18
60 -22 125 -4 64 -19 148 -41 233 -19 72 -35 135 -35 139 0 13 42 -33 62 -69z
m149 -375 c-6 -21 -17 -47 -26 -58 -10 -15 -9 -4 5 37 11 32 21 79 22 105 l2
48 3 -47 c2 -26 -1 -64 -6 -85z m-1931 67 c0 -5 -5 -10 -11 -10 -5 0 -7 5 -4
10 3 6 8 10 11 10 2 0 4 -4 4 -10z m1046 -250 c26 -11 45 -23 42 -25 -3 -3
-29 6 -59 19 -65 30 -51 35 17 6z m781 -5 c0 -8 -4 -12 -9 -9 -4 3 -8 9 -8 15
0 5 4 9 8 9 5 0 9 -7 9 -15z m-800 -10 c61 -26 63 -29 49 -89 -16 -68 -24 -80
-41 -66 -21 17 -66 170 -50 170 3 0 22 -7 42 -15z m1033 -285 c6 -11 8 -20 6
-20 -3 0 -10 9 -16 20 -6 11 -8 20 -6 20 3 0 10 -9 16 -20z m-2319 -784 c40
-94 38 -113 -16 -172 -59 -63 -111 -169 -131 -264 -18 -89 -20 -250 -4 -311
41 -152 167 -277 333 -333 36 -12 13 -194 -37 -294 -13 -26 -55 -85 -92 -132
-84 -104 -261 -381 -310 -485 l-36 -75 -72 0 c-39 0 -96 -6 -126 -14 -29 -8
-59 -12 -66 -9 -20 7 -142 286 -195 443 -26 80 -73 244 -104 365 -70 274 -79
302 -121 372 -49 82 -46 97 33 168 37 33 124 117 194 186 186 185 423 404 509
471 41 32 86 69 100 81 61 53 94 77 103 74 5 -1 22 -33 38 -71z m1923 -848
c-16 -19 -16 -20 -1 -9 9 8 20 11 23 8 18 -18 86 -338 104 -487 27 -222 78
-401 219 -769 118 -306 214 -570 270 -743 50 -156 54 -223 16 -316 -14 -34
-30 -84 -35 -110 -16 -72 -24 -81 -50 -51 -30 35 -161 234 -198 300 -17 32
-63 126 -102 210 -81 174 -129 254 -211 350 -82 97 -113 146 -138 223 -13 38
-46 119 -73 179 -27 60 -55 134 -62 165 -8 32 -24 99 -36 150 -19 79 -22 112
-17 210 4 104 10 130 46 234 22 64 56 154 75 201 19 46 40 115 46 152 12 73
25 99 46 91 7 -3 14 -2 16 2 2 4 17 17 33 29 37 27 57 14 29 -19z m706 -2688
c-48 -42 -60 -47 -60 -27 0 13 92 78 100 70 2 -2 -16 -21 -40 -43z m38 -112
c-9 -14 -27 -24 -44 -26 -16 -1 -49 -7 -73 -13 -36 -8 -51 -7 -87 8 -24 10
-44 21 -44 25 0 16 22 16 103 1 84 -15 87 -15 119 5 42 26 43 26 26 0z"/>
<path d="M6370 10649 c0 -5 5 -7 10 -4 6 3 10 8 10 11 0 2 -4 4 -10 4 -5 0
-10 -5 -10 -11z"/>
<path d="M4205 12264 c-9 -14 -15 -27 -13 -30 2 -2 12 10 22 26 21 37 15 40
-9 4z"/>
<path d="M6046 12247 c3 -10 9 -15 12 -12 3 3 0 11 -7 18 -10 9 -11 8 -5 -6z"/>
<path d="M6251 11930 c-13 -11 -19 -20 -14 -20 6 0 18 9 28 20 23 25 17 25
-14 0z"/>
<path d="M6208 11853 c7 -3 16 -2 19 1 4 3 -2 6 -13 5 -11 0 -14 -3 -6 -6z"/>
<path d="M6140 11840 c-11 -8 -7 -9 15 -4 37 8 45 14 19 14 -10 0 -26 -5 -34
-10z"/>
<path d="M6490 11013 c0 -6 8 -17 18 -24 16 -13 16 -13 2 6 -8 11 -16 22 -17
24 -2 2 -3 0 -3 -6z"/>
<path d="M4424 10811 c11 -11 23 -21 28 -21 14 0 -1 19 -25 31 -22 12 -22 12
-3 -10z"/>
<path d="M4560 10761 c0 -5 5 -13 10 -16 6 -3 10 -2 10 4 0 5 -4 13 -10 16 -5
3 -10 2 -10 -4z"/>
</g>
</svg>
